%TF.GenerationSoftware,KiCad,Pcbnew,9.0.6*%
%TF.CreationDate,2026-03-12T20:15:24+02:00*%
%TF.ProjectId,Soldering station,536f6c64-6572-4696-9e67-207374617469,rev?*%
%TF.SameCoordinates,Original*%
%TF.FileFunction,Legend,Top*%
%TF.FilePolarity,Positive*%
%FSLAX46Y46*%
G04 Gerber Fmt 4.6, Leading zero omitted, Abs format (unit mm)*
G04 Created by KiCad (PCBNEW 9.0.6) date 2026-03-12 20:15:24*
%MOMM*%
%LPD*%
G01*
G04 APERTURE LIST*
%ADD10C,0.150000*%
%ADD11C,0.120000*%
%ADD12C,0.127000*%
%ADD13C,0.200000*%
%ADD14C,0.300000*%
%ADD15C,0.100000*%
%ADD16C,0.203200*%
G04 APERTURE END LIST*
D10*
X185001603Y-146659820D02*
X185001603Y-147374105D01*
X185001603Y-147374105D02*
X184953984Y-147516962D01*
X184953984Y-147516962D02*
X184858746Y-147612201D01*
X184858746Y-147612201D02*
X184715889Y-147659820D01*
X184715889Y-147659820D02*
X184620651Y-147659820D01*
X185430175Y-146755058D02*
X185477794Y-146707439D01*
X185477794Y-146707439D02*
X185573032Y-146659820D01*
X185573032Y-146659820D02*
X185811127Y-146659820D01*
X185811127Y-146659820D02*
X185906365Y-146707439D01*
X185906365Y-146707439D02*
X185953984Y-146755058D01*
X185953984Y-146755058D02*
X186001603Y-146850296D01*
X186001603Y-146850296D02*
X186001603Y-146945534D01*
X186001603Y-146945534D02*
X185953984Y-147088391D01*
X185953984Y-147088391D02*
X185382556Y-147659820D01*
X185382556Y-147659820D02*
X186001603Y-147659820D01*
X149033333Y-138324819D02*
X148700000Y-137848628D01*
X148461905Y-138324819D02*
X148461905Y-137324819D01*
X148461905Y-137324819D02*
X148842857Y-137324819D01*
X148842857Y-137324819D02*
X148938095Y-137372438D01*
X148938095Y-137372438D02*
X148985714Y-137420057D01*
X148985714Y-137420057D02*
X149033333Y-137515295D01*
X149033333Y-137515295D02*
X149033333Y-137658152D01*
X149033333Y-137658152D02*
X148985714Y-137753390D01*
X148985714Y-137753390D02*
X148938095Y-137801009D01*
X148938095Y-137801009D02*
X148842857Y-137848628D01*
X148842857Y-137848628D02*
X148461905Y-137848628D01*
X149985714Y-138324819D02*
X149414286Y-138324819D01*
X149700000Y-138324819D02*
X149700000Y-137324819D01*
X149700000Y-137324819D02*
X149604762Y-137467676D01*
X149604762Y-137467676D02*
X149509524Y-137562914D01*
X149509524Y-137562914D02*
X149414286Y-137610533D01*
X167971009Y-114823333D02*
X167971009Y-115156666D01*
X168494819Y-115156666D02*
X167494819Y-115156666D01*
X167494819Y-115156666D02*
X167494819Y-114680476D01*
X168494819Y-113775714D02*
X168494819Y-114347142D01*
X168494819Y-114061428D02*
X167494819Y-114061428D01*
X167494819Y-114061428D02*
X167637676Y-114156666D01*
X167637676Y-114156666D02*
X167732914Y-114251904D01*
X167732914Y-114251904D02*
X167780533Y-114347142D01*
X208207200Y-157583332D02*
X208254819Y-157440475D01*
X208254819Y-157440475D02*
X208254819Y-157202380D01*
X208254819Y-157202380D02*
X208207200Y-157107142D01*
X208207200Y-157107142D02*
X208159580Y-157059523D01*
X208159580Y-157059523D02*
X208064342Y-157011904D01*
X208064342Y-157011904D02*
X207969104Y-157011904D01*
X207969104Y-157011904D02*
X207873866Y-157059523D01*
X207873866Y-157059523D02*
X207826247Y-157107142D01*
X207826247Y-157107142D02*
X207778628Y-157202380D01*
X207778628Y-157202380D02*
X207731009Y-157392856D01*
X207731009Y-157392856D02*
X207683390Y-157488094D01*
X207683390Y-157488094D02*
X207635771Y-157535713D01*
X207635771Y-157535713D02*
X207540533Y-157583332D01*
X207540533Y-157583332D02*
X207445295Y-157583332D01*
X207445295Y-157583332D02*
X207350057Y-157535713D01*
X207350057Y-157535713D02*
X207302438Y-157488094D01*
X207302438Y-157488094D02*
X207254819Y-157392856D01*
X207254819Y-157392856D02*
X207254819Y-157154761D01*
X207254819Y-157154761D02*
X207302438Y-157011904D01*
X207254819Y-156678570D02*
X208254819Y-156440475D01*
X208254819Y-156440475D02*
X207540533Y-156249999D01*
X207540533Y-156249999D02*
X208254819Y-156059523D01*
X208254819Y-156059523D02*
X207254819Y-155821428D01*
X208254819Y-154916666D02*
X208254819Y-155488094D01*
X208254819Y-155202380D02*
X207254819Y-155202380D01*
X207254819Y-155202380D02*
X207397676Y-155297618D01*
X207397676Y-155297618D02*
X207492914Y-155392856D01*
X207492914Y-155392856D02*
X207540533Y-155488094D01*
X186569104Y-99334285D02*
X186569104Y-98858095D01*
X186854819Y-99429523D02*
X185854819Y-99096190D01*
X185854819Y-99096190D02*
X186854819Y-98762857D01*
X186854819Y-97905714D02*
X186854819Y-98477142D01*
X186854819Y-98191428D02*
X185854819Y-98191428D01*
X185854819Y-98191428D02*
X185997676Y-98286666D01*
X185997676Y-98286666D02*
X186092914Y-98381904D01*
X186092914Y-98381904D02*
X186140533Y-98477142D01*
X146305180Y-97358095D02*
X145495657Y-97358095D01*
X145495657Y-97358095D02*
X145400419Y-97405714D01*
X145400419Y-97405714D02*
X145352800Y-97453333D01*
X145352800Y-97453333D02*
X145305180Y-97548571D01*
X145305180Y-97548571D02*
X145305180Y-97739047D01*
X145305180Y-97739047D02*
X145352800Y-97834285D01*
X145352800Y-97834285D02*
X145400419Y-97881904D01*
X145400419Y-97881904D02*
X145495657Y-97929523D01*
X145495657Y-97929523D02*
X146305180Y-97929523D01*
X145352800Y-98358095D02*
X145305180Y-98500952D01*
X145305180Y-98500952D02*
X145305180Y-98739047D01*
X145305180Y-98739047D02*
X145352800Y-98834285D01*
X145352800Y-98834285D02*
X145400419Y-98881904D01*
X145400419Y-98881904D02*
X145495657Y-98929523D01*
X145495657Y-98929523D02*
X145590895Y-98929523D01*
X145590895Y-98929523D02*
X145686133Y-98881904D01*
X145686133Y-98881904D02*
X145733752Y-98834285D01*
X145733752Y-98834285D02*
X145781371Y-98739047D01*
X145781371Y-98739047D02*
X145828990Y-98548571D01*
X145828990Y-98548571D02*
X145876609Y-98453333D01*
X145876609Y-98453333D02*
X145924228Y-98405714D01*
X145924228Y-98405714D02*
X146019466Y-98358095D01*
X146019466Y-98358095D02*
X146114704Y-98358095D01*
X146114704Y-98358095D02*
X146209942Y-98405714D01*
X146209942Y-98405714D02*
X146257561Y-98453333D01*
X146257561Y-98453333D02*
X146305180Y-98548571D01*
X146305180Y-98548571D02*
X146305180Y-98786666D01*
X146305180Y-98786666D02*
X146257561Y-98929523D01*
X145828990Y-99691428D02*
X145781371Y-99834285D01*
X145781371Y-99834285D02*
X145733752Y-99881904D01*
X145733752Y-99881904D02*
X145638514Y-99929523D01*
X145638514Y-99929523D02*
X145495657Y-99929523D01*
X145495657Y-99929523D02*
X145400419Y-99881904D01*
X145400419Y-99881904D02*
X145352800Y-99834285D01*
X145352800Y-99834285D02*
X145305180Y-99739047D01*
X145305180Y-99739047D02*
X145305180Y-99358095D01*
X145305180Y-99358095D02*
X146305180Y-99358095D01*
X146305180Y-99358095D02*
X146305180Y-99691428D01*
X146305180Y-99691428D02*
X146257561Y-99786666D01*
X146257561Y-99786666D02*
X146209942Y-99834285D01*
X146209942Y-99834285D02*
X146114704Y-99881904D01*
X146114704Y-99881904D02*
X146019466Y-99881904D01*
X146019466Y-99881904D02*
X145924228Y-99834285D01*
X145924228Y-99834285D02*
X145876609Y-99786666D01*
X145876609Y-99786666D02*
X145828990Y-99691428D01*
X145828990Y-99691428D02*
X145828990Y-99358095D01*
X201333333Y-140324819D02*
X201000000Y-139848628D01*
X200761905Y-140324819D02*
X200761905Y-139324819D01*
X200761905Y-139324819D02*
X201142857Y-139324819D01*
X201142857Y-139324819D02*
X201238095Y-139372438D01*
X201238095Y-139372438D02*
X201285714Y-139420057D01*
X201285714Y-139420057D02*
X201333333Y-139515295D01*
X201333333Y-139515295D02*
X201333333Y-139658152D01*
X201333333Y-139658152D02*
X201285714Y-139753390D01*
X201285714Y-139753390D02*
X201238095Y-139801009D01*
X201238095Y-139801009D02*
X201142857Y-139848628D01*
X201142857Y-139848628D02*
X200761905Y-139848628D01*
X202190476Y-139324819D02*
X202000000Y-139324819D01*
X202000000Y-139324819D02*
X201904762Y-139372438D01*
X201904762Y-139372438D02*
X201857143Y-139420057D01*
X201857143Y-139420057D02*
X201761905Y-139562914D01*
X201761905Y-139562914D02*
X201714286Y-139753390D01*
X201714286Y-139753390D02*
X201714286Y-140134342D01*
X201714286Y-140134342D02*
X201761905Y-140229580D01*
X201761905Y-140229580D02*
X201809524Y-140277200D01*
X201809524Y-140277200D02*
X201904762Y-140324819D01*
X201904762Y-140324819D02*
X202095238Y-140324819D01*
X202095238Y-140324819D02*
X202190476Y-140277200D01*
X202190476Y-140277200D02*
X202238095Y-140229580D01*
X202238095Y-140229580D02*
X202285714Y-140134342D01*
X202285714Y-140134342D02*
X202285714Y-139896247D01*
X202285714Y-139896247D02*
X202238095Y-139801009D01*
X202238095Y-139801009D02*
X202190476Y-139753390D01*
X202190476Y-139753390D02*
X202095238Y-139705771D01*
X202095238Y-139705771D02*
X201904762Y-139705771D01*
X201904762Y-139705771D02*
X201809524Y-139753390D01*
X201809524Y-139753390D02*
X201761905Y-139801009D01*
X201761905Y-139801009D02*
X201714286Y-139896247D01*
X200200057Y-130095238D02*
X200152438Y-130190476D01*
X200152438Y-130190476D02*
X200057200Y-130285714D01*
X200057200Y-130285714D02*
X199914342Y-130428571D01*
X199914342Y-130428571D02*
X199866723Y-130523809D01*
X199866723Y-130523809D02*
X199866723Y-130619047D01*
X200104819Y-130571428D02*
X200057200Y-130666666D01*
X200057200Y-130666666D02*
X199961961Y-130761904D01*
X199961961Y-130761904D02*
X199771485Y-130809523D01*
X199771485Y-130809523D02*
X199438152Y-130809523D01*
X199438152Y-130809523D02*
X199247676Y-130761904D01*
X199247676Y-130761904D02*
X199152438Y-130666666D01*
X199152438Y-130666666D02*
X199104819Y-130571428D01*
X199104819Y-130571428D02*
X199104819Y-130380952D01*
X199104819Y-130380952D02*
X199152438Y-130285714D01*
X199152438Y-130285714D02*
X199247676Y-130190476D01*
X199247676Y-130190476D02*
X199438152Y-130142857D01*
X199438152Y-130142857D02*
X199771485Y-130142857D01*
X199771485Y-130142857D02*
X199961961Y-130190476D01*
X199961961Y-130190476D02*
X200057200Y-130285714D01*
X200057200Y-130285714D02*
X200104819Y-130380952D01*
X200104819Y-130380952D02*
X200104819Y-130571428D01*
X199104819Y-129809523D02*
X199104819Y-129190476D01*
X199104819Y-129190476D02*
X199485771Y-129523809D01*
X199485771Y-129523809D02*
X199485771Y-129380952D01*
X199485771Y-129380952D02*
X199533390Y-129285714D01*
X199533390Y-129285714D02*
X199581009Y-129238095D01*
X199581009Y-129238095D02*
X199676247Y-129190476D01*
X199676247Y-129190476D02*
X199914342Y-129190476D01*
X199914342Y-129190476D02*
X200009580Y-129238095D01*
X200009580Y-129238095D02*
X200057200Y-129285714D01*
X200057200Y-129285714D02*
X200104819Y-129380952D01*
X200104819Y-129380952D02*
X200104819Y-129666666D01*
X200104819Y-129666666D02*
X200057200Y-129761904D01*
X200057200Y-129761904D02*
X200009580Y-129809523D01*
X188520714Y-89119819D02*
X188520714Y-88119819D01*
X188520714Y-88119819D02*
X188758809Y-88119819D01*
X188758809Y-88119819D02*
X188901666Y-88167438D01*
X188901666Y-88167438D02*
X188996904Y-88262676D01*
X188996904Y-88262676D02*
X189044523Y-88357914D01*
X189044523Y-88357914D02*
X189092142Y-88548390D01*
X189092142Y-88548390D02*
X189092142Y-88691247D01*
X189092142Y-88691247D02*
X189044523Y-88881723D01*
X189044523Y-88881723D02*
X188996904Y-88976961D01*
X188996904Y-88976961D02*
X188901666Y-89072200D01*
X188901666Y-89072200D02*
X188758809Y-89119819D01*
X188758809Y-89119819D02*
X188520714Y-89119819D01*
X189473095Y-89072200D02*
X189615952Y-89119819D01*
X189615952Y-89119819D02*
X189854047Y-89119819D01*
X189854047Y-89119819D02*
X189949285Y-89072200D01*
X189949285Y-89072200D02*
X189996904Y-89024580D01*
X189996904Y-89024580D02*
X190044523Y-88929342D01*
X190044523Y-88929342D02*
X190044523Y-88834104D01*
X190044523Y-88834104D02*
X189996904Y-88738866D01*
X189996904Y-88738866D02*
X189949285Y-88691247D01*
X189949285Y-88691247D02*
X189854047Y-88643628D01*
X189854047Y-88643628D02*
X189663571Y-88596009D01*
X189663571Y-88596009D02*
X189568333Y-88548390D01*
X189568333Y-88548390D02*
X189520714Y-88500771D01*
X189520714Y-88500771D02*
X189473095Y-88405533D01*
X189473095Y-88405533D02*
X189473095Y-88310295D01*
X189473095Y-88310295D02*
X189520714Y-88215057D01*
X189520714Y-88215057D02*
X189568333Y-88167438D01*
X189568333Y-88167438D02*
X189663571Y-88119819D01*
X189663571Y-88119819D02*
X189901666Y-88119819D01*
X189901666Y-88119819D02*
X190044523Y-88167438D01*
X190996904Y-89119819D02*
X190425476Y-89119819D01*
X190711190Y-89119819D02*
X190711190Y-88119819D01*
X190711190Y-88119819D02*
X190615952Y-88262676D01*
X190615952Y-88262676D02*
X190520714Y-88357914D01*
X190520714Y-88357914D02*
X190425476Y-88405533D01*
X199494819Y-152743094D02*
X198494819Y-152743094D01*
X198494819Y-152743094D02*
X198494819Y-152504999D01*
X198494819Y-152504999D02*
X198542438Y-152362142D01*
X198542438Y-152362142D02*
X198637676Y-152266904D01*
X198637676Y-152266904D02*
X198732914Y-152219285D01*
X198732914Y-152219285D02*
X198923390Y-152171666D01*
X198923390Y-152171666D02*
X199066247Y-152171666D01*
X199066247Y-152171666D02*
X199256723Y-152219285D01*
X199256723Y-152219285D02*
X199351961Y-152266904D01*
X199351961Y-152266904D02*
X199447200Y-152362142D01*
X199447200Y-152362142D02*
X199494819Y-152504999D01*
X199494819Y-152504999D02*
X199494819Y-152743094D01*
X198590057Y-151790713D02*
X198542438Y-151743094D01*
X198542438Y-151743094D02*
X198494819Y-151647856D01*
X198494819Y-151647856D02*
X198494819Y-151409761D01*
X198494819Y-151409761D02*
X198542438Y-151314523D01*
X198542438Y-151314523D02*
X198590057Y-151266904D01*
X198590057Y-151266904D02*
X198685295Y-151219285D01*
X198685295Y-151219285D02*
X198780533Y-151219285D01*
X198780533Y-151219285D02*
X198923390Y-151266904D01*
X198923390Y-151266904D02*
X199494819Y-151838332D01*
X199494819Y-151838332D02*
X199494819Y-151219285D01*
X173283333Y-132109580D02*
X173235714Y-132157200D01*
X173235714Y-132157200D02*
X173092857Y-132204819D01*
X173092857Y-132204819D02*
X172997619Y-132204819D01*
X172997619Y-132204819D02*
X172854762Y-132157200D01*
X172854762Y-132157200D02*
X172759524Y-132061961D01*
X172759524Y-132061961D02*
X172711905Y-131966723D01*
X172711905Y-131966723D02*
X172664286Y-131776247D01*
X172664286Y-131776247D02*
X172664286Y-131633390D01*
X172664286Y-131633390D02*
X172711905Y-131442914D01*
X172711905Y-131442914D02*
X172759524Y-131347676D01*
X172759524Y-131347676D02*
X172854762Y-131252438D01*
X172854762Y-131252438D02*
X172997619Y-131204819D01*
X172997619Y-131204819D02*
X173092857Y-131204819D01*
X173092857Y-131204819D02*
X173235714Y-131252438D01*
X173235714Y-131252438D02*
X173283333Y-131300057D01*
X174235714Y-132204819D02*
X173664286Y-132204819D01*
X173950000Y-132204819D02*
X173950000Y-131204819D01*
X173950000Y-131204819D02*
X173854762Y-131347676D01*
X173854762Y-131347676D02*
X173759524Y-131442914D01*
X173759524Y-131442914D02*
X173664286Y-131490533D01*
X185753333Y-135584819D02*
X185420000Y-135108628D01*
X185181905Y-135584819D02*
X185181905Y-134584819D01*
X185181905Y-134584819D02*
X185562857Y-134584819D01*
X185562857Y-134584819D02*
X185658095Y-134632438D01*
X185658095Y-134632438D02*
X185705714Y-134680057D01*
X185705714Y-134680057D02*
X185753333Y-134775295D01*
X185753333Y-134775295D02*
X185753333Y-134918152D01*
X185753333Y-134918152D02*
X185705714Y-135013390D01*
X185705714Y-135013390D02*
X185658095Y-135061009D01*
X185658095Y-135061009D02*
X185562857Y-135108628D01*
X185562857Y-135108628D02*
X185181905Y-135108628D01*
X186610476Y-134918152D02*
X186610476Y-135584819D01*
X186372381Y-134537200D02*
X186134286Y-135251485D01*
X186134286Y-135251485D02*
X186753333Y-135251485D01*
X215833333Y-136084819D02*
X215500000Y-135608628D01*
X215261905Y-136084819D02*
X215261905Y-135084819D01*
X215261905Y-135084819D02*
X215642857Y-135084819D01*
X215642857Y-135084819D02*
X215738095Y-135132438D01*
X215738095Y-135132438D02*
X215785714Y-135180057D01*
X215785714Y-135180057D02*
X215833333Y-135275295D01*
X215833333Y-135275295D02*
X215833333Y-135418152D01*
X215833333Y-135418152D02*
X215785714Y-135513390D01*
X215785714Y-135513390D02*
X215738095Y-135561009D01*
X215738095Y-135561009D02*
X215642857Y-135608628D01*
X215642857Y-135608628D02*
X215261905Y-135608628D01*
X216738095Y-135084819D02*
X216261905Y-135084819D01*
X216261905Y-135084819D02*
X216214286Y-135561009D01*
X216214286Y-135561009D02*
X216261905Y-135513390D01*
X216261905Y-135513390D02*
X216357143Y-135465771D01*
X216357143Y-135465771D02*
X216595238Y-135465771D01*
X216595238Y-135465771D02*
X216690476Y-135513390D01*
X216690476Y-135513390D02*
X216738095Y-135561009D01*
X216738095Y-135561009D02*
X216785714Y-135656247D01*
X216785714Y-135656247D02*
X216785714Y-135894342D01*
X216785714Y-135894342D02*
X216738095Y-135989580D01*
X216738095Y-135989580D02*
X216690476Y-136037200D01*
X216690476Y-136037200D02*
X216595238Y-136084819D01*
X216595238Y-136084819D02*
X216357143Y-136084819D01*
X216357143Y-136084819D02*
X216261905Y-136037200D01*
X216261905Y-136037200D02*
X216214286Y-135989580D01*
X162630682Y-132109580D02*
X162583063Y-132157200D01*
X162583063Y-132157200D02*
X162440206Y-132204819D01*
X162440206Y-132204819D02*
X162344968Y-132204819D01*
X162344968Y-132204819D02*
X162202111Y-132157200D01*
X162202111Y-132157200D02*
X162106873Y-132061961D01*
X162106873Y-132061961D02*
X162059254Y-131966723D01*
X162059254Y-131966723D02*
X162011635Y-131776247D01*
X162011635Y-131776247D02*
X162011635Y-131633390D01*
X162011635Y-131633390D02*
X162059254Y-131442914D01*
X162059254Y-131442914D02*
X162106873Y-131347676D01*
X162106873Y-131347676D02*
X162202111Y-131252438D01*
X162202111Y-131252438D02*
X162344968Y-131204819D01*
X162344968Y-131204819D02*
X162440206Y-131204819D01*
X162440206Y-131204819D02*
X162583063Y-131252438D01*
X162583063Y-131252438D02*
X162630682Y-131300057D01*
X162964016Y-131204819D02*
X163583063Y-131204819D01*
X163583063Y-131204819D02*
X163249730Y-131585771D01*
X163249730Y-131585771D02*
X163392587Y-131585771D01*
X163392587Y-131585771D02*
X163487825Y-131633390D01*
X163487825Y-131633390D02*
X163535444Y-131681009D01*
X163535444Y-131681009D02*
X163583063Y-131776247D01*
X163583063Y-131776247D02*
X163583063Y-132014342D01*
X163583063Y-132014342D02*
X163535444Y-132109580D01*
X163535444Y-132109580D02*
X163487825Y-132157200D01*
X163487825Y-132157200D02*
X163392587Y-132204819D01*
X163392587Y-132204819D02*
X163106873Y-132204819D01*
X163106873Y-132204819D02*
X163011635Y-132157200D01*
X163011635Y-132157200D02*
X162964016Y-132109580D01*
X225666666Y-159504819D02*
X225333333Y-159028628D01*
X225095238Y-159504819D02*
X225095238Y-158504819D01*
X225095238Y-158504819D02*
X225476190Y-158504819D01*
X225476190Y-158504819D02*
X225571428Y-158552438D01*
X225571428Y-158552438D02*
X225619047Y-158600057D01*
X225619047Y-158600057D02*
X225666666Y-158695295D01*
X225666666Y-158695295D02*
X225666666Y-158838152D01*
X225666666Y-158838152D02*
X225619047Y-158933390D01*
X225619047Y-158933390D02*
X225571428Y-158981009D01*
X225571428Y-158981009D02*
X225476190Y-159028628D01*
X225476190Y-159028628D02*
X225095238Y-159028628D01*
X226095238Y-158981009D02*
X226428571Y-158981009D01*
X226571428Y-159504819D02*
X226095238Y-159504819D01*
X226095238Y-159504819D02*
X226095238Y-158504819D01*
X226095238Y-158504819D02*
X226571428Y-158504819D01*
X227333333Y-158981009D02*
X227000000Y-158981009D01*
X227000000Y-159504819D02*
X227000000Y-158504819D01*
X227000000Y-158504819D02*
X227476190Y-158504819D01*
X228000000Y-158504819D02*
X228000000Y-158742914D01*
X227761905Y-158647676D02*
X228000000Y-158742914D01*
X228000000Y-158742914D02*
X228238095Y-158647676D01*
X227857143Y-158933390D02*
X228000000Y-158742914D01*
X228000000Y-158742914D02*
X228142857Y-158933390D01*
X228761905Y-158504819D02*
X228761905Y-158742914D01*
X228523810Y-158647676D02*
X228761905Y-158742914D01*
X228761905Y-158742914D02*
X229000000Y-158647676D01*
X228619048Y-158933390D02*
X228761905Y-158742914D01*
X228761905Y-158742914D02*
X228904762Y-158933390D01*
X178684819Y-118088094D02*
X177684819Y-118088094D01*
X177684819Y-118088094D02*
X177684819Y-117849999D01*
X177684819Y-117849999D02*
X177732438Y-117707142D01*
X177732438Y-117707142D02*
X177827676Y-117611904D01*
X177827676Y-117611904D02*
X177922914Y-117564285D01*
X177922914Y-117564285D02*
X178113390Y-117516666D01*
X178113390Y-117516666D02*
X178256247Y-117516666D01*
X178256247Y-117516666D02*
X178446723Y-117564285D01*
X178446723Y-117564285D02*
X178541961Y-117611904D01*
X178541961Y-117611904D02*
X178637200Y-117707142D01*
X178637200Y-117707142D02*
X178684819Y-117849999D01*
X178684819Y-117849999D02*
X178684819Y-118088094D01*
X177684819Y-117183332D02*
X177684819Y-116564285D01*
X177684819Y-116564285D02*
X178065771Y-116897618D01*
X178065771Y-116897618D02*
X178065771Y-116754761D01*
X178065771Y-116754761D02*
X178113390Y-116659523D01*
X178113390Y-116659523D02*
X178161009Y-116611904D01*
X178161009Y-116611904D02*
X178256247Y-116564285D01*
X178256247Y-116564285D02*
X178494342Y-116564285D01*
X178494342Y-116564285D02*
X178589580Y-116611904D01*
X178589580Y-116611904D02*
X178637200Y-116659523D01*
X178637200Y-116659523D02*
X178684819Y-116754761D01*
X178684819Y-116754761D02*
X178684819Y-117040475D01*
X178684819Y-117040475D02*
X178637200Y-117135713D01*
X178637200Y-117135713D02*
X178589580Y-117183332D01*
X179804819Y-123961904D02*
X178804819Y-123961904D01*
X179804819Y-123390476D02*
X179233390Y-123819047D01*
X178804819Y-123390476D02*
X179376247Y-123961904D01*
X186830819Y-130751904D02*
X187640342Y-130751904D01*
X187640342Y-130751904D02*
X187735580Y-130704285D01*
X187735580Y-130704285D02*
X187783200Y-130656666D01*
X187783200Y-130656666D02*
X187830819Y-130561428D01*
X187830819Y-130561428D02*
X187830819Y-130370952D01*
X187830819Y-130370952D02*
X187783200Y-130275714D01*
X187783200Y-130275714D02*
X187735580Y-130228095D01*
X187735580Y-130228095D02*
X187640342Y-130180476D01*
X187640342Y-130180476D02*
X186830819Y-130180476D01*
X186926057Y-129751904D02*
X186878438Y-129704285D01*
X186878438Y-129704285D02*
X186830819Y-129609047D01*
X186830819Y-129609047D02*
X186830819Y-129370952D01*
X186830819Y-129370952D02*
X186878438Y-129275714D01*
X186878438Y-129275714D02*
X186926057Y-129228095D01*
X186926057Y-129228095D02*
X187021295Y-129180476D01*
X187021295Y-129180476D02*
X187116533Y-129180476D01*
X187116533Y-129180476D02*
X187259390Y-129228095D01*
X187259390Y-129228095D02*
X187830819Y-129799523D01*
X187830819Y-129799523D02*
X187830819Y-129180476D01*
X200070819Y-131590476D02*
X200070819Y-132066666D01*
X200070819Y-132066666D02*
X199070819Y-132066666D01*
X200070819Y-131257142D02*
X199070819Y-131257142D01*
X199070819Y-131257142D02*
X199785104Y-130923809D01*
X199785104Y-130923809D02*
X199070819Y-130590476D01*
X199070819Y-130590476D02*
X200070819Y-130590476D01*
X199070819Y-130209523D02*
X199070819Y-129590476D01*
X199070819Y-129590476D02*
X199451771Y-129923809D01*
X199451771Y-129923809D02*
X199451771Y-129780952D01*
X199451771Y-129780952D02*
X199499390Y-129685714D01*
X199499390Y-129685714D02*
X199547009Y-129638095D01*
X199547009Y-129638095D02*
X199642247Y-129590476D01*
X199642247Y-129590476D02*
X199880342Y-129590476D01*
X199880342Y-129590476D02*
X199975580Y-129638095D01*
X199975580Y-129638095D02*
X200023200Y-129685714D01*
X200023200Y-129685714D02*
X200070819Y-129780952D01*
X200070819Y-129780952D02*
X200070819Y-130066666D01*
X200070819Y-130066666D02*
X200023200Y-130161904D01*
X200023200Y-130161904D02*
X199975580Y-130209523D01*
X199070819Y-128685714D02*
X199070819Y-129161904D01*
X199070819Y-129161904D02*
X199547009Y-129209523D01*
X199547009Y-129209523D02*
X199499390Y-129161904D01*
X199499390Y-129161904D02*
X199451771Y-129066666D01*
X199451771Y-129066666D02*
X199451771Y-128828571D01*
X199451771Y-128828571D02*
X199499390Y-128733333D01*
X199499390Y-128733333D02*
X199547009Y-128685714D01*
X199547009Y-128685714D02*
X199642247Y-128638095D01*
X199642247Y-128638095D02*
X199880342Y-128638095D01*
X199880342Y-128638095D02*
X199975580Y-128685714D01*
X199975580Y-128685714D02*
X200023200Y-128733333D01*
X200023200Y-128733333D02*
X200070819Y-128828571D01*
X200070819Y-128828571D02*
X200070819Y-129066666D01*
X200070819Y-129066666D02*
X200023200Y-129161904D01*
X200023200Y-129161904D02*
X199975580Y-129209523D01*
X199499390Y-128066666D02*
X199451771Y-128161904D01*
X199451771Y-128161904D02*
X199404152Y-128209523D01*
X199404152Y-128209523D02*
X199308914Y-128257142D01*
X199308914Y-128257142D02*
X199261295Y-128257142D01*
X199261295Y-128257142D02*
X199166057Y-128209523D01*
X199166057Y-128209523D02*
X199118438Y-128161904D01*
X199118438Y-128161904D02*
X199070819Y-128066666D01*
X199070819Y-128066666D02*
X199070819Y-127876190D01*
X199070819Y-127876190D02*
X199118438Y-127780952D01*
X199118438Y-127780952D02*
X199166057Y-127733333D01*
X199166057Y-127733333D02*
X199261295Y-127685714D01*
X199261295Y-127685714D02*
X199308914Y-127685714D01*
X199308914Y-127685714D02*
X199404152Y-127733333D01*
X199404152Y-127733333D02*
X199451771Y-127780952D01*
X199451771Y-127780952D02*
X199499390Y-127876190D01*
X199499390Y-127876190D02*
X199499390Y-128066666D01*
X199499390Y-128066666D02*
X199547009Y-128161904D01*
X199547009Y-128161904D02*
X199594628Y-128209523D01*
X199594628Y-128209523D02*
X199689866Y-128257142D01*
X199689866Y-128257142D02*
X199880342Y-128257142D01*
X199880342Y-128257142D02*
X199975580Y-128209523D01*
X199975580Y-128209523D02*
X200023200Y-128161904D01*
X200023200Y-128161904D02*
X200070819Y-128066666D01*
X200070819Y-128066666D02*
X200070819Y-127876190D01*
X200070819Y-127876190D02*
X200023200Y-127780952D01*
X200023200Y-127780952D02*
X199975580Y-127733333D01*
X199975580Y-127733333D02*
X199880342Y-127685714D01*
X199880342Y-127685714D02*
X199689866Y-127685714D01*
X199689866Y-127685714D02*
X199594628Y-127733333D01*
X199594628Y-127733333D02*
X199547009Y-127780952D01*
X199547009Y-127780952D02*
X199499390Y-127876190D01*
X179617319Y-130666666D02*
X179617319Y-131142856D01*
X179617319Y-131142856D02*
X178617319Y-131142856D01*
X179617319Y-129809523D02*
X179617319Y-130380951D01*
X179617319Y-130095237D02*
X178617319Y-130095237D01*
X178617319Y-130095237D02*
X178760176Y-130190475D01*
X178760176Y-130190475D02*
X178855414Y-130285713D01*
X178855414Y-130285713D02*
X178903033Y-130380951D01*
X161600057Y-127595238D02*
X161552438Y-127690476D01*
X161552438Y-127690476D02*
X161457200Y-127785714D01*
X161457200Y-127785714D02*
X161314342Y-127928571D01*
X161314342Y-127928571D02*
X161266723Y-128023809D01*
X161266723Y-128023809D02*
X161266723Y-128119047D01*
X161504819Y-128071428D02*
X161457200Y-128166666D01*
X161457200Y-128166666D02*
X161361961Y-128261904D01*
X161361961Y-128261904D02*
X161171485Y-128309523D01*
X161171485Y-128309523D02*
X160838152Y-128309523D01*
X160838152Y-128309523D02*
X160647676Y-128261904D01*
X160647676Y-128261904D02*
X160552438Y-128166666D01*
X160552438Y-128166666D02*
X160504819Y-128071428D01*
X160504819Y-128071428D02*
X160504819Y-127880952D01*
X160504819Y-127880952D02*
X160552438Y-127785714D01*
X160552438Y-127785714D02*
X160647676Y-127690476D01*
X160647676Y-127690476D02*
X160838152Y-127642857D01*
X160838152Y-127642857D02*
X161171485Y-127642857D01*
X161171485Y-127642857D02*
X161361961Y-127690476D01*
X161361961Y-127690476D02*
X161457200Y-127785714D01*
X161457200Y-127785714D02*
X161504819Y-127880952D01*
X161504819Y-127880952D02*
X161504819Y-128071428D01*
X160600057Y-127261904D02*
X160552438Y-127214285D01*
X160552438Y-127214285D02*
X160504819Y-127119047D01*
X160504819Y-127119047D02*
X160504819Y-126880952D01*
X160504819Y-126880952D02*
X160552438Y-126785714D01*
X160552438Y-126785714D02*
X160600057Y-126738095D01*
X160600057Y-126738095D02*
X160695295Y-126690476D01*
X160695295Y-126690476D02*
X160790533Y-126690476D01*
X160790533Y-126690476D02*
X160933390Y-126738095D01*
X160933390Y-126738095D02*
X161504819Y-127309523D01*
X161504819Y-127309523D02*
X161504819Y-126690476D01*
X185833333Y-139584819D02*
X185500000Y-139108628D01*
X185261905Y-139584819D02*
X185261905Y-138584819D01*
X185261905Y-138584819D02*
X185642857Y-138584819D01*
X185642857Y-138584819D02*
X185738095Y-138632438D01*
X185738095Y-138632438D02*
X185785714Y-138680057D01*
X185785714Y-138680057D02*
X185833333Y-138775295D01*
X185833333Y-138775295D02*
X185833333Y-138918152D01*
X185833333Y-138918152D02*
X185785714Y-139013390D01*
X185785714Y-139013390D02*
X185738095Y-139061009D01*
X185738095Y-139061009D02*
X185642857Y-139108628D01*
X185642857Y-139108628D02*
X185261905Y-139108628D01*
X186214286Y-138680057D02*
X186261905Y-138632438D01*
X186261905Y-138632438D02*
X186357143Y-138584819D01*
X186357143Y-138584819D02*
X186595238Y-138584819D01*
X186595238Y-138584819D02*
X186690476Y-138632438D01*
X186690476Y-138632438D02*
X186738095Y-138680057D01*
X186738095Y-138680057D02*
X186785714Y-138775295D01*
X186785714Y-138775295D02*
X186785714Y-138870533D01*
X186785714Y-138870533D02*
X186738095Y-139013390D01*
X186738095Y-139013390D02*
X186166667Y-139584819D01*
X186166667Y-139584819D02*
X186785714Y-139584819D01*
X200333333Y-144324819D02*
X200000000Y-143848628D01*
X199761905Y-144324819D02*
X199761905Y-143324819D01*
X199761905Y-143324819D02*
X200142857Y-143324819D01*
X200142857Y-143324819D02*
X200238095Y-143372438D01*
X200238095Y-143372438D02*
X200285714Y-143420057D01*
X200285714Y-143420057D02*
X200333333Y-143515295D01*
X200333333Y-143515295D02*
X200333333Y-143658152D01*
X200333333Y-143658152D02*
X200285714Y-143753390D01*
X200285714Y-143753390D02*
X200238095Y-143801009D01*
X200238095Y-143801009D02*
X200142857Y-143848628D01*
X200142857Y-143848628D02*
X199761905Y-143848628D01*
X200666667Y-143324819D02*
X201333333Y-143324819D01*
X201333333Y-143324819D02*
X200904762Y-144324819D01*
X172438095Y-107654819D02*
X172438095Y-108464342D01*
X172438095Y-108464342D02*
X172485714Y-108559580D01*
X172485714Y-108559580D02*
X172533333Y-108607200D01*
X172533333Y-108607200D02*
X172628571Y-108654819D01*
X172628571Y-108654819D02*
X172819047Y-108654819D01*
X172819047Y-108654819D02*
X172914285Y-108607200D01*
X172914285Y-108607200D02*
X172961904Y-108559580D01*
X172961904Y-108559580D02*
X173009523Y-108464342D01*
X173009523Y-108464342D02*
X173009523Y-107654819D01*
X174009523Y-108654819D02*
X173438095Y-108654819D01*
X173723809Y-108654819D02*
X173723809Y-107654819D01*
X173723809Y-107654819D02*
X173628571Y-107797676D01*
X173628571Y-107797676D02*
X173533333Y-107892914D01*
X173533333Y-107892914D02*
X173438095Y-107940533D01*
X133666666Y-159004819D02*
X133333333Y-158528628D01*
X133095238Y-159004819D02*
X133095238Y-158004819D01*
X133095238Y-158004819D02*
X133476190Y-158004819D01*
X133476190Y-158004819D02*
X133571428Y-158052438D01*
X133571428Y-158052438D02*
X133619047Y-158100057D01*
X133619047Y-158100057D02*
X133666666Y-158195295D01*
X133666666Y-158195295D02*
X133666666Y-158338152D01*
X133666666Y-158338152D02*
X133619047Y-158433390D01*
X133619047Y-158433390D02*
X133571428Y-158481009D01*
X133571428Y-158481009D02*
X133476190Y-158528628D01*
X133476190Y-158528628D02*
X133095238Y-158528628D01*
X134095238Y-158481009D02*
X134428571Y-158481009D01*
X134571428Y-159004819D02*
X134095238Y-159004819D01*
X134095238Y-159004819D02*
X134095238Y-158004819D01*
X134095238Y-158004819D02*
X134571428Y-158004819D01*
X135333333Y-158481009D02*
X135000000Y-158481009D01*
X135000000Y-159004819D02*
X135000000Y-158004819D01*
X135000000Y-158004819D02*
X135476190Y-158004819D01*
X136000000Y-158004819D02*
X136000000Y-158242914D01*
X135761905Y-158147676D02*
X136000000Y-158242914D01*
X136000000Y-158242914D02*
X136238095Y-158147676D01*
X135857143Y-158433390D02*
X136000000Y-158242914D01*
X136000000Y-158242914D02*
X136142857Y-158433390D01*
X136761905Y-158004819D02*
X136761905Y-158242914D01*
X136523810Y-158147676D02*
X136761905Y-158242914D01*
X136761905Y-158242914D02*
X137000000Y-158147676D01*
X136619048Y-158433390D02*
X136761905Y-158242914D01*
X136761905Y-158242914D02*
X136904762Y-158433390D01*
X162534819Y-128714285D02*
X161534819Y-128714285D01*
X161534819Y-128714285D02*
X161534819Y-128476190D01*
X161534819Y-128476190D02*
X161582438Y-128333333D01*
X161582438Y-128333333D02*
X161677676Y-128238095D01*
X161677676Y-128238095D02*
X161772914Y-128190476D01*
X161772914Y-128190476D02*
X161963390Y-128142857D01*
X161963390Y-128142857D02*
X162106247Y-128142857D01*
X162106247Y-128142857D02*
X162296723Y-128190476D01*
X162296723Y-128190476D02*
X162391961Y-128238095D01*
X162391961Y-128238095D02*
X162487200Y-128333333D01*
X162487200Y-128333333D02*
X162534819Y-128476190D01*
X162534819Y-128476190D02*
X162534819Y-128714285D01*
X161534819Y-127809523D02*
X161534819Y-127142857D01*
X161534819Y-127142857D02*
X162534819Y-127809523D01*
X162534819Y-127809523D02*
X162534819Y-127142857D01*
X162534819Y-126238095D02*
X162534819Y-126809523D01*
X162534819Y-126523809D02*
X161534819Y-126523809D01*
X161534819Y-126523809D02*
X161677676Y-126619047D01*
X161677676Y-126619047D02*
X161772914Y-126714285D01*
X161772914Y-126714285D02*
X161820533Y-126809523D01*
X162854819Y-131571904D02*
X161854819Y-131571904D01*
X162854819Y-131000476D02*
X162283390Y-131429047D01*
X161854819Y-131000476D02*
X162426247Y-131571904D01*
X194031905Y-156414819D02*
X194031905Y-155414819D01*
X194031905Y-155414819D02*
X194270000Y-155414819D01*
X194270000Y-155414819D02*
X194412857Y-155462438D01*
X194412857Y-155462438D02*
X194508095Y-155557676D01*
X194508095Y-155557676D02*
X194555714Y-155652914D01*
X194555714Y-155652914D02*
X194603333Y-155843390D01*
X194603333Y-155843390D02*
X194603333Y-155986247D01*
X194603333Y-155986247D02*
X194555714Y-156176723D01*
X194555714Y-156176723D02*
X194508095Y-156271961D01*
X194508095Y-156271961D02*
X194412857Y-156367200D01*
X194412857Y-156367200D02*
X194270000Y-156414819D01*
X194270000Y-156414819D02*
X194031905Y-156414819D01*
X195555714Y-156414819D02*
X194984286Y-156414819D01*
X195270000Y-156414819D02*
X195270000Y-155414819D01*
X195270000Y-155414819D02*
X195174762Y-155557676D01*
X195174762Y-155557676D02*
X195079524Y-155652914D01*
X195079524Y-155652914D02*
X194984286Y-155700533D01*
X215833333Y-140084819D02*
X215500000Y-139608628D01*
X215261905Y-140084819D02*
X215261905Y-139084819D01*
X215261905Y-139084819D02*
X215642857Y-139084819D01*
X215642857Y-139084819D02*
X215738095Y-139132438D01*
X215738095Y-139132438D02*
X215785714Y-139180057D01*
X215785714Y-139180057D02*
X215833333Y-139275295D01*
X215833333Y-139275295D02*
X215833333Y-139418152D01*
X215833333Y-139418152D02*
X215785714Y-139513390D01*
X215785714Y-139513390D02*
X215738095Y-139561009D01*
X215738095Y-139561009D02*
X215642857Y-139608628D01*
X215642857Y-139608628D02*
X215261905Y-139608628D01*
X216166667Y-139084819D02*
X216785714Y-139084819D01*
X216785714Y-139084819D02*
X216452381Y-139465771D01*
X216452381Y-139465771D02*
X216595238Y-139465771D01*
X216595238Y-139465771D02*
X216690476Y-139513390D01*
X216690476Y-139513390D02*
X216738095Y-139561009D01*
X216738095Y-139561009D02*
X216785714Y-139656247D01*
X216785714Y-139656247D02*
X216785714Y-139894342D01*
X216785714Y-139894342D02*
X216738095Y-139989580D01*
X216738095Y-139989580D02*
X216690476Y-140037200D01*
X216690476Y-140037200D02*
X216595238Y-140084819D01*
X216595238Y-140084819D02*
X216309524Y-140084819D01*
X216309524Y-140084819D02*
X216214286Y-140037200D01*
X216214286Y-140037200D02*
X216166667Y-139989580D01*
X133666666Y-84504819D02*
X133333333Y-84028628D01*
X133095238Y-84504819D02*
X133095238Y-83504819D01*
X133095238Y-83504819D02*
X133476190Y-83504819D01*
X133476190Y-83504819D02*
X133571428Y-83552438D01*
X133571428Y-83552438D02*
X133619047Y-83600057D01*
X133619047Y-83600057D02*
X133666666Y-83695295D01*
X133666666Y-83695295D02*
X133666666Y-83838152D01*
X133666666Y-83838152D02*
X133619047Y-83933390D01*
X133619047Y-83933390D02*
X133571428Y-83981009D01*
X133571428Y-83981009D02*
X133476190Y-84028628D01*
X133476190Y-84028628D02*
X133095238Y-84028628D01*
X134095238Y-83981009D02*
X134428571Y-83981009D01*
X134571428Y-84504819D02*
X134095238Y-84504819D01*
X134095238Y-84504819D02*
X134095238Y-83504819D01*
X134095238Y-83504819D02*
X134571428Y-83504819D01*
X135333333Y-83981009D02*
X135000000Y-83981009D01*
X135000000Y-84504819D02*
X135000000Y-83504819D01*
X135000000Y-83504819D02*
X135476190Y-83504819D01*
X136000000Y-83504819D02*
X136000000Y-83742914D01*
X135761905Y-83647676D02*
X136000000Y-83742914D01*
X136000000Y-83742914D02*
X136238095Y-83647676D01*
X135857143Y-83933390D02*
X136000000Y-83742914D01*
X136000000Y-83742914D02*
X136142857Y-83933390D01*
X136761905Y-83504819D02*
X136761905Y-83742914D01*
X136523810Y-83647676D02*
X136761905Y-83742914D01*
X136761905Y-83742914D02*
X137000000Y-83647676D01*
X136619048Y-83933390D02*
X136761905Y-83742914D01*
X136761905Y-83742914D02*
X136904762Y-83933390D01*
X225666666Y-84504819D02*
X225333333Y-84028628D01*
X225095238Y-84504819D02*
X225095238Y-83504819D01*
X225095238Y-83504819D02*
X225476190Y-83504819D01*
X225476190Y-83504819D02*
X225571428Y-83552438D01*
X225571428Y-83552438D02*
X225619047Y-83600057D01*
X225619047Y-83600057D02*
X225666666Y-83695295D01*
X225666666Y-83695295D02*
X225666666Y-83838152D01*
X225666666Y-83838152D02*
X225619047Y-83933390D01*
X225619047Y-83933390D02*
X225571428Y-83981009D01*
X225571428Y-83981009D02*
X225476190Y-84028628D01*
X225476190Y-84028628D02*
X225095238Y-84028628D01*
X226095238Y-83981009D02*
X226428571Y-83981009D01*
X226571428Y-84504819D02*
X226095238Y-84504819D01*
X226095238Y-84504819D02*
X226095238Y-83504819D01*
X226095238Y-83504819D02*
X226571428Y-83504819D01*
X227333333Y-83981009D02*
X227000000Y-83981009D01*
X227000000Y-84504819D02*
X227000000Y-83504819D01*
X227000000Y-83504819D02*
X227476190Y-83504819D01*
X228000000Y-83504819D02*
X228000000Y-83742914D01*
X227761905Y-83647676D02*
X228000000Y-83742914D01*
X228000000Y-83742914D02*
X228238095Y-83647676D01*
X227857143Y-83933390D02*
X228000000Y-83742914D01*
X228000000Y-83742914D02*
X228142857Y-83933390D01*
X228761905Y-83504819D02*
X228761905Y-83742914D01*
X228523810Y-83647676D02*
X228761905Y-83742914D01*
X228761905Y-83742914D02*
X229000000Y-83647676D01*
X228619048Y-83933390D02*
X228761905Y-83742914D01*
X228761905Y-83742914D02*
X228904762Y-83933390D01*
D11*
%TO.C,J2*%
X188954937Y-151750001D02*
G75*
G02*
X181714937Y-151750001I-3620000J0D01*
G01*
X181714937Y-151750001D02*
G75*
G02*
X188954937Y-151750001I3620000J0D01*
G01*
%TO.C,R1*%
X145160000Y-135500000D02*
X145930000Y-135500000D01*
X153240000Y-135500000D02*
X152470000Y-135500000D01*
X152470000Y-136870000D02*
X145930000Y-136870000D01*
X145930000Y-134130000D01*
X152470000Y-134130000D01*
X152470000Y-136870000D01*
%TO.C,F1*%
X162650000Y-110200000D02*
X162650000Y-118800000D01*
X166750000Y-110200000D02*
X162650000Y-110200000D01*
X166750000Y-110200000D02*
X166750000Y-118800000D01*
X166750000Y-118800000D02*
X162650000Y-118800000D01*
%TO.C,SW1*%
X208700000Y-144850000D02*
X221300000Y-144850000D01*
X208700000Y-149750000D02*
X208700000Y-144850000D01*
X208700000Y-153450000D02*
X208700000Y-158250000D01*
X208700000Y-158250000D02*
X211200000Y-158250000D01*
X210900000Y-158750000D02*
X211200000Y-159050000D01*
X210900000Y-159350000D02*
X210900000Y-158750000D01*
X211200000Y-159050000D02*
X210900000Y-159350000D01*
X214500000Y-151550000D02*
X215500000Y-151550000D01*
X215000000Y-152050000D02*
X215000000Y-151050000D01*
X221300000Y-144850000D02*
X221300000Y-149750000D01*
X221300000Y-153350000D02*
X221300000Y-158250000D01*
X221300000Y-158250000D02*
X218500000Y-158250000D01*
X218000000Y-151550000D02*
G75*
G02*
X212000000Y-151550000I-3000000J0D01*
G01*
X212000000Y-151550000D02*
G75*
G02*
X218000000Y-151550000I3000000J0D01*
G01*
%TO.C,A1*%
X139280000Y-94680000D02*
X149700000Y-94680000D01*
X139280000Y-102560000D02*
X139280000Y-94680000D01*
X141820000Y-89600000D02*
X141820000Y-94680000D01*
X141820000Y-107640000D02*
X141820000Y-102560000D01*
X141820000Y-107640000D02*
X185260000Y-107640000D01*
X144490000Y-92270000D02*
X144490000Y-89600000D01*
X144490000Y-104970000D02*
X144490000Y-107640000D01*
X149700000Y-94680000D02*
X149700000Y-102560000D01*
X149700000Y-102560000D02*
X139280000Y-102560000D01*
X180050000Y-89600000D02*
X141820000Y-89600000D01*
X180050000Y-92270000D02*
X144490000Y-92270000D01*
X180050000Y-92270000D02*
X180050000Y-89600000D01*
X180050000Y-92270000D02*
X182590000Y-92270000D01*
X182590000Y-92270000D02*
X182590000Y-89600000D01*
X182590000Y-104970000D02*
X144490000Y-104970000D01*
X182590000Y-104970000D02*
X182590000Y-107640000D01*
X185260000Y-89600000D02*
X182590000Y-89600000D01*
X185260000Y-107640000D02*
X185260000Y-89600000D01*
%TO.C,R6*%
X196460000Y-137500000D02*
X197230000Y-137500000D01*
X204540000Y-137500000D02*
X203770000Y-137500000D01*
X203770000Y-138870000D02*
X197230000Y-138870000D01*
X197230000Y-136130000D01*
X203770000Y-136130000D01*
X203770000Y-138870000D01*
%TO.C,Q3*%
X200650000Y-124880000D02*
X202180000Y-124880000D01*
X200650000Y-135120000D02*
X200650000Y-124880000D01*
X200650000Y-135120000D02*
X202180000Y-135120000D01*
X202180000Y-125440000D02*
X202180000Y-124880000D01*
X202180000Y-134590000D02*
X203680000Y-134590000D01*
X202180000Y-135120000D02*
X202180000Y-134590000D01*
X203680000Y-124880000D02*
X203680000Y-125440000D01*
X203680000Y-124880000D02*
X216540000Y-124880000D01*
X203680000Y-125440000D02*
X202180000Y-125440000D01*
X203680000Y-134590000D02*
X203680000Y-135115000D01*
X203680000Y-135120000D02*
X216540000Y-135120000D01*
X207180000Y-135115000D02*
X207180000Y-124890000D01*
X216540000Y-135120000D02*
X216540000Y-124880000D01*
X216580000Y-126960000D02*
X218830000Y-126960000D01*
X216580000Y-127960000D02*
X218830000Y-127960000D01*
X216580000Y-129500000D02*
X218830000Y-129500000D01*
X216580000Y-130500000D02*
X218830000Y-130500000D01*
X216580000Y-132040000D02*
X218830000Y-132040000D01*
X216580000Y-133040000D02*
X218830000Y-133040000D01*
X218830000Y-126960000D02*
X219030000Y-127160000D01*
X218830000Y-127960000D02*
X219030000Y-127760000D01*
X218830000Y-129500000D02*
X219030000Y-129700000D01*
X218830000Y-130500000D02*
X219030000Y-130300000D01*
X218830000Y-132040000D02*
X219030000Y-132240000D01*
X218830000Y-133040000D02*
X219030000Y-132840000D01*
X211880000Y-135090000D02*
G75*
G02*
X214580000Y-135090000I1350000J0D01*
G01*
X214580000Y-124940000D02*
G75*
G02*
X211880000Y-124940000I-1350000J0D01*
G01*
D12*
%TO.C,DS1*%
X186560000Y-89700000D02*
X222060000Y-89700000D01*
X186560000Y-123400000D02*
X186560000Y-89700000D01*
X222060000Y-89700000D02*
X222060000Y-123400000D01*
X222060000Y-123400000D02*
X186560000Y-123400000D01*
D13*
X200600000Y-89150000D02*
G75*
G02*
X200400000Y-89150000I-100000J0D01*
G01*
X200400000Y-89150000D02*
G75*
G02*
X200600000Y-89150000I100000J0D01*
G01*
D11*
%TO.C,D2*%
X201455000Y-154565000D02*
X204545000Y-154565000D01*
X201455170Y-154565000D02*
G75*
G02*
X203000000Y-149015000I1544830J2560000D01*
G01*
X203000000Y-149015000D02*
G75*
G02*
X204544830Y-154565000I0J-2990000D01*
G01*
X205500000Y-152005000D02*
G75*
G02*
X200500000Y-152005000I-2500000J0D01*
G01*
X200500000Y-152005000D02*
G75*
G02*
X205500000Y-152005000I2500000J0D01*
G01*
%TO.C,C1*%
X169040302Y-134685000D02*
X169840302Y-134685000D01*
X169440302Y-134285000D02*
X169440302Y-135085000D01*
X173450000Y-132920000D02*
X173450000Y-141080000D01*
X173490000Y-132920000D02*
X173490000Y-141080000D01*
X173530000Y-132921000D02*
X173530000Y-141079000D01*
X173570000Y-132922000D02*
X173570000Y-141078000D01*
X173610000Y-132923000D02*
X173610000Y-141077000D01*
X173650000Y-132925000D02*
X173650000Y-141075000D01*
X173690000Y-132927000D02*
X173690000Y-135960000D01*
X173690000Y-138040000D02*
X173690000Y-141073000D01*
X173730000Y-132930000D02*
X173730000Y-135960000D01*
X173730000Y-138040000D02*
X173730000Y-141070000D01*
X173770000Y-132932000D02*
X173770000Y-135960000D01*
X173770000Y-138040000D02*
X173770000Y-141068000D01*
X173810000Y-132936000D02*
X173810000Y-135960000D01*
X173810000Y-138040000D02*
X173810000Y-141064000D01*
X173850000Y-132939000D02*
X173850000Y-135960000D01*
X173850000Y-138040000D02*
X173850000Y-141061000D01*
X173890000Y-132944000D02*
X173890000Y-135960000D01*
X173890000Y-138040000D02*
X173890000Y-141056000D01*
X173930000Y-132948000D02*
X173930000Y-135960000D01*
X173930000Y-138040000D02*
X173930000Y-141052000D01*
X173970000Y-132953000D02*
X173970000Y-135960000D01*
X173970000Y-138040000D02*
X173970000Y-141047000D01*
X174010000Y-132958000D02*
X174010000Y-135960000D01*
X174010000Y-138040000D02*
X174010000Y-141042000D01*
X174050000Y-132964000D02*
X174050000Y-135960000D01*
X174050000Y-138040000D02*
X174050000Y-141036000D01*
X174090000Y-132970000D02*
X174090000Y-135960000D01*
X174090000Y-138040000D02*
X174090000Y-141030000D01*
X174130000Y-132977000D02*
X174130000Y-135960000D01*
X174130000Y-138040000D02*
X174130000Y-141023000D01*
X174170000Y-132983000D02*
X174170000Y-135960000D01*
X174170000Y-138040000D02*
X174170000Y-141017000D01*
X174210000Y-132991000D02*
X174210000Y-135960000D01*
X174210000Y-138040000D02*
X174210000Y-141009000D01*
X174250000Y-132998000D02*
X174250000Y-135960000D01*
X174250000Y-138040000D02*
X174250000Y-141002000D01*
X174290000Y-133007000D02*
X174290000Y-135960000D01*
X174290000Y-138040000D02*
X174290000Y-140993000D01*
X174330000Y-133015000D02*
X174330000Y-135960000D01*
X174330000Y-138040000D02*
X174330000Y-140985000D01*
X174370000Y-133024000D02*
X174370000Y-135960000D01*
X174370000Y-138040000D02*
X174370000Y-140976000D01*
X174410000Y-133033000D02*
X174410000Y-135960000D01*
X174410000Y-138040000D02*
X174410000Y-140967000D01*
X174450000Y-133043000D02*
X174450000Y-135960000D01*
X174450000Y-138040000D02*
X174450000Y-140957000D01*
X174490000Y-133053000D02*
X174490000Y-135960000D01*
X174490000Y-138040000D02*
X174490000Y-140947000D01*
X174530000Y-133064000D02*
X174530000Y-135960000D01*
X174530000Y-138040000D02*
X174530000Y-140936000D01*
X174570000Y-133075000D02*
X174570000Y-135960000D01*
X174570000Y-138040000D02*
X174570000Y-140925000D01*
X174610000Y-133087000D02*
X174610000Y-135960000D01*
X174610000Y-138040000D02*
X174610000Y-140913000D01*
X174650000Y-133099000D02*
X174650000Y-135960000D01*
X174650000Y-138040000D02*
X174650000Y-140901000D01*
X174690000Y-133111000D02*
X174690000Y-135960000D01*
X174690000Y-138040000D02*
X174690000Y-140889000D01*
X174730000Y-133124000D02*
X174730000Y-135960000D01*
X174730000Y-138040000D02*
X174730000Y-140876000D01*
X174770000Y-133137000D02*
X174770000Y-135960000D01*
X174770000Y-138040000D02*
X174770000Y-140863000D01*
X174810000Y-133151000D02*
X174810000Y-135960000D01*
X174810000Y-138040000D02*
X174810000Y-140849000D01*
X174850000Y-133165000D02*
X174850000Y-135960000D01*
X174850000Y-138040000D02*
X174850000Y-140835000D01*
X174890000Y-133180000D02*
X174890000Y-135960000D01*
X174890000Y-138040000D02*
X174890000Y-140820000D01*
X174930000Y-133195000D02*
X174930000Y-135960000D01*
X174930000Y-138040000D02*
X174930000Y-140805000D01*
X174970000Y-133211000D02*
X174970000Y-135960000D01*
X174970000Y-138040000D02*
X174970000Y-140789000D01*
X175010000Y-133227000D02*
X175010000Y-135960000D01*
X175010000Y-138040000D02*
X175010000Y-140773000D01*
X175050000Y-133243000D02*
X175050000Y-135960000D01*
X175050000Y-138040000D02*
X175050000Y-140757000D01*
X175090000Y-133260000D02*
X175090000Y-135960000D01*
X175090000Y-138040000D02*
X175090000Y-140740000D01*
X175130000Y-133278000D02*
X175130000Y-135960000D01*
X175130000Y-138040000D02*
X175130000Y-140722000D01*
X175170000Y-133296000D02*
X175170000Y-135960000D01*
X175170000Y-138040000D02*
X175170000Y-140704000D01*
X175210000Y-133315000D02*
X175210000Y-135960000D01*
X175210000Y-138040000D02*
X175210000Y-140685000D01*
X175250000Y-133334000D02*
X175250000Y-135960000D01*
X175250000Y-138040000D02*
X175250000Y-140666000D01*
X175290000Y-133354000D02*
X175290000Y-135960000D01*
X175290000Y-138040000D02*
X175290000Y-140646000D01*
X175330000Y-133374000D02*
X175330000Y-135960000D01*
X175330000Y-138040000D02*
X175330000Y-140626000D01*
X175370000Y-133395000D02*
X175370000Y-135960000D01*
X175370000Y-138040000D02*
X175370000Y-140605000D01*
X175410000Y-133416000D02*
X175410000Y-135960000D01*
X175410000Y-138040000D02*
X175410000Y-140584000D01*
X175450000Y-133438000D02*
X175450000Y-135960000D01*
X175450000Y-138040000D02*
X175450000Y-140562000D01*
X175490000Y-133461000D02*
X175490000Y-135960000D01*
X175490000Y-138040000D02*
X175490000Y-140539000D01*
X175530000Y-133484000D02*
X175530000Y-135960000D01*
X175530000Y-138040000D02*
X175530000Y-140516000D01*
X175570000Y-133507000D02*
X175570000Y-135960000D01*
X175570000Y-138040000D02*
X175570000Y-140493000D01*
X175610000Y-133532000D02*
X175610000Y-135960000D01*
X175610000Y-138040000D02*
X175610000Y-140468000D01*
X175650000Y-133557000D02*
X175650000Y-135960000D01*
X175650000Y-138040000D02*
X175650000Y-140443000D01*
X175690000Y-133582000D02*
X175690000Y-135960000D01*
X175690000Y-138040000D02*
X175690000Y-140418000D01*
X175730000Y-133608000D02*
X175730000Y-135960000D01*
X175730000Y-138040000D02*
X175730000Y-140392000D01*
X175770000Y-133635000D02*
X175770000Y-140365000D01*
X175810000Y-133663000D02*
X175810000Y-140337000D01*
X175850000Y-133691000D02*
X175850000Y-140309000D01*
X175890000Y-133720000D02*
X175890000Y-140280000D01*
X175930000Y-133750000D02*
X175930000Y-140250000D01*
X175970000Y-133781000D02*
X175970000Y-140219000D01*
X176010000Y-133812000D02*
X176010000Y-140188000D01*
X176050000Y-133844000D02*
X176050000Y-140156000D01*
X176090000Y-133877000D02*
X176090000Y-140123000D01*
X176130000Y-133911000D02*
X176130000Y-140089000D01*
X176170000Y-133945000D02*
X176170000Y-140055000D01*
X176210000Y-133981000D02*
X176210000Y-140019000D01*
X176250000Y-134018000D02*
X176250000Y-139982000D01*
X176290000Y-134055000D02*
X176290000Y-139945000D01*
X176330000Y-134094000D02*
X176330000Y-139906000D01*
X176370000Y-134133000D02*
X176370000Y-139867000D01*
X176410000Y-134174000D02*
X176410000Y-139826000D01*
X176450000Y-134216000D02*
X176450000Y-139784000D01*
X176490000Y-134259000D02*
X176490000Y-139741000D01*
X176530000Y-134304000D02*
X176530000Y-139696000D01*
X176570000Y-134349000D02*
X176570000Y-139651000D01*
X176610000Y-134396000D02*
X176610000Y-139604000D01*
X176650000Y-134445000D02*
X176650000Y-139555000D01*
X176690000Y-134495000D02*
X176690000Y-139505000D01*
X176730000Y-134547000D02*
X176730000Y-139453000D01*
X176770000Y-134600000D02*
X176770000Y-139400000D01*
X176810000Y-134656000D02*
X176810000Y-139344000D01*
X176850000Y-134713000D02*
X176850000Y-139287000D01*
X176890000Y-134773000D02*
X176890000Y-139227000D01*
X176930000Y-134835000D02*
X176930000Y-139165000D01*
X176970000Y-134899000D02*
X176970000Y-139101000D01*
X177010000Y-134966000D02*
X177010000Y-139034000D01*
X177050000Y-135036000D02*
X177050000Y-138964000D01*
X177090000Y-135110000D02*
X177090000Y-138890000D01*
X177130000Y-135187000D02*
X177130000Y-138813000D01*
X177170000Y-135269000D02*
X177170000Y-138731000D01*
X177210000Y-135356000D02*
X177210000Y-138644000D01*
X177250000Y-135448000D02*
X177250000Y-138552000D01*
X177290000Y-135547000D02*
X177290000Y-138453000D01*
X177330000Y-135654000D02*
X177330000Y-138346000D01*
X177370000Y-135772000D02*
X177370000Y-138228000D01*
X177410000Y-135903000D02*
X177410000Y-138097000D01*
X177450000Y-136053000D02*
X177450000Y-137947000D01*
X177490000Y-136232000D02*
X177490000Y-137768000D01*
X177530000Y-136467000D02*
X177530000Y-137533000D01*
X177570000Y-137000000D02*
G75*
G02*
X169330000Y-137000000I-4120000J0D01*
G01*
X169330000Y-137000000D02*
G75*
G02*
X177570000Y-137000000I4120000J0D01*
G01*
%TO.C,R4*%
X181880000Y-137500000D02*
X182650000Y-137500000D01*
X189960000Y-137500000D02*
X189190000Y-137500000D01*
X182650000Y-136130000D02*
X189190000Y-136130000D01*
X189190000Y-138870000D01*
X182650000Y-138870000D01*
X182650000Y-136130000D01*
%TO.C,R5*%
X211960000Y-138000000D02*
X212730000Y-138000000D01*
X220040000Y-138000000D02*
X219270000Y-138000000D01*
X212730000Y-136630000D02*
X219270000Y-136630000D01*
X219270000Y-139370000D01*
X212730000Y-139370000D01*
X212730000Y-136630000D01*
%TO.C,C3*%
X158387651Y-134685000D02*
X159187651Y-134685000D01*
X158787651Y-134285000D02*
X158787651Y-135085000D01*
X162797349Y-132920000D02*
X162797349Y-141080000D01*
X162837349Y-132920000D02*
X162837349Y-141080000D01*
X162877349Y-132921000D02*
X162877349Y-141079000D01*
X162917349Y-132922000D02*
X162917349Y-141078000D01*
X162957349Y-132923000D02*
X162957349Y-141077000D01*
X162997349Y-132925000D02*
X162997349Y-141075000D01*
X163037349Y-132927000D02*
X163037349Y-141073000D01*
X163077349Y-132930000D02*
X163077349Y-141070000D01*
X163117349Y-132932000D02*
X163117349Y-141068000D01*
X163157349Y-132936000D02*
X163157349Y-141064000D01*
X163197349Y-132939000D02*
X163197349Y-141061000D01*
X163237349Y-132944000D02*
X163237349Y-141056000D01*
X163277349Y-132948000D02*
X163277349Y-141052000D01*
X163317349Y-132953000D02*
X163317349Y-141047000D01*
X163357349Y-132958000D02*
X163357349Y-141042000D01*
X163397349Y-132964000D02*
X163397349Y-141036000D01*
X163437349Y-132970000D02*
X163437349Y-141030000D01*
X163477349Y-132977000D02*
X163477349Y-141023000D01*
X163517349Y-132983000D02*
X163517349Y-135960000D01*
X163517349Y-138040000D02*
X163517349Y-141017000D01*
X163557349Y-132991000D02*
X163557349Y-135960000D01*
X163557349Y-138040000D02*
X163557349Y-141009000D01*
X163597349Y-132998000D02*
X163597349Y-135960000D01*
X163597349Y-138040000D02*
X163597349Y-141002000D01*
X163637349Y-133007000D02*
X163637349Y-135960000D01*
X163637349Y-138040000D02*
X163637349Y-140993000D01*
X163677349Y-133015000D02*
X163677349Y-135960000D01*
X163677349Y-138040000D02*
X163677349Y-140985000D01*
X163717349Y-133024000D02*
X163717349Y-135960000D01*
X163717349Y-138040000D02*
X163717349Y-140976000D01*
X163757349Y-133033000D02*
X163757349Y-135960000D01*
X163757349Y-138040000D02*
X163757349Y-140967000D01*
X163797349Y-133043000D02*
X163797349Y-135960000D01*
X163797349Y-138040000D02*
X163797349Y-140957000D01*
X163837349Y-133053000D02*
X163837349Y-135960000D01*
X163837349Y-138040000D02*
X163837349Y-140947000D01*
X163877349Y-133064000D02*
X163877349Y-135960000D01*
X163877349Y-138040000D02*
X163877349Y-140936000D01*
X163917349Y-133075000D02*
X163917349Y-135960000D01*
X163917349Y-138040000D02*
X163917349Y-140925000D01*
X163957349Y-133087000D02*
X163957349Y-135960000D01*
X163957349Y-138040000D02*
X163957349Y-140913000D01*
X163997349Y-133099000D02*
X163997349Y-135960000D01*
X163997349Y-138040000D02*
X163997349Y-140901000D01*
X164037349Y-133111000D02*
X164037349Y-135960000D01*
X164037349Y-138040000D02*
X164037349Y-140889000D01*
X164077349Y-133124000D02*
X164077349Y-135960000D01*
X164077349Y-138040000D02*
X164077349Y-140876000D01*
X164117349Y-133137000D02*
X164117349Y-135960000D01*
X164117349Y-138040000D02*
X164117349Y-140863000D01*
X164157349Y-133151000D02*
X164157349Y-135960000D01*
X164157349Y-138040000D02*
X164157349Y-140849000D01*
X164197349Y-133165000D02*
X164197349Y-135960000D01*
X164197349Y-138040000D02*
X164197349Y-140835000D01*
X164237349Y-133180000D02*
X164237349Y-135960000D01*
X164237349Y-138040000D02*
X164237349Y-140820000D01*
X164277349Y-133195000D02*
X164277349Y-135960000D01*
X164277349Y-138040000D02*
X164277349Y-140805000D01*
X164317349Y-133211000D02*
X164317349Y-135960000D01*
X164317349Y-138040000D02*
X164317349Y-140789000D01*
X164357349Y-133227000D02*
X164357349Y-135960000D01*
X164357349Y-138040000D02*
X164357349Y-140773000D01*
X164397349Y-133243000D02*
X164397349Y-135960000D01*
X164397349Y-138040000D02*
X164397349Y-140757000D01*
X164437349Y-133260000D02*
X164437349Y-135960000D01*
X164437349Y-138040000D02*
X164437349Y-140740000D01*
X164477349Y-133278000D02*
X164477349Y-135960000D01*
X164477349Y-138040000D02*
X164477349Y-140722000D01*
X164517349Y-133296000D02*
X164517349Y-135960000D01*
X164517349Y-138040000D02*
X164517349Y-140704000D01*
X164557349Y-133315000D02*
X164557349Y-135960000D01*
X164557349Y-138040000D02*
X164557349Y-140685000D01*
X164597349Y-133334000D02*
X164597349Y-135960000D01*
X164597349Y-138040000D02*
X164597349Y-140666000D01*
X164637349Y-133354000D02*
X164637349Y-135960000D01*
X164637349Y-138040000D02*
X164637349Y-140646000D01*
X164677349Y-133374000D02*
X164677349Y-135960000D01*
X164677349Y-138040000D02*
X164677349Y-140626000D01*
X164717349Y-133395000D02*
X164717349Y-135960000D01*
X164717349Y-138040000D02*
X164717349Y-140605000D01*
X164757349Y-133416000D02*
X164757349Y-135960000D01*
X164757349Y-138040000D02*
X164757349Y-140584000D01*
X164797349Y-133438000D02*
X164797349Y-135960000D01*
X164797349Y-138040000D02*
X164797349Y-140562000D01*
X164837349Y-133461000D02*
X164837349Y-135960000D01*
X164837349Y-138040000D02*
X164837349Y-140539000D01*
X164877349Y-133484000D02*
X164877349Y-135960000D01*
X164877349Y-138040000D02*
X164877349Y-140516000D01*
X164917349Y-133507000D02*
X164917349Y-135960000D01*
X164917349Y-138040000D02*
X164917349Y-140493000D01*
X164957349Y-133532000D02*
X164957349Y-135960000D01*
X164957349Y-138040000D02*
X164957349Y-140468000D01*
X164997349Y-133557000D02*
X164997349Y-135960000D01*
X164997349Y-138040000D02*
X164997349Y-140443000D01*
X165037349Y-133582000D02*
X165037349Y-135960000D01*
X165037349Y-138040000D02*
X165037349Y-140418000D01*
X165077349Y-133608000D02*
X165077349Y-135960000D01*
X165077349Y-138040000D02*
X165077349Y-140392000D01*
X165117349Y-133635000D02*
X165117349Y-135960000D01*
X165117349Y-138040000D02*
X165117349Y-140365000D01*
X165157349Y-133663000D02*
X165157349Y-135960000D01*
X165157349Y-138040000D02*
X165157349Y-140337000D01*
X165197349Y-133691000D02*
X165197349Y-135960000D01*
X165197349Y-138040000D02*
X165197349Y-140309000D01*
X165237349Y-133720000D02*
X165237349Y-135960000D01*
X165237349Y-138040000D02*
X165237349Y-140280000D01*
X165277349Y-133750000D02*
X165277349Y-135960000D01*
X165277349Y-138040000D02*
X165277349Y-140250000D01*
X165317349Y-133781000D02*
X165317349Y-135960000D01*
X165317349Y-138040000D02*
X165317349Y-140219000D01*
X165357349Y-133812000D02*
X165357349Y-135960000D01*
X165357349Y-138040000D02*
X165357349Y-140188000D01*
X165397349Y-133844000D02*
X165397349Y-135960000D01*
X165397349Y-138040000D02*
X165397349Y-140156000D01*
X165437349Y-133877000D02*
X165437349Y-135960000D01*
X165437349Y-138040000D02*
X165437349Y-140123000D01*
X165477349Y-133911000D02*
X165477349Y-135960000D01*
X165477349Y-138040000D02*
X165477349Y-140089000D01*
X165517349Y-133945000D02*
X165517349Y-135960000D01*
X165517349Y-138040000D02*
X165517349Y-140055000D01*
X165557349Y-133981000D02*
X165557349Y-135960000D01*
X165557349Y-138040000D02*
X165557349Y-140019000D01*
X165597349Y-134018000D02*
X165597349Y-139982000D01*
X165637349Y-134055000D02*
X165637349Y-139945000D01*
X165677349Y-134094000D02*
X165677349Y-139906000D01*
X165717349Y-134133000D02*
X165717349Y-139867000D01*
X165757349Y-134174000D02*
X165757349Y-139826000D01*
X165797349Y-134216000D02*
X165797349Y-139784000D01*
X165837349Y-134259000D02*
X165837349Y-139741000D01*
X165877349Y-134304000D02*
X165877349Y-139696000D01*
X165917349Y-134349000D02*
X165917349Y-139651000D01*
X165957349Y-134396000D02*
X165957349Y-139604000D01*
X165997349Y-134445000D02*
X165997349Y-139555000D01*
X166037349Y-134495000D02*
X166037349Y-139505000D01*
X166077349Y-134547000D02*
X166077349Y-139453000D01*
X166117349Y-134600000D02*
X166117349Y-139400000D01*
X166157349Y-134656000D02*
X166157349Y-139344000D01*
X166197349Y-134713000D02*
X166197349Y-139287000D01*
X166237349Y-134773000D02*
X166237349Y-139227000D01*
X166277349Y-134835000D02*
X166277349Y-139165000D01*
X166317349Y-134899000D02*
X166317349Y-139101000D01*
X166357349Y-134966000D02*
X166357349Y-139034000D01*
X166397349Y-135036000D02*
X166397349Y-138964000D01*
X166437349Y-135110000D02*
X166437349Y-138890000D01*
X166477349Y-135187000D02*
X166477349Y-138813000D01*
X166517349Y-135269000D02*
X166517349Y-138731000D01*
X166557349Y-135356000D02*
X166557349Y-138644000D01*
X166597349Y-135448000D02*
X166597349Y-138552000D01*
X166637349Y-135547000D02*
X166637349Y-138453000D01*
X166677349Y-135654000D02*
X166677349Y-138346000D01*
X166717349Y-135772000D02*
X166717349Y-138228000D01*
X166757349Y-135903000D02*
X166757349Y-138097000D01*
X166797349Y-136053000D02*
X166797349Y-137947000D01*
X166837349Y-136232000D02*
X166837349Y-137768000D01*
X166877349Y-136467000D02*
X166877349Y-137533000D01*
X166917349Y-137000000D02*
G75*
G02*
X158677349Y-137000000I-4120000J0D01*
G01*
X158677349Y-137000000D02*
G75*
G02*
X166917349Y-137000000I4120000J0D01*
G01*
%TO.C,D3*%
X179230000Y-112480000D02*
X180110000Y-112480000D01*
X179230000Y-122220000D02*
X179230000Y-112480000D01*
D14*
X179537000Y-119128000D02*
X184363000Y-119128000D01*
D11*
X180110000Y-122220000D02*
X179230000Y-122220000D01*
X181950000Y-115445000D02*
X181950000Y-112905000D01*
X181950000Y-119255000D02*
X181950000Y-121795000D01*
X183790000Y-122220000D02*
X184670000Y-122220000D01*
X184670000Y-112480000D02*
X183790000Y-112480000D01*
X184670000Y-122220000D02*
X184670000Y-112480000D01*
D15*
X181950000Y-119128000D02*
X179537000Y-115445000D01*
X184363000Y-115445000D01*
X181950000Y-119128000D01*
G36*
X181950000Y-119128000D02*
G01*
X179537000Y-115445000D01*
X184363000Y-115445000D01*
X181950000Y-119128000D01*
G37*
D16*
%TO.C,J3*%
X131400000Y-119801000D02*
X131400000Y-110801000D01*
X131400000Y-119801000D02*
X139900000Y-119801000D01*
X143400000Y-110801000D02*
X131400000Y-110801000D01*
X143400000Y-110801000D02*
X143400000Y-111451000D01*
X143400000Y-111451000D02*
X145700000Y-111451000D01*
X145700000Y-111451000D02*
X145700000Y-113051000D01*
X145700000Y-119151000D02*
X143850000Y-119151000D01*
X145700000Y-119151000D02*
X145700000Y-117551000D01*
D11*
%TO.C,U2*%
X188310000Y-127260000D02*
X188310000Y-129000000D01*
X188310000Y-131000000D02*
X188310000Y-132740000D01*
X188310000Y-132740000D02*
X198710000Y-132740000D01*
X198710000Y-127260000D02*
X188310000Y-127260000D01*
X198710000Y-132740000D02*
X198710000Y-127260000D01*
X188310000Y-129000000D02*
G75*
G02*
X188310000Y-131000000I0J-1000000D01*
G01*
%TO.C,L1*%
X180740000Y-131652370D02*
G75*
G02*
X180740000Y-129347630I1260000J1152370D01*
G01*
X183260000Y-129347630D02*
G75*
G02*
X183260000Y-131652370I-1260000J-1152370D01*
G01*
X182667400Y-130500000D02*
G75*
G02*
X181332600Y-130500000I-667400J0D01*
G01*
X181332600Y-130500000D02*
G75*
G02*
X182667400Y-130500000I667400J0D01*
G01*
%TO.C,Q2*%
X141870000Y-124460000D02*
X141670000Y-124660000D01*
X141870000Y-125460000D02*
X141670000Y-125260000D01*
X141870000Y-127000000D02*
X141670000Y-127200000D01*
X141870000Y-128000000D02*
X141670000Y-127800000D01*
X141870000Y-129540000D02*
X141670000Y-129740000D01*
X141870000Y-130540000D02*
X141670000Y-130340000D01*
X144120000Y-124460000D02*
X141870000Y-124460000D01*
X144120000Y-125460000D02*
X141870000Y-125460000D01*
X144120000Y-127000000D02*
X141870000Y-127000000D01*
X144120000Y-128000000D02*
X141870000Y-128000000D01*
X144120000Y-129540000D02*
X141870000Y-129540000D01*
X144120000Y-130540000D02*
X141870000Y-130540000D01*
X144160000Y-122380000D02*
X144160000Y-132620000D01*
X153520000Y-122385000D02*
X153520000Y-132610000D01*
X157020000Y-122380000D02*
X144160000Y-122380000D01*
X157020000Y-122910000D02*
X157020000Y-122385000D01*
X157020000Y-132060000D02*
X158520000Y-132060000D01*
X157020000Y-132620000D02*
X144160000Y-132620000D01*
X157020000Y-132620000D02*
X157020000Y-132060000D01*
X158520000Y-122380000D02*
X158520000Y-122910000D01*
X158520000Y-122910000D02*
X157020000Y-122910000D01*
X158520000Y-132060000D02*
X158520000Y-132620000D01*
X160050000Y-122380000D02*
X158520000Y-122380000D01*
X160050000Y-122380000D02*
X160050000Y-132620000D01*
X160050000Y-132620000D02*
X158520000Y-132620000D01*
X146120000Y-132560000D02*
G75*
G02*
X148820000Y-132560000I1350000J0D01*
G01*
X148820000Y-122410000D02*
G75*
G02*
X146120000Y-122410000I-1350000J0D01*
G01*
%TO.C,R2*%
X181960000Y-141500000D02*
X182730000Y-141500000D01*
X190040000Y-141500000D02*
X189270000Y-141500000D01*
X182730000Y-140130000D02*
X189270000Y-140130000D01*
X189270000Y-142870000D01*
X182730000Y-142870000D01*
X182730000Y-140130000D01*
%TO.C,R7*%
X196460000Y-141500000D02*
X197230000Y-141500000D01*
X204540000Y-141500000D02*
X203770000Y-141500000D01*
X203770000Y-142870000D02*
X197230000Y-142870000D01*
X197230000Y-140130000D01*
X203770000Y-140130000D01*
X203770000Y-142870000D01*
%TO.C,U1*%
X168109000Y-109200000D02*
X168109000Y-110730000D01*
X168109000Y-109200000D02*
X178349000Y-109200000D01*
X168109000Y-110730000D02*
X168639000Y-110730000D01*
X168109000Y-112230000D02*
X168109000Y-125090000D01*
X168109000Y-125090000D02*
X178349000Y-125090000D01*
X168114000Y-115730000D02*
X178339000Y-115730000D01*
X168639000Y-110730000D02*
X168639000Y-112230000D01*
X168639000Y-112230000D02*
X168114000Y-112230000D01*
X169300000Y-125130000D02*
X169300000Y-127380000D01*
X169300000Y-127380000D02*
X169500000Y-127580000D01*
X170300000Y-125130000D02*
X170300000Y-127380000D01*
X170300000Y-127380000D02*
X170100000Y-127580000D01*
X171000000Y-125130000D02*
X171000000Y-127380000D01*
X171000000Y-127380000D02*
X171200000Y-127580000D01*
X172000000Y-125130000D02*
X172000000Y-127380000D01*
X172000000Y-127380000D02*
X171800000Y-127580000D01*
X172700000Y-125130000D02*
X172700000Y-127380000D01*
X172700000Y-127380000D02*
X172900000Y-127580000D01*
X173700000Y-125130000D02*
X173700000Y-127380000D01*
X173700000Y-127380000D02*
X173500000Y-127580000D01*
X174400000Y-125130000D02*
X174400000Y-127380000D01*
X174400000Y-127380000D02*
X174600000Y-127580000D01*
X175400000Y-125130000D02*
X175400000Y-127380000D01*
X175400000Y-127380000D02*
X175200000Y-127580000D01*
X176100000Y-125130000D02*
X176100000Y-127380000D01*
X176100000Y-127380000D02*
X176300000Y-127580000D01*
X177100000Y-125130000D02*
X177100000Y-127380000D01*
X177100000Y-127380000D02*
X176900000Y-127580000D01*
X177789000Y-110730000D02*
X178349000Y-110730000D01*
X177789000Y-112230000D02*
X177789000Y-110730000D01*
X178349000Y-109200000D02*
X178349000Y-110730000D01*
X178349000Y-112230000D02*
X177789000Y-112230000D01*
X178349000Y-112230000D02*
X178349000Y-125090000D01*
X168139000Y-120430000D02*
G75*
G02*
X168139000Y-123130000I0J-1350000D01*
G01*
X178289000Y-123130000D02*
G75*
G02*
X178289000Y-120430000I0J1350000D01*
G01*
%TO.C,DZ1*%
X163080000Y-125380000D02*
X163080000Y-129620000D01*
X163080000Y-129620000D02*
X165320000Y-129620000D01*
X163311000Y-128262000D02*
X163311000Y-128008000D01*
X163311000Y-128262000D02*
X165089000Y-128262000D01*
X164200000Y-124730000D02*
X164200000Y-125380000D01*
X164200000Y-125380000D02*
X164200000Y-126674500D01*
X164200000Y-129659000D02*
X164200000Y-128262000D01*
X164200000Y-130270000D02*
X164200000Y-129620000D01*
X165320000Y-125380000D02*
X163080000Y-125380000D01*
X165320000Y-129620000D02*
X165320000Y-125380000D01*
D15*
X164200000Y-128262000D02*
X163311000Y-126738000D01*
X165089000Y-126738000D01*
X164200000Y-128262000D01*
G36*
X164200000Y-128262000D02*
G01*
X163311000Y-126738000D01*
X165089000Y-126738000D01*
X164200000Y-128262000D01*
G37*
D11*
%TO.C,D1*%
X197330000Y-153545000D02*
X197330000Y-150455000D01*
X191780000Y-152000000D02*
G75*
G02*
X197330000Y-150455170I2990000J0D01*
G01*
X197330000Y-153544830D02*
G75*
G02*
X191780000Y-152000000I-2560000J1544830D01*
G01*
X197270000Y-152000000D02*
G75*
G02*
X192270000Y-152000000I-2500000J0D01*
G01*
X192270000Y-152000000D02*
G75*
G02*
X197270000Y-152000000I2500000J0D01*
G01*
%TO.C,R3*%
X211960000Y-142000000D02*
X212730000Y-142000000D01*
X220040000Y-142000000D02*
X219270000Y-142000000D01*
X212730000Y-140630000D02*
X219270000Y-140630000D01*
X219270000Y-143370000D01*
X212730000Y-143370000D01*
X212730000Y-140630000D01*
%TD*%
M02*
