%TF.GenerationSoftware,KiCad,Pcbnew,9.0.6*%
%TF.CreationDate,2026-03-12T20:15:24+02:00*%
%TF.ProjectId,Soldering station,536f6c64-6572-4696-9e67-207374617469,rev?*%
%TF.SameCoordinates,Original*%
%TF.FileFunction,Copper,L2,Inr*%
%TF.FilePolarity,Positive*%
%FSLAX46Y46*%
G04 Gerber Fmt 4.6, Leading zero omitted, Abs format (unit mm)*
G04 Created by KiCad (PCBNEW 9.0.6) date 2026-03-12 20:15:24*
%MOMM*%
%LPD*%
G01*
G04 APERTURE LIST*
G04 Aperture macros list*
%AMRoundRect*
0 Rectangle with rounded corners*
0 $1 Rounding radius*
0 $2 $3 $4 $5 $6 $7 $8 $9 X,Y pos of 4 corners*
0 Add a 4 corners polygon primitive as box body*
4,1,4,$2,$3,$4,$5,$6,$7,$8,$9,$2,$3,0*
0 Add four circle primitives for the rounded corners*
1,1,$1+$1,$2,$3*
1,1,$1+$1,$4,$5*
1,1,$1+$1,$6,$7*
1,1,$1+$1,$8,$9*
0 Add four rect primitives between the rounded corners*
20,1,$1+$1,$2,$3,$4,$5,0*
20,1,$1+$1,$4,$5,$6,$7,0*
20,1,$1+$1,$6,$7,$8,$9,0*
20,1,$1+$1,$8,$9,$2,$3,0*%
G04 Aperture macros list end*
%TA.AperFunction,ComponentPad*%
%ADD10O,1.500000X1.500000*%
%TD*%
%TA.AperFunction,ComponentPad*%
%ADD11C,1.600000*%
%TD*%
%TA.AperFunction,ComponentPad*%
%ADD12C,1.270000*%
%TD*%
%TA.AperFunction,ComponentPad*%
%ADD13R,2.000000X2.000000*%
%TD*%
%TA.AperFunction,ComponentPad*%
%ADD14C,2.000000*%
%TD*%
%TA.AperFunction,ComponentPad*%
%ADD15R,2.500000X3.000000*%
%TD*%
%TA.AperFunction,ComponentPad*%
%ADD16R,1.600000X1.600000*%
%TD*%
%TA.AperFunction,ComponentPad*%
%ADD17O,1.600000X1.600000*%
%TD*%
%TA.AperFunction,ComponentPad*%
%ADD18R,2.000000X1.905000*%
%TD*%
%TA.AperFunction,ComponentPad*%
%ADD19O,2.000000X1.905000*%
%TD*%
%TA.AperFunction,ComponentPad*%
%ADD20R,1.508000X1.508000*%
%TD*%
%TA.AperFunction,ComponentPad*%
%ADD21C,1.508000*%
%TD*%
%TA.AperFunction,ComponentPad*%
%ADD22R,1.800000X1.800000*%
%TD*%
%TA.AperFunction,ComponentPad*%
%ADD23C,1.800000*%
%TD*%
%TA.AperFunction,ComponentPad*%
%ADD24RoundRect,0.250000X-0.550000X-0.550000X0.550000X-0.550000X0.550000X0.550000X-0.550000X0.550000X0*%
%TD*%
%TA.AperFunction,ComponentPad*%
%ADD25R,3.200000X3.200000*%
%TD*%
%TA.AperFunction,ComponentPad*%
%ADD26O,3.200000X3.200000*%
%TD*%
%TA.AperFunction,ComponentPad*%
%ADD27O,2.000000X4.000000*%
%TD*%
%TA.AperFunction,ComponentPad*%
%ADD28O,4.000000X2.000000*%
%TD*%
%TA.AperFunction,ComponentPad*%
%ADD29O,2.300000X4.600000*%
%TD*%
%TA.AperFunction,ComponentPad*%
%ADD30R,1.275000X1.800000*%
%TD*%
%TA.AperFunction,ComponentPad*%
%ADD31O,1.275000X1.800000*%
%TD*%
G04 APERTURE END LIST*
D10*
%TO.N,TS1*%
%TO.C,J2*%
X187500000Y-153000000D03*
%TO.N,GND2*%
X187500000Y-150500001D03*
X185334937Y-149250001D03*
%TO.N,VCC*%
X183169874Y-150500001D03*
%TO.N,Heater*%
X183169874Y-153000001D03*
%TD*%
D11*
%TO.N,GND2*%
%TO.C,R1*%
X154280000Y-135500000D03*
%TO.N,Net-(DZ1-A)*%
X144120000Y-135500000D03*
%TD*%
D12*
%TO.N,VIN*%
%TO.C,F1*%
X165500000Y-111950000D03*
%TO.N,ptc*%
X163900000Y-117050000D03*
%TD*%
D13*
%TO.N,D2*%
%TO.C,SW1*%
X212500000Y-159050000D03*
D14*
%TO.N,D3*%
X217500000Y-159050000D03*
%TO.N,GND2*%
X215000000Y-159050000D03*
D15*
%TO.N,N/C*%
X209400000Y-151550000D03*
X220600000Y-151550000D03*
%TD*%
D16*
%TO.N,unconnected-(A1-D1{slash}TX-Pad1)*%
%TO.C,A1*%
X181320000Y-91000000D03*
D17*
%TO.N,unconnected-(A1-D0{slash}RX-Pad2)*%
X178780000Y-91000000D03*
%TO.N,unconnected-(A1-~{RESET}-Pad3)*%
X176240000Y-91000000D03*
%TO.N,GND2*%
X173700000Y-91000000D03*
%TO.N,D2*%
X171160000Y-91000000D03*
%TO.N,D3*%
X168620000Y-91000000D03*
%TO.N,unconnected-(A1-D4-Pad7)*%
X166080000Y-91000000D03*
%TO.N,unconnected-(A1-D5-Pad8)*%
X163540000Y-91000000D03*
%TO.N,unconnected-(A1-D6-Pad9)*%
X161000000Y-91000000D03*
%TO.N,unconnected-(A1-D7-Pad10)*%
X158460000Y-91000000D03*
%TO.N,unconnected-(A1-D8-Pad11)*%
X155920000Y-91000000D03*
%TO.N,D9*%
X153380000Y-91000000D03*
%TO.N,D10*%
X150840000Y-91000000D03*
%TO.N,D11*%
X148300000Y-91000000D03*
%TO.N,unconnected-(A1-D12-Pad15)*%
X145760000Y-91000000D03*
%TO.N,unconnected-(A1-D13-Pad16)*%
X145760000Y-106240000D03*
%TO.N,unconnected-(A1-3V3-Pad17)*%
X148300000Y-106240000D03*
%TO.N,unconnected-(A1-AREF-Pad18)*%
X150840000Y-106240000D03*
%TO.N,A0*%
X153380000Y-106240000D03*
%TO.N,unconnected-(A1-A1-Pad20)*%
X155920000Y-106240000D03*
%TO.N,unconnected-(A1-A2-Pad21)*%
X158460000Y-106240000D03*
%TO.N,unconnected-(A1-A3-Pad22)*%
X161000000Y-106240000D03*
%TO.N,SDA*%
X163540000Y-106240000D03*
%TO.N,SCK*%
X166080000Y-106240000D03*
%TO.N,unconnected-(A1-A6-Pad25)*%
X168620000Y-106240000D03*
%TO.N,unconnected-(A1-A7-Pad26)*%
X171160000Y-106240000D03*
%TO.N,5V*%
X173700000Y-106240000D03*
%TO.N,unconnected-(A1-~{RESET}-Pad28)*%
X176240000Y-106240000D03*
%TO.N,GND2*%
X178780000Y-106240000D03*
%TO.N,unconnected-(A1-VIN-Pad30)*%
X181320000Y-106240000D03*
%TD*%
D11*
%TO.N,GND2*%
%TO.C,R6*%
X205580000Y-137500000D03*
%TO.N,Net-(D2-K)*%
X195420000Y-137500000D03*
%TD*%
D18*
%TO.N,D9*%
%TO.C,Q3*%
X220230000Y-132540000D03*
D19*
%TO.N,Heater*%
X220230000Y-130000000D03*
%TO.N,GND2*%
X220230000Y-127460000D03*
%TD*%
D20*
%TO.N,5V*%
%TO.C,DS1*%
X200500000Y-91000000D03*
D21*
%TO.N,GND2*%
X203040000Y-91000000D03*
%TO.N,SCK*%
X205580000Y-91000000D03*
%TO.N,SDA*%
X208120000Y-91000000D03*
%TD*%
D22*
%TO.N,Net-(D2-K)*%
%TO.C,D2*%
X203000000Y-153275000D03*
D23*
%TO.N,D10*%
X203000000Y-150735000D03*
%TD*%
D24*
%TO.N,5V*%
%TO.C,C1*%
X172200000Y-137000000D03*
D11*
%TO.N,GND2*%
X174700000Y-137000000D03*
%TD*%
%TO.N,Net-(U2A--)*%
%TO.C,R4*%
X180840000Y-137500000D03*
%TO.N,A0*%
X191000000Y-137500000D03*
%TD*%
%TO.N,GND2*%
%TO.C,R5*%
X210920000Y-138000000D03*
%TO.N,Net-(U2A--)*%
X221080000Y-138000000D03*
%TD*%
D24*
%TO.N,VCC*%
%TO.C,C3*%
X161047349Y-137000000D03*
D11*
%TO.N,GND2*%
X164547349Y-137000000D03*
%TD*%
D25*
%TO.N,Net-(D3-K)*%
%TO.C,D3*%
X181950000Y-123700000D03*
D26*
%TO.N,GND2*%
X181950000Y-111000000D03*
%TD*%
D27*
%TO.N,GND2*%
%TO.C,J3*%
X139000000Y-115301000D03*
D28*
X142048000Y-120000000D03*
D29*
%TO.N,VIN*%
X144969000Y-115301000D03*
%TD*%
D16*
%TO.N,A0*%
%TO.C,U2*%
X189700000Y-133810000D03*
D17*
%TO.N,Net-(U2A--)*%
X192240000Y-133810000D03*
%TO.N,TS1*%
X194780000Y-133810000D03*
%TO.N,GND2*%
X197320000Y-133810000D03*
%TO.N,N/C*%
X197320000Y-126190000D03*
X194780000Y-126190000D03*
X192240000Y-126190000D03*
%TO.N,5V*%
X189700000Y-126190000D03*
%TD*%
D14*
%TO.N,Net-(D3-K)*%
%TO.C,L1*%
X182000000Y-133700000D03*
%TO.N,5V*%
X182000000Y-127300000D03*
%TD*%
D18*
%TO.N,Net-(DZ1-A)*%
%TO.C,Q2*%
X140470000Y-124960000D03*
D19*
%TO.N,VCC*%
X140470000Y-127500000D03*
%TO.N,ptc*%
X140470000Y-130040000D03*
%TD*%
D11*
%TO.N,D9*%
%TO.C,R2*%
X180920000Y-141500000D03*
%TO.N,GND2*%
X191080000Y-141500000D03*
%TD*%
%TO.N,GND2*%
%TO.C,R7*%
X205580000Y-141500000D03*
%TO.N,Net-(D1-K)*%
X195420000Y-141500000D03*
%TD*%
D30*
%TO.N,VCC*%
%TO.C,U1*%
X169800000Y-128780000D03*
D31*
%TO.N,Net-(D3-K)*%
X171500000Y-128780000D03*
%TO.N,GND2*%
X173200000Y-128780000D03*
%TO.N,5V*%
X174900000Y-128780000D03*
%TO.N,GND2*%
X176600000Y-128780000D03*
%TD*%
D16*
%TO.N,VCC*%
%TO.C,DZ1*%
X164200000Y-131310000D03*
D17*
%TO.N,Net-(DZ1-A)*%
X164200000Y-123690000D03*
%TD*%
D22*
%TO.N,Net-(D1-K)*%
%TO.C,D1*%
X196040000Y-152000000D03*
D23*
%TO.N,D11*%
X193500000Y-152000000D03*
%TD*%
D11*
%TO.N,5V*%
%TO.C,R3*%
X210920000Y-142000000D03*
%TO.N,TS1*%
X221080000Y-142000000D03*
%TD*%
%TA.AperFunction,Conductor*%
%TO.N,GND2*%
G36*
X229942539Y-84520185D02*
G01*
X229988294Y-84572989D01*
X229999500Y-84624500D01*
X229999500Y-164875500D01*
X229979815Y-164942539D01*
X229927011Y-164988294D01*
X229875500Y-164999500D01*
X132124500Y-164999500D01*
X132057461Y-164979815D01*
X132011706Y-164927011D01*
X132000500Y-164875500D01*
X132000500Y-161881902D01*
X133499500Y-161881902D01*
X133499500Y-162118097D01*
X133536446Y-162351368D01*
X133609433Y-162575996D01*
X133716657Y-162786433D01*
X133855483Y-162977510D01*
X134022490Y-163144517D01*
X134213567Y-163283343D01*
X134312991Y-163334002D01*
X134424003Y-163390566D01*
X134424005Y-163390566D01*
X134424008Y-163390568D01*
X134544412Y-163429689D01*
X134648631Y-163463553D01*
X134881903Y-163500500D01*
X134881908Y-163500500D01*
X135118097Y-163500500D01*
X135351368Y-163463553D01*
X135575992Y-163390568D01*
X135786433Y-163283343D01*
X135977510Y-163144517D01*
X136144517Y-162977510D01*
X136283343Y-162786433D01*
X136390568Y-162575992D01*
X136453632Y-162381902D01*
X225499500Y-162381902D01*
X225499500Y-162618097D01*
X225536446Y-162851368D01*
X225609433Y-163075996D01*
X225644347Y-163144517D01*
X225716657Y-163286433D01*
X225855483Y-163477510D01*
X226022490Y-163644517D01*
X226213567Y-163783343D01*
X226312991Y-163834002D01*
X226424003Y-163890566D01*
X226424005Y-163890566D01*
X226424008Y-163890568D01*
X226544412Y-163929689D01*
X226648631Y-163963553D01*
X226881903Y-164000500D01*
X226881908Y-164000500D01*
X227118097Y-164000500D01*
X227351368Y-163963553D01*
X227575992Y-163890568D01*
X227786433Y-163783343D01*
X227977510Y-163644517D01*
X228144517Y-163477510D01*
X228283343Y-163286433D01*
X228390568Y-163075992D01*
X228463553Y-162851368D01*
X228473838Y-162786433D01*
X228500500Y-162618097D01*
X228500500Y-162381902D01*
X228463553Y-162148631D01*
X228390566Y-161924003D01*
X228283342Y-161713566D01*
X228144517Y-161522490D01*
X227977510Y-161355483D01*
X227786433Y-161216657D01*
X227780367Y-161213566D01*
X227575996Y-161109433D01*
X227351368Y-161036446D01*
X227118097Y-160999500D01*
X227118092Y-160999500D01*
X226881908Y-160999500D01*
X226881903Y-160999500D01*
X226648631Y-161036446D01*
X226424003Y-161109433D01*
X226213566Y-161216657D01*
X226104550Y-161295862D01*
X226022490Y-161355483D01*
X226022488Y-161355485D01*
X226022487Y-161355485D01*
X225855485Y-161522487D01*
X225855485Y-161522488D01*
X225855483Y-161522490D01*
X225795862Y-161604550D01*
X225716657Y-161713566D01*
X225609433Y-161924003D01*
X225536446Y-162148631D01*
X225499500Y-162381902D01*
X136453632Y-162381902D01*
X136463553Y-162351368D01*
X136500500Y-162118097D01*
X136500500Y-161881902D01*
X136463553Y-161648631D01*
X136390566Y-161424003D01*
X136283342Y-161213566D01*
X136144517Y-161022490D01*
X135977510Y-160855483D01*
X135786433Y-160716657D01*
X135575996Y-160609433D01*
X135351368Y-160536446D01*
X135118097Y-160499500D01*
X135118092Y-160499500D01*
X134881908Y-160499500D01*
X134881903Y-160499500D01*
X134648631Y-160536446D01*
X134424003Y-160609433D01*
X134213566Y-160716657D01*
X134104550Y-160795862D01*
X134022490Y-160855483D01*
X134022488Y-160855485D01*
X134022487Y-160855485D01*
X133855485Y-161022487D01*
X133855485Y-161022488D01*
X133855483Y-161022490D01*
X133845343Y-161036447D01*
X133716657Y-161213566D01*
X133609433Y-161424003D01*
X133536446Y-161648631D01*
X133499500Y-161881902D01*
X132000500Y-161881902D01*
X132000500Y-158002135D01*
X210999500Y-158002135D01*
X210999500Y-160097870D01*
X210999501Y-160097876D01*
X211005908Y-160157483D01*
X211056202Y-160292328D01*
X211056206Y-160292335D01*
X211142452Y-160407544D01*
X211142455Y-160407547D01*
X211257664Y-160493793D01*
X211257671Y-160493797D01*
X211392517Y-160544091D01*
X211392516Y-160544091D01*
X211399444Y-160544835D01*
X211452127Y-160550500D01*
X213547872Y-160550499D01*
X213607483Y-160544091D01*
X213742331Y-160493796D01*
X213857546Y-160407546D01*
X213943796Y-160292331D01*
X213943796Y-160292329D01*
X213945989Y-160289401D01*
X214001923Y-160247530D01*
X214071615Y-160242546D01*
X214118142Y-160263394D01*
X214213828Y-160332914D01*
X214424197Y-160440102D01*
X214648752Y-160513065D01*
X214648751Y-160513065D01*
X214881948Y-160550000D01*
X215118052Y-160550000D01*
X215351247Y-160513065D01*
X215575802Y-160440102D01*
X215786163Y-160332918D01*
X215786169Y-160332914D01*
X215869104Y-160272658D01*
X215869105Y-160272658D01*
X215129409Y-159532962D01*
X215192993Y-159515925D01*
X215307007Y-159450099D01*
X215400099Y-159357007D01*
X215465925Y-159242993D01*
X215482962Y-159179408D01*
X216229270Y-159925717D01*
X216272943Y-159934891D01*
X216314614Y-159971259D01*
X216355483Y-160027510D01*
X216522490Y-160194517D01*
X216713567Y-160333343D01*
X216812991Y-160384002D01*
X216924003Y-160440566D01*
X216924005Y-160440566D01*
X216924008Y-160440568D01*
X217044412Y-160479689D01*
X217148631Y-160513553D01*
X217381903Y-160550500D01*
X217381908Y-160550500D01*
X217618097Y-160550500D01*
X217851368Y-160513553D01*
X217852870Y-160513065D01*
X218075992Y-160440568D01*
X218286433Y-160333343D01*
X218477510Y-160194517D01*
X218644517Y-160027510D01*
X218783343Y-159836433D01*
X218890568Y-159625992D01*
X218963553Y-159401368D01*
X218970579Y-159357007D01*
X219000500Y-159168097D01*
X219000500Y-158931902D01*
X218963553Y-158698631D01*
X218890566Y-158474003D01*
X218783342Y-158263566D01*
X218716382Y-158171404D01*
X218644517Y-158072490D01*
X218477510Y-157905483D01*
X218286433Y-157766657D01*
X218075996Y-157659433D01*
X217851368Y-157586446D01*
X217618097Y-157549500D01*
X217618092Y-157549500D01*
X217381908Y-157549500D01*
X217381903Y-157549500D01*
X217148631Y-157586446D01*
X216924003Y-157659433D01*
X216713566Y-157766657D01*
X216657119Y-157807669D01*
X216522490Y-157905483D01*
X216522488Y-157905485D01*
X216522487Y-157905485D01*
X216355482Y-158072490D01*
X216314615Y-158128739D01*
X216259285Y-158171404D01*
X216227455Y-158176096D01*
X215482962Y-158920590D01*
X215465925Y-158857007D01*
X215400099Y-158742993D01*
X215307007Y-158649901D01*
X215192993Y-158584075D01*
X215129408Y-158567037D01*
X215869105Y-157827340D01*
X215869104Y-157827338D01*
X215786174Y-157767087D01*
X215575802Y-157659897D01*
X215351247Y-157586934D01*
X215351248Y-157586934D01*
X215118052Y-157550000D01*
X214881948Y-157550000D01*
X214648752Y-157586934D01*
X214424197Y-157659897D01*
X214213824Y-157767087D01*
X214118141Y-157836605D01*
X214052334Y-157860085D01*
X213984281Y-157844259D01*
X213945990Y-157810599D01*
X213897843Y-157746284D01*
X213857546Y-157692454D01*
X213857544Y-157692453D01*
X213857544Y-157692452D01*
X213742335Y-157606206D01*
X213742328Y-157606202D01*
X213607482Y-157555908D01*
X213607483Y-157555908D01*
X213547883Y-157549501D01*
X213547881Y-157549500D01*
X213547873Y-157549500D01*
X213547864Y-157549500D01*
X211452129Y-157549500D01*
X211452123Y-157549501D01*
X211392516Y-157555908D01*
X211257671Y-157606202D01*
X211257664Y-157606206D01*
X211142455Y-157692452D01*
X211142452Y-157692455D01*
X211056206Y-157807664D01*
X211056202Y-157807671D01*
X211005908Y-157942517D01*
X210999501Y-158002116D01*
X210999500Y-158002135D01*
X132000500Y-158002135D01*
X132000500Y-150401578D01*
X181919374Y-150401578D01*
X181919374Y-150598423D01*
X181950164Y-150792827D01*
X182010991Y-150980030D01*
X182065822Y-151087641D01*
X182100350Y-151155406D01*
X182216046Y-151314647D01*
X182355228Y-151453829D01*
X182514469Y-151569525D01*
X182583487Y-151604691D01*
X182651834Y-151639516D01*
X182702630Y-151687491D01*
X182719425Y-151755312D01*
X182696888Y-151821447D01*
X182651834Y-151860486D01*
X182514468Y-151930477D01*
X182423615Y-151996486D01*
X182355228Y-152046173D01*
X182355226Y-152046175D01*
X182355225Y-152046175D01*
X182216048Y-152185352D01*
X182216048Y-152185353D01*
X182216046Y-152185355D01*
X182166359Y-152253742D01*
X182100350Y-152344595D01*
X182010991Y-152519971D01*
X181950164Y-152707174D01*
X181919374Y-152901578D01*
X181919374Y-153098423D01*
X181950164Y-153292827D01*
X182010991Y-153480030D01*
X182100349Y-153655405D01*
X182100350Y-153655406D01*
X182216046Y-153814647D01*
X182355228Y-153953829D01*
X182514469Y-154069525D01*
X182597329Y-154111744D01*
X182689844Y-154158883D01*
X182689846Y-154158883D01*
X182689849Y-154158885D01*
X182790191Y-154191488D01*
X182877047Y-154219710D01*
X183071452Y-154250501D01*
X183071457Y-154250501D01*
X183268296Y-154250501D01*
X183462700Y-154219710D01*
X183462703Y-154219709D01*
X183649899Y-154158885D01*
X183825279Y-154069525D01*
X183984520Y-153953829D01*
X184123702Y-153814647D01*
X184239398Y-153655406D01*
X184328758Y-153480026D01*
X184389583Y-153292827D01*
X184395171Y-153257544D01*
X184420374Y-153098423D01*
X184420374Y-152901578D01*
X184389583Y-152707174D01*
X184328756Y-152519971D01*
X184239397Y-152344595D01*
X184123702Y-152185355D01*
X183984520Y-152046173D01*
X183825279Y-151930477D01*
X183687912Y-151860485D01*
X183637117Y-151812512D01*
X183620322Y-151744691D01*
X183642859Y-151678556D01*
X183687913Y-151639516D01*
X183825279Y-151569525D01*
X183984520Y-151453829D01*
X184123702Y-151314647D01*
X184239398Y-151155406D01*
X184328758Y-150980026D01*
X184389583Y-150792827D01*
X184403952Y-150702103D01*
X184420374Y-150598423D01*
X184420374Y-150401578D01*
X184418708Y-150391063D01*
X184427659Y-150321769D01*
X184472653Y-150268316D01*
X184539404Y-150247673D01*
X184606718Y-150266395D01*
X184614066Y-150271342D01*
X184679793Y-150319096D01*
X184855101Y-150408419D01*
X185042231Y-150469222D01*
X185236555Y-150500001D01*
X185433319Y-150500001D01*
X185627642Y-150469222D01*
X185814772Y-150408419D01*
X185990081Y-150319096D01*
X186056378Y-150270927D01*
X186122184Y-150247446D01*
X186190238Y-150263270D01*
X186238934Y-150313375D01*
X186252810Y-150381853D01*
X186251739Y-150390638D01*
X186250000Y-150401619D01*
X186250000Y-150598383D01*
X186280778Y-150792706D01*
X186341581Y-150979836D01*
X186430905Y-151155146D01*
X186456319Y-151190126D01*
X186456320Y-151190126D01*
X187100000Y-150546446D01*
X187100000Y-150552662D01*
X187127259Y-150654395D01*
X187179920Y-150745607D01*
X187254394Y-150820081D01*
X187345606Y-150872742D01*
X187447339Y-150900001D01*
X187453553Y-150900001D01*
X186809873Y-151543678D01*
X186809873Y-151543679D01*
X186844860Y-151569098D01*
X186982510Y-151639234D01*
X187033307Y-151687208D01*
X187050102Y-151755029D01*
X187027565Y-151821164D01*
X186982511Y-151860204D01*
X186844594Y-151930476D01*
X186769241Y-151985224D01*
X186685354Y-152046172D01*
X186685352Y-152046174D01*
X186685351Y-152046174D01*
X186546174Y-152185351D01*
X186546174Y-152185352D01*
X186546172Y-152185354D01*
X186496485Y-152253741D01*
X186430476Y-152344594D01*
X186341117Y-152519970D01*
X186280290Y-152707173D01*
X186249500Y-152901577D01*
X186249500Y-153098422D01*
X186280290Y-153292826D01*
X186341117Y-153480029D01*
X186430476Y-153655405D01*
X186546172Y-153814646D01*
X186685354Y-153953828D01*
X186844595Y-154069524D01*
X186927455Y-154111743D01*
X187019970Y-154158882D01*
X187019972Y-154158882D01*
X187019975Y-154158884D01*
X187120317Y-154191487D01*
X187207173Y-154219709D01*
X187401578Y-154250500D01*
X187401583Y-154250500D01*
X187598422Y-154250500D01*
X187792826Y-154219709D01*
X187980025Y-154158884D01*
X188155405Y-154069524D01*
X188314646Y-153953828D01*
X188453828Y-153814646D01*
X188569524Y-153655405D01*
X188658884Y-153480025D01*
X188719709Y-153292826D01*
X188734758Y-153197812D01*
X188750500Y-153098422D01*
X188750500Y-152901577D01*
X188719709Y-152707173D01*
X188691487Y-152620317D01*
X188658884Y-152519975D01*
X188658882Y-152519971D01*
X188658882Y-152519970D01*
X188611743Y-152427455D01*
X188569524Y-152344595D01*
X188453828Y-152185354D01*
X188314646Y-152046172D01*
X188155405Y-151930476D01*
X188075530Y-151889778D01*
X192099500Y-151889778D01*
X192099500Y-152110222D01*
X192111400Y-152185353D01*
X192133985Y-152327952D01*
X192202103Y-152537603D01*
X192202104Y-152537606D01*
X192302187Y-152734025D01*
X192431752Y-152912358D01*
X192431756Y-152912363D01*
X192587636Y-153068243D01*
X192587641Y-153068247D01*
X192689606Y-153142328D01*
X192765978Y-153197815D01*
X192894375Y-153263237D01*
X192962393Y-153297895D01*
X192962396Y-153297896D01*
X193067221Y-153331955D01*
X193172049Y-153366015D01*
X193389778Y-153400500D01*
X193389779Y-153400500D01*
X193610221Y-153400500D01*
X193610222Y-153400500D01*
X193827951Y-153366015D01*
X194037606Y-153297895D01*
X194234022Y-153197815D01*
X194412365Y-153068242D01*
X194462536Y-153018070D01*
X194523857Y-152984586D01*
X194593548Y-152989570D01*
X194649482Y-153031441D01*
X194666398Y-153062419D01*
X194696202Y-153142328D01*
X194696206Y-153142335D01*
X194782452Y-153257544D01*
X194782455Y-153257547D01*
X194897664Y-153343793D01*
X194897671Y-153343797D01*
X195032517Y-153394091D01*
X195032516Y-153394091D01*
X195039444Y-153394835D01*
X195092127Y-153400500D01*
X196987872Y-153400499D01*
X197047483Y-153394091D01*
X197182331Y-153343796D01*
X197297546Y-153257546D01*
X197383796Y-153142331D01*
X197434091Y-153007483D01*
X197440500Y-152947873D01*
X197440499Y-151052128D01*
X197434091Y-150992517D01*
X197429432Y-150980026D01*
X197383797Y-150857671D01*
X197383793Y-150857664D01*
X197297547Y-150742455D01*
X197297544Y-150742452D01*
X197266446Y-150719172D01*
X197182335Y-150656206D01*
X197182328Y-150656202D01*
X197098075Y-150624778D01*
X201599500Y-150624778D01*
X201599500Y-150845222D01*
X201601472Y-150857671D01*
X201633985Y-151062952D01*
X201702103Y-151272603D01*
X201702104Y-151272606D01*
X201723527Y-151314649D01*
X201798807Y-151462393D01*
X201802187Y-151469025D01*
X201931752Y-151647358D01*
X201931756Y-151647363D01*
X201981928Y-151697535D01*
X202015413Y-151758858D01*
X202010429Y-151828550D01*
X201968557Y-151884483D01*
X201937581Y-151901398D01*
X201857669Y-151931203D01*
X201857664Y-151931206D01*
X201742455Y-152017452D01*
X201742452Y-152017455D01*
X201656206Y-152132664D01*
X201656202Y-152132671D01*
X201605908Y-152267517D01*
X201599501Y-152327116D01*
X201599501Y-152327123D01*
X201599500Y-152327135D01*
X201599500Y-154222870D01*
X201599501Y-154222876D01*
X201605908Y-154282483D01*
X201656202Y-154417328D01*
X201656206Y-154417335D01*
X201742452Y-154532544D01*
X201742455Y-154532547D01*
X201857664Y-154618793D01*
X201857671Y-154618797D01*
X201992517Y-154669091D01*
X201992516Y-154669091D01*
X201999444Y-154669835D01*
X202052127Y-154675500D01*
X203947872Y-154675499D01*
X204007483Y-154669091D01*
X204142331Y-154618796D01*
X204257546Y-154532546D01*
X204343796Y-154417331D01*
X204394091Y-154282483D01*
X204400500Y-154222873D01*
X204400499Y-152327128D01*
X204394091Y-152267517D01*
X204363446Y-152185354D01*
X204343797Y-152132671D01*
X204343793Y-152132664D01*
X204257547Y-152017455D01*
X204257544Y-152017452D01*
X204142335Y-151931206D01*
X204142328Y-151931202D01*
X204062419Y-151901398D01*
X204006485Y-151859527D01*
X203982068Y-151794062D01*
X203996920Y-151725789D01*
X204018069Y-151697537D01*
X204068242Y-151647365D01*
X204197815Y-151469022D01*
X204297895Y-151272606D01*
X204366015Y-151062951D01*
X204400500Y-150845222D01*
X204400500Y-150624778D01*
X204366015Y-150407049D01*
X204320939Y-150268316D01*
X204297896Y-150197396D01*
X204297893Y-150197388D01*
X204225393Y-150055102D01*
X204225392Y-150055101D01*
X204207591Y-150020165D01*
X204198405Y-150002135D01*
X207649500Y-150002135D01*
X207649500Y-153097870D01*
X207649501Y-153097876D01*
X207655908Y-153157483D01*
X207706202Y-153292328D01*
X207706206Y-153292335D01*
X207792452Y-153407544D01*
X207792455Y-153407547D01*
X207907664Y-153493793D01*
X207907671Y-153493797D01*
X208042517Y-153544091D01*
X208042516Y-153544091D01*
X208049444Y-153544835D01*
X208102127Y-153550500D01*
X210697872Y-153550499D01*
X210757483Y-153544091D01*
X210892331Y-153493796D01*
X211007546Y-153407546D01*
X211093796Y-153292331D01*
X211144091Y-153157483D01*
X211150500Y-153097873D01*
X211150499Y-150002135D01*
X218849500Y-150002135D01*
X218849500Y-153097870D01*
X218849501Y-153097876D01*
X218855908Y-153157483D01*
X218906202Y-153292328D01*
X218906206Y-153292335D01*
X218992452Y-153407544D01*
X218992455Y-153407547D01*
X219107664Y-153493793D01*
X219107671Y-153493797D01*
X219242517Y-153544091D01*
X219242516Y-153544091D01*
X219249444Y-153544835D01*
X219302127Y-153550500D01*
X221897872Y-153550499D01*
X221957483Y-153544091D01*
X222092331Y-153493796D01*
X222207546Y-153407546D01*
X222293796Y-153292331D01*
X222344091Y-153157483D01*
X222350500Y-153097873D01*
X222350499Y-150002128D01*
X222344091Y-149942517D01*
X222307568Y-149844595D01*
X222293797Y-149807671D01*
X222293793Y-149807664D01*
X222207547Y-149692455D01*
X222207544Y-149692452D01*
X222092335Y-149606206D01*
X222092328Y-149606202D01*
X221957482Y-149555908D01*
X221957483Y-149555908D01*
X221897883Y-149549501D01*
X221897881Y-149549500D01*
X221897873Y-149549500D01*
X221897864Y-149549500D01*
X219302129Y-149549500D01*
X219302123Y-149549501D01*
X219242516Y-149555908D01*
X219107671Y-149606202D01*
X219107664Y-149606206D01*
X218992455Y-149692452D01*
X218992452Y-149692455D01*
X218906206Y-149807664D01*
X218906202Y-149807671D01*
X218855908Y-149942517D01*
X218849501Y-150002116D01*
X218849501Y-150002123D01*
X218849500Y-150002135D01*
X211150499Y-150002135D01*
X211150499Y-150002128D01*
X211144091Y-149942517D01*
X211107568Y-149844595D01*
X211093797Y-149807671D01*
X211093793Y-149807664D01*
X211007547Y-149692455D01*
X211007544Y-149692452D01*
X210892335Y-149606206D01*
X210892328Y-149606202D01*
X210757482Y-149555908D01*
X210757483Y-149555908D01*
X210697883Y-149549501D01*
X210697881Y-149549500D01*
X210697873Y-149549500D01*
X210697864Y-149549500D01*
X208102129Y-149549500D01*
X208102123Y-149549501D01*
X208042516Y-149555908D01*
X207907671Y-149606202D01*
X207907664Y-149606206D01*
X207792455Y-149692452D01*
X207792452Y-149692455D01*
X207706206Y-149807664D01*
X207706202Y-149807671D01*
X207655908Y-149942517D01*
X207649501Y-150002116D01*
X207649501Y-150002123D01*
X207649500Y-150002135D01*
X204198405Y-150002135D01*
X204197815Y-150000978D01*
X204084197Y-149844595D01*
X204068247Y-149822641D01*
X204068243Y-149822636D01*
X203912363Y-149666756D01*
X203912358Y-149666752D01*
X203734025Y-149537187D01*
X203734024Y-149537186D01*
X203734022Y-149537185D01*
X203665057Y-149502045D01*
X203537606Y-149437104D01*
X203537603Y-149437103D01*
X203327952Y-149368985D01*
X203219086Y-149351742D01*
X203110222Y-149334500D01*
X202889778Y-149334500D01*
X202817201Y-149345995D01*
X202672047Y-149368985D01*
X202462396Y-149437103D01*
X202462393Y-149437104D01*
X202265974Y-149537187D01*
X202087641Y-149666752D01*
X202087636Y-149666756D01*
X201931756Y-149822636D01*
X201931752Y-149822641D01*
X201802187Y-150000974D01*
X201702104Y-150197393D01*
X201702103Y-150197396D01*
X201633985Y-150407047D01*
X201610922Y-150552662D01*
X201599500Y-150624778D01*
X197098075Y-150624778D01*
X197047482Y-150605908D01*
X197047483Y-150605908D01*
X196987883Y-150599501D01*
X196987881Y-150599500D01*
X196987873Y-150599500D01*
X196987864Y-150599500D01*
X195092129Y-150599500D01*
X195092123Y-150599501D01*
X195032516Y-150605908D01*
X194897671Y-150656202D01*
X194897664Y-150656206D01*
X194782455Y-150742452D01*
X194782452Y-150742455D01*
X194696206Y-150857664D01*
X194696203Y-150857669D01*
X194666398Y-150937581D01*
X194624526Y-150993514D01*
X194559062Y-151017931D01*
X194490789Y-151003079D01*
X194462535Y-150981928D01*
X194412363Y-150931756D01*
X194412358Y-150931752D01*
X194234025Y-150802187D01*
X194234024Y-150802186D01*
X194234022Y-150802185D01*
X194116791Y-150742452D01*
X194037606Y-150702104D01*
X194037603Y-150702103D01*
X193827952Y-150633985D01*
X193719086Y-150616742D01*
X193610222Y-150599500D01*
X193389778Y-150599500D01*
X193317201Y-150610995D01*
X193172047Y-150633985D01*
X192962396Y-150702103D01*
X192962393Y-150702104D01*
X192765974Y-150802187D01*
X192587641Y-150931752D01*
X192587636Y-150931756D01*
X192431756Y-151087636D01*
X192431752Y-151087641D01*
X192302187Y-151265974D01*
X192202104Y-151462393D01*
X192202103Y-151462396D01*
X192133985Y-151672047D01*
X192111738Y-151812512D01*
X192099500Y-151889778D01*
X188075530Y-151889778D01*
X188058124Y-151880909D01*
X188017488Y-151860204D01*
X187966692Y-151812229D01*
X187949897Y-151744409D01*
X187972434Y-151678274D01*
X188017489Y-151639234D01*
X188155141Y-151569098D01*
X188190125Y-151543679D01*
X188190126Y-151543679D01*
X187546448Y-150900001D01*
X187552661Y-150900001D01*
X187654394Y-150872742D01*
X187745606Y-150820081D01*
X187820080Y-150745607D01*
X187872741Y-150654395D01*
X187900000Y-150552662D01*
X187900000Y-150546449D01*
X188543678Y-151190127D01*
X188543678Y-151190126D01*
X188569095Y-151155144D01*
X188658418Y-150979836D01*
X188719221Y-150792706D01*
X188750000Y-150598383D01*
X188750000Y-150401618D01*
X188719221Y-150207295D01*
X188658418Y-150020165D01*
X188569096Y-149844859D01*
X188543678Y-149809874D01*
X188543677Y-149809874D01*
X187900000Y-150453552D01*
X187900000Y-150447340D01*
X187872741Y-150345607D01*
X187820080Y-150254395D01*
X187745606Y-150179921D01*
X187654394Y-150127260D01*
X187552661Y-150100001D01*
X187546446Y-150100001D01*
X188190125Y-149456321D01*
X188190125Y-149456320D01*
X188155145Y-149430906D01*
X187979835Y-149341582D01*
X187792705Y-149280779D01*
X187598382Y-149250001D01*
X187401618Y-149250001D01*
X187207294Y-149280779D01*
X187020164Y-149341582D01*
X186844856Y-149430905D01*
X186778557Y-149479075D01*
X186712750Y-149502555D01*
X186644696Y-149486730D01*
X186596001Y-149436624D01*
X186582126Y-149368146D01*
X186583198Y-149359354D01*
X186584937Y-149348377D01*
X186584937Y-149151618D01*
X186554158Y-148957295D01*
X186493355Y-148770165D01*
X186404033Y-148594859D01*
X186378615Y-148559874D01*
X186378614Y-148559874D01*
X185734937Y-149203552D01*
X185734937Y-149197340D01*
X185707678Y-149095607D01*
X185655017Y-149004395D01*
X185580543Y-148929921D01*
X185489331Y-148877260D01*
X185387598Y-148850001D01*
X185381384Y-148850001D01*
X186025062Y-148206321D01*
X186025062Y-148206320D01*
X185990082Y-148180906D01*
X185814772Y-148091582D01*
X185627642Y-148030779D01*
X185433319Y-148000001D01*
X185236555Y-148000001D01*
X185042231Y-148030779D01*
X184855098Y-148091583D01*
X184679800Y-148180900D01*
X184679796Y-148180903D01*
X184644810Y-148206321D01*
X184644809Y-148206321D01*
X185288491Y-148850001D01*
X185282276Y-148850001D01*
X185180543Y-148877260D01*
X185089331Y-148929921D01*
X185014857Y-149004395D01*
X184962196Y-149095607D01*
X184934937Y-149197340D01*
X184934937Y-149203553D01*
X184291257Y-148559873D01*
X184291257Y-148559874D01*
X184265839Y-148594860D01*
X184265836Y-148594864D01*
X184176519Y-148770162D01*
X184115715Y-148957295D01*
X184084937Y-149151618D01*
X184084937Y-149348383D01*
X184086565Y-149358665D01*
X184077607Y-149427958D01*
X184032609Y-149481408D01*
X183965856Y-149502045D01*
X183898543Y-149483317D01*
X183891205Y-149478375D01*
X183825283Y-149430479D01*
X183649903Y-149341118D01*
X183462700Y-149280291D01*
X183268296Y-149249501D01*
X183268291Y-149249501D01*
X183071457Y-149249501D01*
X183071452Y-149249501D01*
X182877047Y-149280291D01*
X182689844Y-149341118D01*
X182514468Y-149430477D01*
X182448543Y-149478375D01*
X182355228Y-149546173D01*
X182355226Y-149546175D01*
X182355225Y-149546175D01*
X182216048Y-149685352D01*
X182216048Y-149685353D01*
X182216046Y-149685355D01*
X182210888Y-149692455D01*
X182100350Y-149844595D01*
X182010991Y-150019971D01*
X181950164Y-150207174D01*
X181919374Y-150401578D01*
X132000500Y-150401578D01*
X132000500Y-141397648D01*
X179619500Y-141397648D01*
X179619500Y-141602351D01*
X179651522Y-141804534D01*
X179714781Y-141999223D01*
X179767328Y-142102351D01*
X179807585Y-142181359D01*
X179807715Y-142181613D01*
X179928028Y-142347213D01*
X180072786Y-142491971D01*
X180193226Y-142579474D01*
X180238390Y-142612287D01*
X180354607Y-142671503D01*
X180420776Y-142705218D01*
X180420778Y-142705218D01*
X180420781Y-142705220D01*
X180525137Y-142739127D01*
X180615465Y-142768477D01*
X180716557Y-142784488D01*
X180817648Y-142800500D01*
X180817649Y-142800500D01*
X181022351Y-142800500D01*
X181022352Y-142800500D01*
X181224534Y-142768477D01*
X181419219Y-142705220D01*
X181601610Y-142612287D01*
X181757231Y-142499223D01*
X181767213Y-142491971D01*
X181767215Y-142491968D01*
X181767219Y-142491966D01*
X181911966Y-142347219D01*
X181911968Y-142347215D01*
X181911971Y-142347213D01*
X181964732Y-142274590D01*
X182032287Y-142181610D01*
X182125220Y-141999219D01*
X182188477Y-141804534D01*
X182220500Y-141602352D01*
X182220500Y-141397682D01*
X189780000Y-141397682D01*
X189780000Y-141602317D01*
X189812009Y-141804417D01*
X189875244Y-141999031D01*
X189968141Y-142181350D01*
X189968147Y-142181359D01*
X190000523Y-142225921D01*
X190000524Y-142225922D01*
X190680000Y-141546446D01*
X190680000Y-141552661D01*
X190707259Y-141654394D01*
X190759920Y-141745606D01*
X190834394Y-141820080D01*
X190925606Y-141872741D01*
X191027339Y-141900000D01*
X191033553Y-141900000D01*
X190354076Y-142579474D01*
X190398650Y-142611859D01*
X190580968Y-142704755D01*
X190775582Y-142767990D01*
X190977683Y-142800000D01*
X191182317Y-142800000D01*
X191384417Y-142767990D01*
X191579031Y-142704755D01*
X191761349Y-142611859D01*
X191805921Y-142579474D01*
X191126447Y-141900000D01*
X191132661Y-141900000D01*
X191234394Y-141872741D01*
X191325606Y-141820080D01*
X191400080Y-141745606D01*
X191452741Y-141654394D01*
X191480000Y-141552661D01*
X191480000Y-141546447D01*
X192159474Y-142225921D01*
X192191859Y-142181349D01*
X192284755Y-141999031D01*
X192347990Y-141804417D01*
X192380000Y-141602317D01*
X192380000Y-141397682D01*
X192379995Y-141397648D01*
X194119500Y-141397648D01*
X194119500Y-141602351D01*
X194151522Y-141804534D01*
X194214781Y-141999223D01*
X194267328Y-142102351D01*
X194307585Y-142181359D01*
X194307715Y-142181613D01*
X194428028Y-142347213D01*
X194572786Y-142491971D01*
X194693226Y-142579474D01*
X194738390Y-142612287D01*
X194854607Y-142671503D01*
X194920776Y-142705218D01*
X194920778Y-142705218D01*
X194920781Y-142705220D01*
X195025137Y-142739127D01*
X195115465Y-142768477D01*
X195216557Y-142784488D01*
X195317648Y-142800500D01*
X195317649Y-142800500D01*
X195522351Y-142800500D01*
X195522352Y-142800500D01*
X195724534Y-142768477D01*
X195919219Y-142705220D01*
X196101610Y-142612287D01*
X196257231Y-142499223D01*
X196267213Y-142491971D01*
X196267215Y-142491968D01*
X196267219Y-142491966D01*
X196411966Y-142347219D01*
X196411968Y-142347215D01*
X196411971Y-142347213D01*
X196464732Y-142274590D01*
X196532287Y-142181610D01*
X196625220Y-141999219D01*
X196688477Y-141804534D01*
X196720500Y-141602352D01*
X196720500Y-141397682D01*
X204280000Y-141397682D01*
X204280000Y-141602317D01*
X204312009Y-141804417D01*
X204375244Y-141999031D01*
X204468141Y-142181350D01*
X204468147Y-142181359D01*
X204500523Y-142225921D01*
X204500524Y-142225922D01*
X205180000Y-141546446D01*
X205180000Y-141552661D01*
X205207259Y-141654394D01*
X205259920Y-141745606D01*
X205334394Y-141820080D01*
X205425606Y-141872741D01*
X205527339Y-141900000D01*
X205533553Y-141900000D01*
X204854076Y-142579474D01*
X204898650Y-142611859D01*
X205080968Y-142704755D01*
X205275582Y-142767990D01*
X205477683Y-142800000D01*
X205682317Y-142800000D01*
X205884417Y-142767990D01*
X206079031Y-142704755D01*
X206261349Y-142611859D01*
X206305921Y-142579474D01*
X205626447Y-141900000D01*
X205632661Y-141900000D01*
X205734394Y-141872741D01*
X205825606Y-141820080D01*
X205900080Y-141745606D01*
X205952741Y-141654394D01*
X205980000Y-141552661D01*
X205980000Y-141546447D01*
X206659474Y-142225921D01*
X206691859Y-142181349D01*
X206784755Y-141999031D01*
X206817697Y-141897648D01*
X209619500Y-141897648D01*
X209619500Y-142102351D01*
X209651522Y-142304534D01*
X209714781Y-142499223D01*
X209807715Y-142681613D01*
X209928028Y-142847213D01*
X210072786Y-142991971D01*
X210227749Y-143104556D01*
X210238390Y-143112287D01*
X210354607Y-143171503D01*
X210420776Y-143205218D01*
X210420778Y-143205218D01*
X210420781Y-143205220D01*
X210525137Y-143239127D01*
X210615465Y-143268477D01*
X210716557Y-143284488D01*
X210817648Y-143300500D01*
X210817649Y-143300500D01*
X211022351Y-143300500D01*
X211022352Y-143300500D01*
X211224534Y-143268477D01*
X211419219Y-143205220D01*
X211601610Y-143112287D01*
X211694590Y-143044732D01*
X211767213Y-142991971D01*
X211767215Y-142991968D01*
X211767219Y-142991966D01*
X211911966Y-142847219D01*
X211911968Y-142847215D01*
X211911971Y-142847213D01*
X212015133Y-142705220D01*
X212032287Y-142681610D01*
X212125220Y-142499219D01*
X212188477Y-142304534D01*
X212220500Y-142102352D01*
X212220500Y-141897648D01*
X219779500Y-141897648D01*
X219779500Y-142102351D01*
X219811522Y-142304534D01*
X219874781Y-142499223D01*
X219967715Y-142681613D01*
X220088028Y-142847213D01*
X220232786Y-142991971D01*
X220387749Y-143104556D01*
X220398390Y-143112287D01*
X220514607Y-143171503D01*
X220580776Y-143205218D01*
X220580778Y-143205218D01*
X220580781Y-143205220D01*
X220685137Y-143239127D01*
X220775465Y-143268477D01*
X220876557Y-143284488D01*
X220977648Y-143300500D01*
X220977649Y-143300500D01*
X221182351Y-143300500D01*
X221182352Y-143300500D01*
X221384534Y-143268477D01*
X221579219Y-143205220D01*
X221761610Y-143112287D01*
X221854590Y-143044732D01*
X221927213Y-142991971D01*
X221927215Y-142991968D01*
X221927219Y-142991966D01*
X222071966Y-142847219D01*
X222071968Y-142847215D01*
X222071971Y-142847213D01*
X222175133Y-142705220D01*
X222192287Y-142681610D01*
X222285220Y-142499219D01*
X222348477Y-142304534D01*
X222380500Y-142102352D01*
X222380500Y-141897648D01*
X222348477Y-141695466D01*
X222285220Y-141500781D01*
X222285218Y-141500778D01*
X222285218Y-141500776D01*
X222206154Y-141345606D01*
X222192287Y-141318390D01*
X222145792Y-141254394D01*
X222071971Y-141152786D01*
X221927213Y-141008028D01*
X221761613Y-140887715D01*
X221761612Y-140887714D01*
X221761610Y-140887713D01*
X221704653Y-140858691D01*
X221579223Y-140794781D01*
X221384534Y-140731522D01*
X221209995Y-140703878D01*
X221182352Y-140699500D01*
X220977648Y-140699500D01*
X220953329Y-140703351D01*
X220775465Y-140731522D01*
X220580776Y-140794781D01*
X220398386Y-140887715D01*
X220232786Y-141008028D01*
X220088028Y-141152786D01*
X219967715Y-141318386D01*
X219874781Y-141500776D01*
X219811522Y-141695465D01*
X219779500Y-141897648D01*
X212220500Y-141897648D01*
X212188477Y-141695466D01*
X212125220Y-141500781D01*
X212125218Y-141500778D01*
X212125218Y-141500776D01*
X212046154Y-141345606D01*
X212032287Y-141318390D01*
X211985792Y-141254394D01*
X211911971Y-141152786D01*
X211767213Y-141008028D01*
X211601613Y-140887715D01*
X211601612Y-140887714D01*
X211601610Y-140887713D01*
X211544653Y-140858691D01*
X211419223Y-140794781D01*
X211224534Y-140731522D01*
X211049995Y-140703878D01*
X211022352Y-140699500D01*
X210817648Y-140699500D01*
X210793329Y-140703351D01*
X210615465Y-140731522D01*
X210420776Y-140794781D01*
X210238386Y-140887715D01*
X210072786Y-141008028D01*
X209928028Y-141152786D01*
X209807715Y-141318386D01*
X209714781Y-141500776D01*
X209651522Y-141695465D01*
X209619500Y-141897648D01*
X206817697Y-141897648D01*
X206831731Y-141854457D01*
X206847990Y-141804417D01*
X206880000Y-141602317D01*
X206880000Y-141397682D01*
X206847990Y-141195582D01*
X206784755Y-141000968D01*
X206691859Y-140818650D01*
X206659474Y-140774077D01*
X206659474Y-140774076D01*
X205980000Y-141453551D01*
X205980000Y-141447339D01*
X205952741Y-141345606D01*
X205900080Y-141254394D01*
X205825606Y-141179920D01*
X205734394Y-141127259D01*
X205632661Y-141100000D01*
X205626446Y-141100000D01*
X206305922Y-140420524D01*
X206305921Y-140420523D01*
X206261359Y-140388147D01*
X206261350Y-140388141D01*
X206079031Y-140295244D01*
X205884417Y-140232009D01*
X205682317Y-140200000D01*
X205477683Y-140200000D01*
X205275582Y-140232009D01*
X205080968Y-140295244D01*
X204898644Y-140388143D01*
X204854077Y-140420523D01*
X204854077Y-140420524D01*
X205533554Y-141100000D01*
X205527339Y-141100000D01*
X205425606Y-141127259D01*
X205334394Y-141179920D01*
X205259920Y-141254394D01*
X205207259Y-141345606D01*
X205180000Y-141447339D01*
X205180000Y-141453553D01*
X204500524Y-140774077D01*
X204500523Y-140774077D01*
X204468143Y-140818644D01*
X204375244Y-141000968D01*
X204312009Y-141195582D01*
X204280000Y-141397682D01*
X196720500Y-141397682D01*
X196720500Y-141397648D01*
X196707946Y-141318386D01*
X196688477Y-141195465D01*
X196657458Y-141100000D01*
X196625220Y-141000781D01*
X196625218Y-141000778D01*
X196625218Y-141000776D01*
X196567610Y-140887715D01*
X196532287Y-140818390D01*
X196515134Y-140794781D01*
X196411971Y-140652786D01*
X196267213Y-140508028D01*
X196101613Y-140387715D01*
X196101612Y-140387714D01*
X196101610Y-140387713D01*
X196044653Y-140358691D01*
X195919223Y-140294781D01*
X195724534Y-140231522D01*
X195549995Y-140203878D01*
X195522352Y-140199500D01*
X195317648Y-140199500D01*
X195293329Y-140203351D01*
X195115465Y-140231522D01*
X194920776Y-140294781D01*
X194738386Y-140387715D01*
X194572786Y-140508028D01*
X194428028Y-140652786D01*
X194307715Y-140818386D01*
X194214781Y-141000776D01*
X194151522Y-141195465D01*
X194119500Y-141397648D01*
X192379995Y-141397648D01*
X192347990Y-141195582D01*
X192284755Y-141000968D01*
X192191859Y-140818650D01*
X192159474Y-140774077D01*
X192159474Y-140774076D01*
X191480000Y-141453551D01*
X191480000Y-141447339D01*
X191452741Y-141345606D01*
X191400080Y-141254394D01*
X191325606Y-141179920D01*
X191234394Y-141127259D01*
X191132661Y-141100000D01*
X191126446Y-141100000D01*
X191805922Y-140420524D01*
X191805921Y-140420523D01*
X191761359Y-140388147D01*
X191761350Y-140388141D01*
X191579031Y-140295244D01*
X191384417Y-140232009D01*
X191182317Y-140200000D01*
X190977683Y-140200000D01*
X190775582Y-140232009D01*
X190580968Y-140295244D01*
X190398644Y-140388143D01*
X190354077Y-140420523D01*
X190354077Y-140420524D01*
X191033554Y-141100000D01*
X191027339Y-141100000D01*
X190925606Y-141127259D01*
X190834394Y-141179920D01*
X190759920Y-141254394D01*
X190707259Y-141345606D01*
X190680000Y-141447339D01*
X190680000Y-141453553D01*
X190000524Y-140774077D01*
X190000523Y-140774077D01*
X189968143Y-140818644D01*
X189875244Y-141000968D01*
X189812009Y-141195582D01*
X189780000Y-141397682D01*
X182220500Y-141397682D01*
X182220500Y-141397648D01*
X182207946Y-141318386D01*
X182188477Y-141195465D01*
X182157458Y-141100000D01*
X182125220Y-141000781D01*
X182125218Y-141000778D01*
X182125218Y-141000776D01*
X182067610Y-140887715D01*
X182032287Y-140818390D01*
X182015134Y-140794781D01*
X181911971Y-140652786D01*
X181767213Y-140508028D01*
X181601613Y-140387715D01*
X181601612Y-140387714D01*
X181601610Y-140387713D01*
X181544653Y-140358691D01*
X181419223Y-140294781D01*
X181224534Y-140231522D01*
X181049995Y-140203878D01*
X181022352Y-140199500D01*
X180817648Y-140199500D01*
X180793329Y-140203351D01*
X180615465Y-140231522D01*
X180420776Y-140294781D01*
X180238386Y-140387715D01*
X180072786Y-140508028D01*
X179928028Y-140652786D01*
X179807715Y-140818386D01*
X179714781Y-141000776D01*
X179651522Y-141195465D01*
X179619500Y-141397648D01*
X132000500Y-141397648D01*
X132000500Y-135397648D01*
X142819500Y-135397648D01*
X142819500Y-135602351D01*
X142851522Y-135804534D01*
X142914781Y-135999223D01*
X142978691Y-136124653D01*
X143007585Y-136181359D01*
X143007715Y-136181613D01*
X143128028Y-136347213D01*
X143272786Y-136491971D01*
X143393226Y-136579474D01*
X143438390Y-136612287D01*
X143517864Y-136652781D01*
X143620776Y-136705218D01*
X143620778Y-136705218D01*
X143620781Y-136705220D01*
X143703229Y-136732009D01*
X143815465Y-136768477D01*
X143850822Y-136774077D01*
X144017648Y-136800500D01*
X144017649Y-136800500D01*
X144222351Y-136800500D01*
X144222352Y-136800500D01*
X144424534Y-136768477D01*
X144619219Y-136705220D01*
X144801610Y-136612287D01*
X144894590Y-136544732D01*
X144967213Y-136491971D01*
X144967215Y-136491968D01*
X144967219Y-136491966D01*
X145111966Y-136347219D01*
X145111968Y-136347215D01*
X145111971Y-136347213D01*
X145196024Y-136231522D01*
X145232287Y-136181610D01*
X145325220Y-135999219D01*
X145388477Y-135804534D01*
X145420500Y-135602352D01*
X145420500Y-135397682D01*
X152980000Y-135397682D01*
X152980000Y-135602317D01*
X153012009Y-135804417D01*
X153075244Y-135999031D01*
X153168141Y-136181350D01*
X153168147Y-136181359D01*
X153200523Y-136225921D01*
X153200524Y-136225922D01*
X153880000Y-135546446D01*
X153880000Y-135552661D01*
X153907259Y-135654394D01*
X153959920Y-135745606D01*
X154034394Y-135820080D01*
X154125606Y-135872741D01*
X154227339Y-135900000D01*
X154233553Y-135900000D01*
X153554076Y-136579474D01*
X153598650Y-136611859D01*
X153780968Y-136704755D01*
X153975582Y-136767990D01*
X154177683Y-136800000D01*
X154382317Y-136800000D01*
X154584417Y-136767990D01*
X154779031Y-136704755D01*
X154961349Y-136611859D01*
X155005921Y-136579474D01*
X155005922Y-136579474D01*
X154910963Y-136484515D01*
X154826431Y-136399983D01*
X159746849Y-136399983D01*
X159746849Y-137600001D01*
X159746850Y-137600018D01*
X159757349Y-137702796D01*
X159757350Y-137702799D01*
X159791062Y-137804534D01*
X159812535Y-137869334D01*
X159904637Y-138018656D01*
X160028693Y-138142712D01*
X160178015Y-138234814D01*
X160344552Y-138289999D01*
X160447340Y-138300500D01*
X161647357Y-138300499D01*
X161750146Y-138289999D01*
X161916683Y-138234814D01*
X162066005Y-138142712D01*
X162190061Y-138018656D01*
X162282163Y-137869334D01*
X162337348Y-137702797D01*
X162347849Y-137600009D01*
X162347848Y-136897682D01*
X163247349Y-136897682D01*
X163247349Y-137102317D01*
X163279358Y-137304417D01*
X163342593Y-137499031D01*
X163435490Y-137681350D01*
X163435496Y-137681359D01*
X163467872Y-137725921D01*
X163467873Y-137725922D01*
X164147349Y-137046446D01*
X164147349Y-137052661D01*
X164174608Y-137154394D01*
X164227269Y-137245606D01*
X164301743Y-137320080D01*
X164392955Y-137372741D01*
X164494688Y-137400000D01*
X164500902Y-137400000D01*
X163821425Y-138079474D01*
X163865999Y-138111859D01*
X164048317Y-138204755D01*
X164242931Y-138267990D01*
X164445032Y-138300000D01*
X164649666Y-138300000D01*
X164851766Y-138267990D01*
X165046380Y-138204755D01*
X165228698Y-138111859D01*
X165273270Y-138079474D01*
X164593796Y-137400000D01*
X164600010Y-137400000D01*
X164701743Y-137372741D01*
X164792955Y-137320080D01*
X164867429Y-137245606D01*
X164920090Y-137154394D01*
X164947349Y-137052661D01*
X164947349Y-137046447D01*
X165626823Y-137725921D01*
X165659208Y-137681349D01*
X165752104Y-137499031D01*
X165815339Y-137304417D01*
X165847349Y-137102317D01*
X165847349Y-136897682D01*
X165815339Y-136695582D01*
X165752103Y-136500965D01*
X165727730Y-136453130D01*
X165727729Y-136453129D01*
X165700650Y-136399983D01*
X170899500Y-136399983D01*
X170899500Y-137600001D01*
X170899501Y-137600018D01*
X170910000Y-137702796D01*
X170910001Y-137702799D01*
X170943713Y-137804534D01*
X170965186Y-137869334D01*
X171057288Y-138018656D01*
X171181344Y-138142712D01*
X171330666Y-138234814D01*
X171497203Y-138289999D01*
X171599991Y-138300500D01*
X172800008Y-138300499D01*
X172902797Y-138289999D01*
X173069334Y-138234814D01*
X173218656Y-138142712D01*
X173342712Y-138018656D01*
X173434814Y-137869334D01*
X173458102Y-137799054D01*
X173462110Y-137791050D01*
X173480060Y-137771772D01*
X173495055Y-137750116D01*
X173503495Y-137746606D01*
X173509725Y-137739917D01*
X173535249Y-137733404D01*
X173559571Y-137723292D01*
X173575834Y-137723048D01*
X173577425Y-137722643D01*
X173578523Y-137723008D01*
X173582719Y-137722946D01*
X173620525Y-137725921D01*
X174300000Y-137046446D01*
X174300000Y-137052661D01*
X174327259Y-137154394D01*
X174379920Y-137245606D01*
X174454394Y-137320080D01*
X174545606Y-137372741D01*
X174647339Y-137400000D01*
X174653553Y-137400000D01*
X173974076Y-138079474D01*
X174018650Y-138111859D01*
X174200968Y-138204755D01*
X174395582Y-138267990D01*
X174597683Y-138300000D01*
X174802317Y-138300000D01*
X175004417Y-138267990D01*
X175199031Y-138204755D01*
X175381349Y-138111859D01*
X175425921Y-138079474D01*
X174746447Y-137400000D01*
X174752661Y-137400000D01*
X174854394Y-137372741D01*
X174945606Y-137320080D01*
X175020080Y-137245606D01*
X175072741Y-137154394D01*
X175100000Y-137052661D01*
X175100000Y-137046448D01*
X175779474Y-137725922D01*
X175779474Y-137725921D01*
X175811859Y-137681349D01*
X175904755Y-137499031D01*
X175937697Y-137397648D01*
X179539500Y-137397648D01*
X179539500Y-137602351D01*
X179571522Y-137804534D01*
X179634781Y-137999223D01*
X179662010Y-138052661D01*
X179727585Y-138181359D01*
X179727715Y-138181613D01*
X179848028Y-138347213D01*
X179992786Y-138491971D01*
X180113226Y-138579474D01*
X180158390Y-138612287D01*
X180274607Y-138671503D01*
X180340776Y-138705218D01*
X180340778Y-138705218D01*
X180340781Y-138705220D01*
X180445137Y-138739127D01*
X180535465Y-138768477D01*
X180636557Y-138784488D01*
X180737648Y-138800500D01*
X180737649Y-138800500D01*
X180942351Y-138800500D01*
X180942352Y-138800500D01*
X181144534Y-138768477D01*
X181339219Y-138705220D01*
X181521610Y-138612287D01*
X181677231Y-138499223D01*
X181687213Y-138491971D01*
X181687215Y-138491968D01*
X181687219Y-138491966D01*
X181831966Y-138347219D01*
X181831968Y-138347215D01*
X181831971Y-138347213D01*
X181889529Y-138267990D01*
X181952287Y-138181610D01*
X182045220Y-137999219D01*
X182108477Y-137804534D01*
X182140500Y-137602352D01*
X182140500Y-137397648D01*
X189699500Y-137397648D01*
X189699500Y-137602351D01*
X189731522Y-137804534D01*
X189794781Y-137999223D01*
X189822010Y-138052661D01*
X189887585Y-138181359D01*
X189887715Y-138181613D01*
X190008028Y-138347213D01*
X190152786Y-138491971D01*
X190273226Y-138579474D01*
X190318390Y-138612287D01*
X190434607Y-138671503D01*
X190500776Y-138705218D01*
X190500778Y-138705218D01*
X190500781Y-138705220D01*
X190605137Y-138739127D01*
X190695465Y-138768477D01*
X190796557Y-138784488D01*
X190897648Y-138800500D01*
X190897649Y-138800500D01*
X191102351Y-138800500D01*
X191102352Y-138800500D01*
X191304534Y-138768477D01*
X191499219Y-138705220D01*
X191681610Y-138612287D01*
X191837231Y-138499223D01*
X191847213Y-138491971D01*
X191847215Y-138491968D01*
X191847219Y-138491966D01*
X191991966Y-138347219D01*
X191991968Y-138347215D01*
X191991971Y-138347213D01*
X192049529Y-138267990D01*
X192112287Y-138181610D01*
X192205220Y-137999219D01*
X192268477Y-137804534D01*
X192300500Y-137602352D01*
X192300500Y-137397648D01*
X194119500Y-137397648D01*
X194119500Y-137602351D01*
X194151522Y-137804534D01*
X194214781Y-137999223D01*
X194242010Y-138052661D01*
X194307585Y-138181359D01*
X194307715Y-138181613D01*
X194428028Y-138347213D01*
X194572786Y-138491971D01*
X194693226Y-138579474D01*
X194738390Y-138612287D01*
X194854607Y-138671503D01*
X194920776Y-138705218D01*
X194920778Y-138705218D01*
X194920781Y-138705220D01*
X195025137Y-138739127D01*
X195115465Y-138768477D01*
X195216557Y-138784488D01*
X195317648Y-138800500D01*
X195317649Y-138800500D01*
X195522351Y-138800500D01*
X195522352Y-138800500D01*
X195724534Y-138768477D01*
X195919219Y-138705220D01*
X196101610Y-138612287D01*
X196257231Y-138499223D01*
X196267213Y-138491971D01*
X196267215Y-138491968D01*
X196267219Y-138491966D01*
X196411966Y-138347219D01*
X196411968Y-138347215D01*
X196411971Y-138347213D01*
X196469529Y-138267990D01*
X196532287Y-138181610D01*
X196625220Y-137999219D01*
X196688477Y-137804534D01*
X196720500Y-137602352D01*
X196720500Y-137397682D01*
X204280000Y-137397682D01*
X204280000Y-137602317D01*
X204312009Y-137804417D01*
X204375244Y-137999031D01*
X204468141Y-138181350D01*
X204468147Y-138181359D01*
X204500523Y-138225921D01*
X204500524Y-138225922D01*
X205180000Y-137546446D01*
X205180000Y-137552661D01*
X205207259Y-137654394D01*
X205259920Y-137745606D01*
X205334394Y-137820080D01*
X205425606Y-137872741D01*
X205527339Y-137900000D01*
X205533553Y-137900000D01*
X204854076Y-138579474D01*
X204898650Y-138611859D01*
X205080968Y-138704755D01*
X205275582Y-138767990D01*
X205477683Y-138800000D01*
X205682317Y-138800000D01*
X205884417Y-138767990D01*
X206079031Y-138704755D01*
X206261349Y-138611859D01*
X206305921Y-138579474D01*
X205626447Y-137900000D01*
X205632661Y-137900000D01*
X205734394Y-137872741D01*
X205825606Y-137820080D01*
X205900080Y-137745606D01*
X205952741Y-137654394D01*
X205980000Y-137552661D01*
X205980000Y-137546447D01*
X206659474Y-138225921D01*
X206691859Y-138181349D01*
X206784755Y-137999031D01*
X206817686Y-137897682D01*
X209620000Y-137897682D01*
X209620000Y-138102317D01*
X209652009Y-138304417D01*
X209715244Y-138499031D01*
X209808141Y-138681350D01*
X209808147Y-138681359D01*
X209840523Y-138725921D01*
X209840524Y-138725922D01*
X210520000Y-138046446D01*
X210520000Y-138052661D01*
X210547259Y-138154394D01*
X210599920Y-138245606D01*
X210674394Y-138320080D01*
X210765606Y-138372741D01*
X210867339Y-138400000D01*
X210873553Y-138400000D01*
X210194076Y-139079474D01*
X210238650Y-139111859D01*
X210420968Y-139204755D01*
X210615582Y-139267990D01*
X210817683Y-139300000D01*
X211022317Y-139300000D01*
X211224417Y-139267990D01*
X211419031Y-139204755D01*
X211601349Y-139111859D01*
X211645921Y-139079474D01*
X210966447Y-138400000D01*
X210972661Y-138400000D01*
X211074394Y-138372741D01*
X211165606Y-138320080D01*
X211240080Y-138245606D01*
X211292741Y-138154394D01*
X211320000Y-138052661D01*
X211320000Y-138046447D01*
X211999474Y-138725921D01*
X212031859Y-138681349D01*
X212124755Y-138499031D01*
X212187990Y-138304417D01*
X212220000Y-138102317D01*
X212220000Y-137897682D01*
X212219995Y-137897648D01*
X219779500Y-137897648D01*
X219779500Y-138102351D01*
X219811522Y-138304534D01*
X219874781Y-138499223D01*
X219932391Y-138612287D01*
X219967585Y-138681359D01*
X219967715Y-138681613D01*
X220088028Y-138847213D01*
X220232786Y-138991971D01*
X220353226Y-139079474D01*
X220398390Y-139112287D01*
X220514607Y-139171503D01*
X220580776Y-139205218D01*
X220580778Y-139205218D01*
X220580781Y-139205220D01*
X220685137Y-139239127D01*
X220775465Y-139268477D01*
X220876557Y-139284488D01*
X220977648Y-139300500D01*
X220977649Y-139300500D01*
X221182351Y-139300500D01*
X221182352Y-139300500D01*
X221384534Y-139268477D01*
X221579219Y-139205220D01*
X221761610Y-139112287D01*
X221854590Y-139044732D01*
X221927213Y-138991971D01*
X221927215Y-138991968D01*
X221927219Y-138991966D01*
X222071966Y-138847219D01*
X222071968Y-138847215D01*
X222071971Y-138847213D01*
X222129529Y-138767990D01*
X222192287Y-138681610D01*
X222285220Y-138499219D01*
X222348477Y-138304534D01*
X222380500Y-138102352D01*
X222380500Y-137897648D01*
X222360563Y-137771772D01*
X222348477Y-137695465D01*
X222302077Y-137552661D01*
X222285220Y-137500781D01*
X222285218Y-137500778D01*
X222285218Y-137500776D01*
X222219980Y-137372741D01*
X222192287Y-137318390D01*
X222160092Y-137274077D01*
X222071971Y-137152786D01*
X221927213Y-137008028D01*
X221761613Y-136887715D01*
X221761612Y-136887714D01*
X221761610Y-136887713D01*
X221704653Y-136858691D01*
X221579223Y-136794781D01*
X221384534Y-136731522D01*
X221209995Y-136703878D01*
X221182352Y-136699500D01*
X220977648Y-136699500D01*
X220953329Y-136703351D01*
X220775465Y-136731522D01*
X220580776Y-136794781D01*
X220398386Y-136887715D01*
X220232786Y-137008028D01*
X220088028Y-137152786D01*
X219967715Y-137318386D01*
X219874781Y-137500776D01*
X219811522Y-137695465D01*
X219779500Y-137897648D01*
X212219995Y-137897648D01*
X212187990Y-137695582D01*
X212124755Y-137500968D01*
X212031859Y-137318650D01*
X211999474Y-137274077D01*
X211999474Y-137274076D01*
X211320000Y-137953551D01*
X211320000Y-137947339D01*
X211292741Y-137845606D01*
X211240080Y-137754394D01*
X211165606Y-137679920D01*
X211074394Y-137627259D01*
X210972661Y-137600000D01*
X210966446Y-137600000D01*
X211645922Y-136920524D01*
X211645921Y-136920523D01*
X211601359Y-136888147D01*
X211601350Y-136888141D01*
X211419031Y-136795244D01*
X211224417Y-136732009D01*
X211022317Y-136700000D01*
X210817683Y-136700000D01*
X210615582Y-136732009D01*
X210420968Y-136795244D01*
X210238644Y-136888143D01*
X210194077Y-136920523D01*
X210194077Y-136920524D01*
X210873554Y-137600000D01*
X210867339Y-137600000D01*
X210765606Y-137627259D01*
X210674394Y-137679920D01*
X210599920Y-137754394D01*
X210547259Y-137845606D01*
X210520000Y-137947339D01*
X210520000Y-137953553D01*
X209840524Y-137274077D01*
X209840523Y-137274077D01*
X209808143Y-137318644D01*
X209715244Y-137500968D01*
X209652009Y-137695582D01*
X209620000Y-137897682D01*
X206817686Y-137897682D01*
X206831718Y-137854497D01*
X206847990Y-137804417D01*
X206880000Y-137602317D01*
X206880000Y-137397682D01*
X206847990Y-137195582D01*
X206786423Y-137006102D01*
X206784754Y-137000967D01*
X206691859Y-136818650D01*
X206659474Y-136774077D01*
X206659474Y-136774076D01*
X205980000Y-137453551D01*
X205980000Y-137447339D01*
X205952741Y-137345606D01*
X205900080Y-137254394D01*
X205825606Y-137179920D01*
X205734394Y-137127259D01*
X205632661Y-137100000D01*
X205626446Y-137100000D01*
X206305922Y-136420524D01*
X206305921Y-136420523D01*
X206261359Y-136388147D01*
X206261350Y-136388141D01*
X206079031Y-136295244D01*
X205884417Y-136232009D01*
X205682317Y-136200000D01*
X205477683Y-136200000D01*
X205275582Y-136232009D01*
X205080968Y-136295244D01*
X204898644Y-136388143D01*
X204854077Y-136420523D01*
X204854077Y-136420524D01*
X205533554Y-137100000D01*
X205527339Y-137100000D01*
X205425606Y-137127259D01*
X205334394Y-137179920D01*
X205259920Y-137254394D01*
X205207259Y-137345606D01*
X205180000Y-137447339D01*
X205180000Y-137453553D01*
X204500524Y-136774077D01*
X204500523Y-136774077D01*
X204468143Y-136818644D01*
X204375244Y-137000968D01*
X204312009Y-137195582D01*
X204280000Y-137397682D01*
X196720500Y-137397682D01*
X196720500Y-137397648D01*
X196700928Y-137274076D01*
X196688477Y-137195465D01*
X196642077Y-137052661D01*
X196625220Y-137000781D01*
X196625218Y-137000778D01*
X196625218Y-137000776D01*
X196567610Y-136887715D01*
X196532287Y-136818390D01*
X196515134Y-136794781D01*
X196411971Y-136652786D01*
X196267213Y-136508028D01*
X196101613Y-136387715D01*
X196101612Y-136387714D01*
X196101610Y-136387713D01*
X196044653Y-136358691D01*
X195919223Y-136294781D01*
X195724534Y-136231522D01*
X195549995Y-136203878D01*
X195522352Y-136199500D01*
X195317648Y-136199500D01*
X195293329Y-136203351D01*
X195115465Y-136231522D01*
X194920776Y-136294781D01*
X194738386Y-136387715D01*
X194572786Y-136508028D01*
X194428028Y-136652786D01*
X194307715Y-136818386D01*
X194214781Y-137000776D01*
X194151522Y-137195465D01*
X194119500Y-137397648D01*
X192300500Y-137397648D01*
X192280928Y-137274076D01*
X192268477Y-137195465D01*
X192222077Y-137052661D01*
X192205220Y-137000781D01*
X192205218Y-137000778D01*
X192205218Y-137000776D01*
X192147610Y-136887715D01*
X192112287Y-136818390D01*
X192095134Y-136794781D01*
X191991971Y-136652786D01*
X191847213Y-136508028D01*
X191681613Y-136387715D01*
X191681612Y-136387714D01*
X191681610Y-136387713D01*
X191624653Y-136358691D01*
X191499223Y-136294781D01*
X191304534Y-136231522D01*
X191129995Y-136203878D01*
X191102352Y-136199500D01*
X190897648Y-136199500D01*
X190873329Y-136203351D01*
X190695465Y-136231522D01*
X190500776Y-136294781D01*
X190318386Y-136387715D01*
X190152786Y-136508028D01*
X190008028Y-136652786D01*
X189887715Y-136818386D01*
X189794781Y-137000776D01*
X189731522Y-137195465D01*
X189699500Y-137397648D01*
X182140500Y-137397648D01*
X182120928Y-137274076D01*
X182108477Y-137195465D01*
X182062077Y-137052661D01*
X182045220Y-137000781D01*
X182045218Y-137000778D01*
X182045218Y-137000776D01*
X181987610Y-136887715D01*
X181952287Y-136818390D01*
X181935134Y-136794781D01*
X181831971Y-136652786D01*
X181687213Y-136508028D01*
X181521613Y-136387715D01*
X181521612Y-136387714D01*
X181521610Y-136387713D01*
X181464653Y-136358691D01*
X181339223Y-136294781D01*
X181144534Y-136231522D01*
X180969995Y-136203878D01*
X180942352Y-136199500D01*
X180737648Y-136199500D01*
X180713329Y-136203351D01*
X180535465Y-136231522D01*
X180340776Y-136294781D01*
X180158386Y-136387715D01*
X179992786Y-136508028D01*
X179848028Y-136652786D01*
X179727715Y-136818386D01*
X179634781Y-137000776D01*
X179571522Y-137195465D01*
X179539500Y-137397648D01*
X175937697Y-137397648D01*
X175951731Y-137354457D01*
X175967990Y-137304417D01*
X176000000Y-137102317D01*
X176000000Y-136897682D01*
X175967990Y-136695582D01*
X175904755Y-136500968D01*
X175811859Y-136318650D01*
X175779474Y-136274077D01*
X175779474Y-136274076D01*
X175100000Y-136953551D01*
X175100000Y-136947339D01*
X175072741Y-136845606D01*
X175020080Y-136754394D01*
X174945606Y-136679920D01*
X174854394Y-136627259D01*
X174752661Y-136600000D01*
X174746446Y-136600000D01*
X175425922Y-135920524D01*
X175425921Y-135920523D01*
X175381359Y-135888147D01*
X175381350Y-135888141D01*
X175199031Y-135795244D01*
X175004417Y-135732009D01*
X174802317Y-135700000D01*
X174597683Y-135700000D01*
X174395582Y-135732009D01*
X174200968Y-135795244D01*
X174018644Y-135888143D01*
X173974077Y-135920523D01*
X173974077Y-135920524D01*
X174653554Y-136600000D01*
X174647339Y-136600000D01*
X174545606Y-136627259D01*
X174454394Y-136679920D01*
X174379920Y-136754394D01*
X174327259Y-136845606D01*
X174300000Y-136947339D01*
X174300000Y-136953553D01*
X173620524Y-136274077D01*
X173582719Y-136277053D01*
X173514341Y-136262689D01*
X173464584Y-136213638D01*
X173462110Y-136208949D01*
X173458101Y-136200942D01*
X173434814Y-136130666D01*
X173342712Y-135981344D01*
X173218656Y-135857288D01*
X173069334Y-135765186D01*
X172902797Y-135710001D01*
X172902795Y-135710000D01*
X172800010Y-135699500D01*
X171599998Y-135699500D01*
X171599981Y-135699501D01*
X171497203Y-135710000D01*
X171497200Y-135710001D01*
X171330668Y-135765185D01*
X171330663Y-135765187D01*
X171181342Y-135857289D01*
X171057289Y-135981342D01*
X170965187Y-136130663D01*
X170965186Y-136130666D01*
X170910001Y-136297203D01*
X170910001Y-136297204D01*
X170910000Y-136297204D01*
X170899500Y-136399983D01*
X165700650Y-136399983D01*
X165659208Y-136318650D01*
X165626823Y-136274077D01*
X165626823Y-136274076D01*
X164947349Y-136953551D01*
X164947349Y-136947339D01*
X164920090Y-136845606D01*
X164867429Y-136754394D01*
X164792955Y-136679920D01*
X164701743Y-136627259D01*
X164600010Y-136600000D01*
X164593795Y-136600000D01*
X165273271Y-135920524D01*
X165273270Y-135920523D01*
X165228708Y-135888147D01*
X165228699Y-135888141D01*
X165046380Y-135795244D01*
X164851766Y-135732009D01*
X164649666Y-135700000D01*
X164445032Y-135700000D01*
X164242931Y-135732009D01*
X164048317Y-135795244D01*
X163865993Y-135888143D01*
X163821426Y-135920523D01*
X163821426Y-135920524D01*
X164500903Y-136600000D01*
X164494688Y-136600000D01*
X164392955Y-136627259D01*
X164301743Y-136679920D01*
X164227269Y-136754394D01*
X164174608Y-136845606D01*
X164147349Y-136947339D01*
X164147349Y-136953553D01*
X163467873Y-136274077D01*
X163467872Y-136274077D01*
X163435492Y-136318644D01*
X163342593Y-136500968D01*
X163279358Y-136695582D01*
X163247349Y-136897682D01*
X162347848Y-136897682D01*
X162347848Y-136399992D01*
X162346637Y-136388141D01*
X162337348Y-136297203D01*
X162337347Y-136297200D01*
X162315745Y-136232009D01*
X162282163Y-136130666D01*
X162190061Y-135981344D01*
X162066005Y-135857288D01*
X161916683Y-135765186D01*
X161750146Y-135710001D01*
X161750144Y-135710000D01*
X161647359Y-135699500D01*
X160447347Y-135699500D01*
X160447330Y-135699501D01*
X160344552Y-135710000D01*
X160344549Y-135710001D01*
X160178017Y-135765185D01*
X160178012Y-135765187D01*
X160028691Y-135857289D01*
X159904638Y-135981342D01*
X159812536Y-136130663D01*
X159812535Y-136130666D01*
X159757350Y-136297203D01*
X159757350Y-136297204D01*
X159757349Y-136297204D01*
X159746849Y-136399983D01*
X154826431Y-136399983D01*
X154326447Y-135900000D01*
X154332661Y-135900000D01*
X154434394Y-135872741D01*
X154525606Y-135820080D01*
X154600080Y-135745606D01*
X154652741Y-135654394D01*
X154680000Y-135552661D01*
X154680000Y-135546447D01*
X155359474Y-136225921D01*
X155391859Y-136181349D01*
X155484755Y-135999031D01*
X155547990Y-135804417D01*
X155580000Y-135602317D01*
X155580000Y-135397682D01*
X155547990Y-135195582D01*
X155484755Y-135000968D01*
X155391859Y-134818650D01*
X155359474Y-134774077D01*
X155359474Y-134774076D01*
X154680000Y-135453551D01*
X154680000Y-135447339D01*
X154652741Y-135345606D01*
X154600080Y-135254394D01*
X154525606Y-135179920D01*
X154434394Y-135127259D01*
X154332661Y-135100000D01*
X154326446Y-135100000D01*
X155005922Y-134420524D01*
X155005921Y-134420523D01*
X154961359Y-134388147D01*
X154961350Y-134388141D01*
X154779031Y-134295244D01*
X154584417Y-134232009D01*
X154382317Y-134200000D01*
X154177683Y-134200000D01*
X153975582Y-134232009D01*
X153780968Y-134295244D01*
X153598644Y-134388143D01*
X153554077Y-134420523D01*
X153554077Y-134420524D01*
X154233554Y-135100000D01*
X154227339Y-135100000D01*
X154125606Y-135127259D01*
X154034394Y-135179920D01*
X153959920Y-135254394D01*
X153907259Y-135345606D01*
X153880000Y-135447339D01*
X153880000Y-135453553D01*
X153200524Y-134774077D01*
X153200523Y-134774077D01*
X153168143Y-134818644D01*
X153075244Y-135000968D01*
X153012009Y-135195582D01*
X152980000Y-135397682D01*
X145420500Y-135397682D01*
X145420500Y-135397648D01*
X145412257Y-135345606D01*
X145388477Y-135195465D01*
X145354393Y-135090566D01*
X145325220Y-135000781D01*
X145325218Y-135000778D01*
X145325218Y-135000776D01*
X145285007Y-134921859D01*
X145232287Y-134818390D01*
X145200092Y-134774077D01*
X145111971Y-134652786D01*
X144967213Y-134508028D01*
X144801613Y-134387715D01*
X144801612Y-134387714D01*
X144801610Y-134387713D01*
X144734102Y-134353316D01*
X144619223Y-134294781D01*
X144424534Y-134231522D01*
X144248964Y-134203715D01*
X144222352Y-134199500D01*
X144017648Y-134199500D01*
X143993329Y-134203351D01*
X143815465Y-134231522D01*
X143620776Y-134294781D01*
X143438386Y-134387715D01*
X143272786Y-134508028D01*
X143128028Y-134652786D01*
X143007715Y-134818386D01*
X142914781Y-135000776D01*
X142851522Y-135195465D01*
X142819500Y-135397648D01*
X132000500Y-135397648D01*
X132000500Y-133581902D01*
X180499500Y-133581902D01*
X180499500Y-133818097D01*
X180536446Y-134051368D01*
X180609433Y-134275996D01*
X180716657Y-134486433D01*
X180855483Y-134677510D01*
X181022490Y-134844517D01*
X181213567Y-134983343D01*
X181312991Y-135034002D01*
X181424003Y-135090566D01*
X181424005Y-135090566D01*
X181424008Y-135090568D01*
X181536931Y-135127259D01*
X181648631Y-135163553D01*
X181881903Y-135200500D01*
X181881908Y-135200500D01*
X182118097Y-135200500D01*
X182351368Y-135163553D01*
X182575992Y-135090568D01*
X182786433Y-134983343D01*
X182977510Y-134844517D01*
X183144517Y-134677510D01*
X183283343Y-134486433D01*
X183390568Y-134275992D01*
X183463553Y-134051368D01*
X183473813Y-133986591D01*
X183500500Y-133818097D01*
X183500500Y-133581902D01*
X183463553Y-133348631D01*
X183392076Y-133128650D01*
X183390568Y-133124008D01*
X183390566Y-133124005D01*
X183390566Y-133124003D01*
X183335077Y-133015101D01*
X183308419Y-132962782D01*
X183308089Y-132962135D01*
X188399500Y-132962135D01*
X188399500Y-134657870D01*
X188399501Y-134657876D01*
X188405908Y-134717483D01*
X188456202Y-134852328D01*
X188456206Y-134852335D01*
X188542452Y-134967544D01*
X188542455Y-134967547D01*
X188657664Y-135053793D01*
X188657671Y-135053797D01*
X188792517Y-135104091D01*
X188792516Y-135104091D01*
X188799444Y-135104835D01*
X188852127Y-135110500D01*
X190547872Y-135110499D01*
X190607483Y-135104091D01*
X190742331Y-135053796D01*
X190857546Y-134967546D01*
X190943796Y-134852331D01*
X190994091Y-134717483D01*
X190998061Y-134680556D01*
X191024796Y-134616011D01*
X191082188Y-134576161D01*
X191152013Y-134573666D01*
X191212102Y-134609317D01*
X191221667Y-134620929D01*
X191248032Y-134657217D01*
X191392786Y-134801971D01*
X191547749Y-134914556D01*
X191558390Y-134922287D01*
X191647212Y-134967544D01*
X191740776Y-135015218D01*
X191740778Y-135015218D01*
X191740781Y-135015220D01*
X191845137Y-135049127D01*
X191935465Y-135078477D01*
X192011804Y-135090568D01*
X192137648Y-135110500D01*
X192137649Y-135110500D01*
X192342351Y-135110500D01*
X192342352Y-135110500D01*
X192544534Y-135078477D01*
X192739219Y-135015220D01*
X192921610Y-134922287D01*
X193028656Y-134844514D01*
X193087213Y-134801971D01*
X193087215Y-134801968D01*
X193087219Y-134801966D01*
X193231966Y-134657219D01*
X193231968Y-134657215D01*
X193231971Y-134657213D01*
X193352284Y-134491614D01*
X193352283Y-134491614D01*
X193352287Y-134491610D01*
X193399516Y-134398917D01*
X193447489Y-134348123D01*
X193515310Y-134331328D01*
X193581445Y-134353865D01*
X193620483Y-134398917D01*
X193631493Y-134420524D01*
X193667715Y-134491614D01*
X193788028Y-134657213D01*
X193932786Y-134801971D01*
X194087749Y-134914556D01*
X194098390Y-134922287D01*
X194187212Y-134967544D01*
X194280776Y-135015218D01*
X194280778Y-135015218D01*
X194280781Y-135015220D01*
X194385137Y-135049127D01*
X194475465Y-135078477D01*
X194551804Y-135090568D01*
X194677648Y-135110500D01*
X194677649Y-135110500D01*
X194882351Y-135110500D01*
X194882352Y-135110500D01*
X195084534Y-135078477D01*
X195279219Y-135015220D01*
X195461610Y-134922287D01*
X195568656Y-134844514D01*
X195627213Y-134801971D01*
X195627215Y-134801968D01*
X195627219Y-134801966D01*
X195771966Y-134657219D01*
X195771968Y-134657215D01*
X195771971Y-134657213D01*
X195892284Y-134491614D01*
X195892283Y-134491614D01*
X195892287Y-134491610D01*
X195939795Y-134398369D01*
X195987770Y-134347574D01*
X196055591Y-134330779D01*
X196121725Y-134353316D01*
X196160765Y-134398370D01*
X196208140Y-134491349D01*
X196328417Y-134656894D01*
X196328417Y-134656895D01*
X196473104Y-134801582D01*
X196638650Y-134921859D01*
X196820968Y-135014754D01*
X197015578Y-135077988D01*
X197070000Y-135086607D01*
X197070000Y-134125686D01*
X197074394Y-134130080D01*
X197165606Y-134182741D01*
X197267339Y-134210000D01*
X197372661Y-134210000D01*
X197474394Y-134182741D01*
X197565606Y-134130080D01*
X197570000Y-134125686D01*
X197570000Y-135086606D01*
X197624421Y-135077988D01*
X197819031Y-135014754D01*
X198001349Y-134921859D01*
X198166894Y-134801582D01*
X198166895Y-134801582D01*
X198311582Y-134656895D01*
X198311582Y-134656894D01*
X198431859Y-134491349D01*
X198524755Y-134309029D01*
X198587990Y-134114413D01*
X198596609Y-134060000D01*
X197635686Y-134060000D01*
X197640080Y-134055606D01*
X197692741Y-133964394D01*
X197720000Y-133862661D01*
X197720000Y-133757339D01*
X197692741Y-133655606D01*
X197640080Y-133564394D01*
X197635686Y-133560000D01*
X198596609Y-133560000D01*
X198587990Y-133505586D01*
X198524755Y-133310970D01*
X198431859Y-133128650D01*
X198311582Y-132963105D01*
X198311582Y-132963104D01*
X198166895Y-132818417D01*
X198001349Y-132698140D01*
X197819029Y-132605244D01*
X197624413Y-132542009D01*
X197570000Y-132533390D01*
X197570000Y-133494314D01*
X197565606Y-133489920D01*
X197474394Y-133437259D01*
X197372661Y-133410000D01*
X197267339Y-133410000D01*
X197165606Y-133437259D01*
X197074394Y-133489920D01*
X197070000Y-133494314D01*
X197070000Y-132533390D01*
X197015586Y-132542009D01*
X196820970Y-132605244D01*
X196638650Y-132698140D01*
X196473105Y-132818417D01*
X196473104Y-132818417D01*
X196328417Y-132963104D01*
X196328417Y-132963105D01*
X196208140Y-133128650D01*
X196160765Y-133221629D01*
X196112790Y-133272425D01*
X196044969Y-133289220D01*
X195978834Y-133266682D01*
X195939795Y-133221629D01*
X195892419Y-133128650D01*
X195892287Y-133128390D01*
X195884556Y-133117749D01*
X195771971Y-132962786D01*
X195627213Y-132818028D01*
X195461613Y-132697715D01*
X195461612Y-132697714D01*
X195461610Y-132697713D01*
X195404653Y-132668691D01*
X195279223Y-132604781D01*
X195084534Y-132541522D01*
X194909995Y-132513878D01*
X194882352Y-132509500D01*
X194677648Y-132509500D01*
X194653329Y-132513351D01*
X194475465Y-132541522D01*
X194280776Y-132604781D01*
X194098386Y-132697715D01*
X193932786Y-132818028D01*
X193788028Y-132962786D01*
X193667715Y-133128386D01*
X193620485Y-133221080D01*
X193572510Y-133271876D01*
X193504689Y-133288671D01*
X193438554Y-133266134D01*
X193399515Y-133221080D01*
X193352419Y-133128650D01*
X193352287Y-133128390D01*
X193344556Y-133117749D01*
X193231971Y-132962786D01*
X193087213Y-132818028D01*
X192921613Y-132697715D01*
X192921612Y-132697714D01*
X192921610Y-132697713D01*
X192864653Y-132668691D01*
X192739223Y-132604781D01*
X192544534Y-132541522D01*
X192369995Y-132513878D01*
X192342352Y-132509500D01*
X192137648Y-132509500D01*
X192113329Y-132513351D01*
X191935465Y-132541522D01*
X191740776Y-132604781D01*
X191558386Y-132697715D01*
X191392786Y-132818028D01*
X191248032Y-132962782D01*
X191221668Y-132999070D01*
X191166338Y-133041735D01*
X191096724Y-133047714D01*
X191034929Y-133015108D01*
X191000572Y-132954269D01*
X190998060Y-132939438D01*
X190997640Y-132935533D01*
X190994091Y-132902517D01*
X190943796Y-132767669D01*
X190943795Y-132767668D01*
X190943793Y-132767664D01*
X190857547Y-132652455D01*
X190857544Y-132652452D01*
X190742335Y-132566206D01*
X190742328Y-132566202D01*
X190607482Y-132515908D01*
X190607483Y-132515908D01*
X190547883Y-132509501D01*
X190547881Y-132509500D01*
X190547873Y-132509500D01*
X190547864Y-132509500D01*
X188852129Y-132509500D01*
X188852123Y-132509501D01*
X188792516Y-132515908D01*
X188657671Y-132566202D01*
X188657664Y-132566206D01*
X188542455Y-132652452D01*
X188542452Y-132652455D01*
X188456206Y-132767664D01*
X188456202Y-132767671D01*
X188405908Y-132902517D01*
X188399501Y-132962116D01*
X188399500Y-132962135D01*
X183308089Y-132962135D01*
X183283343Y-132913567D01*
X183144517Y-132722490D01*
X182977510Y-132555483D01*
X182786433Y-132416657D01*
X182575996Y-132309433D01*
X182351368Y-132236446D01*
X182118097Y-132199500D01*
X182118092Y-132199500D01*
X181881908Y-132199500D01*
X181881903Y-132199500D01*
X181648631Y-132236446D01*
X181424003Y-132309433D01*
X181213566Y-132416657D01*
X181143523Y-132467547D01*
X181022490Y-132555483D01*
X181022488Y-132555485D01*
X181022487Y-132555485D01*
X180855485Y-132722487D01*
X180855485Y-132722488D01*
X180855483Y-132722490D01*
X180822657Y-132767671D01*
X180716657Y-132913566D01*
X180609433Y-133124003D01*
X180536446Y-133348631D01*
X180499500Y-133581902D01*
X132000500Y-133581902D01*
X132000500Y-123959635D01*
X138969500Y-123959635D01*
X138969500Y-125960370D01*
X138969501Y-125960376D01*
X138975908Y-126019983D01*
X139026202Y-126154828D01*
X139026206Y-126154835D01*
X139112452Y-126270044D01*
X139112455Y-126270047D01*
X139227664Y-126356293D01*
X139227669Y-126356296D01*
X139255539Y-126366690D01*
X139311473Y-126408561D01*
X139335891Y-126474024D01*
X139321040Y-126542298D01*
X139312525Y-126555759D01*
X139179783Y-126738461D01*
X139075950Y-126942244D01*
X139005278Y-127159750D01*
X139005278Y-127159753D01*
X138969500Y-127385646D01*
X138969500Y-127614353D01*
X139005278Y-127840246D01*
X139005278Y-127840249D01*
X139075950Y-128057755D01*
X139161146Y-128224961D01*
X139179783Y-128261538D01*
X139314214Y-128446566D01*
X139475934Y-128608286D01*
X139524084Y-128643269D01*
X139560438Y-128669682D01*
X139603103Y-128725013D01*
X139609082Y-128794626D01*
X139576476Y-128856421D01*
X139560438Y-128870318D01*
X139475932Y-128931715D01*
X139314216Y-129093431D01*
X139314216Y-129093432D01*
X139314214Y-129093434D01*
X139256480Y-129172896D01*
X139179783Y-129278461D01*
X139075950Y-129482244D01*
X139005278Y-129699750D01*
X139005278Y-129699753D01*
X138969500Y-129925646D01*
X138969500Y-130154353D01*
X139005278Y-130380246D01*
X139005278Y-130380249D01*
X139075950Y-130597755D01*
X139140765Y-130724961D01*
X139179783Y-130801538D01*
X139314214Y-130986566D01*
X139475934Y-131148286D01*
X139660962Y-131282717D01*
X139783531Y-131345169D01*
X139864744Y-131386549D01*
X140082251Y-131457221D01*
X140082252Y-131457221D01*
X140082255Y-131457222D01*
X140308146Y-131493000D01*
X140308147Y-131493000D01*
X140631853Y-131493000D01*
X140631854Y-131493000D01*
X140857745Y-131457222D01*
X140857748Y-131457221D01*
X140857749Y-131457221D01*
X141075255Y-131386549D01*
X141075255Y-131386548D01*
X141075258Y-131386548D01*
X141279038Y-131282717D01*
X141464066Y-131148286D01*
X141625786Y-130986566D01*
X141760217Y-130801538D01*
X141864048Y-130597758D01*
X141877046Y-130557755D01*
X141908115Y-130462135D01*
X162899500Y-130462135D01*
X162899500Y-132157870D01*
X162899501Y-132157876D01*
X162905908Y-132217483D01*
X162956202Y-132352328D01*
X162956206Y-132352335D01*
X163042452Y-132467544D01*
X163042455Y-132467547D01*
X163157664Y-132553793D01*
X163157671Y-132553797D01*
X163292517Y-132604091D01*
X163292516Y-132604091D01*
X163298925Y-132604780D01*
X163352127Y-132610500D01*
X165047872Y-132610499D01*
X165107483Y-132604091D01*
X165242331Y-132553796D01*
X165357546Y-132467546D01*
X165443796Y-132352331D01*
X165494091Y-132217483D01*
X165500500Y-132157873D01*
X165500499Y-130462128D01*
X165494091Y-130402517D01*
X165485784Y-130380246D01*
X165443797Y-130267671D01*
X165443793Y-130267664D01*
X165357547Y-130152455D01*
X165357544Y-130152452D01*
X165242335Y-130066206D01*
X165242328Y-130066202D01*
X165107482Y-130015908D01*
X165107483Y-130015908D01*
X165047883Y-130009501D01*
X165047881Y-130009500D01*
X165047873Y-130009500D01*
X165047864Y-130009500D01*
X163352129Y-130009500D01*
X163352123Y-130009501D01*
X163292516Y-130015908D01*
X163157671Y-130066202D01*
X163157664Y-130066206D01*
X163042455Y-130152452D01*
X163042452Y-130152455D01*
X162956206Y-130267664D01*
X162956202Y-130267671D01*
X162905908Y-130402517D01*
X162899501Y-130462116D01*
X162899501Y-130462123D01*
X162899500Y-130462135D01*
X141908115Y-130462135D01*
X141921647Y-130420488D01*
X141934721Y-130380249D01*
X141934721Y-130380248D01*
X141934722Y-130380245D01*
X141970500Y-130154354D01*
X141970500Y-129925646D01*
X141934722Y-129699755D01*
X141934721Y-129699751D01*
X141934721Y-129699750D01*
X141864049Y-129482244D01*
X141786477Y-129330000D01*
X141760217Y-129278462D01*
X141625786Y-129093434D01*
X141464066Y-128931714D01*
X141379559Y-128870316D01*
X141336896Y-128814988D01*
X141330917Y-128745375D01*
X141363523Y-128683580D01*
X141379556Y-128669685D01*
X141464066Y-128608286D01*
X141625786Y-128446566D01*
X141760217Y-128261538D01*
X141864048Y-128057758D01*
X141877106Y-128017570D01*
X141934721Y-127840249D01*
X141934721Y-127840248D01*
X141934722Y-127840245D01*
X141970500Y-127614354D01*
X141970500Y-127385646D01*
X141965248Y-127352486D01*
X154879500Y-127352486D01*
X154879500Y-127647513D01*
X154903806Y-127832127D01*
X154918007Y-127939993D01*
X154993376Y-128221276D01*
X154994361Y-128224951D01*
X154994364Y-128224961D01*
X155107254Y-128497500D01*
X155107258Y-128497510D01*
X155254761Y-128752993D01*
X155434352Y-128987040D01*
X155434358Y-128987047D01*
X155642952Y-129195641D01*
X155642959Y-129195647D01*
X155877006Y-129375238D01*
X156132489Y-129522741D01*
X156132490Y-129522741D01*
X156132493Y-129522743D01*
X156405048Y-129635639D01*
X156690007Y-129711993D01*
X156982494Y-129750500D01*
X156982501Y-129750500D01*
X157277499Y-129750500D01*
X157277506Y-129750500D01*
X157569993Y-129711993D01*
X157854952Y-129635639D01*
X158127507Y-129522743D01*
X158382994Y-129375238D01*
X158617042Y-129195646D01*
X158825646Y-128987042D01*
X159005238Y-128752994D01*
X159152743Y-128497507D01*
X159265639Y-128224952D01*
X159341993Y-127939993D01*
X159356193Y-127832135D01*
X168662000Y-127832135D01*
X168662000Y-129727870D01*
X168662001Y-129727876D01*
X168668408Y-129787483D01*
X168718702Y-129922328D01*
X168718706Y-129922335D01*
X168804952Y-130037544D01*
X168804955Y-130037547D01*
X168920164Y-130123793D01*
X168920171Y-130123797D01*
X169055017Y-130174091D01*
X169055016Y-130174091D01*
X169061944Y-130174835D01*
X169114627Y-130180500D01*
X170485372Y-130180499D01*
X170544983Y-130174091D01*
X170679831Y-130123796D01*
X170794463Y-130037982D01*
X170859925Y-130013565D01*
X170925065Y-130026763D01*
X171063160Y-130097126D01*
X171233518Y-130152479D01*
X171299862Y-130162986D01*
X171410432Y-130180500D01*
X171410437Y-130180500D01*
X171589568Y-130180500D01*
X171687851Y-130164932D01*
X171766482Y-130152479D01*
X171936840Y-130097126D01*
X172096442Y-130015805D01*
X172241357Y-129910518D01*
X172262673Y-129889202D01*
X172323996Y-129855717D01*
X172393688Y-129860701D01*
X172438035Y-129889202D01*
X172458966Y-129910133D01*
X172603819Y-130015376D01*
X172763347Y-130096660D01*
X172933633Y-130151990D01*
X172950000Y-130154581D01*
X172950000Y-129270747D01*
X172987708Y-129292518D01*
X173127591Y-129330000D01*
X173272409Y-129330000D01*
X173412292Y-129292518D01*
X173450000Y-129270747D01*
X173450000Y-130154581D01*
X173466366Y-130151990D01*
X173636652Y-130096660D01*
X173796180Y-130015376D01*
X173941032Y-129910133D01*
X173941033Y-129910133D01*
X173961965Y-129889202D01*
X174023288Y-129855717D01*
X174092980Y-129860701D01*
X174137327Y-129889202D01*
X174158643Y-129910518D01*
X174303558Y-130015805D01*
X174463160Y-130097126D01*
X174633518Y-130152479D01*
X174699862Y-130162986D01*
X174810432Y-130180500D01*
X174810437Y-130180500D01*
X174989568Y-130180500D01*
X175087851Y-130164932D01*
X175166482Y-130152479D01*
X175336840Y-130097126D01*
X175496442Y-130015805D01*
X175641357Y-129910518D01*
X175662673Y-129889202D01*
X175723996Y-129855717D01*
X175793688Y-129860701D01*
X175838035Y-129889202D01*
X175858966Y-129910133D01*
X176003819Y-130015376D01*
X176163347Y-130096660D01*
X176333633Y-130151990D01*
X176350000Y-130154581D01*
X176350000Y-129270747D01*
X176387708Y-129292518D01*
X176527591Y-129330000D01*
X176672409Y-129330000D01*
X176812292Y-129292518D01*
X176850000Y-129270747D01*
X176850000Y-130154581D01*
X176866366Y-130151990D01*
X177036652Y-130096660D01*
X177196180Y-130015376D01*
X177341032Y-129910133D01*
X177341033Y-129910133D01*
X177398680Y-129852486D01*
X201319500Y-129852486D01*
X201319500Y-130147513D01*
X201335320Y-130267671D01*
X201358007Y-130439993D01*
X201363940Y-130462135D01*
X201434361Y-130724951D01*
X201434364Y-130724961D01*
X201547254Y-130997500D01*
X201547258Y-130997510D01*
X201694761Y-131252993D01*
X201874352Y-131487040D01*
X201874358Y-131487047D01*
X202082952Y-131695641D01*
X202082959Y-131695647D01*
X202317006Y-131875238D01*
X202572489Y-132022741D01*
X202572490Y-132022741D01*
X202572493Y-132022743D01*
X202845048Y-132135639D01*
X203130007Y-132211993D01*
X203422494Y-132250500D01*
X203422501Y-132250500D01*
X203717499Y-132250500D01*
X203717506Y-132250500D01*
X204009993Y-132211993D01*
X204294952Y-132135639D01*
X204567507Y-132022743D01*
X204822994Y-131875238D01*
X205057042Y-131695646D01*
X205265646Y-131487042D01*
X205445238Y-131252994D01*
X205592743Y-130997507D01*
X205705639Y-130724952D01*
X205781993Y-130439993D01*
X205820500Y-130147506D01*
X205820500Y-129885646D01*
X218729500Y-129885646D01*
X218729500Y-130114354D01*
X218739977Y-130180500D01*
X218765278Y-130340246D01*
X218765278Y-130340249D01*
X218835950Y-130557755D01*
X218921146Y-130724961D01*
X218939783Y-130761538D01*
X219072525Y-130944242D01*
X219096005Y-131010046D01*
X219080180Y-131078100D01*
X219030074Y-131126795D01*
X219015541Y-131133308D01*
X218987670Y-131143703D01*
X218987664Y-131143706D01*
X218872455Y-131229952D01*
X218872452Y-131229955D01*
X218786206Y-131345164D01*
X218786202Y-131345171D01*
X218735908Y-131480017D01*
X218729501Y-131539616D01*
X218729501Y-131539623D01*
X218729500Y-131539635D01*
X218729500Y-133540370D01*
X218729501Y-133540376D01*
X218735908Y-133599983D01*
X218786202Y-133734828D01*
X218786206Y-133734835D01*
X218872452Y-133850044D01*
X218872455Y-133850047D01*
X218987664Y-133936293D01*
X218987671Y-133936297D01*
X219122517Y-133986591D01*
X219122516Y-133986591D01*
X219129444Y-133987335D01*
X219182127Y-133993000D01*
X221277872Y-133992999D01*
X221337483Y-133986591D01*
X221472331Y-133936296D01*
X221587546Y-133850046D01*
X221673796Y-133734831D01*
X221724091Y-133599983D01*
X221730500Y-133540373D01*
X221730499Y-131539628D01*
X221724091Y-131480017D01*
X221689229Y-131386548D01*
X221673797Y-131345171D01*
X221673793Y-131345164D01*
X221587547Y-131229955D01*
X221587544Y-131229952D01*
X221472335Y-131143706D01*
X221472328Y-131143702D01*
X221444459Y-131133308D01*
X221388525Y-131091437D01*
X221364108Y-131025973D01*
X221378960Y-130957700D01*
X221387460Y-130944260D01*
X221520217Y-130761538D01*
X221624048Y-130557758D01*
X221655124Y-130462116D01*
X221694721Y-130340249D01*
X221694721Y-130340248D01*
X221694722Y-130340245D01*
X221730500Y-130114354D01*
X221730500Y-129885646D01*
X221694722Y-129659755D01*
X221694721Y-129659751D01*
X221694721Y-129659750D01*
X221624049Y-129442244D01*
X221566858Y-129330000D01*
X221520217Y-129238462D01*
X221385786Y-129053434D01*
X221224066Y-128891714D01*
X221139134Y-128830007D01*
X221096470Y-128774678D01*
X221090491Y-128705064D01*
X221123097Y-128643269D01*
X221139137Y-128629371D01*
X221223739Y-128567905D01*
X221385402Y-128406242D01*
X221519788Y-128221276D01*
X221623582Y-128017570D01*
X221694234Y-127800128D01*
X221708509Y-127710000D01*
X220720748Y-127710000D01*
X220742518Y-127672292D01*
X220780000Y-127532409D01*
X220780000Y-127387591D01*
X220742518Y-127247708D01*
X220720748Y-127210000D01*
X221708509Y-127210000D01*
X221694234Y-127119871D01*
X221623582Y-126902429D01*
X221519788Y-126698723D01*
X221385402Y-126513757D01*
X221223742Y-126352097D01*
X221038776Y-126217711D01*
X220835068Y-126113917D01*
X220617625Y-126043265D01*
X220617626Y-126043265D01*
X220480000Y-126021467D01*
X220480000Y-126969252D01*
X220442292Y-126947482D01*
X220302409Y-126910000D01*
X220157591Y-126910000D01*
X220017708Y-126947482D01*
X219980000Y-126969252D01*
X219980000Y-126021467D01*
X219842374Y-126043265D01*
X219624931Y-126113917D01*
X219421223Y-126217711D01*
X219236257Y-126352097D01*
X219074597Y-126513757D01*
X218940211Y-126698723D01*
X218836417Y-126902429D01*
X218765765Y-127119871D01*
X218751491Y-127210000D01*
X219739252Y-127210000D01*
X219717482Y-127247708D01*
X219680000Y-127387591D01*
X219680000Y-127532409D01*
X219717482Y-127672292D01*
X219739252Y-127710000D01*
X218751491Y-127710000D01*
X218765765Y-127800128D01*
X218836417Y-128017570D01*
X218940211Y-128221276D01*
X219074597Y-128406242D01*
X219236257Y-128567902D01*
X219236263Y-128567907D01*
X219320863Y-128629372D01*
X219363529Y-128684701D01*
X219369508Y-128754315D01*
X219336903Y-128816110D01*
X219320864Y-128830007D01*
X219235940Y-128891709D01*
X219235931Y-128891716D01*
X219074216Y-129053431D01*
X219074216Y-129053432D01*
X219074214Y-129053434D01*
X219027516Y-129117708D01*
X218939783Y-129238461D01*
X218835950Y-129442244D01*
X218765278Y-129659750D01*
X218765278Y-129659753D01*
X218750905Y-129750499D01*
X218729500Y-129885646D01*
X205820500Y-129885646D01*
X205820500Y-129852494D01*
X205781993Y-129560007D01*
X205705639Y-129275048D01*
X205592743Y-129002493D01*
X205586853Y-128992292D01*
X205445238Y-128747006D01*
X205265647Y-128512959D01*
X205265641Y-128512952D01*
X205057047Y-128304358D01*
X205057040Y-128304352D01*
X204822993Y-128124761D01*
X204567510Y-127977258D01*
X204567500Y-127977254D01*
X204294961Y-127864364D01*
X204294954Y-127864362D01*
X204294952Y-127864361D01*
X204009993Y-127788007D01*
X203961113Y-127781571D01*
X203717513Y-127749500D01*
X203717506Y-127749500D01*
X203422494Y-127749500D01*
X203422486Y-127749500D01*
X203144085Y-127786153D01*
X203130007Y-127788007D01*
X203038146Y-127812621D01*
X202845048Y-127864361D01*
X202845038Y-127864364D01*
X202572499Y-127977254D01*
X202572489Y-127977258D01*
X202317006Y-128124761D01*
X202082959Y-128304352D01*
X202082952Y-128304358D01*
X201874358Y-128512952D01*
X201874352Y-128512959D01*
X201694761Y-128747006D01*
X201547258Y-129002489D01*
X201547254Y-129002499D01*
X201434364Y-129275038D01*
X201434361Y-129275048D01*
X201378844Y-129482244D01*
X201358008Y-129560004D01*
X201358006Y-129560015D01*
X201319500Y-129852486D01*
X177398680Y-129852486D01*
X177467633Y-129783533D01*
X177467638Y-129783527D01*
X177473434Y-129775550D01*
X177473435Y-129775549D01*
X177572876Y-129638680D01*
X177654159Y-129479152D01*
X177709491Y-129308859D01*
X177737500Y-129132022D01*
X177737500Y-129030000D01*
X177090748Y-129030000D01*
X177112518Y-128992292D01*
X177150000Y-128852409D01*
X177150000Y-128707591D01*
X177112518Y-128567708D01*
X177090748Y-128530000D01*
X177737500Y-128530000D01*
X177737500Y-128427977D01*
X177709491Y-128251140D01*
X177654159Y-128080847D01*
X177572876Y-127921319D01*
X177467633Y-127776467D01*
X177467633Y-127776466D01*
X177341033Y-127649866D01*
X177196180Y-127544623D01*
X177036652Y-127463340D01*
X176866359Y-127408008D01*
X176850000Y-127405416D01*
X176850000Y-128289252D01*
X176812292Y-128267482D01*
X176672409Y-128230000D01*
X176527591Y-128230000D01*
X176387708Y-128267482D01*
X176350000Y-128289252D01*
X176350000Y-127405416D01*
X176333640Y-127408008D01*
X176163347Y-127463340D01*
X176003819Y-127544623D01*
X175858967Y-127649866D01*
X175858966Y-127649866D01*
X175838035Y-127670798D01*
X175776712Y-127704283D01*
X175707020Y-127699299D01*
X175662673Y-127670798D01*
X175641359Y-127649484D01*
X175641357Y-127649482D01*
X175496442Y-127544195D01*
X175336840Y-127462874D01*
X175166482Y-127407521D01*
X175166480Y-127407520D01*
X175166478Y-127407520D01*
X174989568Y-127379500D01*
X174989563Y-127379500D01*
X174810437Y-127379500D01*
X174810432Y-127379500D01*
X174633521Y-127407520D01*
X174633518Y-127407521D01*
X174476693Y-127458477D01*
X174463157Y-127462875D01*
X174303557Y-127544195D01*
X174243816Y-127587600D01*
X174158643Y-127649482D01*
X174158641Y-127649484D01*
X174158640Y-127649484D01*
X174137327Y-127670798D01*
X174076004Y-127704283D01*
X174006312Y-127699299D01*
X173961965Y-127670798D01*
X173941033Y-127649866D01*
X173796180Y-127544623D01*
X173636652Y-127463340D01*
X173466359Y-127408008D01*
X173450000Y-127405416D01*
X173450000Y-128289252D01*
X173412292Y-128267482D01*
X173272409Y-128230000D01*
X173127591Y-128230000D01*
X172987708Y-128267482D01*
X172950000Y-128289252D01*
X172950000Y-127405416D01*
X172933640Y-127408008D01*
X172763347Y-127463340D01*
X172603819Y-127544623D01*
X172458967Y-127649866D01*
X172458966Y-127649866D01*
X172438035Y-127670798D01*
X172376712Y-127704283D01*
X172307020Y-127699299D01*
X172262673Y-127670798D01*
X172241359Y-127649484D01*
X172241357Y-127649482D01*
X172096442Y-127544195D01*
X171936840Y-127462874D01*
X171766482Y-127407521D01*
X171766480Y-127407520D01*
X171766478Y-127407520D01*
X171589568Y-127379500D01*
X171589563Y-127379500D01*
X171410437Y-127379500D01*
X171410432Y-127379500D01*
X171233521Y-127407520D01*
X171233518Y-127407521D01*
X171076693Y-127458477D01*
X171063157Y-127462875D01*
X170925068Y-127533235D01*
X170856398Y-127546131D01*
X170794462Y-127522017D01*
X170679830Y-127436203D01*
X170679828Y-127436202D01*
X170544982Y-127385908D01*
X170544983Y-127385908D01*
X170485383Y-127379501D01*
X170485381Y-127379500D01*
X170485373Y-127379500D01*
X170485364Y-127379500D01*
X169114629Y-127379500D01*
X169114623Y-127379501D01*
X169055016Y-127385908D01*
X168920171Y-127436202D01*
X168920164Y-127436206D01*
X168804955Y-127522452D01*
X168804952Y-127522455D01*
X168718706Y-127637664D01*
X168718702Y-127637671D01*
X168668408Y-127772517D01*
X168662001Y-127832116D01*
X168662000Y-127832135D01*
X159356193Y-127832135D01*
X159380500Y-127647506D01*
X159380500Y-127352494D01*
X159341993Y-127060007D01*
X159265639Y-126775048D01*
X159152743Y-126502493D01*
X159136306Y-126474024D01*
X159005238Y-126247006D01*
X158825647Y-126012959D01*
X158825641Y-126012952D01*
X158617047Y-125804358D01*
X158617040Y-125804352D01*
X158382993Y-125624761D01*
X158127510Y-125477258D01*
X158127500Y-125477254D01*
X157854961Y-125364364D01*
X157854954Y-125364362D01*
X157854952Y-125364361D01*
X157569993Y-125288007D01*
X157521113Y-125281571D01*
X157277513Y-125249500D01*
X157277506Y-125249500D01*
X156982494Y-125249500D01*
X156982486Y-125249500D01*
X156704085Y-125286153D01*
X156690007Y-125288007D01*
X156466571Y-125347876D01*
X156405048Y-125364361D01*
X156405038Y-125364364D01*
X156132499Y-125477254D01*
X156132489Y-125477258D01*
X155877006Y-125624761D01*
X155642959Y-125804352D01*
X155642952Y-125804358D01*
X155434358Y-126012952D01*
X155434352Y-126012959D01*
X155254761Y-126247006D01*
X155107258Y-126502489D01*
X155107254Y-126502499D01*
X154994364Y-126775038D01*
X154994361Y-126775048D01*
X154968488Y-126871610D01*
X154918008Y-127060004D01*
X154918006Y-127060015D01*
X154879500Y-127352486D01*
X141965248Y-127352486D01*
X141934722Y-127159755D01*
X141934721Y-127159751D01*
X141934721Y-127159750D01*
X141864049Y-126942244D01*
X141828059Y-126871610D01*
X141760217Y-126738462D01*
X141627472Y-126555755D01*
X141603994Y-126489953D01*
X141619819Y-126421899D01*
X141669925Y-126373204D01*
X141684455Y-126366692D01*
X141712331Y-126356296D01*
X141827546Y-126270046D01*
X141913796Y-126154831D01*
X141964091Y-126019983D01*
X141970500Y-125960373D01*
X141970499Y-123959628D01*
X141964091Y-123900017D01*
X141913796Y-123765169D01*
X141913795Y-123765168D01*
X141913793Y-123765164D01*
X141832888Y-123657090D01*
X141827546Y-123649954D01*
X141827544Y-123649952D01*
X141827543Y-123649951D01*
X141744317Y-123587648D01*
X162899500Y-123587648D01*
X162899500Y-123792351D01*
X162931522Y-123994534D01*
X162994781Y-124189223D01*
X163087715Y-124371613D01*
X163208028Y-124537213D01*
X163352786Y-124681971D01*
X163507749Y-124794556D01*
X163518390Y-124802287D01*
X163634607Y-124861503D01*
X163700776Y-124895218D01*
X163700778Y-124895218D01*
X163700781Y-124895220D01*
X163805137Y-124929127D01*
X163895465Y-124958477D01*
X163996557Y-124974488D01*
X164097648Y-124990500D01*
X164097649Y-124990500D01*
X164302351Y-124990500D01*
X164302352Y-124990500D01*
X164504534Y-124958477D01*
X164699219Y-124895220D01*
X164881610Y-124802287D01*
X164974590Y-124734732D01*
X165047213Y-124681971D01*
X165047215Y-124681968D01*
X165047219Y-124681966D01*
X165191966Y-124537219D01*
X165191968Y-124537215D01*
X165191971Y-124537213D01*
X165244732Y-124464590D01*
X165312287Y-124371610D01*
X165405220Y-124189219D01*
X165468477Y-123994534D01*
X165500500Y-123792352D01*
X165500500Y-123587648D01*
X165468477Y-123385466D01*
X165405220Y-123190781D01*
X165405218Y-123190778D01*
X165405218Y-123190776D01*
X165369433Y-123120546D01*
X165312287Y-123008390D01*
X165304556Y-122997749D01*
X165191971Y-122842786D01*
X165047213Y-122698028D01*
X164881613Y-122577715D01*
X164881612Y-122577714D01*
X164881610Y-122577713D01*
X164824653Y-122548691D01*
X164699223Y-122484781D01*
X164504534Y-122421522D01*
X164329995Y-122393878D01*
X164302352Y-122389500D01*
X164097648Y-122389500D01*
X164073329Y-122393351D01*
X163895465Y-122421522D01*
X163700776Y-122484781D01*
X163518386Y-122577715D01*
X163352786Y-122698028D01*
X163208028Y-122842786D01*
X163087715Y-123008386D01*
X162994781Y-123190776D01*
X162931522Y-123385465D01*
X162899500Y-123587648D01*
X141744317Y-123587648D01*
X141712335Y-123563706D01*
X141712328Y-123563702D01*
X141577482Y-123513408D01*
X141577483Y-123513408D01*
X141517883Y-123507001D01*
X141517881Y-123507000D01*
X141517873Y-123507000D01*
X141517864Y-123507000D01*
X139422129Y-123507000D01*
X139422123Y-123507001D01*
X139362516Y-123513408D01*
X139227671Y-123563702D01*
X139227664Y-123563706D01*
X139112455Y-123649952D01*
X139112452Y-123649955D01*
X139026206Y-123765164D01*
X139026202Y-123765171D01*
X138975908Y-123900017D01*
X138969501Y-123959616D01*
X138969501Y-123959623D01*
X138969500Y-123959635D01*
X132000500Y-123959635D01*
X132000500Y-122052135D01*
X179849500Y-122052135D01*
X179849500Y-125347870D01*
X179849501Y-125347876D01*
X179855908Y-125407483D01*
X179906202Y-125542328D01*
X179906206Y-125542335D01*
X179992452Y-125657544D01*
X179992455Y-125657547D01*
X180107664Y-125743793D01*
X180107671Y-125743797D01*
X180242517Y-125794091D01*
X180242516Y-125794091D01*
X180249444Y-125794835D01*
X180302127Y-125800500D01*
X181129450Y-125800499D01*
X181196488Y-125820183D01*
X181242243Y-125872987D01*
X181252187Y-125942146D01*
X181223162Y-126005702D01*
X181202335Y-126024817D01*
X181022488Y-126155484D01*
X180855485Y-126322487D01*
X180855485Y-126322488D01*
X180855483Y-126322490D01*
X180830921Y-126356297D01*
X180716657Y-126513566D01*
X180609433Y-126724003D01*
X180536446Y-126948631D01*
X180499500Y-127181902D01*
X180499500Y-127418097D01*
X180536446Y-127651368D01*
X180609433Y-127875996D01*
X180713811Y-128080847D01*
X180716657Y-128086433D01*
X180855483Y-128277510D01*
X181022490Y-128444517D01*
X181213567Y-128583343D01*
X181303902Y-128629371D01*
X181424003Y-128690566D01*
X181424005Y-128690566D01*
X181424008Y-128690568D01*
X181544412Y-128729689D01*
X181648631Y-128763553D01*
X181881903Y-128800500D01*
X181881908Y-128800500D01*
X182118097Y-128800500D01*
X182351368Y-128763553D01*
X182370665Y-128757283D01*
X182575992Y-128690568D01*
X182786433Y-128583343D01*
X182977510Y-128444517D01*
X183144517Y-128277510D01*
X183283343Y-128086433D01*
X183390568Y-127875992D01*
X183463553Y-127651368D01*
X183465723Y-127637669D01*
X183500500Y-127418097D01*
X183500500Y-127181902D01*
X183463553Y-126948631D01*
X183407152Y-126775048D01*
X183390568Y-126724008D01*
X183390566Y-126724005D01*
X183390566Y-126724003D01*
X183297982Y-126542298D01*
X183283343Y-126513567D01*
X183144517Y-126322490D01*
X182977510Y-126155483D01*
X182884143Y-126087648D01*
X188399500Y-126087648D01*
X188399500Y-126292351D01*
X188431522Y-126494534D01*
X188494781Y-126689223D01*
X188587715Y-126871613D01*
X188708028Y-127037213D01*
X188852786Y-127181971D01*
X189007749Y-127294556D01*
X189018390Y-127302287D01*
X189134607Y-127361503D01*
X189200776Y-127395218D01*
X189200778Y-127395218D01*
X189200781Y-127395220D01*
X189305137Y-127429127D01*
X189395465Y-127458477D01*
X189423233Y-127462875D01*
X189597648Y-127490500D01*
X189597649Y-127490500D01*
X189802351Y-127490500D01*
X189802352Y-127490500D01*
X190004534Y-127458477D01*
X190199219Y-127395220D01*
X190381610Y-127302287D01*
X190474590Y-127234732D01*
X190547213Y-127181971D01*
X190547215Y-127181968D01*
X190547219Y-127181966D01*
X190691966Y-127037219D01*
X190691968Y-127037215D01*
X190691971Y-127037213D01*
X190812284Y-126871614D01*
X190812285Y-126871613D01*
X190812287Y-126871610D01*
X190859516Y-126778917D01*
X190907489Y-126728123D01*
X190975310Y-126711328D01*
X191041445Y-126733865D01*
X191080485Y-126778919D01*
X191127715Y-126871614D01*
X191248028Y-127037213D01*
X191392786Y-127181971D01*
X191547749Y-127294556D01*
X191558390Y-127302287D01*
X191674607Y-127361503D01*
X191740776Y-127395218D01*
X191740778Y-127395218D01*
X191740781Y-127395220D01*
X191845137Y-127429127D01*
X191935465Y-127458477D01*
X191963233Y-127462875D01*
X192137648Y-127490500D01*
X192137649Y-127490500D01*
X192342351Y-127490500D01*
X192342352Y-127490500D01*
X192544534Y-127458477D01*
X192739219Y-127395220D01*
X192921610Y-127302287D01*
X193014590Y-127234732D01*
X193087213Y-127181971D01*
X193087215Y-127181968D01*
X193087219Y-127181966D01*
X193231966Y-127037219D01*
X193231968Y-127037215D01*
X193231971Y-127037213D01*
X193352284Y-126871614D01*
X193352285Y-126871613D01*
X193352287Y-126871610D01*
X193399516Y-126778917D01*
X193447489Y-126728123D01*
X193515310Y-126711328D01*
X193581445Y-126733865D01*
X193620485Y-126778919D01*
X193667715Y-126871614D01*
X193788028Y-127037213D01*
X193932786Y-127181971D01*
X194087749Y-127294556D01*
X194098390Y-127302287D01*
X194214607Y-127361503D01*
X194280776Y-127395218D01*
X194280778Y-127395218D01*
X194280781Y-127395220D01*
X194385137Y-127429127D01*
X194475465Y-127458477D01*
X194503233Y-127462875D01*
X194677648Y-127490500D01*
X194677649Y-127490500D01*
X194882351Y-127490500D01*
X194882352Y-127490500D01*
X195084534Y-127458477D01*
X195279219Y-127395220D01*
X195461610Y-127302287D01*
X195554590Y-127234732D01*
X195627213Y-127181971D01*
X195627215Y-127181968D01*
X195627219Y-127181966D01*
X195771966Y-127037219D01*
X195771968Y-127037215D01*
X195771971Y-127037213D01*
X195892284Y-126871614D01*
X195892285Y-126871613D01*
X195892287Y-126871610D01*
X195939516Y-126778917D01*
X195987489Y-126728123D01*
X196055310Y-126711328D01*
X196121445Y-126733865D01*
X196160485Y-126778919D01*
X196207715Y-126871614D01*
X196328028Y-127037213D01*
X196472786Y-127181971D01*
X196627749Y-127294556D01*
X196638390Y-127302287D01*
X196754607Y-127361503D01*
X196820776Y-127395218D01*
X196820778Y-127395218D01*
X196820781Y-127395220D01*
X196925137Y-127429127D01*
X197015465Y-127458477D01*
X197043233Y-127462875D01*
X197217648Y-127490500D01*
X197217649Y-127490500D01*
X197422351Y-127490500D01*
X197422352Y-127490500D01*
X197624534Y-127458477D01*
X197819219Y-127395220D01*
X198001610Y-127302287D01*
X198094590Y-127234732D01*
X198167213Y-127181971D01*
X198167215Y-127181968D01*
X198167219Y-127181966D01*
X198311966Y-127037219D01*
X198311968Y-127037215D01*
X198311971Y-127037213D01*
X198404395Y-126910000D01*
X198432287Y-126871610D01*
X198525220Y-126689219D01*
X198588477Y-126494534D01*
X198620500Y-126292352D01*
X198620500Y-126087648D01*
X198588477Y-125885466D01*
X198584422Y-125872987D01*
X198542446Y-125743797D01*
X198525220Y-125690781D01*
X198525218Y-125690778D01*
X198525218Y-125690776D01*
X198479515Y-125601080D01*
X198432287Y-125508390D01*
X198424556Y-125497749D01*
X198311971Y-125342786D01*
X198167213Y-125198028D01*
X198001613Y-125077715D01*
X198001612Y-125077714D01*
X198001610Y-125077713D01*
X197944653Y-125048691D01*
X197819223Y-124984781D01*
X197624534Y-124921522D01*
X197449995Y-124893878D01*
X197422352Y-124889500D01*
X197217648Y-124889500D01*
X197193329Y-124893351D01*
X197015465Y-124921522D01*
X196820776Y-124984781D01*
X196638386Y-125077715D01*
X196472786Y-125198028D01*
X196328028Y-125342786D01*
X196207715Y-125508386D01*
X196160485Y-125601080D01*
X196112510Y-125651876D01*
X196044689Y-125668671D01*
X195978554Y-125646134D01*
X195939515Y-125601080D01*
X195938883Y-125599840D01*
X195892287Y-125508390D01*
X195884556Y-125497749D01*
X195771971Y-125342786D01*
X195627213Y-125198028D01*
X195461613Y-125077715D01*
X195461612Y-125077714D01*
X195461610Y-125077713D01*
X195404653Y-125048691D01*
X195279223Y-124984781D01*
X195084534Y-124921522D01*
X194909995Y-124893878D01*
X194882352Y-124889500D01*
X194677648Y-124889500D01*
X194653329Y-124893351D01*
X194475465Y-124921522D01*
X194280776Y-124984781D01*
X194098386Y-125077715D01*
X193932786Y-125198028D01*
X193788028Y-125342786D01*
X193667715Y-125508386D01*
X193620485Y-125601080D01*
X193572510Y-125651876D01*
X193504689Y-125668671D01*
X193438554Y-125646134D01*
X193399515Y-125601080D01*
X193398883Y-125599840D01*
X193352287Y-125508390D01*
X193344556Y-125497749D01*
X193231971Y-125342786D01*
X193087213Y-125198028D01*
X192921613Y-125077715D01*
X192921612Y-125077714D01*
X192921610Y-125077713D01*
X192864653Y-125048691D01*
X192739223Y-124984781D01*
X192544534Y-124921522D01*
X192369995Y-124893878D01*
X192342352Y-124889500D01*
X192137648Y-124889500D01*
X192113329Y-124893351D01*
X191935465Y-124921522D01*
X191740776Y-124984781D01*
X191558386Y-125077715D01*
X191392786Y-125198028D01*
X191248028Y-125342786D01*
X191127715Y-125508386D01*
X191080485Y-125601080D01*
X191032510Y-125651876D01*
X190964689Y-125668671D01*
X190898554Y-125646134D01*
X190859515Y-125601080D01*
X190858883Y-125599840D01*
X190812287Y-125508390D01*
X190804556Y-125497749D01*
X190691971Y-125342786D01*
X190547213Y-125198028D01*
X190381613Y-125077715D01*
X190381612Y-125077714D01*
X190381610Y-125077713D01*
X190324653Y-125048691D01*
X190199223Y-124984781D01*
X190004534Y-124921522D01*
X189829995Y-124893878D01*
X189802352Y-124889500D01*
X189597648Y-124889500D01*
X189573329Y-124893351D01*
X189395465Y-124921522D01*
X189200776Y-124984781D01*
X189018386Y-125077715D01*
X188852786Y-125198028D01*
X188708028Y-125342786D01*
X188587715Y-125508386D01*
X188494781Y-125690776D01*
X188431522Y-125885465D01*
X188399500Y-126087648D01*
X182884143Y-126087648D01*
X182797663Y-126024816D01*
X182754999Y-125969487D01*
X182749020Y-125899873D01*
X182781626Y-125838078D01*
X182842465Y-125803721D01*
X182870550Y-125800499D01*
X183597871Y-125800499D01*
X183597872Y-125800499D01*
X183657483Y-125794091D01*
X183792331Y-125743796D01*
X183907546Y-125657546D01*
X183993796Y-125542331D01*
X184044091Y-125407483D01*
X184050500Y-125347873D01*
X184050499Y-122052128D01*
X184044091Y-121992517D01*
X183993796Y-121857669D01*
X183993795Y-121857668D01*
X183993793Y-121857664D01*
X183907547Y-121742455D01*
X183907544Y-121742452D01*
X183792335Y-121656206D01*
X183792328Y-121656202D01*
X183657482Y-121605908D01*
X183657483Y-121605908D01*
X183597883Y-121599501D01*
X183597881Y-121599500D01*
X183597873Y-121599500D01*
X183597864Y-121599500D01*
X180302129Y-121599500D01*
X180302123Y-121599501D01*
X180242516Y-121605908D01*
X180107671Y-121656202D01*
X180107664Y-121656206D01*
X179992455Y-121742452D01*
X179992452Y-121742455D01*
X179906206Y-121857664D01*
X179906202Y-121857671D01*
X179855908Y-121992517D01*
X179849501Y-122052116D01*
X179849501Y-122052123D01*
X179849500Y-122052135D01*
X132000500Y-122052135D01*
X132000500Y-119750000D01*
X139568898Y-119750000D01*
X140614988Y-119750000D01*
X140582075Y-119807007D01*
X140548000Y-119934174D01*
X140548000Y-120065826D01*
X140582075Y-120192993D01*
X140614988Y-120250000D01*
X139568898Y-120250000D01*
X139584934Y-120351247D01*
X139657897Y-120575802D01*
X139765085Y-120786171D01*
X139903866Y-120977186D01*
X140070813Y-121144133D01*
X140261828Y-121282914D01*
X140472197Y-121390102D01*
X140696752Y-121463065D01*
X140696751Y-121463065D01*
X140929948Y-121500000D01*
X141798000Y-121500000D01*
X141798000Y-120500000D01*
X142298000Y-120500000D01*
X142298000Y-121500000D01*
X143166052Y-121500000D01*
X143399247Y-121463065D01*
X143623802Y-121390102D01*
X143829571Y-121285258D01*
X186809500Y-121285258D01*
X186809500Y-121514741D01*
X186828125Y-121656202D01*
X186839452Y-121742238D01*
X186870382Y-121857671D01*
X186898842Y-121963887D01*
X186986650Y-122175876D01*
X186986657Y-122175890D01*
X187101392Y-122374617D01*
X187241081Y-122556661D01*
X187241089Y-122556670D01*
X187403330Y-122718911D01*
X187403338Y-122718918D01*
X187585382Y-122858607D01*
X187585385Y-122858608D01*
X187585388Y-122858611D01*
X187784112Y-122973344D01*
X187784117Y-122973346D01*
X187784123Y-122973349D01*
X187868720Y-123008390D01*
X187996113Y-123061158D01*
X188217762Y-123120548D01*
X188445266Y-123150500D01*
X188445273Y-123150500D01*
X188674727Y-123150500D01*
X188674734Y-123150500D01*
X188902238Y-123120548D01*
X189123887Y-123061158D01*
X189335888Y-122973344D01*
X189534612Y-122858611D01*
X189716661Y-122718919D01*
X189716665Y-122718914D01*
X189716670Y-122718911D01*
X189878911Y-122556670D01*
X189878914Y-122556665D01*
X189878919Y-122556661D01*
X190018611Y-122374612D01*
X190133344Y-122175888D01*
X190221158Y-121963887D01*
X190280548Y-121742238D01*
X190310500Y-121514734D01*
X190310500Y-121285266D01*
X190310499Y-121285258D01*
X218309500Y-121285258D01*
X218309500Y-121514741D01*
X218328125Y-121656202D01*
X218339452Y-121742238D01*
X218370382Y-121857671D01*
X218398842Y-121963887D01*
X218486650Y-122175876D01*
X218486657Y-122175890D01*
X218601392Y-122374617D01*
X218741081Y-122556661D01*
X218741089Y-122556670D01*
X218903330Y-122718911D01*
X218903338Y-122718918D01*
X219085382Y-122858607D01*
X219085385Y-122858608D01*
X219085388Y-122858611D01*
X219284112Y-122973344D01*
X219284117Y-122973346D01*
X219284123Y-122973349D01*
X219368720Y-123008390D01*
X219496113Y-123061158D01*
X219717762Y-123120548D01*
X219945266Y-123150500D01*
X219945273Y-123150500D01*
X220174727Y-123150500D01*
X220174734Y-123150500D01*
X220402238Y-123120548D01*
X220623887Y-123061158D01*
X220835888Y-122973344D01*
X221034612Y-122858611D01*
X221216661Y-122718919D01*
X221216665Y-122718914D01*
X221216670Y-122718911D01*
X221378911Y-122556670D01*
X221378914Y-122556665D01*
X221378919Y-122556661D01*
X221518611Y-122374612D01*
X221633344Y-122175888D01*
X221721158Y-121963887D01*
X221780548Y-121742238D01*
X221810500Y-121514734D01*
X221810500Y-121285266D01*
X221780548Y-121057762D01*
X221721158Y-120836113D01*
X221633344Y-120624112D01*
X221518611Y-120425388D01*
X221518608Y-120425385D01*
X221518607Y-120425382D01*
X221378918Y-120243338D01*
X221378911Y-120243330D01*
X221216670Y-120081089D01*
X221216661Y-120081081D01*
X221034617Y-119941392D01*
X220835890Y-119826657D01*
X220835876Y-119826650D01*
X220623887Y-119738842D01*
X220402238Y-119679452D01*
X220364215Y-119674446D01*
X220174741Y-119649500D01*
X220174734Y-119649500D01*
X219945266Y-119649500D01*
X219945258Y-119649500D01*
X219728715Y-119678009D01*
X219717762Y-119679452D01*
X219667226Y-119692993D01*
X219496112Y-119738842D01*
X219284123Y-119826650D01*
X219284109Y-119826657D01*
X219085382Y-119941392D01*
X218903338Y-120081081D01*
X218741081Y-120243338D01*
X218601392Y-120425382D01*
X218486657Y-120624109D01*
X218486650Y-120624123D01*
X218398842Y-120836112D01*
X218339453Y-121057759D01*
X218339451Y-121057770D01*
X218309500Y-121285258D01*
X190310499Y-121285258D01*
X190280548Y-121057762D01*
X190221158Y-120836113D01*
X190133344Y-120624112D01*
X190018611Y-120425388D01*
X190018608Y-120425385D01*
X190018607Y-120425382D01*
X189878918Y-120243338D01*
X189878911Y-120243330D01*
X189716670Y-120081089D01*
X189716661Y-120081081D01*
X189534617Y-119941392D01*
X189335890Y-119826657D01*
X189335876Y-119826650D01*
X189123887Y-119738842D01*
X188902238Y-119679452D01*
X188864215Y-119674446D01*
X188674741Y-119649500D01*
X188674734Y-119649500D01*
X188445266Y-119649500D01*
X188445258Y-119649500D01*
X188228715Y-119678009D01*
X188217762Y-119679452D01*
X188167226Y-119692993D01*
X187996112Y-119738842D01*
X187784123Y-119826650D01*
X187784109Y-119826657D01*
X187585382Y-119941392D01*
X187403338Y-120081081D01*
X187241081Y-120243338D01*
X187101392Y-120425382D01*
X186986657Y-120624109D01*
X186986650Y-120624123D01*
X186898842Y-120836112D01*
X186839453Y-121057759D01*
X186839451Y-121057770D01*
X186809500Y-121285258D01*
X143829571Y-121285258D01*
X143834171Y-121282914D01*
X143974597Y-121180889D01*
X143974598Y-121180888D01*
X144025180Y-121144138D01*
X144025186Y-121144133D01*
X144192133Y-120977186D01*
X144330914Y-120786171D01*
X144438102Y-120575802D01*
X144511065Y-120351247D01*
X144527102Y-120250000D01*
X143481012Y-120250000D01*
X143513925Y-120192993D01*
X143548000Y-120065826D01*
X143548000Y-119934174D01*
X143513925Y-119807007D01*
X143481012Y-119750000D01*
X144527102Y-119750000D01*
X144511065Y-119648752D01*
X144438102Y-119424197D01*
X144330914Y-119213828D01*
X144192133Y-119022813D01*
X144025186Y-118855866D01*
X143834171Y-118717085D01*
X143623802Y-118609897D01*
X143399247Y-118536934D01*
X143399248Y-118536934D01*
X143166052Y-118500000D01*
X142298000Y-118500000D01*
X142298000Y-119500000D01*
X141798000Y-119500000D01*
X141798000Y-118500000D01*
X140929948Y-118500000D01*
X140696752Y-118536934D01*
X140472197Y-118609897D01*
X140261828Y-118717085D01*
X140070813Y-118855866D01*
X139903866Y-119022813D01*
X139765085Y-119213828D01*
X139657897Y-119424197D01*
X139584934Y-119648752D01*
X139568898Y-119750000D01*
X132000500Y-119750000D01*
X132000500Y-114182947D01*
X137500000Y-114182947D01*
X137500000Y-115051000D01*
X138500000Y-115051000D01*
X138500000Y-115551000D01*
X137500000Y-115551000D01*
X137500000Y-116419052D01*
X137536934Y-116652247D01*
X137609897Y-116876802D01*
X137717085Y-117087171D01*
X137855866Y-117278186D01*
X138022813Y-117445133D01*
X138213828Y-117583914D01*
X138424195Y-117691102D01*
X138648744Y-117764063D01*
X138648750Y-117764065D01*
X138750000Y-117780101D01*
X138750000Y-116734012D01*
X138807007Y-116766925D01*
X138934174Y-116801000D01*
X139065826Y-116801000D01*
X139192993Y-116766925D01*
X139250000Y-116734012D01*
X139250000Y-117780100D01*
X139351249Y-117764065D01*
X139351255Y-117764063D01*
X139575804Y-117691102D01*
X139786171Y-117583914D01*
X139977186Y-117445133D01*
X140144133Y-117278186D01*
X140282914Y-117087171D01*
X140390102Y-116876802D01*
X140463065Y-116652247D01*
X140500000Y-116419052D01*
X140500000Y-115551000D01*
X139500000Y-115551000D01*
X139500000Y-115051000D01*
X140500000Y-115051000D01*
X140500000Y-114182947D01*
X140476667Y-114035629D01*
X140474365Y-114021097D01*
X143318500Y-114021097D01*
X143318500Y-116580902D01*
X143359140Y-116837493D01*
X143439422Y-117084576D01*
X143520534Y-117243764D01*
X143557288Y-117315898D01*
X143557368Y-117316054D01*
X143710066Y-117526225D01*
X143710069Y-117526229D01*
X143893771Y-117709931D01*
X144103949Y-117862634D01*
X144251445Y-117937787D01*
X144335423Y-117980577D01*
X144335425Y-117980577D01*
X144335428Y-117980579D01*
X144582507Y-118060860D01*
X144714706Y-118081797D01*
X144839098Y-118101500D01*
X144839103Y-118101500D01*
X145098902Y-118101500D01*
X145212298Y-118083539D01*
X145355493Y-118060860D01*
X145602572Y-117980579D01*
X145834051Y-117862634D01*
X146044229Y-117709931D01*
X146227931Y-117526229D01*
X146380634Y-117316051D01*
X146498579Y-117084572D01*
X146538849Y-116960634D01*
X162764500Y-116960634D01*
X162764500Y-117139365D01*
X162792460Y-117315898D01*
X162792460Y-117315901D01*
X162847689Y-117485878D01*
X162847691Y-117485881D01*
X162928833Y-117645132D01*
X163033889Y-117789728D01*
X163160272Y-117916111D01*
X163304868Y-118021167D01*
X163464119Y-118102309D01*
X163464121Y-118102310D01*
X163622670Y-118153825D01*
X163634103Y-118157540D01*
X163810634Y-118185500D01*
X163810635Y-118185500D01*
X163989365Y-118185500D01*
X163989366Y-118185500D01*
X164165897Y-118157540D01*
X164165900Y-118157539D01*
X164165901Y-118157539D01*
X164335878Y-118102310D01*
X164335878Y-118102309D01*
X164335881Y-118102309D01*
X164495132Y-118021167D01*
X164639728Y-117916111D01*
X164766111Y-117789728D01*
X164871167Y-117645132D01*
X164952309Y-117485881D01*
X165007540Y-117315897D01*
X165035500Y-117139366D01*
X165035500Y-116960634D01*
X165007540Y-116784103D01*
X165007539Y-116784099D01*
X165007539Y-116784098D01*
X164952310Y-116614121D01*
X164952308Y-116614118D01*
X164949195Y-116608007D01*
X164871167Y-116454868D01*
X164766111Y-116310272D01*
X164639728Y-116183889D01*
X164495132Y-116078833D01*
X164335881Y-115997691D01*
X164335878Y-115997689D01*
X164165899Y-115942460D01*
X164048209Y-115923820D01*
X163989366Y-115914500D01*
X163810634Y-115914500D01*
X163751790Y-115923820D01*
X163634101Y-115942460D01*
X163634098Y-115942460D01*
X163464121Y-115997689D01*
X163464118Y-115997691D01*
X163304867Y-116078833D01*
X163160270Y-116183890D01*
X163033890Y-116310270D01*
X162928833Y-116454867D01*
X162847691Y-116614118D01*
X162847689Y-116614121D01*
X162792460Y-116784098D01*
X162792460Y-116784101D01*
X162764500Y-116960634D01*
X146538849Y-116960634D01*
X146578860Y-116837493D01*
X146600462Y-116701099D01*
X146619500Y-116580902D01*
X146619500Y-114021097D01*
X146597947Y-113885021D01*
X146578860Y-113764507D01*
X146498579Y-113517428D01*
X146498577Y-113517425D01*
X146498577Y-113517423D01*
X146455787Y-113433445D01*
X146380634Y-113285949D01*
X146227931Y-113075771D01*
X146044229Y-112892069D01*
X146044225Y-112892066D01*
X145834054Y-112739368D01*
X145834053Y-112739367D01*
X145834051Y-112739366D01*
X145761764Y-112702534D01*
X145602576Y-112621422D01*
X145355493Y-112541140D01*
X145098902Y-112500500D01*
X145098897Y-112500500D01*
X144839103Y-112500500D01*
X144839098Y-112500500D01*
X144582506Y-112541140D01*
X144335423Y-112621422D01*
X144103945Y-112739368D01*
X143893774Y-112892066D01*
X143893768Y-112892071D01*
X143710071Y-113075768D01*
X143710066Y-113075774D01*
X143557368Y-113285945D01*
X143439422Y-113517423D01*
X143359140Y-113764506D01*
X143318500Y-114021097D01*
X140474365Y-114021097D01*
X140463065Y-113949751D01*
X140390102Y-113725197D01*
X140282914Y-113514828D01*
X140144133Y-113323813D01*
X139977186Y-113156866D01*
X139786171Y-113018085D01*
X139575802Y-112910897D01*
X139351247Y-112837934D01*
X139250000Y-112821897D01*
X139250000Y-113867988D01*
X139192993Y-113835075D01*
X139065826Y-113801000D01*
X138934174Y-113801000D01*
X138807007Y-113835075D01*
X138750000Y-113867988D01*
X138750000Y-112821897D01*
X138648752Y-112837934D01*
X138424197Y-112910897D01*
X138213828Y-113018085D01*
X138022813Y-113156866D01*
X137855866Y-113323813D01*
X137717085Y-113514828D01*
X137609897Y-113725197D01*
X137536934Y-113949752D01*
X137500000Y-114182947D01*
X132000500Y-114182947D01*
X132000500Y-111860634D01*
X164364500Y-111860634D01*
X164364500Y-112039365D01*
X164392460Y-112215898D01*
X164392460Y-112215901D01*
X164447689Y-112385878D01*
X164447691Y-112385881D01*
X164528833Y-112545132D01*
X164633889Y-112689728D01*
X164760272Y-112816111D01*
X164904868Y-112921167D01*
X165064119Y-113002309D01*
X165064121Y-113002310D01*
X165222670Y-113053825D01*
X165234103Y-113057540D01*
X165410634Y-113085500D01*
X165410635Y-113085500D01*
X165589365Y-113085500D01*
X165589366Y-113085500D01*
X165765897Y-113057540D01*
X165765900Y-113057539D01*
X165765901Y-113057539D01*
X165935878Y-113002310D01*
X165935878Y-113002309D01*
X165935881Y-113002309D01*
X166095132Y-112921167D01*
X166239728Y-112816111D01*
X166366111Y-112689728D01*
X166471167Y-112545132D01*
X166552309Y-112385881D01*
X166607540Y-112215897D01*
X166635500Y-112039366D01*
X166635500Y-111972486D01*
X170949500Y-111972486D01*
X170949500Y-112267513D01*
X170981571Y-112511113D01*
X170988007Y-112559993D01*
X171062481Y-112837934D01*
X171064361Y-112844951D01*
X171064364Y-112844961D01*
X171177254Y-113117500D01*
X171177258Y-113117510D01*
X171324761Y-113372993D01*
X171504352Y-113607040D01*
X171504358Y-113607047D01*
X171712952Y-113815641D01*
X171712959Y-113815647D01*
X171947006Y-113995238D01*
X172202489Y-114142741D01*
X172202490Y-114142741D01*
X172202493Y-114142743D01*
X172475048Y-114255639D01*
X172760007Y-114331993D01*
X173052494Y-114370500D01*
X173052501Y-114370500D01*
X173347499Y-114370500D01*
X173347506Y-114370500D01*
X173639993Y-114331993D01*
X173924952Y-114255639D01*
X174197507Y-114142743D01*
X174452994Y-113995238D01*
X174687042Y-113815646D01*
X174895646Y-113607042D01*
X175075238Y-113372994D01*
X175222743Y-113117507D01*
X175335639Y-112844952D01*
X175411993Y-112559993D01*
X175450500Y-112267506D01*
X175450500Y-111972494D01*
X175411993Y-111680007D01*
X175335639Y-111395048D01*
X175318995Y-111354867D01*
X175278845Y-111257935D01*
X175222745Y-111122499D01*
X175222741Y-111122489D01*
X175075241Y-110867010D01*
X175075238Y-110867006D01*
X175073701Y-110865003D01*
X175073701Y-110865002D01*
X174985456Y-110750000D01*
X179864791Y-110750000D01*
X181187639Y-110750000D01*
X181180743Y-110766649D01*
X181150000Y-110921207D01*
X181150000Y-111078793D01*
X181180743Y-111233351D01*
X181187639Y-111250000D01*
X179864792Y-111250000D01*
X179885930Y-111410565D01*
X179957180Y-111676471D01*
X180062519Y-111930784D01*
X180062527Y-111930802D01*
X180200166Y-112169201D01*
X180367749Y-112387597D01*
X180367757Y-112387606D01*
X180562394Y-112582243D01*
X180562402Y-112582250D01*
X180780798Y-112749833D01*
X181019197Y-112887472D01*
X181019212Y-112887479D01*
X181273528Y-112992819D01*
X181539431Y-113064068D01*
X181539438Y-113064069D01*
X181699999Y-113085206D01*
X181700000Y-113085206D01*
X181700000Y-111762360D01*
X181716649Y-111769257D01*
X181871207Y-111800000D01*
X182028793Y-111800000D01*
X182183351Y-111769257D01*
X182200000Y-111762360D01*
X182200000Y-113085206D01*
X182360561Y-113064069D01*
X182360568Y-113064068D01*
X182626471Y-112992819D01*
X182880787Y-112887479D01*
X182880802Y-112887472D01*
X183119201Y-112749833D01*
X183337597Y-112582250D01*
X183337606Y-112582243D01*
X183532243Y-112387606D01*
X183532250Y-112387597D01*
X183699833Y-112169201D01*
X183837472Y-111930802D01*
X183837481Y-111930784D01*
X183942819Y-111676471D01*
X184014069Y-111410565D01*
X184035208Y-111250000D01*
X182712361Y-111250000D01*
X182719257Y-111233351D01*
X182750000Y-111078793D01*
X182750000Y-110921207D01*
X182719257Y-110766649D01*
X182712361Y-110750000D01*
X184035208Y-110750000D01*
X184014069Y-110589434D01*
X183942819Y-110323528D01*
X183837479Y-110069212D01*
X183837472Y-110069197D01*
X183699833Y-109830798D01*
X183532250Y-109612402D01*
X183532243Y-109612394D01*
X183337606Y-109417757D01*
X183337597Y-109417749D01*
X183119201Y-109250166D01*
X182880802Y-109112527D01*
X182880787Y-109112520D01*
X182626471Y-109007180D01*
X182360565Y-108935930D01*
X182200000Y-108914791D01*
X182200000Y-110237639D01*
X182183351Y-110230743D01*
X182028793Y-110200000D01*
X181871207Y-110200000D01*
X181716649Y-110230743D01*
X181700000Y-110237639D01*
X181700000Y-108914791D01*
X181539434Y-108935930D01*
X181273528Y-109007180D01*
X181019212Y-109112520D01*
X181019197Y-109112527D01*
X180780798Y-109250166D01*
X180562402Y-109417749D01*
X180367749Y-109612402D01*
X180200166Y-109830798D01*
X180062527Y-110069197D01*
X180062520Y-110069212D01*
X179957180Y-110323528D01*
X179885930Y-110589434D01*
X179864791Y-110750000D01*
X174985456Y-110750000D01*
X174895647Y-110632959D01*
X174895641Y-110632952D01*
X174687047Y-110424358D01*
X174687040Y-110424352D01*
X174452993Y-110244761D01*
X174197510Y-110097258D01*
X174197500Y-110097254D01*
X173924961Y-109984364D01*
X173924954Y-109984362D01*
X173924952Y-109984361D01*
X173639993Y-109908007D01*
X173591113Y-109901571D01*
X173347513Y-109869500D01*
X173347506Y-109869500D01*
X173052494Y-109869500D01*
X173052486Y-109869500D01*
X172774085Y-109906153D01*
X172760007Y-109908007D01*
X172475048Y-109984361D01*
X172475038Y-109984364D01*
X172202499Y-110097254D01*
X172202489Y-110097258D01*
X171947006Y-110244761D01*
X171712959Y-110424352D01*
X171712952Y-110424358D01*
X171504358Y-110632952D01*
X171504352Y-110632959D01*
X171324761Y-110867006D01*
X171177258Y-111122489D01*
X171177254Y-111122499D01*
X171064364Y-111395038D01*
X171064361Y-111395048D01*
X170988955Y-111676471D01*
X170988008Y-111680004D01*
X170988006Y-111680015D01*
X170949500Y-111972486D01*
X166635500Y-111972486D01*
X166635500Y-111860634D01*
X166607540Y-111684103D01*
X166607539Y-111684099D01*
X166607539Y-111684098D01*
X166552310Y-111514121D01*
X166552308Y-111514118D01*
X166550195Y-111509970D01*
X166471167Y-111354868D01*
X166366111Y-111210272D01*
X166239728Y-111083889D01*
X166095132Y-110978833D01*
X165935881Y-110897691D01*
X165935878Y-110897689D01*
X165765899Y-110842460D01*
X165648209Y-110823820D01*
X165589366Y-110814500D01*
X165410634Y-110814500D01*
X165351790Y-110823820D01*
X165234101Y-110842460D01*
X165234098Y-110842460D01*
X165064121Y-110897689D01*
X165064118Y-110897691D01*
X164904867Y-110978833D01*
X164760270Y-111083890D01*
X164633890Y-111210270D01*
X164528833Y-111354867D01*
X164447691Y-111514118D01*
X164447689Y-111514121D01*
X164392460Y-111684098D01*
X164392460Y-111684101D01*
X164364500Y-111860634D01*
X132000500Y-111860634D01*
X132000500Y-106137648D01*
X144459500Y-106137648D01*
X144459500Y-106342351D01*
X144491522Y-106544534D01*
X144554781Y-106739223D01*
X144647715Y-106921613D01*
X144768028Y-107087213D01*
X144912786Y-107231971D01*
X145067749Y-107344556D01*
X145078390Y-107352287D01*
X145194607Y-107411503D01*
X145260776Y-107445218D01*
X145260778Y-107445218D01*
X145260781Y-107445220D01*
X145365137Y-107479127D01*
X145455465Y-107508477D01*
X145556557Y-107524488D01*
X145657648Y-107540500D01*
X145657649Y-107540500D01*
X145862351Y-107540500D01*
X145862352Y-107540500D01*
X146064534Y-107508477D01*
X146259219Y-107445220D01*
X146441610Y-107352287D01*
X146534590Y-107284732D01*
X146607213Y-107231971D01*
X146607215Y-107231968D01*
X146607219Y-107231966D01*
X146751966Y-107087219D01*
X146751968Y-107087215D01*
X146751971Y-107087213D01*
X146872284Y-106921614D01*
X146872286Y-106921611D01*
X146872287Y-106921610D01*
X146919516Y-106828917D01*
X146967489Y-106778123D01*
X147035310Y-106761328D01*
X147101445Y-106783865D01*
X147140485Y-106828919D01*
X147187715Y-106921614D01*
X147308028Y-107087213D01*
X147452786Y-107231971D01*
X147607749Y-107344556D01*
X147618390Y-107352287D01*
X147734607Y-107411503D01*
X147800776Y-107445218D01*
X147800778Y-107445218D01*
X147800781Y-107445220D01*
X147905137Y-107479127D01*
X147995465Y-107508477D01*
X148096557Y-107524488D01*
X148197648Y-107540500D01*
X148197649Y-107540500D01*
X148402351Y-107540500D01*
X148402352Y-107540500D01*
X148604534Y-107508477D01*
X148799219Y-107445220D01*
X148981610Y-107352287D01*
X149074590Y-107284732D01*
X149147213Y-107231971D01*
X149147215Y-107231968D01*
X149147219Y-107231966D01*
X149291966Y-107087219D01*
X149291968Y-107087215D01*
X149291971Y-107087213D01*
X149412284Y-106921614D01*
X149412286Y-106921611D01*
X149412287Y-106921610D01*
X149459516Y-106828917D01*
X149507489Y-106778123D01*
X149575310Y-106761328D01*
X149641445Y-106783865D01*
X149680485Y-106828919D01*
X149727715Y-106921614D01*
X149848028Y-107087213D01*
X149992786Y-107231971D01*
X150147749Y-107344556D01*
X150158390Y-107352287D01*
X150274607Y-107411503D01*
X150340776Y-107445218D01*
X150340778Y-107445218D01*
X150340781Y-107445220D01*
X150445137Y-107479127D01*
X150535465Y-107508477D01*
X150636557Y-107524488D01*
X150737648Y-107540500D01*
X150737649Y-107540500D01*
X150942351Y-107540500D01*
X150942352Y-107540500D01*
X151144534Y-107508477D01*
X151339219Y-107445220D01*
X151521610Y-107352287D01*
X151614590Y-107284732D01*
X151687213Y-107231971D01*
X151687215Y-107231968D01*
X151687219Y-107231966D01*
X151831966Y-107087219D01*
X151831968Y-107087215D01*
X151831971Y-107087213D01*
X151952284Y-106921614D01*
X151952286Y-106921611D01*
X151952287Y-106921610D01*
X151999516Y-106828917D01*
X152047489Y-106778123D01*
X152115310Y-106761328D01*
X152181445Y-106783865D01*
X152220485Y-106828919D01*
X152267715Y-106921614D01*
X152388028Y-107087213D01*
X152532786Y-107231971D01*
X152687749Y-107344556D01*
X152698390Y-107352287D01*
X152814607Y-107411503D01*
X152880776Y-107445218D01*
X152880778Y-107445218D01*
X152880781Y-107445220D01*
X152985137Y-107479127D01*
X153075465Y-107508477D01*
X153176557Y-107524488D01*
X153277648Y-107540500D01*
X153277649Y-107540500D01*
X153482351Y-107540500D01*
X153482352Y-107540500D01*
X153684534Y-107508477D01*
X153879219Y-107445220D01*
X154061610Y-107352287D01*
X154154590Y-107284732D01*
X154227213Y-107231971D01*
X154227215Y-107231968D01*
X154227219Y-107231966D01*
X154371966Y-107087219D01*
X154371968Y-107087215D01*
X154371971Y-107087213D01*
X154492284Y-106921614D01*
X154492286Y-106921611D01*
X154492287Y-106921610D01*
X154539516Y-106828917D01*
X154587489Y-106778123D01*
X154655310Y-106761328D01*
X154721445Y-106783865D01*
X154760485Y-106828919D01*
X154807715Y-106921614D01*
X154928028Y-107087213D01*
X155072786Y-107231971D01*
X155227749Y-107344556D01*
X155238390Y-107352287D01*
X155354607Y-107411503D01*
X155420776Y-107445218D01*
X155420778Y-107445218D01*
X155420781Y-107445220D01*
X155525137Y-107479127D01*
X155615465Y-107508477D01*
X155716557Y-107524488D01*
X155817648Y-107540500D01*
X155817649Y-107540500D01*
X156022351Y-107540500D01*
X156022352Y-107540500D01*
X156224534Y-107508477D01*
X156419219Y-107445220D01*
X156601610Y-107352287D01*
X156694590Y-107284732D01*
X156767213Y-107231971D01*
X156767215Y-107231968D01*
X156767219Y-107231966D01*
X156911966Y-107087219D01*
X156911968Y-107087215D01*
X156911971Y-107087213D01*
X157032284Y-106921614D01*
X157032286Y-106921611D01*
X157032287Y-106921610D01*
X157079516Y-106828917D01*
X157127489Y-106778123D01*
X157195310Y-106761328D01*
X157261445Y-106783865D01*
X157300485Y-106828919D01*
X157347715Y-106921614D01*
X157468028Y-107087213D01*
X157612786Y-107231971D01*
X157767749Y-107344556D01*
X157778390Y-107352287D01*
X157894607Y-107411503D01*
X157960776Y-107445218D01*
X157960778Y-107445218D01*
X157960781Y-107445220D01*
X158065137Y-107479127D01*
X158155465Y-107508477D01*
X158256557Y-107524488D01*
X158357648Y-107540500D01*
X158357649Y-107540500D01*
X158562351Y-107540500D01*
X158562352Y-107540500D01*
X158764534Y-107508477D01*
X158959219Y-107445220D01*
X159141610Y-107352287D01*
X159234590Y-107284732D01*
X159307213Y-107231971D01*
X159307215Y-107231968D01*
X159307219Y-107231966D01*
X159451966Y-107087219D01*
X159451968Y-107087215D01*
X159451971Y-107087213D01*
X159572284Y-106921614D01*
X159572286Y-106921611D01*
X159572287Y-106921610D01*
X159619516Y-106828917D01*
X159667489Y-106778123D01*
X159735310Y-106761328D01*
X159801445Y-106783865D01*
X159840485Y-106828919D01*
X159887715Y-106921614D01*
X160008028Y-107087213D01*
X160152786Y-107231971D01*
X160307749Y-107344556D01*
X160318390Y-107352287D01*
X160434607Y-107411503D01*
X160500776Y-107445218D01*
X160500778Y-107445218D01*
X160500781Y-107445220D01*
X160605137Y-107479127D01*
X160695465Y-107508477D01*
X160796557Y-107524488D01*
X160897648Y-107540500D01*
X160897649Y-107540500D01*
X161102351Y-107540500D01*
X161102352Y-107540500D01*
X161304534Y-107508477D01*
X161499219Y-107445220D01*
X161681610Y-107352287D01*
X161774590Y-107284732D01*
X161847213Y-107231971D01*
X161847215Y-107231968D01*
X161847219Y-107231966D01*
X161991966Y-107087219D01*
X161991968Y-107087215D01*
X161991971Y-107087213D01*
X162112284Y-106921614D01*
X162112286Y-106921611D01*
X162112287Y-106921610D01*
X162159516Y-106828917D01*
X162207489Y-106778123D01*
X162275310Y-106761328D01*
X162341445Y-106783865D01*
X162380485Y-106828919D01*
X162427715Y-106921614D01*
X162548028Y-107087213D01*
X162692786Y-107231971D01*
X162847749Y-107344556D01*
X162858390Y-107352287D01*
X162974607Y-107411503D01*
X163040776Y-107445218D01*
X163040778Y-107445218D01*
X163040781Y-107445220D01*
X163145137Y-107479127D01*
X163235465Y-107508477D01*
X163336557Y-107524488D01*
X163437648Y-107540500D01*
X163437649Y-107540500D01*
X163642351Y-107540500D01*
X163642352Y-107540500D01*
X163844534Y-107508477D01*
X164039219Y-107445220D01*
X164221610Y-107352287D01*
X164314590Y-107284732D01*
X164387213Y-107231971D01*
X164387215Y-107231968D01*
X164387219Y-107231966D01*
X164531966Y-107087219D01*
X164531968Y-107087215D01*
X164531971Y-107087213D01*
X164652284Y-106921614D01*
X164652286Y-106921611D01*
X164652287Y-106921610D01*
X164699516Y-106828917D01*
X164747489Y-106778123D01*
X164815310Y-106761328D01*
X164881445Y-106783865D01*
X164920485Y-106828919D01*
X164967715Y-106921614D01*
X165088028Y-107087213D01*
X165232786Y-107231971D01*
X165387749Y-107344556D01*
X165398390Y-107352287D01*
X165514607Y-107411503D01*
X165580776Y-107445218D01*
X165580778Y-107445218D01*
X165580781Y-107445220D01*
X165685137Y-107479127D01*
X165775465Y-107508477D01*
X165876557Y-107524488D01*
X165977648Y-107540500D01*
X165977649Y-107540500D01*
X166182351Y-107540500D01*
X166182352Y-107540500D01*
X166384534Y-107508477D01*
X166579219Y-107445220D01*
X166761610Y-107352287D01*
X166854590Y-107284732D01*
X166927213Y-107231971D01*
X166927215Y-107231968D01*
X166927219Y-107231966D01*
X167071966Y-107087219D01*
X167071968Y-107087215D01*
X167071971Y-107087213D01*
X167192284Y-106921614D01*
X167192286Y-106921611D01*
X167192287Y-106921610D01*
X167239516Y-106828917D01*
X167287489Y-106778123D01*
X167355310Y-106761328D01*
X167421445Y-106783865D01*
X167460485Y-106828919D01*
X167507715Y-106921614D01*
X167628028Y-107087213D01*
X167772786Y-107231971D01*
X167927749Y-107344556D01*
X167938390Y-107352287D01*
X168054607Y-107411503D01*
X168120776Y-107445218D01*
X168120778Y-107445218D01*
X168120781Y-107445220D01*
X168225137Y-107479127D01*
X168315465Y-107508477D01*
X168416557Y-107524488D01*
X168517648Y-107540500D01*
X168517649Y-107540500D01*
X168722351Y-107540500D01*
X168722352Y-107540500D01*
X168924534Y-107508477D01*
X169119219Y-107445220D01*
X169301610Y-107352287D01*
X169394590Y-107284732D01*
X169467213Y-107231971D01*
X169467215Y-107231968D01*
X169467219Y-107231966D01*
X169611966Y-107087219D01*
X169611968Y-107087215D01*
X169611971Y-107087213D01*
X169732284Y-106921614D01*
X169732286Y-106921611D01*
X169732287Y-106921610D01*
X169779516Y-106828917D01*
X169827489Y-106778123D01*
X169895310Y-106761328D01*
X169961445Y-106783865D01*
X170000485Y-106828919D01*
X170047715Y-106921614D01*
X170168028Y-107087213D01*
X170312786Y-107231971D01*
X170467749Y-107344556D01*
X170478390Y-107352287D01*
X170594607Y-107411503D01*
X170660776Y-107445218D01*
X170660778Y-107445218D01*
X170660781Y-107445220D01*
X170765137Y-107479127D01*
X170855465Y-107508477D01*
X170956557Y-107524488D01*
X171057648Y-107540500D01*
X171057649Y-107540500D01*
X171262351Y-107540500D01*
X171262352Y-107540500D01*
X171464534Y-107508477D01*
X171659219Y-107445220D01*
X171841610Y-107352287D01*
X171934590Y-107284732D01*
X172007213Y-107231971D01*
X172007215Y-107231968D01*
X172007219Y-107231966D01*
X172151966Y-107087219D01*
X172151968Y-107087215D01*
X172151971Y-107087213D01*
X172272284Y-106921614D01*
X172272286Y-106921611D01*
X172272287Y-106921610D01*
X172319516Y-106828917D01*
X172367489Y-106778123D01*
X172435310Y-106761328D01*
X172501445Y-106783865D01*
X172540485Y-106828919D01*
X172587715Y-106921614D01*
X172708028Y-107087213D01*
X172852786Y-107231971D01*
X173007749Y-107344556D01*
X173018390Y-107352287D01*
X173134607Y-107411503D01*
X173200776Y-107445218D01*
X173200778Y-107445218D01*
X173200781Y-107445220D01*
X173305137Y-107479127D01*
X173395465Y-107508477D01*
X173496557Y-107524488D01*
X173597648Y-107540500D01*
X173597649Y-107540500D01*
X173802351Y-107540500D01*
X173802352Y-107540500D01*
X174004534Y-107508477D01*
X174199219Y-107445220D01*
X174381610Y-107352287D01*
X174474590Y-107284732D01*
X174547213Y-107231971D01*
X174547215Y-107231968D01*
X174547219Y-107231966D01*
X174691966Y-107087219D01*
X174691968Y-107087215D01*
X174691971Y-107087213D01*
X174812284Y-106921614D01*
X174812286Y-106921611D01*
X174812287Y-106921610D01*
X174859516Y-106828917D01*
X174907489Y-106778123D01*
X174975310Y-106761328D01*
X175041445Y-106783865D01*
X175080485Y-106828919D01*
X175127715Y-106921614D01*
X175248028Y-107087213D01*
X175392786Y-107231971D01*
X175547749Y-107344556D01*
X175558390Y-107352287D01*
X175674607Y-107411503D01*
X175740776Y-107445218D01*
X175740778Y-107445218D01*
X175740781Y-107445220D01*
X175845137Y-107479127D01*
X175935465Y-107508477D01*
X176036557Y-107524488D01*
X176137648Y-107540500D01*
X176137649Y-107540500D01*
X176342351Y-107540500D01*
X176342352Y-107540500D01*
X176544534Y-107508477D01*
X176739219Y-107445220D01*
X176921610Y-107352287D01*
X177014590Y-107284732D01*
X177087213Y-107231971D01*
X177087215Y-107231968D01*
X177087219Y-107231966D01*
X177231966Y-107087219D01*
X177231968Y-107087215D01*
X177231971Y-107087213D01*
X177352284Y-106921614D01*
X177352286Y-106921611D01*
X177352287Y-106921610D01*
X177399795Y-106828369D01*
X177447770Y-106777574D01*
X177515591Y-106760779D01*
X177581725Y-106783316D01*
X177620765Y-106828370D01*
X177668140Y-106921349D01*
X177788417Y-107086894D01*
X177788417Y-107086895D01*
X177933104Y-107231582D01*
X178098650Y-107351859D01*
X178280968Y-107444754D01*
X178475578Y-107507988D01*
X178530000Y-107516607D01*
X178530000Y-106673012D01*
X178587007Y-106705925D01*
X178714174Y-106740000D01*
X178845826Y-106740000D01*
X178972993Y-106705925D01*
X179030000Y-106673012D01*
X179030000Y-107516606D01*
X179084421Y-107507988D01*
X179279031Y-107444754D01*
X179461349Y-107351859D01*
X179626894Y-107231582D01*
X179626895Y-107231582D01*
X179771582Y-107086895D01*
X179771582Y-107086894D01*
X179891861Y-106921347D01*
X179939234Y-106828371D01*
X179987208Y-106777575D01*
X180055028Y-106760779D01*
X180121164Y-106783316D01*
X180160203Y-106828369D01*
X180207713Y-106921611D01*
X180328028Y-107087213D01*
X180472786Y-107231971D01*
X180627749Y-107344556D01*
X180638390Y-107352287D01*
X180754607Y-107411503D01*
X180820776Y-107445218D01*
X180820778Y-107445218D01*
X180820781Y-107445220D01*
X180925137Y-107479127D01*
X181015465Y-107508477D01*
X181116557Y-107524488D01*
X181217648Y-107540500D01*
X181217649Y-107540500D01*
X181422351Y-107540500D01*
X181422352Y-107540500D01*
X181624534Y-107508477D01*
X181819219Y-107445220D01*
X182001610Y-107352287D01*
X182094590Y-107284732D01*
X182167213Y-107231971D01*
X182167215Y-107231968D01*
X182167219Y-107231966D01*
X182311966Y-107087219D01*
X182311968Y-107087215D01*
X182311971Y-107087213D01*
X182364732Y-107014590D01*
X182432287Y-106921610D01*
X182525220Y-106739219D01*
X182588477Y-106544534D01*
X182620500Y-106342352D01*
X182620500Y-106137648D01*
X182588477Y-105935466D01*
X182587673Y-105932993D01*
X182525218Y-105740776D01*
X182432419Y-105558650D01*
X182432287Y-105558390D01*
X182424556Y-105547749D01*
X182311971Y-105392786D01*
X182167213Y-105248028D01*
X182001613Y-105127715D01*
X182001612Y-105127714D01*
X182001610Y-105127713D01*
X181944653Y-105098691D01*
X181819223Y-105034781D01*
X181624534Y-104971522D01*
X181449995Y-104943878D01*
X181422352Y-104939500D01*
X181217648Y-104939500D01*
X181193329Y-104943351D01*
X181015465Y-104971522D01*
X180820776Y-105034781D01*
X180638386Y-105127715D01*
X180472786Y-105248028D01*
X180328028Y-105392786D01*
X180207713Y-105558388D01*
X180160203Y-105651630D01*
X180112228Y-105702426D01*
X180044407Y-105719220D01*
X179978272Y-105696682D01*
X179939234Y-105651628D01*
X179891861Y-105558652D01*
X179771582Y-105393105D01*
X179771582Y-105393104D01*
X179626895Y-105248417D01*
X179461349Y-105128140D01*
X179279029Y-105035244D01*
X179084413Y-104972009D01*
X179030000Y-104963390D01*
X179030000Y-105806988D01*
X178972993Y-105774075D01*
X178845826Y-105740000D01*
X178714174Y-105740000D01*
X178587007Y-105774075D01*
X178530000Y-105806988D01*
X178530000Y-104963390D01*
X178475586Y-104972009D01*
X178280970Y-105035244D01*
X178098650Y-105128140D01*
X177933105Y-105248417D01*
X177933104Y-105248417D01*
X177788417Y-105393104D01*
X177788417Y-105393105D01*
X177668140Y-105558650D01*
X177620765Y-105651629D01*
X177572790Y-105702425D01*
X177504969Y-105719220D01*
X177438834Y-105696682D01*
X177399795Y-105651629D01*
X177352419Y-105558650D01*
X177352287Y-105558390D01*
X177344556Y-105547749D01*
X177231971Y-105392786D01*
X177087213Y-105248028D01*
X176921613Y-105127715D01*
X176921612Y-105127714D01*
X176921610Y-105127713D01*
X176864653Y-105098691D01*
X176739223Y-105034781D01*
X176544534Y-104971522D01*
X176369995Y-104943878D01*
X176342352Y-104939500D01*
X176137648Y-104939500D01*
X176113329Y-104943351D01*
X175935465Y-104971522D01*
X175740776Y-105034781D01*
X175558386Y-105127715D01*
X175392786Y-105248028D01*
X175248028Y-105392786D01*
X175127715Y-105558386D01*
X175080485Y-105651080D01*
X175032510Y-105701876D01*
X174964689Y-105718671D01*
X174898554Y-105696134D01*
X174859515Y-105651080D01*
X174812419Y-105558650D01*
X174812287Y-105558390D01*
X174804556Y-105547749D01*
X174691971Y-105392786D01*
X174547213Y-105248028D01*
X174381613Y-105127715D01*
X174381612Y-105127714D01*
X174381610Y-105127713D01*
X174324653Y-105098691D01*
X174199223Y-105034781D01*
X174004534Y-104971522D01*
X173829995Y-104943878D01*
X173802352Y-104939500D01*
X173597648Y-104939500D01*
X173573329Y-104943351D01*
X173395465Y-104971522D01*
X173200776Y-105034781D01*
X173018386Y-105127715D01*
X172852786Y-105248028D01*
X172708028Y-105392786D01*
X172587715Y-105558386D01*
X172540485Y-105651080D01*
X172492510Y-105701876D01*
X172424689Y-105718671D01*
X172358554Y-105696134D01*
X172319515Y-105651080D01*
X172272419Y-105558650D01*
X172272287Y-105558390D01*
X172264556Y-105547749D01*
X172151971Y-105392786D01*
X172007213Y-105248028D01*
X171841613Y-105127715D01*
X171841612Y-105127714D01*
X171841610Y-105127713D01*
X171784653Y-105098691D01*
X171659223Y-105034781D01*
X171464534Y-104971522D01*
X171289995Y-104943878D01*
X171262352Y-104939500D01*
X171057648Y-104939500D01*
X171033329Y-104943351D01*
X170855465Y-104971522D01*
X170660776Y-105034781D01*
X170478386Y-105127715D01*
X170312786Y-105248028D01*
X170168028Y-105392786D01*
X170047715Y-105558386D01*
X170000485Y-105651080D01*
X169952510Y-105701876D01*
X169884689Y-105718671D01*
X169818554Y-105696134D01*
X169779515Y-105651080D01*
X169732419Y-105558650D01*
X169732287Y-105558390D01*
X169724556Y-105547749D01*
X169611971Y-105392786D01*
X169467213Y-105248028D01*
X169301613Y-105127715D01*
X169301612Y-105127714D01*
X169301610Y-105127713D01*
X169244653Y-105098691D01*
X169119223Y-105034781D01*
X168924534Y-104971522D01*
X168749995Y-104943878D01*
X168722352Y-104939500D01*
X168517648Y-104939500D01*
X168493329Y-104943351D01*
X168315465Y-104971522D01*
X168120776Y-105034781D01*
X167938386Y-105127715D01*
X167772786Y-105248028D01*
X167628028Y-105392786D01*
X167507715Y-105558386D01*
X167460485Y-105651080D01*
X167412510Y-105701876D01*
X167344689Y-105718671D01*
X167278554Y-105696134D01*
X167239515Y-105651080D01*
X167192419Y-105558650D01*
X167192287Y-105558390D01*
X167184556Y-105547749D01*
X167071971Y-105392786D01*
X166927213Y-105248028D01*
X166761613Y-105127715D01*
X166761612Y-105127714D01*
X166761610Y-105127713D01*
X166704653Y-105098691D01*
X166579223Y-105034781D01*
X166384534Y-104971522D01*
X166209995Y-104943878D01*
X166182352Y-104939500D01*
X165977648Y-104939500D01*
X165953329Y-104943351D01*
X165775465Y-104971522D01*
X165580776Y-105034781D01*
X165398386Y-105127715D01*
X165232786Y-105248028D01*
X165088028Y-105392786D01*
X164967715Y-105558386D01*
X164920485Y-105651080D01*
X164872510Y-105701876D01*
X164804689Y-105718671D01*
X164738554Y-105696134D01*
X164699515Y-105651080D01*
X164652419Y-105558650D01*
X164652287Y-105558390D01*
X164644556Y-105547749D01*
X164531971Y-105392786D01*
X164387213Y-105248028D01*
X164221613Y-105127715D01*
X164221612Y-105127714D01*
X164221610Y-105127713D01*
X164164653Y-105098691D01*
X164039223Y-105034781D01*
X163844534Y-104971522D01*
X163669995Y-104943878D01*
X163642352Y-104939500D01*
X163437648Y-104939500D01*
X163413329Y-104943351D01*
X163235465Y-104971522D01*
X163040776Y-105034781D01*
X162858386Y-105127715D01*
X162692786Y-105248028D01*
X162548028Y-105392786D01*
X162427715Y-105558386D01*
X162380485Y-105651080D01*
X162332510Y-105701876D01*
X162264689Y-105718671D01*
X162198554Y-105696134D01*
X162159515Y-105651080D01*
X162112419Y-105558650D01*
X162112287Y-105558390D01*
X162104556Y-105547749D01*
X161991971Y-105392786D01*
X161847213Y-105248028D01*
X161681613Y-105127715D01*
X161681612Y-105127714D01*
X161681610Y-105127713D01*
X161624653Y-105098691D01*
X161499223Y-105034781D01*
X161304534Y-104971522D01*
X161129995Y-104943878D01*
X161102352Y-104939500D01*
X160897648Y-104939500D01*
X160873329Y-104943351D01*
X160695465Y-104971522D01*
X160500776Y-105034781D01*
X160318386Y-105127715D01*
X160152786Y-105248028D01*
X160008028Y-105392786D01*
X159887715Y-105558386D01*
X159840485Y-105651080D01*
X159792510Y-105701876D01*
X159724689Y-105718671D01*
X159658554Y-105696134D01*
X159619515Y-105651080D01*
X159572419Y-105558650D01*
X159572287Y-105558390D01*
X159564556Y-105547749D01*
X159451971Y-105392786D01*
X159307213Y-105248028D01*
X159141613Y-105127715D01*
X159141612Y-105127714D01*
X159141610Y-105127713D01*
X159084653Y-105098691D01*
X158959223Y-105034781D01*
X158764534Y-104971522D01*
X158589995Y-104943878D01*
X158562352Y-104939500D01*
X158357648Y-104939500D01*
X158333329Y-104943351D01*
X158155465Y-104971522D01*
X157960776Y-105034781D01*
X157778386Y-105127715D01*
X157612786Y-105248028D01*
X157468028Y-105392786D01*
X157347715Y-105558386D01*
X157300485Y-105651080D01*
X157252510Y-105701876D01*
X157184689Y-105718671D01*
X157118554Y-105696134D01*
X157079515Y-105651080D01*
X157032419Y-105558650D01*
X157032287Y-105558390D01*
X157024556Y-105547749D01*
X156911971Y-105392786D01*
X156767213Y-105248028D01*
X156601613Y-105127715D01*
X156601612Y-105127714D01*
X156601610Y-105127713D01*
X156544653Y-105098691D01*
X156419223Y-105034781D01*
X156224534Y-104971522D01*
X156049995Y-104943878D01*
X156022352Y-104939500D01*
X155817648Y-104939500D01*
X155793329Y-104943351D01*
X155615465Y-104971522D01*
X155420776Y-105034781D01*
X155238386Y-105127715D01*
X155072786Y-105248028D01*
X154928028Y-105392786D01*
X154807715Y-105558386D01*
X154760485Y-105651080D01*
X154712510Y-105701876D01*
X154644689Y-105718671D01*
X154578554Y-105696134D01*
X154539515Y-105651080D01*
X154492419Y-105558650D01*
X154492287Y-105558390D01*
X154484556Y-105547749D01*
X154371971Y-105392786D01*
X154227213Y-105248028D01*
X154061613Y-105127715D01*
X154061612Y-105127714D01*
X154061610Y-105127713D01*
X154004653Y-105098691D01*
X153879223Y-105034781D01*
X153684534Y-104971522D01*
X153509995Y-104943878D01*
X153482352Y-104939500D01*
X153277648Y-104939500D01*
X153253329Y-104943351D01*
X153075465Y-104971522D01*
X152880776Y-105034781D01*
X152698386Y-105127715D01*
X152532786Y-105248028D01*
X152388028Y-105392786D01*
X152267715Y-105558386D01*
X152220485Y-105651080D01*
X152172510Y-105701876D01*
X152104689Y-105718671D01*
X152038554Y-105696134D01*
X151999515Y-105651080D01*
X151952419Y-105558650D01*
X151952287Y-105558390D01*
X151944556Y-105547749D01*
X151831971Y-105392786D01*
X151687213Y-105248028D01*
X151521613Y-105127715D01*
X151521612Y-105127714D01*
X151521610Y-105127713D01*
X151464653Y-105098691D01*
X151339223Y-105034781D01*
X151144534Y-104971522D01*
X150969995Y-104943878D01*
X150942352Y-104939500D01*
X150737648Y-104939500D01*
X150713329Y-104943351D01*
X150535465Y-104971522D01*
X150340776Y-105034781D01*
X150158386Y-105127715D01*
X149992786Y-105248028D01*
X149848028Y-105392786D01*
X149727715Y-105558386D01*
X149680485Y-105651080D01*
X149632510Y-105701876D01*
X149564689Y-105718671D01*
X149498554Y-105696134D01*
X149459515Y-105651080D01*
X149412419Y-105558650D01*
X149412287Y-105558390D01*
X149404556Y-105547749D01*
X149291971Y-105392786D01*
X149147213Y-105248028D01*
X148981613Y-105127715D01*
X148981612Y-105127714D01*
X148981610Y-105127713D01*
X148924653Y-105098691D01*
X148799223Y-105034781D01*
X148604534Y-104971522D01*
X148429995Y-104943878D01*
X148402352Y-104939500D01*
X148197648Y-104939500D01*
X148173329Y-104943351D01*
X147995465Y-104971522D01*
X147800776Y-105034781D01*
X147618386Y-105127715D01*
X147452786Y-105248028D01*
X147308028Y-105392786D01*
X147187715Y-105558386D01*
X147140485Y-105651080D01*
X147092510Y-105701876D01*
X147024689Y-105718671D01*
X146958554Y-105696134D01*
X146919515Y-105651080D01*
X146872419Y-105558650D01*
X146872287Y-105558390D01*
X146864556Y-105547749D01*
X146751971Y-105392786D01*
X146607213Y-105248028D01*
X146441613Y-105127715D01*
X146441612Y-105127714D01*
X146441610Y-105127713D01*
X146384653Y-105098691D01*
X146259223Y-105034781D01*
X146064534Y-104971522D01*
X145889995Y-104943878D01*
X145862352Y-104939500D01*
X145657648Y-104939500D01*
X145633329Y-104943351D01*
X145455465Y-104971522D01*
X145260776Y-105034781D01*
X145078386Y-105127715D01*
X144912786Y-105248028D01*
X144768028Y-105392786D01*
X144647715Y-105558386D01*
X144554781Y-105740776D01*
X144491522Y-105935465D01*
X144459500Y-106137648D01*
X132000500Y-106137648D01*
X132000500Y-90897648D01*
X144459500Y-90897648D01*
X144459500Y-91102351D01*
X144491522Y-91304534D01*
X144554781Y-91499223D01*
X144617843Y-91622987D01*
X144635430Y-91657504D01*
X144647715Y-91681613D01*
X144768028Y-91847213D01*
X144912786Y-91991971D01*
X145067749Y-92104556D01*
X145078390Y-92112287D01*
X145177117Y-92162591D01*
X145260776Y-92205218D01*
X145260778Y-92205218D01*
X145260781Y-92205220D01*
X145315881Y-92223123D01*
X145455465Y-92268477D01*
X145556557Y-92284488D01*
X145657648Y-92300500D01*
X145657649Y-92300500D01*
X145862351Y-92300500D01*
X145862352Y-92300500D01*
X146064534Y-92268477D01*
X146259219Y-92205220D01*
X146441610Y-92112287D01*
X146601206Y-91996335D01*
X146607213Y-91991971D01*
X146607215Y-91991968D01*
X146607219Y-91991966D01*
X146751966Y-91847219D01*
X146751968Y-91847215D01*
X146751971Y-91847213D01*
X146872284Y-91681614D01*
X146872286Y-91681611D01*
X146872287Y-91681610D01*
X146919516Y-91588917D01*
X146967489Y-91538123D01*
X147035310Y-91521328D01*
X147101445Y-91543865D01*
X147140485Y-91588919D01*
X147187715Y-91681614D01*
X147308028Y-91847213D01*
X147452786Y-91991971D01*
X147607749Y-92104556D01*
X147618390Y-92112287D01*
X147717117Y-92162591D01*
X147800776Y-92205218D01*
X147800778Y-92205218D01*
X147800781Y-92205220D01*
X147855881Y-92223123D01*
X147995465Y-92268477D01*
X148096557Y-92284488D01*
X148197648Y-92300500D01*
X148197649Y-92300500D01*
X148402351Y-92300500D01*
X148402352Y-92300500D01*
X148604534Y-92268477D01*
X148799219Y-92205220D01*
X148981610Y-92112287D01*
X149141206Y-91996335D01*
X149147213Y-91991971D01*
X149147215Y-91991968D01*
X149147219Y-91991966D01*
X149291966Y-91847219D01*
X149291968Y-91847215D01*
X149291971Y-91847213D01*
X149412284Y-91681614D01*
X149412286Y-91681611D01*
X149412287Y-91681610D01*
X149459516Y-91588917D01*
X149507489Y-91538123D01*
X149575310Y-91521328D01*
X149641445Y-91543865D01*
X149680485Y-91588919D01*
X149727715Y-91681614D01*
X149848028Y-91847213D01*
X149992786Y-91991971D01*
X150147749Y-92104556D01*
X150158390Y-92112287D01*
X150257117Y-92162591D01*
X150340776Y-92205218D01*
X150340778Y-92205218D01*
X150340781Y-92205220D01*
X150395881Y-92223123D01*
X150535465Y-92268477D01*
X150636557Y-92284488D01*
X150737648Y-92300500D01*
X150737649Y-92300500D01*
X150942351Y-92300500D01*
X150942352Y-92300500D01*
X151144534Y-92268477D01*
X151339219Y-92205220D01*
X151521610Y-92112287D01*
X151681206Y-91996335D01*
X151687213Y-91991971D01*
X151687215Y-91991968D01*
X151687219Y-91991966D01*
X151831966Y-91847219D01*
X151831968Y-91847215D01*
X151831971Y-91847213D01*
X151952284Y-91681614D01*
X151952286Y-91681611D01*
X151952287Y-91681610D01*
X151999516Y-91588917D01*
X152047489Y-91538123D01*
X152115310Y-91521328D01*
X152181445Y-91543865D01*
X152220485Y-91588919D01*
X152267715Y-91681614D01*
X152388028Y-91847213D01*
X152532786Y-91991971D01*
X152687749Y-92104556D01*
X152698390Y-92112287D01*
X152797117Y-92162591D01*
X152880776Y-92205218D01*
X152880778Y-92205218D01*
X152880781Y-92205220D01*
X152935881Y-92223123D01*
X153075465Y-92268477D01*
X153176557Y-92284488D01*
X153277648Y-92300500D01*
X153277649Y-92300500D01*
X153482351Y-92300500D01*
X153482352Y-92300500D01*
X153684534Y-92268477D01*
X153879219Y-92205220D01*
X154061610Y-92112287D01*
X154221206Y-91996335D01*
X154227213Y-91991971D01*
X154227215Y-91991968D01*
X154227219Y-91991966D01*
X154371966Y-91847219D01*
X154371968Y-91847215D01*
X154371971Y-91847213D01*
X154492284Y-91681614D01*
X154492286Y-91681611D01*
X154492287Y-91681610D01*
X154539516Y-91588917D01*
X154587489Y-91538123D01*
X154655310Y-91521328D01*
X154721445Y-91543865D01*
X154760485Y-91588919D01*
X154807715Y-91681614D01*
X154928028Y-91847213D01*
X155072786Y-91991971D01*
X155227749Y-92104556D01*
X155238390Y-92112287D01*
X155337117Y-92162591D01*
X155420776Y-92205218D01*
X155420778Y-92205218D01*
X155420781Y-92205220D01*
X155475881Y-92223123D01*
X155615465Y-92268477D01*
X155716557Y-92284488D01*
X155817648Y-92300500D01*
X155817649Y-92300500D01*
X156022351Y-92300500D01*
X156022352Y-92300500D01*
X156224534Y-92268477D01*
X156419219Y-92205220D01*
X156601610Y-92112287D01*
X156761206Y-91996335D01*
X156767213Y-91991971D01*
X156767215Y-91991968D01*
X156767219Y-91991966D01*
X156911966Y-91847219D01*
X156911968Y-91847215D01*
X156911971Y-91847213D01*
X157032284Y-91681614D01*
X157032286Y-91681611D01*
X157032287Y-91681610D01*
X157079516Y-91588917D01*
X157127489Y-91538123D01*
X157195310Y-91521328D01*
X157261445Y-91543865D01*
X157300485Y-91588919D01*
X157347715Y-91681614D01*
X157468028Y-91847213D01*
X157612786Y-91991971D01*
X157767749Y-92104556D01*
X157778390Y-92112287D01*
X157877117Y-92162591D01*
X157960776Y-92205218D01*
X157960778Y-92205218D01*
X157960781Y-92205220D01*
X158015881Y-92223123D01*
X158155465Y-92268477D01*
X158256557Y-92284488D01*
X158357648Y-92300500D01*
X158357649Y-92300500D01*
X158562351Y-92300500D01*
X158562352Y-92300500D01*
X158764534Y-92268477D01*
X158959219Y-92205220D01*
X159141610Y-92112287D01*
X159301206Y-91996335D01*
X159307213Y-91991971D01*
X159307215Y-91991968D01*
X159307219Y-91991966D01*
X159451966Y-91847219D01*
X159451968Y-91847215D01*
X159451971Y-91847213D01*
X159572284Y-91681614D01*
X159572286Y-91681611D01*
X159572287Y-91681610D01*
X159619516Y-91588917D01*
X159667489Y-91538123D01*
X159735310Y-91521328D01*
X159801445Y-91543865D01*
X159840485Y-91588919D01*
X159887715Y-91681614D01*
X160008028Y-91847213D01*
X160152786Y-91991971D01*
X160307749Y-92104556D01*
X160318390Y-92112287D01*
X160417117Y-92162591D01*
X160500776Y-92205218D01*
X160500778Y-92205218D01*
X160500781Y-92205220D01*
X160555881Y-92223123D01*
X160695465Y-92268477D01*
X160796557Y-92284488D01*
X160897648Y-92300500D01*
X160897649Y-92300500D01*
X161102351Y-92300500D01*
X161102352Y-92300500D01*
X161304534Y-92268477D01*
X161499219Y-92205220D01*
X161681610Y-92112287D01*
X161841206Y-91996335D01*
X161847213Y-91991971D01*
X161847215Y-91991968D01*
X161847219Y-91991966D01*
X161991966Y-91847219D01*
X161991968Y-91847215D01*
X161991971Y-91847213D01*
X162112284Y-91681614D01*
X162112286Y-91681611D01*
X162112287Y-91681610D01*
X162159516Y-91588917D01*
X162207489Y-91538123D01*
X162275310Y-91521328D01*
X162341445Y-91543865D01*
X162380485Y-91588919D01*
X162427715Y-91681614D01*
X162548028Y-91847213D01*
X162692786Y-91991971D01*
X162847749Y-92104556D01*
X162858390Y-92112287D01*
X162957117Y-92162591D01*
X163040776Y-92205218D01*
X163040778Y-92205218D01*
X163040781Y-92205220D01*
X163095881Y-92223123D01*
X163235465Y-92268477D01*
X163336557Y-92284488D01*
X163437648Y-92300500D01*
X163437649Y-92300500D01*
X163642351Y-92300500D01*
X163642352Y-92300500D01*
X163844534Y-92268477D01*
X164039219Y-92205220D01*
X164221610Y-92112287D01*
X164381206Y-91996335D01*
X164387213Y-91991971D01*
X164387215Y-91991968D01*
X164387219Y-91991966D01*
X164531966Y-91847219D01*
X164531968Y-91847215D01*
X164531971Y-91847213D01*
X164652284Y-91681614D01*
X164652286Y-91681611D01*
X164652287Y-91681610D01*
X164699516Y-91588917D01*
X164747489Y-91538123D01*
X164815310Y-91521328D01*
X164881445Y-91543865D01*
X164920485Y-91588919D01*
X164967715Y-91681614D01*
X165088028Y-91847213D01*
X165232786Y-91991971D01*
X165387749Y-92104556D01*
X165398390Y-92112287D01*
X165497117Y-92162591D01*
X165580776Y-92205218D01*
X165580778Y-92205218D01*
X165580781Y-92205220D01*
X165635881Y-92223123D01*
X165775465Y-92268477D01*
X165876557Y-92284488D01*
X165977648Y-92300500D01*
X165977649Y-92300500D01*
X166182351Y-92300500D01*
X166182352Y-92300500D01*
X166384534Y-92268477D01*
X166579219Y-92205220D01*
X166761610Y-92112287D01*
X166921206Y-91996335D01*
X166927213Y-91991971D01*
X166927215Y-91991968D01*
X166927219Y-91991966D01*
X167071966Y-91847219D01*
X167071968Y-91847215D01*
X167071971Y-91847213D01*
X167192284Y-91681614D01*
X167192286Y-91681611D01*
X167192287Y-91681610D01*
X167239516Y-91588917D01*
X167287489Y-91538123D01*
X167355310Y-91521328D01*
X167421445Y-91543865D01*
X167460485Y-91588919D01*
X167507715Y-91681614D01*
X167628028Y-91847213D01*
X167772786Y-91991971D01*
X167927749Y-92104556D01*
X167938390Y-92112287D01*
X168037117Y-92162591D01*
X168120776Y-92205218D01*
X168120778Y-92205218D01*
X168120781Y-92205220D01*
X168175881Y-92223123D01*
X168315465Y-92268477D01*
X168416557Y-92284488D01*
X168517648Y-92300500D01*
X168517649Y-92300500D01*
X168722351Y-92300500D01*
X168722352Y-92300500D01*
X168924534Y-92268477D01*
X169119219Y-92205220D01*
X169301610Y-92112287D01*
X169461206Y-91996335D01*
X169467213Y-91991971D01*
X169467215Y-91991968D01*
X169467219Y-91991966D01*
X169611966Y-91847219D01*
X169611968Y-91847215D01*
X169611971Y-91847213D01*
X169732284Y-91681614D01*
X169732286Y-91681611D01*
X169732287Y-91681610D01*
X169779516Y-91588917D01*
X169827489Y-91538123D01*
X169895310Y-91521328D01*
X169961445Y-91543865D01*
X170000485Y-91588919D01*
X170047715Y-91681614D01*
X170168028Y-91847213D01*
X170312786Y-91991971D01*
X170467749Y-92104556D01*
X170478390Y-92112287D01*
X170577117Y-92162591D01*
X170660776Y-92205218D01*
X170660778Y-92205218D01*
X170660781Y-92205220D01*
X170715881Y-92223123D01*
X170855465Y-92268477D01*
X170956557Y-92284488D01*
X171057648Y-92300500D01*
X171057649Y-92300500D01*
X171262351Y-92300500D01*
X171262352Y-92300500D01*
X171464534Y-92268477D01*
X171659219Y-92205220D01*
X171841610Y-92112287D01*
X172001206Y-91996335D01*
X172007213Y-91991971D01*
X172007215Y-91991968D01*
X172007219Y-91991966D01*
X172151966Y-91847219D01*
X172151968Y-91847215D01*
X172151971Y-91847213D01*
X172272284Y-91681614D01*
X172272286Y-91681611D01*
X172272287Y-91681610D01*
X172319795Y-91588369D01*
X172367770Y-91537574D01*
X172435591Y-91520779D01*
X172501725Y-91543316D01*
X172540765Y-91588370D01*
X172588140Y-91681349D01*
X172708417Y-91846894D01*
X172708417Y-91846895D01*
X172853104Y-91991582D01*
X173018650Y-92111859D01*
X173200968Y-92204754D01*
X173395578Y-92267988D01*
X173450000Y-92276607D01*
X173450000Y-91433012D01*
X173507007Y-91465925D01*
X173634174Y-91500000D01*
X173765826Y-91500000D01*
X173892993Y-91465925D01*
X173950000Y-91433012D01*
X173950000Y-92276606D01*
X174004421Y-92267988D01*
X174199031Y-92204754D01*
X174381349Y-92111859D01*
X174546894Y-91991582D01*
X174546895Y-91991582D01*
X174691582Y-91846895D01*
X174691582Y-91846894D01*
X174811861Y-91681347D01*
X174859234Y-91588371D01*
X174907208Y-91537575D01*
X174975028Y-91520779D01*
X175041164Y-91543316D01*
X175080203Y-91588369D01*
X175127713Y-91681611D01*
X175248028Y-91847213D01*
X175392786Y-91991971D01*
X175547749Y-92104556D01*
X175558390Y-92112287D01*
X175657117Y-92162591D01*
X175740776Y-92205218D01*
X175740778Y-92205218D01*
X175740781Y-92205220D01*
X175795881Y-92223123D01*
X175935465Y-92268477D01*
X176036557Y-92284488D01*
X176137648Y-92300500D01*
X176137649Y-92300500D01*
X176342351Y-92300500D01*
X176342352Y-92300500D01*
X176544534Y-92268477D01*
X176739219Y-92205220D01*
X176921610Y-92112287D01*
X177081206Y-91996335D01*
X177087213Y-91991971D01*
X177087215Y-91991968D01*
X177087219Y-91991966D01*
X177231966Y-91847219D01*
X177231968Y-91847215D01*
X177231971Y-91847213D01*
X177352284Y-91681614D01*
X177352286Y-91681611D01*
X177352287Y-91681610D01*
X177399516Y-91588917D01*
X177447489Y-91538123D01*
X177515310Y-91521328D01*
X177581445Y-91543865D01*
X177620485Y-91588919D01*
X177667715Y-91681614D01*
X177788028Y-91847213D01*
X177932786Y-91991971D01*
X178087749Y-92104556D01*
X178098390Y-92112287D01*
X178197117Y-92162591D01*
X178280776Y-92205218D01*
X178280778Y-92205218D01*
X178280781Y-92205220D01*
X178335881Y-92223123D01*
X178475465Y-92268477D01*
X178576557Y-92284488D01*
X178677648Y-92300500D01*
X178677649Y-92300500D01*
X178882351Y-92300500D01*
X178882352Y-92300500D01*
X179084534Y-92268477D01*
X179279219Y-92205220D01*
X179461610Y-92112287D01*
X179621206Y-91996335D01*
X179627213Y-91991971D01*
X179627215Y-91991968D01*
X179627219Y-91991966D01*
X179771966Y-91847219D01*
X179798330Y-91810930D01*
X179853658Y-91768265D01*
X179923271Y-91762284D01*
X179985067Y-91794889D01*
X180019426Y-91855726D01*
X180021938Y-91870559D01*
X180025907Y-91907480D01*
X180076202Y-92042328D01*
X180076206Y-92042335D01*
X180162452Y-92157544D01*
X180162455Y-92157547D01*
X180277664Y-92243793D01*
X180277671Y-92243797D01*
X180412517Y-92294091D01*
X180412516Y-92294091D01*
X180419444Y-92294835D01*
X180472127Y-92300500D01*
X182167872Y-92300499D01*
X182227483Y-92294091D01*
X182362331Y-92243796D01*
X182477546Y-92157546D01*
X182563796Y-92042331D01*
X182614091Y-91907483D01*
X182620500Y-91847873D01*
X182620500Y-91585258D01*
X186809500Y-91585258D01*
X186809500Y-91814741D01*
X186828214Y-91956879D01*
X186839452Y-92042238D01*
X186888050Y-92223610D01*
X186898842Y-92263887D01*
X186986650Y-92475876D01*
X186986657Y-92475890D01*
X187101392Y-92674617D01*
X187241081Y-92856661D01*
X187241089Y-92856670D01*
X187403330Y-93018911D01*
X187403338Y-93018918D01*
X187585382Y-93158607D01*
X187585385Y-93158608D01*
X187585388Y-93158611D01*
X187784112Y-93273344D01*
X187784117Y-93273346D01*
X187784123Y-93273349D01*
X187875480Y-93311190D01*
X187996113Y-93361158D01*
X188217762Y-93420548D01*
X188445266Y-93450500D01*
X188445273Y-93450500D01*
X188674727Y-93450500D01*
X188674734Y-93450500D01*
X188902238Y-93420548D01*
X189123887Y-93361158D01*
X189335888Y-93273344D01*
X189534612Y-93158611D01*
X189716661Y-93018919D01*
X189716665Y-93018914D01*
X189716670Y-93018911D01*
X189878911Y-92856670D01*
X189878914Y-92856665D01*
X189878919Y-92856661D01*
X190018611Y-92674612D01*
X190133344Y-92475888D01*
X190221158Y-92263887D01*
X190280548Y-92042238D01*
X190310500Y-91814734D01*
X190310500Y-91585266D01*
X190280548Y-91357762D01*
X190221158Y-91136113D01*
X190133344Y-90924112D01*
X190018611Y-90725388D01*
X190018608Y-90725385D01*
X190018607Y-90725382D01*
X189907468Y-90580544D01*
X189878919Y-90543339D01*
X189878918Y-90543338D01*
X189878911Y-90543330D01*
X189716670Y-90381089D01*
X189716665Y-90381085D01*
X189716661Y-90381081D01*
X189588009Y-90282362D01*
X189534617Y-90241392D01*
X189459693Y-90198135D01*
X199245500Y-90198135D01*
X199245500Y-91801870D01*
X199245501Y-91801876D01*
X199251908Y-91861483D01*
X199302202Y-91996328D01*
X199302206Y-91996335D01*
X199388452Y-92111544D01*
X199388455Y-92111547D01*
X199503664Y-92197793D01*
X199503671Y-92197797D01*
X199638517Y-92248091D01*
X199638516Y-92248091D01*
X199645444Y-92248835D01*
X199698127Y-92254500D01*
X201301872Y-92254499D01*
X201361483Y-92248091D01*
X201496331Y-92197796D01*
X201611546Y-92111546D01*
X201697796Y-91996331D01*
X201712511Y-91956879D01*
X201712858Y-91955949D01*
X201748091Y-91861482D01*
X201749555Y-91847864D01*
X201754500Y-91801873D01*
X201754499Y-91745723D01*
X201774182Y-91678687D01*
X201826986Y-91632931D01*
X201896144Y-91622987D01*
X201959700Y-91652011D01*
X201978817Y-91672839D01*
X201993457Y-91692988D01*
X201993457Y-91692989D01*
X202557037Y-91129409D01*
X202574075Y-91192993D01*
X202639901Y-91307007D01*
X202732993Y-91400099D01*
X202847007Y-91465925D01*
X202910590Y-91482962D01*
X202347009Y-92046541D01*
X202347010Y-92046542D01*
X202382755Y-92072512D01*
X202382768Y-92072520D01*
X202558626Y-92162126D01*
X202746353Y-92223123D01*
X202941303Y-92254000D01*
X203138697Y-92254000D01*
X203333646Y-92223123D01*
X203521373Y-92162126D01*
X203697241Y-92072516D01*
X203732988Y-92046543D01*
X203732988Y-92046541D01*
X203169410Y-91482962D01*
X203232993Y-91465925D01*
X203347007Y-91400099D01*
X203440099Y-91307007D01*
X203505925Y-91192993D01*
X203522962Y-91129409D01*
X204086541Y-91692988D01*
X204086543Y-91692988D01*
X204112516Y-91657241D01*
X204199235Y-91487046D01*
X204247210Y-91436250D01*
X204315031Y-91419455D01*
X204381165Y-91441992D01*
X204420202Y-91487042D01*
X204489470Y-91622987D01*
X204507058Y-91657505D01*
X204623115Y-91817246D01*
X204762753Y-91956884D01*
X204880223Y-92042229D01*
X204922499Y-92072944D01*
X205098439Y-92162591D01*
X205223637Y-92203270D01*
X205286236Y-92223610D01*
X205481264Y-92254500D01*
X205481269Y-92254500D01*
X205678736Y-92254500D01*
X205873763Y-92223610D01*
X205875262Y-92223123D01*
X206061561Y-92162591D01*
X206237501Y-92072944D01*
X206349487Y-91991582D01*
X206397246Y-91956884D01*
X206397248Y-91956881D01*
X206397252Y-91956879D01*
X206536879Y-91817252D01*
X206536881Y-91817248D01*
X206536884Y-91817246D01*
X206652941Y-91657505D01*
X206652942Y-91657504D01*
X206652944Y-91657501D01*
X206739517Y-91487593D01*
X206787490Y-91436800D01*
X206855311Y-91420005D01*
X206921446Y-91442542D01*
X206960482Y-91487593D01*
X207029470Y-91622987D01*
X207047058Y-91657505D01*
X207163115Y-91817246D01*
X207302753Y-91956884D01*
X207420223Y-92042229D01*
X207462499Y-92072944D01*
X207638439Y-92162591D01*
X207763637Y-92203270D01*
X207826236Y-92223610D01*
X208021264Y-92254500D01*
X208021269Y-92254500D01*
X208218736Y-92254500D01*
X208413763Y-92223610D01*
X208415262Y-92223123D01*
X208601561Y-92162591D01*
X208777501Y-92072944D01*
X208889487Y-91991582D01*
X208937246Y-91956884D01*
X208937248Y-91956881D01*
X208937252Y-91956879D01*
X209076879Y-91817252D01*
X209076881Y-91817248D01*
X209076884Y-91817246D01*
X209128845Y-91745727D01*
X209192944Y-91657501D01*
X209229754Y-91585258D01*
X218309500Y-91585258D01*
X218309500Y-91814741D01*
X218328214Y-91956879D01*
X218339452Y-92042238D01*
X218388050Y-92223610D01*
X218398842Y-92263887D01*
X218486650Y-92475876D01*
X218486657Y-92475890D01*
X218601392Y-92674617D01*
X218741081Y-92856661D01*
X218741089Y-92856670D01*
X218903330Y-93018911D01*
X218903338Y-93018918D01*
X219085382Y-93158607D01*
X219085385Y-93158608D01*
X219085388Y-93158611D01*
X219284112Y-93273344D01*
X219284117Y-93273346D01*
X219284123Y-93273349D01*
X219375480Y-93311190D01*
X219496113Y-93361158D01*
X219717762Y-93420548D01*
X219945266Y-93450500D01*
X219945273Y-93450500D01*
X220174727Y-93450500D01*
X220174734Y-93450500D01*
X220402238Y-93420548D01*
X220623887Y-93361158D01*
X220835888Y-93273344D01*
X221034612Y-93158611D01*
X221216661Y-93018919D01*
X221216665Y-93018914D01*
X221216670Y-93018911D01*
X221378911Y-92856670D01*
X221378914Y-92856665D01*
X221378919Y-92856661D01*
X221518611Y-92674612D01*
X221633344Y-92475888D01*
X221721158Y-92263887D01*
X221780548Y-92042238D01*
X221810500Y-91814734D01*
X221810500Y-91585266D01*
X221780548Y-91357762D01*
X221721158Y-91136113D01*
X221633344Y-90924112D01*
X221518611Y-90725388D01*
X221518608Y-90725385D01*
X221518607Y-90725382D01*
X221407468Y-90580544D01*
X221378919Y-90543339D01*
X221378918Y-90543338D01*
X221378911Y-90543330D01*
X221216670Y-90381089D01*
X221216661Y-90381081D01*
X221034617Y-90241392D01*
X220959681Y-90198128D01*
X220933051Y-90182753D01*
X220835890Y-90126657D01*
X220835876Y-90126650D01*
X220623887Y-90038842D01*
X220402238Y-89979452D01*
X220364215Y-89974446D01*
X220174741Y-89949500D01*
X220174734Y-89949500D01*
X219945266Y-89949500D01*
X219945258Y-89949500D01*
X219728715Y-89978009D01*
X219717762Y-89979452D01*
X219627401Y-90003664D01*
X219496112Y-90038842D01*
X219284123Y-90126650D01*
X219284109Y-90126657D01*
X219085382Y-90241392D01*
X218903338Y-90381081D01*
X218741081Y-90543338D01*
X218601392Y-90725382D01*
X218486657Y-90924109D01*
X218486650Y-90924123D01*
X218398842Y-91136112D01*
X218339453Y-91357759D01*
X218339451Y-91357770D01*
X218309500Y-91585258D01*
X209229754Y-91585258D01*
X209282591Y-91481561D01*
X209343610Y-91293763D01*
X209374500Y-91098736D01*
X209374500Y-90901263D01*
X209343610Y-90706236D01*
X209290681Y-90543338D01*
X209282591Y-90518439D01*
X209192944Y-90342499D01*
X209175428Y-90318390D01*
X209076884Y-90182753D01*
X208937246Y-90043115D01*
X208777504Y-89927058D01*
X208777503Y-89927057D01*
X208777501Y-89927056D01*
X208601561Y-89837409D01*
X208601558Y-89837408D01*
X208413763Y-89776389D01*
X208218736Y-89745500D01*
X208218731Y-89745500D01*
X208021269Y-89745500D01*
X208021264Y-89745500D01*
X207826236Y-89776389D01*
X207638441Y-89837408D01*
X207462495Y-89927058D01*
X207302753Y-90043115D01*
X207163115Y-90182753D01*
X207047058Y-90342495D01*
X207047056Y-90342499D01*
X206966407Y-90500781D01*
X206960485Y-90512403D01*
X206912510Y-90563199D01*
X206844689Y-90579994D01*
X206778554Y-90557456D01*
X206739515Y-90512403D01*
X206652944Y-90342499D01*
X206635428Y-90318390D01*
X206536884Y-90182753D01*
X206397246Y-90043115D01*
X206237504Y-89927058D01*
X206237503Y-89927057D01*
X206237501Y-89927056D01*
X206061561Y-89837409D01*
X206061558Y-89837408D01*
X205873763Y-89776389D01*
X205678736Y-89745500D01*
X205678731Y-89745500D01*
X205481269Y-89745500D01*
X205481264Y-89745500D01*
X205286236Y-89776389D01*
X205098441Y-89837408D01*
X204922495Y-89927058D01*
X204762753Y-90043115D01*
X204623115Y-90182753D01*
X204507058Y-90342495D01*
X204507056Y-90342499D01*
X204420203Y-90512954D01*
X204372230Y-90563749D01*
X204304409Y-90580544D01*
X204238274Y-90558006D01*
X204199235Y-90512953D01*
X204112520Y-90342768D01*
X204112512Y-90342755D01*
X204086542Y-90307010D01*
X204086541Y-90307009D01*
X203522962Y-90870589D01*
X203505925Y-90807007D01*
X203440099Y-90692993D01*
X203347007Y-90599901D01*
X203232993Y-90534075D01*
X203169409Y-90517037D01*
X203732989Y-89953457D01*
X203697239Y-89927483D01*
X203521373Y-89837873D01*
X203333646Y-89776876D01*
X203138697Y-89746000D01*
X202941303Y-89746000D01*
X202746353Y-89776876D01*
X202558626Y-89837873D01*
X202382762Y-89927482D01*
X202382760Y-89927483D01*
X202347010Y-89953456D01*
X202347010Y-89953457D01*
X202910591Y-90517037D01*
X202847007Y-90534075D01*
X202732993Y-90599901D01*
X202639901Y-90692993D01*
X202574075Y-90807007D01*
X202557037Y-90870590D01*
X201993457Y-90307010D01*
X201993456Y-90307010D01*
X201978818Y-90327159D01*
X201923489Y-90369826D01*
X201853875Y-90375806D01*
X201792080Y-90343200D01*
X201757722Y-90282362D01*
X201754499Y-90254275D01*
X201754499Y-90198129D01*
X201754498Y-90198123D01*
X201754497Y-90198116D01*
X201748091Y-90138517D01*
X201712511Y-90043121D01*
X201697797Y-90003671D01*
X201697793Y-90003664D01*
X201611547Y-89888455D01*
X201611544Y-89888452D01*
X201496335Y-89802206D01*
X201496328Y-89802202D01*
X201361482Y-89751908D01*
X201361483Y-89751908D01*
X201301883Y-89745501D01*
X201301881Y-89745500D01*
X201301873Y-89745500D01*
X201301864Y-89745500D01*
X199698129Y-89745500D01*
X199698123Y-89745501D01*
X199638516Y-89751908D01*
X199503671Y-89802202D01*
X199503664Y-89802206D01*
X199388455Y-89888452D01*
X199388452Y-89888455D01*
X199302206Y-90003664D01*
X199302202Y-90003671D01*
X199251908Y-90138517D01*
X199245501Y-90198116D01*
X199245501Y-90198123D01*
X199245500Y-90198135D01*
X189459693Y-90198135D01*
X189459681Y-90198128D01*
X189433051Y-90182753D01*
X189335890Y-90126657D01*
X189335876Y-90126650D01*
X189123887Y-90038842D01*
X188902238Y-89979452D01*
X188864215Y-89974446D01*
X188674741Y-89949500D01*
X188674734Y-89949500D01*
X188445266Y-89949500D01*
X188445258Y-89949500D01*
X188228715Y-89978009D01*
X188217762Y-89979452D01*
X188127401Y-90003664D01*
X187996112Y-90038842D01*
X187784123Y-90126650D01*
X187784109Y-90126657D01*
X187585382Y-90241392D01*
X187403338Y-90381081D01*
X187241081Y-90543338D01*
X187101392Y-90725382D01*
X186986657Y-90924109D01*
X186986650Y-90924123D01*
X186898842Y-91136112D01*
X186839453Y-91357759D01*
X186839451Y-91357770D01*
X186809500Y-91585258D01*
X182620500Y-91585258D01*
X182620499Y-91000000D01*
X182620499Y-90152129D01*
X182620498Y-90152123D01*
X182619035Y-90138516D01*
X182614091Y-90092517D01*
X182595665Y-90043115D01*
X182563797Y-89957671D01*
X182563793Y-89957664D01*
X182477547Y-89842455D01*
X182477544Y-89842452D01*
X182362335Y-89756206D01*
X182362328Y-89756202D01*
X182227482Y-89705908D01*
X182227483Y-89705908D01*
X182167883Y-89699501D01*
X182167881Y-89699500D01*
X182167873Y-89699500D01*
X182167864Y-89699500D01*
X180472129Y-89699500D01*
X180472123Y-89699501D01*
X180412516Y-89705908D01*
X180277671Y-89756202D01*
X180277664Y-89756206D01*
X180162455Y-89842452D01*
X180162452Y-89842455D01*
X180076206Y-89957664D01*
X180076202Y-89957671D01*
X180025908Y-90092516D01*
X180021939Y-90129440D01*
X179995201Y-90193991D01*
X179937809Y-90233839D01*
X179867983Y-90236332D01*
X179807895Y-90200679D01*
X179798332Y-90189070D01*
X179771967Y-90152782D01*
X179627213Y-90008028D01*
X179461613Y-89887715D01*
X179461612Y-89887714D01*
X179461610Y-89887713D01*
X179404653Y-89858691D01*
X179279223Y-89794781D01*
X179084534Y-89731522D01*
X178909995Y-89703878D01*
X178882352Y-89699500D01*
X178677648Y-89699500D01*
X178653329Y-89703351D01*
X178475465Y-89731522D01*
X178280776Y-89794781D01*
X178098386Y-89887715D01*
X177932786Y-90008028D01*
X177788028Y-90152786D01*
X177667715Y-90318386D01*
X177620485Y-90411080D01*
X177572510Y-90461876D01*
X177504689Y-90478671D01*
X177438554Y-90456134D01*
X177399515Y-90411080D01*
X177398883Y-90409840D01*
X177352287Y-90318390D01*
X177344018Y-90307009D01*
X177231971Y-90152786D01*
X177087213Y-90008028D01*
X176921613Y-89887715D01*
X176921612Y-89887714D01*
X176921610Y-89887713D01*
X176864653Y-89858691D01*
X176739223Y-89794781D01*
X176544534Y-89731522D01*
X176369995Y-89703878D01*
X176342352Y-89699500D01*
X176137648Y-89699500D01*
X176113329Y-89703351D01*
X175935465Y-89731522D01*
X175740776Y-89794781D01*
X175558386Y-89887715D01*
X175392786Y-90008028D01*
X175248028Y-90152786D01*
X175127713Y-90318388D01*
X175080203Y-90411630D01*
X175032228Y-90462426D01*
X174964407Y-90479220D01*
X174898272Y-90456682D01*
X174859234Y-90411628D01*
X174811861Y-90318652D01*
X174691582Y-90153105D01*
X174691582Y-90153104D01*
X174546895Y-90008417D01*
X174381349Y-89888140D01*
X174199029Y-89795244D01*
X174004413Y-89732009D01*
X173950000Y-89723390D01*
X173950000Y-90566988D01*
X173892993Y-90534075D01*
X173765826Y-90500000D01*
X173634174Y-90500000D01*
X173507007Y-90534075D01*
X173450000Y-90566988D01*
X173450000Y-89723390D01*
X173395586Y-89732009D01*
X173200970Y-89795244D01*
X173018650Y-89888140D01*
X172853105Y-90008417D01*
X172853104Y-90008417D01*
X172708417Y-90153104D01*
X172708417Y-90153105D01*
X172588140Y-90318650D01*
X172540765Y-90411629D01*
X172492790Y-90462425D01*
X172424969Y-90479220D01*
X172358834Y-90456682D01*
X172319795Y-90411629D01*
X172284708Y-90342768D01*
X172272287Y-90318390D01*
X172264018Y-90307009D01*
X172151971Y-90152786D01*
X172007213Y-90008028D01*
X171841613Y-89887715D01*
X171841612Y-89887714D01*
X171841610Y-89887713D01*
X171784653Y-89858691D01*
X171659223Y-89794781D01*
X171464534Y-89731522D01*
X171289995Y-89703878D01*
X171262352Y-89699500D01*
X171057648Y-89699500D01*
X171033329Y-89703351D01*
X170855465Y-89731522D01*
X170660776Y-89794781D01*
X170478386Y-89887715D01*
X170312786Y-90008028D01*
X170168028Y-90152786D01*
X170047715Y-90318386D01*
X170000485Y-90411080D01*
X169952510Y-90461876D01*
X169884689Y-90478671D01*
X169818554Y-90456134D01*
X169779515Y-90411080D01*
X169778883Y-90409840D01*
X169732287Y-90318390D01*
X169724018Y-90307009D01*
X169611971Y-90152786D01*
X169467213Y-90008028D01*
X169301613Y-89887715D01*
X169301612Y-89887714D01*
X169301610Y-89887713D01*
X169244653Y-89858691D01*
X169119223Y-89794781D01*
X168924534Y-89731522D01*
X168749995Y-89703878D01*
X168722352Y-89699500D01*
X168517648Y-89699500D01*
X168493329Y-89703351D01*
X168315465Y-89731522D01*
X168120776Y-89794781D01*
X167938386Y-89887715D01*
X167772786Y-90008028D01*
X167628028Y-90152786D01*
X167507715Y-90318386D01*
X167460485Y-90411080D01*
X167412510Y-90461876D01*
X167344689Y-90478671D01*
X167278554Y-90456134D01*
X167239515Y-90411080D01*
X167238883Y-90409840D01*
X167192287Y-90318390D01*
X167184018Y-90307009D01*
X167071971Y-90152786D01*
X166927213Y-90008028D01*
X166761613Y-89887715D01*
X166761612Y-89887714D01*
X166761610Y-89887713D01*
X166704653Y-89858691D01*
X166579223Y-89794781D01*
X166384534Y-89731522D01*
X166209995Y-89703878D01*
X166182352Y-89699500D01*
X165977648Y-89699500D01*
X165953329Y-89703351D01*
X165775465Y-89731522D01*
X165580776Y-89794781D01*
X165398386Y-89887715D01*
X165232786Y-90008028D01*
X165088028Y-90152786D01*
X164967715Y-90318386D01*
X164920485Y-90411080D01*
X164872510Y-90461876D01*
X164804689Y-90478671D01*
X164738554Y-90456134D01*
X164699515Y-90411080D01*
X164698883Y-90409840D01*
X164652287Y-90318390D01*
X164644018Y-90307009D01*
X164531971Y-90152786D01*
X164387213Y-90008028D01*
X164221613Y-89887715D01*
X164221612Y-89887714D01*
X164221610Y-89887713D01*
X164164653Y-89858691D01*
X164039223Y-89794781D01*
X163844534Y-89731522D01*
X163669995Y-89703878D01*
X163642352Y-89699500D01*
X163437648Y-89699500D01*
X163413329Y-89703351D01*
X163235465Y-89731522D01*
X163040776Y-89794781D01*
X162858386Y-89887715D01*
X162692786Y-90008028D01*
X162548028Y-90152786D01*
X162427715Y-90318386D01*
X162380485Y-90411080D01*
X162332510Y-90461876D01*
X162264689Y-90478671D01*
X162198554Y-90456134D01*
X162159515Y-90411080D01*
X162158883Y-90409840D01*
X162112287Y-90318390D01*
X162104018Y-90307009D01*
X161991971Y-90152786D01*
X161847213Y-90008028D01*
X161681613Y-89887715D01*
X161681612Y-89887714D01*
X161681610Y-89887713D01*
X161624653Y-89858691D01*
X161499223Y-89794781D01*
X161304534Y-89731522D01*
X161129995Y-89703878D01*
X161102352Y-89699500D01*
X160897648Y-89699500D01*
X160873329Y-89703351D01*
X160695465Y-89731522D01*
X160500776Y-89794781D01*
X160318386Y-89887715D01*
X160152786Y-90008028D01*
X160008028Y-90152786D01*
X159887715Y-90318386D01*
X159840485Y-90411080D01*
X159792510Y-90461876D01*
X159724689Y-90478671D01*
X159658554Y-90456134D01*
X159619515Y-90411080D01*
X159618883Y-90409840D01*
X159572287Y-90318390D01*
X159564018Y-90307009D01*
X159451971Y-90152786D01*
X159307213Y-90008028D01*
X159141613Y-89887715D01*
X159141612Y-89887714D01*
X159141610Y-89887713D01*
X159084653Y-89858691D01*
X158959223Y-89794781D01*
X158764534Y-89731522D01*
X158589995Y-89703878D01*
X158562352Y-89699500D01*
X158357648Y-89699500D01*
X158333329Y-89703351D01*
X158155465Y-89731522D01*
X157960776Y-89794781D01*
X157778386Y-89887715D01*
X157612786Y-90008028D01*
X157468028Y-90152786D01*
X157347715Y-90318386D01*
X157300485Y-90411080D01*
X157252510Y-90461876D01*
X157184689Y-90478671D01*
X157118554Y-90456134D01*
X157079515Y-90411080D01*
X157078883Y-90409840D01*
X157032287Y-90318390D01*
X157024018Y-90307009D01*
X156911971Y-90152786D01*
X156767213Y-90008028D01*
X156601613Y-89887715D01*
X156601612Y-89887714D01*
X156601610Y-89887713D01*
X156544653Y-89858691D01*
X156419223Y-89794781D01*
X156224534Y-89731522D01*
X156049995Y-89703878D01*
X156022352Y-89699500D01*
X155817648Y-89699500D01*
X155793329Y-89703351D01*
X155615465Y-89731522D01*
X155420776Y-89794781D01*
X155238386Y-89887715D01*
X155072786Y-90008028D01*
X154928028Y-90152786D01*
X154807715Y-90318386D01*
X154760485Y-90411080D01*
X154712510Y-90461876D01*
X154644689Y-90478671D01*
X154578554Y-90456134D01*
X154539515Y-90411080D01*
X154538883Y-90409840D01*
X154492287Y-90318390D01*
X154484018Y-90307009D01*
X154371971Y-90152786D01*
X154227213Y-90008028D01*
X154061613Y-89887715D01*
X154061612Y-89887714D01*
X154061610Y-89887713D01*
X154004653Y-89858691D01*
X153879223Y-89794781D01*
X153684534Y-89731522D01*
X153509995Y-89703878D01*
X153482352Y-89699500D01*
X153277648Y-89699500D01*
X153253329Y-89703351D01*
X153075465Y-89731522D01*
X152880776Y-89794781D01*
X152698386Y-89887715D01*
X152532786Y-90008028D01*
X152388028Y-90152786D01*
X152267715Y-90318386D01*
X152220485Y-90411080D01*
X152172510Y-90461876D01*
X152104689Y-90478671D01*
X152038554Y-90456134D01*
X151999515Y-90411080D01*
X151998883Y-90409840D01*
X151952287Y-90318390D01*
X151944018Y-90307009D01*
X151831971Y-90152786D01*
X151687213Y-90008028D01*
X151521613Y-89887715D01*
X151521612Y-89887714D01*
X151521610Y-89887713D01*
X151464653Y-89858691D01*
X151339223Y-89794781D01*
X151144534Y-89731522D01*
X150969995Y-89703878D01*
X150942352Y-89699500D01*
X150737648Y-89699500D01*
X150713329Y-89703351D01*
X150535465Y-89731522D01*
X150340776Y-89794781D01*
X150158386Y-89887715D01*
X149992786Y-90008028D01*
X149848028Y-90152786D01*
X149727715Y-90318386D01*
X149680485Y-90411080D01*
X149632510Y-90461876D01*
X149564689Y-90478671D01*
X149498554Y-90456134D01*
X149459515Y-90411080D01*
X149458883Y-90409840D01*
X149412287Y-90318390D01*
X149404018Y-90307009D01*
X149291971Y-90152786D01*
X149147213Y-90008028D01*
X148981613Y-89887715D01*
X148981612Y-89887714D01*
X148981610Y-89887713D01*
X148924653Y-89858691D01*
X148799223Y-89794781D01*
X148604534Y-89731522D01*
X148429995Y-89703878D01*
X148402352Y-89699500D01*
X148197648Y-89699500D01*
X148173329Y-89703351D01*
X147995465Y-89731522D01*
X147800776Y-89794781D01*
X147618386Y-89887715D01*
X147452786Y-90008028D01*
X147308028Y-90152786D01*
X147187715Y-90318386D01*
X147140485Y-90411080D01*
X147092510Y-90461876D01*
X147024689Y-90478671D01*
X146958554Y-90456134D01*
X146919515Y-90411080D01*
X146918883Y-90409840D01*
X146872287Y-90318390D01*
X146864018Y-90307009D01*
X146751971Y-90152786D01*
X146607213Y-90008028D01*
X146441613Y-89887715D01*
X146441612Y-89887714D01*
X146441610Y-89887713D01*
X146384653Y-89858691D01*
X146259223Y-89794781D01*
X146064534Y-89731522D01*
X145889995Y-89703878D01*
X145862352Y-89699500D01*
X145657648Y-89699500D01*
X145633329Y-89703351D01*
X145455465Y-89731522D01*
X145260776Y-89794781D01*
X145078386Y-89887715D01*
X144912786Y-90008028D01*
X144768028Y-90152786D01*
X144647715Y-90318386D01*
X144554781Y-90500776D01*
X144491522Y-90695465D01*
X144459500Y-90897648D01*
X132000500Y-90897648D01*
X132000500Y-87381902D01*
X133499500Y-87381902D01*
X133499500Y-87618097D01*
X133536446Y-87851368D01*
X133609433Y-88075996D01*
X133716657Y-88286433D01*
X133855483Y-88477510D01*
X134022490Y-88644517D01*
X134213567Y-88783343D01*
X134312991Y-88834002D01*
X134424003Y-88890566D01*
X134424005Y-88890566D01*
X134424008Y-88890568D01*
X134544412Y-88929689D01*
X134648631Y-88963553D01*
X134881903Y-89000500D01*
X134881908Y-89000500D01*
X135118097Y-89000500D01*
X135351368Y-88963553D01*
X135575992Y-88890568D01*
X135786433Y-88783343D01*
X135977510Y-88644517D01*
X136144517Y-88477510D01*
X136283343Y-88286433D01*
X136390568Y-88075992D01*
X136463553Y-87851368D01*
X136500500Y-87618097D01*
X136500500Y-87381902D01*
X225499500Y-87381902D01*
X225499500Y-87618097D01*
X225536446Y-87851368D01*
X225609433Y-88075996D01*
X225716657Y-88286433D01*
X225855483Y-88477510D01*
X226022490Y-88644517D01*
X226213567Y-88783343D01*
X226312991Y-88834002D01*
X226424003Y-88890566D01*
X226424005Y-88890566D01*
X226424008Y-88890568D01*
X226544412Y-88929689D01*
X226648631Y-88963553D01*
X226881903Y-89000500D01*
X226881908Y-89000500D01*
X227118097Y-89000500D01*
X227351368Y-88963553D01*
X227575992Y-88890568D01*
X227786433Y-88783343D01*
X227977510Y-88644517D01*
X228144517Y-88477510D01*
X228283343Y-88286433D01*
X228390568Y-88075992D01*
X228463553Y-87851368D01*
X228500500Y-87618097D01*
X228500500Y-87381902D01*
X228463553Y-87148631D01*
X228390566Y-86924003D01*
X228283342Y-86713566D01*
X228144517Y-86522490D01*
X227977510Y-86355483D01*
X227786433Y-86216657D01*
X227575996Y-86109433D01*
X227351368Y-86036446D01*
X227118097Y-85999500D01*
X227118092Y-85999500D01*
X226881908Y-85999500D01*
X226881903Y-85999500D01*
X226648631Y-86036446D01*
X226424003Y-86109433D01*
X226213566Y-86216657D01*
X226104550Y-86295862D01*
X226022490Y-86355483D01*
X226022488Y-86355485D01*
X226022487Y-86355485D01*
X225855485Y-86522487D01*
X225855485Y-86522488D01*
X225855483Y-86522490D01*
X225795862Y-86604550D01*
X225716657Y-86713566D01*
X225609433Y-86924003D01*
X225536446Y-87148631D01*
X225499500Y-87381902D01*
X136500500Y-87381902D01*
X136463553Y-87148631D01*
X136390566Y-86924003D01*
X136283342Y-86713566D01*
X136144517Y-86522490D01*
X135977510Y-86355483D01*
X135786433Y-86216657D01*
X135575996Y-86109433D01*
X135351368Y-86036446D01*
X135118097Y-85999500D01*
X135118092Y-85999500D01*
X134881908Y-85999500D01*
X134881903Y-85999500D01*
X134648631Y-86036446D01*
X134424003Y-86109433D01*
X134213566Y-86216657D01*
X134104550Y-86295862D01*
X134022490Y-86355483D01*
X134022488Y-86355485D01*
X134022487Y-86355485D01*
X133855485Y-86522487D01*
X133855485Y-86522488D01*
X133855483Y-86522490D01*
X133795862Y-86604550D01*
X133716657Y-86713566D01*
X133609433Y-86924003D01*
X133536446Y-87148631D01*
X133499500Y-87381902D01*
X132000500Y-87381902D01*
X132000500Y-84624500D01*
X132020185Y-84557461D01*
X132072989Y-84511706D01*
X132124500Y-84500500D01*
X229875500Y-84500500D01*
X229942539Y-84520185D01*
G37*
%TD.AperFunction*%
%TD*%
M02*
