%TF.GenerationSoftware,KiCad,Pcbnew,9.0.6*%
%TF.CreationDate,2026-03-12T20:15:24+02:00*%
%TF.ProjectId,Soldering station,536f6c64-6572-4696-9e67-207374617469,rev?*%
%TF.SameCoordinates,Original*%
%TF.FileFunction,Copper,L3,Inr*%
%TF.FilePolarity,Positive*%
%FSLAX46Y46*%
G04 Gerber Fmt 4.6, Leading zero omitted, Abs format (unit mm)*
G04 Created by KiCad (PCBNEW 9.0.6) date 2026-03-12 20:15:24*
%MOMM*%
%LPD*%
G01*
G04 APERTURE LIST*
G04 Aperture macros list*
%AMRoundRect*
0 Rectangle with rounded corners*
0 $1 Rounding radius*
0 $2 $3 $4 $5 $6 $7 $8 $9 X,Y pos of 4 corners*
0 Add a 4 corners polygon primitive as box body*
4,1,4,$2,$3,$4,$5,$6,$7,$8,$9,$2,$3,0*
0 Add four circle primitives for the rounded corners*
1,1,$1+$1,$2,$3*
1,1,$1+$1,$4,$5*
1,1,$1+$1,$6,$7*
1,1,$1+$1,$8,$9*
0 Add four rect primitives between the rounded corners*
20,1,$1+$1,$2,$3,$4,$5,0*
20,1,$1+$1,$4,$5,$6,$7,0*
20,1,$1+$1,$6,$7,$8,$9,0*
20,1,$1+$1,$8,$9,$2,$3,0*%
G04 Aperture macros list end*
%TA.AperFunction,ComponentPad*%
%ADD10O,1.500000X1.500000*%
%TD*%
%TA.AperFunction,ComponentPad*%
%ADD11C,1.600000*%
%TD*%
%TA.AperFunction,ComponentPad*%
%ADD12C,1.270000*%
%TD*%
%TA.AperFunction,ComponentPad*%
%ADD13R,2.000000X2.000000*%
%TD*%
%TA.AperFunction,ComponentPad*%
%ADD14C,2.000000*%
%TD*%
%TA.AperFunction,ComponentPad*%
%ADD15R,2.500000X3.000000*%
%TD*%
%TA.AperFunction,ComponentPad*%
%ADD16R,1.600000X1.600000*%
%TD*%
%TA.AperFunction,ComponentPad*%
%ADD17O,1.600000X1.600000*%
%TD*%
%TA.AperFunction,ComponentPad*%
%ADD18R,2.000000X1.905000*%
%TD*%
%TA.AperFunction,ComponentPad*%
%ADD19O,2.000000X1.905000*%
%TD*%
%TA.AperFunction,ComponentPad*%
%ADD20R,1.508000X1.508000*%
%TD*%
%TA.AperFunction,ComponentPad*%
%ADD21C,1.508000*%
%TD*%
%TA.AperFunction,ComponentPad*%
%ADD22R,1.800000X1.800000*%
%TD*%
%TA.AperFunction,ComponentPad*%
%ADD23C,1.800000*%
%TD*%
%TA.AperFunction,ComponentPad*%
%ADD24RoundRect,0.250000X-0.550000X-0.550000X0.550000X-0.550000X0.550000X0.550000X-0.550000X0.550000X0*%
%TD*%
%TA.AperFunction,ComponentPad*%
%ADD25R,3.200000X3.200000*%
%TD*%
%TA.AperFunction,ComponentPad*%
%ADD26O,3.200000X3.200000*%
%TD*%
%TA.AperFunction,ComponentPad*%
%ADD27O,2.000000X4.000000*%
%TD*%
%TA.AperFunction,ComponentPad*%
%ADD28O,4.000000X2.000000*%
%TD*%
%TA.AperFunction,ComponentPad*%
%ADD29O,2.300000X4.600000*%
%TD*%
%TA.AperFunction,ComponentPad*%
%ADD30R,1.275000X1.800000*%
%TD*%
%TA.AperFunction,ComponentPad*%
%ADD31O,1.275000X1.800000*%
%TD*%
%TA.AperFunction,Conductor*%
%ADD32C,0.200000*%
%TD*%
%TA.AperFunction,Conductor*%
%ADD33C,0.750000*%
%TD*%
%TA.AperFunction,Conductor*%
%ADD34C,3.600000*%
%TD*%
%TA.AperFunction,Conductor*%
%ADD35C,1.500000*%
%TD*%
G04 APERTURE END LIST*
D10*
%TO.N,TS1*%
%TO.C,J2*%
X187500000Y-153000000D03*
%TO.N,GND2*%
X187500000Y-150500001D03*
X185334937Y-149250001D03*
%TO.N,VCC*%
X183169874Y-150500001D03*
%TO.N,Heater*%
X183169874Y-153000001D03*
%TD*%
D11*
%TO.N,GND2*%
%TO.C,R1*%
X154280000Y-135500000D03*
%TO.N,Net-(DZ1-A)*%
X144120000Y-135500000D03*
%TD*%
D12*
%TO.N,VIN*%
%TO.C,F1*%
X165500000Y-111950000D03*
%TO.N,ptc*%
X163900000Y-117050000D03*
%TD*%
D13*
%TO.N,D2*%
%TO.C,SW1*%
X212500000Y-159050000D03*
D14*
%TO.N,D3*%
X217500000Y-159050000D03*
%TO.N,GND2*%
X215000000Y-159050000D03*
D15*
%TO.N,N/C*%
X209400000Y-151550000D03*
X220600000Y-151550000D03*
%TD*%
D16*
%TO.N,unconnected-(A1-D1{slash}TX-Pad1)*%
%TO.C,A1*%
X181320000Y-91000000D03*
D17*
%TO.N,unconnected-(A1-D0{slash}RX-Pad2)*%
X178780000Y-91000000D03*
%TO.N,unconnected-(A1-~{RESET}-Pad3)*%
X176240000Y-91000000D03*
%TO.N,GND2*%
X173700000Y-91000000D03*
%TO.N,D2*%
X171160000Y-91000000D03*
%TO.N,D3*%
X168620000Y-91000000D03*
%TO.N,unconnected-(A1-D4-Pad7)*%
X166080000Y-91000000D03*
%TO.N,unconnected-(A1-D5-Pad8)*%
X163540000Y-91000000D03*
%TO.N,unconnected-(A1-D6-Pad9)*%
X161000000Y-91000000D03*
%TO.N,unconnected-(A1-D7-Pad10)*%
X158460000Y-91000000D03*
%TO.N,unconnected-(A1-D8-Pad11)*%
X155920000Y-91000000D03*
%TO.N,D9*%
X153380000Y-91000000D03*
%TO.N,D10*%
X150840000Y-91000000D03*
%TO.N,D11*%
X148300000Y-91000000D03*
%TO.N,unconnected-(A1-D12-Pad15)*%
X145760000Y-91000000D03*
%TO.N,unconnected-(A1-D13-Pad16)*%
X145760000Y-106240000D03*
%TO.N,unconnected-(A1-3V3-Pad17)*%
X148300000Y-106240000D03*
%TO.N,unconnected-(A1-AREF-Pad18)*%
X150840000Y-106240000D03*
%TO.N,A0*%
X153380000Y-106240000D03*
%TO.N,unconnected-(A1-A1-Pad20)*%
X155920000Y-106240000D03*
%TO.N,unconnected-(A1-A2-Pad21)*%
X158460000Y-106240000D03*
%TO.N,unconnected-(A1-A3-Pad22)*%
X161000000Y-106240000D03*
%TO.N,SDA*%
X163540000Y-106240000D03*
%TO.N,SCK*%
X166080000Y-106240000D03*
%TO.N,unconnected-(A1-A6-Pad25)*%
X168620000Y-106240000D03*
%TO.N,unconnected-(A1-A7-Pad26)*%
X171160000Y-106240000D03*
%TO.N,5V*%
X173700000Y-106240000D03*
%TO.N,unconnected-(A1-~{RESET}-Pad28)*%
X176240000Y-106240000D03*
%TO.N,GND2*%
X178780000Y-106240000D03*
%TO.N,unconnected-(A1-VIN-Pad30)*%
X181320000Y-106240000D03*
%TD*%
D11*
%TO.N,GND2*%
%TO.C,R6*%
X205580000Y-137500000D03*
%TO.N,Net-(D2-K)*%
X195420000Y-137500000D03*
%TD*%
D18*
%TO.N,D9*%
%TO.C,Q3*%
X220230000Y-132540000D03*
D19*
%TO.N,Heater*%
X220230000Y-130000000D03*
%TO.N,GND2*%
X220230000Y-127460000D03*
%TD*%
D20*
%TO.N,5V*%
%TO.C,DS1*%
X200500000Y-91000000D03*
D21*
%TO.N,GND2*%
X203040000Y-91000000D03*
%TO.N,SCK*%
X205580000Y-91000000D03*
%TO.N,SDA*%
X208120000Y-91000000D03*
%TD*%
D22*
%TO.N,Net-(D2-K)*%
%TO.C,D2*%
X203000000Y-153275000D03*
D23*
%TO.N,D10*%
X203000000Y-150735000D03*
%TD*%
D24*
%TO.N,5V*%
%TO.C,C1*%
X172200000Y-137000000D03*
D11*
%TO.N,GND2*%
X174700000Y-137000000D03*
%TD*%
%TO.N,Net-(U2A--)*%
%TO.C,R4*%
X180840000Y-137500000D03*
%TO.N,A0*%
X191000000Y-137500000D03*
%TD*%
%TO.N,GND2*%
%TO.C,R5*%
X210920000Y-138000000D03*
%TO.N,Net-(U2A--)*%
X221080000Y-138000000D03*
%TD*%
D24*
%TO.N,VCC*%
%TO.C,C3*%
X161047349Y-137000000D03*
D11*
%TO.N,GND2*%
X164547349Y-137000000D03*
%TD*%
D25*
%TO.N,Net-(D3-K)*%
%TO.C,D3*%
X181950000Y-123700000D03*
D26*
%TO.N,GND2*%
X181950000Y-111000000D03*
%TD*%
D27*
%TO.N,GND2*%
%TO.C,J3*%
X139000000Y-115301000D03*
D28*
X142048000Y-120000000D03*
D29*
%TO.N,VIN*%
X144969000Y-115301000D03*
%TD*%
D16*
%TO.N,A0*%
%TO.C,U2*%
X189700000Y-133810000D03*
D17*
%TO.N,Net-(U2A--)*%
X192240000Y-133810000D03*
%TO.N,TS1*%
X194780000Y-133810000D03*
%TO.N,GND2*%
X197320000Y-133810000D03*
%TO.N,N/C*%
X197320000Y-126190000D03*
X194780000Y-126190000D03*
X192240000Y-126190000D03*
%TO.N,5V*%
X189700000Y-126190000D03*
%TD*%
D14*
%TO.N,Net-(D3-K)*%
%TO.C,L1*%
X182000000Y-133700000D03*
%TO.N,5V*%
X182000000Y-127300000D03*
%TD*%
D18*
%TO.N,Net-(DZ1-A)*%
%TO.C,Q2*%
X140470000Y-124960000D03*
D19*
%TO.N,VCC*%
X140470000Y-127500000D03*
%TO.N,ptc*%
X140470000Y-130040000D03*
%TD*%
D11*
%TO.N,D9*%
%TO.C,R2*%
X180920000Y-141500000D03*
%TO.N,GND2*%
X191080000Y-141500000D03*
%TD*%
%TO.N,GND2*%
%TO.C,R7*%
X205580000Y-141500000D03*
%TO.N,Net-(D1-K)*%
X195420000Y-141500000D03*
%TD*%
D30*
%TO.N,VCC*%
%TO.C,U1*%
X169800000Y-128780000D03*
D31*
%TO.N,Net-(D3-K)*%
X171500000Y-128780000D03*
%TO.N,GND2*%
X173200000Y-128780000D03*
%TO.N,5V*%
X174900000Y-128780000D03*
%TO.N,GND2*%
X176600000Y-128780000D03*
%TD*%
D16*
%TO.N,VCC*%
%TO.C,DZ1*%
X164200000Y-131310000D03*
D17*
%TO.N,Net-(DZ1-A)*%
X164200000Y-123690000D03*
%TD*%
D22*
%TO.N,Net-(D1-K)*%
%TO.C,D1*%
X196040000Y-152000000D03*
D23*
%TO.N,D11*%
X193500000Y-152000000D03*
%TD*%
D11*
%TO.N,5V*%
%TO.C,R3*%
X210920000Y-142000000D03*
%TO.N,TS1*%
X221080000Y-142000000D03*
%TD*%
D32*
%TO.N,D11*%
X177538500Y-121795550D02*
X162439000Y-106696050D01*
X193500000Y-152000000D02*
X177538500Y-136038500D01*
X162439000Y-106696050D02*
X162439000Y-105139000D01*
X162439000Y-105139000D02*
X148300000Y-91000000D01*
X177538500Y-136038500D02*
X177538500Y-121795550D01*
%TO.N,5V*%
X172200000Y-137000000D02*
X172200000Y-131480000D01*
X189700000Y-126190000D02*
X183110000Y-126190000D01*
X172200000Y-131480000D02*
X174900000Y-128780000D01*
X183110000Y-126190000D02*
X182000000Y-127300000D01*
D33*
%TO.N,D10*%
X202876000Y-162000000D02*
X166000000Y-162000000D01*
X205000000Y-159876000D02*
X202876000Y-162000000D01*
X166000000Y-162000000D02*
X138000000Y-134000000D01*
X138000000Y-134000000D02*
X138000000Y-90000000D01*
X140000000Y-88000000D02*
X147840000Y-88000000D01*
X205000000Y-152323000D02*
X205000000Y-159876000D01*
X203000000Y-150735000D02*
X203412000Y-150735000D01*
X138000000Y-90000000D02*
X140000000Y-88000000D01*
X147840000Y-88000000D02*
X150840000Y-91000000D01*
X203412000Y-150735000D02*
X205000000Y-152323000D01*
%TO.N,Net-(D1-K)*%
X195420000Y-151380000D02*
X196040000Y-152000000D01*
X195420000Y-141500000D02*
X195420000Y-151380000D01*
%TO.N,Net-(D2-K)*%
X203000000Y-153275000D02*
X199000000Y-149275000D01*
X199000000Y-141080000D02*
X195420000Y-137500000D01*
X199000000Y-149275000D02*
X199000000Y-141080000D01*
%TO.N,Net-(D3-K)*%
X182000000Y-133700000D02*
X180424000Y-132124000D01*
X180424000Y-132124000D02*
X180424000Y-125226000D01*
X180424000Y-125226000D02*
X181950000Y-123700000D01*
D34*
%TO.N,VIN*%
X148469000Y-115301000D02*
X151430844Y-112339156D01*
X151430844Y-112339156D02*
X165110844Y-112339156D01*
X148469000Y-115301000D02*
X144969000Y-115301000D01*
D35*
%TO.N,TS1*%
X214641000Y-135561000D02*
X221080000Y-142000000D01*
X194780000Y-133810000D02*
X196531000Y-135561000D01*
X196531000Y-135561000D02*
X214641000Y-135561000D01*
D33*
%TO.N,Net-(U2A--)*%
X193616000Y-132434000D02*
X192240000Y-133810000D01*
X188550000Y-137500000D02*
X180840000Y-137500000D01*
X192240000Y-133810000D02*
X188550000Y-137500000D01*
X221080000Y-138000000D02*
X215514000Y-132434000D01*
X215514000Y-132434000D02*
X193616000Y-132434000D01*
%TO.N,D3*%
X223000000Y-127000000D02*
X223000000Y-153550000D01*
X203551500Y-125931500D02*
X221931500Y-125931500D01*
X221931500Y-125931500D02*
X223000000Y-127000000D01*
X223000000Y-153550000D02*
X217500000Y-159050000D01*
X168620000Y-91000000D02*
X203551500Y-125931500D01*
%TD*%
M02*
