%TF.GenerationSoftware,KiCad,Pcbnew,9.0.6*%
%TF.CreationDate,2026-03-12T20:15:24+02:00*%
%TF.ProjectId,Soldering station,536f6c64-6572-4696-9e67-207374617469,rev?*%
%TF.SameCoordinates,Original*%
%TF.FileFunction,Soldermask,Top*%
%TF.FilePolarity,Negative*%
%FSLAX46Y46*%
G04 Gerber Fmt 4.6, Leading zero omitted, Abs format (unit mm)*
G04 Created by KiCad (PCBNEW 9.0.6) date 2026-03-12 20:15:24*
%MOMM*%
%LPD*%
G01*
G04 APERTURE LIST*
G04 Aperture macros list*
%AMRoundRect*
0 Rectangle with rounded corners*
0 $1 Rounding radius*
0 $2 $3 $4 $5 $6 $7 $8 $9 X,Y pos of 4 corners*
0 Add a 4 corners polygon primitive as box body*
4,1,4,$2,$3,$4,$5,$6,$7,$8,$9,$2,$3,0*
0 Add four circle primitives for the rounded corners*
1,1,$1+$1,$2,$3*
1,1,$1+$1,$4,$5*
1,1,$1+$1,$6,$7*
1,1,$1+$1,$8,$9*
0 Add four rect primitives between the rounded corners*
20,1,$1+$1,$2,$3,$4,$5,0*
20,1,$1+$1,$4,$5,$6,$7,0*
20,1,$1+$1,$6,$7,$8,$9,0*
20,1,$1+$1,$8,$9,$2,$3,0*%
G04 Aperture macros list end*
%ADD10O,1.500000X1.500000*%
%ADD11C,1.600000*%
%ADD12C,1.270000*%
%ADD13R,2.000000X2.000000*%
%ADD14C,2.000000*%
%ADD15R,2.500000X3.000000*%
%ADD16R,1.600000X1.600000*%
%ADD17O,1.600000X1.600000*%
%ADD18O,3.500000X3.500000*%
%ADD19R,2.000000X1.905000*%
%ADD20O,2.000000X1.905000*%
%ADD21C,3.000000*%
%ADD22RoundRect,0.102000X-0.754000X-0.754000X0.754000X-0.754000X0.754000X0.754000X-0.754000X0.754000X0*%
%ADD23C,1.712000*%
%ADD24R,1.800000X1.800000*%
%ADD25C,1.800000*%
%ADD26RoundRect,0.250000X-0.550000X-0.550000X0.550000X-0.550000X0.550000X0.550000X-0.550000X0.550000X0*%
%ADD27C,2.500000*%
%ADD28R,3.200000X3.200000*%
%ADD29O,3.200000X3.200000*%
%ADD30O,2.000000X4.000000*%
%ADD31O,4.000000X2.000000*%
%ADD32O,2.300000X4.600000*%
%ADD33R,1.275000X1.800000*%
%ADD34O,1.275000X1.800000*%
G04 APERTURE END LIST*
D10*
%TO.C,J2*%
X187500000Y-153000000D03*
X187500000Y-150500001D03*
X185334937Y-149250001D03*
X183169874Y-150500001D03*
X183169874Y-153000001D03*
%TD*%
D11*
%TO.C,R1*%
X154280000Y-135500000D03*
X144120000Y-135500000D03*
%TD*%
D12*
%TO.C,F1*%
X165500000Y-111950000D03*
X163900000Y-117050000D03*
%TD*%
D13*
%TO.C,SW1*%
X212500000Y-159050000D03*
D14*
X217500000Y-159050000D03*
X215000000Y-159050000D03*
D15*
X209400000Y-151550000D03*
X220600000Y-151550000D03*
%TD*%
D16*
%TO.C,A1*%
X181320000Y-91000000D03*
D17*
X178780000Y-91000000D03*
X176240000Y-91000000D03*
X173700000Y-91000000D03*
X171160000Y-91000000D03*
X168620000Y-91000000D03*
X166080000Y-91000000D03*
X163540000Y-91000000D03*
X161000000Y-91000000D03*
X158460000Y-91000000D03*
X155920000Y-91000000D03*
X153380000Y-91000000D03*
X150840000Y-91000000D03*
X148300000Y-91000000D03*
X145760000Y-91000000D03*
X145760000Y-106240000D03*
X148300000Y-106240000D03*
X150840000Y-106240000D03*
X153380000Y-106240000D03*
X155920000Y-106240000D03*
X158460000Y-106240000D03*
X161000000Y-106240000D03*
X163540000Y-106240000D03*
X166080000Y-106240000D03*
X168620000Y-106240000D03*
X171160000Y-106240000D03*
X173700000Y-106240000D03*
X176240000Y-106240000D03*
X178780000Y-106240000D03*
X181320000Y-106240000D03*
%TD*%
D11*
%TO.C,R6*%
X205580000Y-137500000D03*
X195420000Y-137500000D03*
%TD*%
D18*
%TO.C,Q3*%
X203570000Y-130000000D03*
D19*
X220230000Y-132540000D03*
D20*
X220230000Y-130000000D03*
X220230000Y-127460000D03*
%TD*%
D21*
%TO.C,DS1*%
X188560000Y-91700000D03*
X188560000Y-121400000D03*
X220060000Y-91700000D03*
X220060000Y-121400000D03*
D22*
X200500000Y-91000000D03*
D23*
X203040000Y-91000000D03*
X205580000Y-91000000D03*
X208120000Y-91000000D03*
%TD*%
D24*
%TO.C,D2*%
X203000000Y-153275000D03*
D25*
X203000000Y-150735000D03*
%TD*%
D26*
%TO.C,C1*%
X172200000Y-137000000D03*
D11*
X174700000Y-137000000D03*
%TD*%
%TO.C,R4*%
X180840000Y-137500000D03*
X191000000Y-137500000D03*
%TD*%
%TO.C,R5*%
X210920000Y-138000000D03*
X221080000Y-138000000D03*
%TD*%
D26*
%TO.C,C3*%
X161047349Y-137000000D03*
D11*
X164547349Y-137000000D03*
%TD*%
D27*
%TO.C,REF\u002A\u002A*%
X227000000Y-162500000D03*
%TD*%
D28*
%TO.C,D3*%
X181950000Y-123700000D03*
D29*
X181950000Y-111000000D03*
%TD*%
D30*
%TO.C,J3*%
X139000000Y-115301000D03*
D31*
X142048000Y-120000000D03*
D32*
X144969000Y-115301000D03*
%TD*%
D16*
%TO.C,U2*%
X189700000Y-133810000D03*
D17*
X192240000Y-133810000D03*
X194780000Y-133810000D03*
X197320000Y-133810000D03*
X197320000Y-126190000D03*
X194780000Y-126190000D03*
X192240000Y-126190000D03*
X189700000Y-126190000D03*
%TD*%
D14*
%TO.C,L1*%
X182000000Y-133700000D03*
X182000000Y-127300000D03*
%TD*%
D18*
%TO.C,Q2*%
X157130000Y-127500000D03*
D19*
X140470000Y-124960000D03*
D20*
X140470000Y-127500000D03*
X140470000Y-130040000D03*
%TD*%
D11*
%TO.C,R2*%
X180920000Y-141500000D03*
X191080000Y-141500000D03*
%TD*%
%TO.C,R7*%
X205580000Y-141500000D03*
X195420000Y-141500000D03*
%TD*%
D18*
%TO.C,U1*%
X173200000Y-112120000D03*
D33*
X169800000Y-128780000D03*
D34*
X171500000Y-128780000D03*
X173200000Y-128780000D03*
X174900000Y-128780000D03*
X176600000Y-128780000D03*
%TD*%
D27*
%TO.C,REF\u002A\u002A*%
X135000000Y-162000000D03*
%TD*%
D16*
%TO.C,DZ1*%
X164200000Y-131310000D03*
D17*
X164200000Y-123690000D03*
%TD*%
D24*
%TO.C,D1*%
X196040000Y-152000000D03*
D25*
X193500000Y-152000000D03*
%TD*%
D11*
%TO.C,R3*%
X210920000Y-142000000D03*
X221080000Y-142000000D03*
%TD*%
D27*
%TO.C,REF\u002A\u002A*%
X135000000Y-87500000D03*
%TD*%
%TO.C,REF\u002A\u002A*%
X227000000Y-87500000D03*
%TD*%
M02*
