%TF.GenerationSoftware,KiCad,Pcbnew,9.0.6*%
%TF.CreationDate,2026-03-12T20:15:24+02:00*%
%TF.ProjectId,Soldering station,536f6c64-6572-4696-9e67-207374617469,rev?*%
%TF.SameCoordinates,Original*%
%TF.FileFunction,Copper,L4,Bot*%
%TF.FilePolarity,Positive*%
%FSLAX46Y46*%
G04 Gerber Fmt 4.6, Leading zero omitted, Abs format (unit mm)*
G04 Created by KiCad (PCBNEW 9.0.6) date 2026-03-12 20:15:24*
%MOMM*%
%LPD*%
G01*
G04 APERTURE LIST*
G04 Aperture macros list*
%AMRoundRect*
0 Rectangle with rounded corners*
0 $1 Rounding radius*
0 $2 $3 $4 $5 $6 $7 $8 $9 X,Y pos of 4 corners*
0 Add a 4 corners polygon primitive as box body*
4,1,4,$2,$3,$4,$5,$6,$7,$8,$9,$2,$3,0*
0 Add four circle primitives for the rounded corners*
1,1,$1+$1,$2,$3*
1,1,$1+$1,$4,$5*
1,1,$1+$1,$6,$7*
1,1,$1+$1,$8,$9*
0 Add four rect primitives between the rounded corners*
20,1,$1+$1,$2,$3,$4,$5,0*
20,1,$1+$1,$4,$5,$6,$7,0*
20,1,$1+$1,$6,$7,$8,$9,0*
20,1,$1+$1,$8,$9,$2,$3,0*%
G04 Aperture macros list end*
%TA.AperFunction,ComponentPad*%
%ADD10O,1.500000X1.500000*%
%TD*%
%TA.AperFunction,ComponentPad*%
%ADD11C,1.600000*%
%TD*%
%TA.AperFunction,ComponentPad*%
%ADD12C,1.270000*%
%TD*%
%TA.AperFunction,ComponentPad*%
%ADD13R,2.000000X2.000000*%
%TD*%
%TA.AperFunction,ComponentPad*%
%ADD14C,2.000000*%
%TD*%
%TA.AperFunction,ComponentPad*%
%ADD15R,2.500000X3.000000*%
%TD*%
%TA.AperFunction,ComponentPad*%
%ADD16R,1.600000X1.600000*%
%TD*%
%TA.AperFunction,ComponentPad*%
%ADD17O,1.600000X1.600000*%
%TD*%
%TA.AperFunction,ComponentPad*%
%ADD18R,2.000000X1.905000*%
%TD*%
%TA.AperFunction,ComponentPad*%
%ADD19O,2.000000X1.905000*%
%TD*%
%TA.AperFunction,ComponentPad*%
%ADD20R,1.508000X1.508000*%
%TD*%
%TA.AperFunction,ComponentPad*%
%ADD21C,1.508000*%
%TD*%
%TA.AperFunction,ComponentPad*%
%ADD22R,1.800000X1.800000*%
%TD*%
%TA.AperFunction,ComponentPad*%
%ADD23C,1.800000*%
%TD*%
%TA.AperFunction,ComponentPad*%
%ADD24RoundRect,0.250000X-0.550000X-0.550000X0.550000X-0.550000X0.550000X0.550000X-0.550000X0.550000X0*%
%TD*%
%TA.AperFunction,ComponentPad*%
%ADD25R,3.200000X3.200000*%
%TD*%
%TA.AperFunction,ComponentPad*%
%ADD26O,3.200000X3.200000*%
%TD*%
%TA.AperFunction,ComponentPad*%
%ADD27O,2.000000X4.000000*%
%TD*%
%TA.AperFunction,ComponentPad*%
%ADD28O,4.000000X2.000000*%
%TD*%
%TA.AperFunction,ComponentPad*%
%ADD29O,2.300000X4.600000*%
%TD*%
%TA.AperFunction,ComponentPad*%
%ADD30R,1.275000X1.800000*%
%TD*%
%TA.AperFunction,ComponentPad*%
%ADD31O,1.275000X1.800000*%
%TD*%
%TA.AperFunction,Conductor*%
%ADD32C,0.200000*%
%TD*%
%TA.AperFunction,Conductor*%
%ADD33C,0.750000*%
%TD*%
%TA.AperFunction,Conductor*%
%ADD34C,1.500000*%
%TD*%
G04 APERTURE END LIST*
D10*
%TO.P,J2,1,Pin_1*%
%TO.N,TS1*%
X187500000Y-153000000D03*
%TO.P,J2,2,Pin_2*%
%TO.N,GND2*%
X187500000Y-150500001D03*
%TO.P,J2,3,Pin_3*%
X185334937Y-149250001D03*
%TO.P,J2,4,Pin_4*%
%TO.N,VCC*%
X183169874Y-150500001D03*
%TO.P,J2,5,Pin_5*%
%TO.N,Heater*%
X183169874Y-153000001D03*
%TD*%
D11*
%TO.P,R1,1*%
%TO.N,GND2*%
X154280000Y-135500000D03*
%TO.P,R1,2*%
%TO.N,Net-(DZ1-A)*%
X144120000Y-135500000D03*
%TD*%
D12*
%TO.P,F1,1*%
%TO.N,VIN*%
X165500000Y-111950000D03*
%TO.P,F1,2*%
%TO.N,ptc*%
X163900000Y-117050000D03*
%TD*%
D13*
%TO.P,SW1,A,A*%
%TO.N,D2*%
X212500000Y-159050000D03*
D14*
%TO.P,SW1,B,B*%
%TO.N,D3*%
X217500000Y-159050000D03*
%TO.P,SW1,C,C*%
%TO.N,GND2*%
X215000000Y-159050000D03*
D15*
%TO.P,SW1,MP*%
%TO.N,N/C*%
X209400000Y-151550000D03*
X220600000Y-151550000D03*
%TD*%
D16*
%TO.P,A1,1,D1/TX*%
%TO.N,unconnected-(A1-D1{slash}TX-Pad1)*%
X181320000Y-91000000D03*
D17*
%TO.P,A1,2,D0/RX*%
%TO.N,unconnected-(A1-D0{slash}RX-Pad2)*%
X178780000Y-91000000D03*
%TO.P,A1,3,~{RESET}*%
%TO.N,unconnected-(A1-~{RESET}-Pad3)*%
X176240000Y-91000000D03*
%TO.P,A1,4,GND*%
%TO.N,GND2*%
X173700000Y-91000000D03*
%TO.P,A1,5,D2*%
%TO.N,D2*%
X171160000Y-91000000D03*
%TO.P,A1,6,D3*%
%TO.N,D3*%
X168620000Y-91000000D03*
%TO.P,A1,7,D4*%
%TO.N,unconnected-(A1-D4-Pad7)*%
X166080000Y-91000000D03*
%TO.P,A1,8,D5*%
%TO.N,unconnected-(A1-D5-Pad8)*%
X163540000Y-91000000D03*
%TO.P,A1,9,D6*%
%TO.N,unconnected-(A1-D6-Pad9)*%
X161000000Y-91000000D03*
%TO.P,A1,10,D7*%
%TO.N,unconnected-(A1-D7-Pad10)*%
X158460000Y-91000000D03*
%TO.P,A1,11,D8*%
%TO.N,unconnected-(A1-D8-Pad11)*%
X155920000Y-91000000D03*
%TO.P,A1,12,D9*%
%TO.N,D9*%
X153380000Y-91000000D03*
%TO.P,A1,13,D10*%
%TO.N,D10*%
X150840000Y-91000000D03*
%TO.P,A1,14,D11*%
%TO.N,D11*%
X148300000Y-91000000D03*
%TO.P,A1,15,D12*%
%TO.N,unconnected-(A1-D12-Pad15)*%
X145760000Y-91000000D03*
%TO.P,A1,16,D13*%
%TO.N,unconnected-(A1-D13-Pad16)*%
X145760000Y-106240000D03*
%TO.P,A1,17,3V3*%
%TO.N,unconnected-(A1-3V3-Pad17)*%
X148300000Y-106240000D03*
%TO.P,A1,18,AREF*%
%TO.N,unconnected-(A1-AREF-Pad18)*%
X150840000Y-106240000D03*
%TO.P,A1,19,A0*%
%TO.N,A0*%
X153380000Y-106240000D03*
%TO.P,A1,20,A1*%
%TO.N,unconnected-(A1-A1-Pad20)*%
X155920000Y-106240000D03*
%TO.P,A1,21,A2*%
%TO.N,unconnected-(A1-A2-Pad21)*%
X158460000Y-106240000D03*
%TO.P,A1,22,A3*%
%TO.N,unconnected-(A1-A3-Pad22)*%
X161000000Y-106240000D03*
%TO.P,A1,23,A4*%
%TO.N,SDA*%
X163540000Y-106240000D03*
%TO.P,A1,24,A5*%
%TO.N,SCK*%
X166080000Y-106240000D03*
%TO.P,A1,25,A6*%
%TO.N,unconnected-(A1-A6-Pad25)*%
X168620000Y-106240000D03*
%TO.P,A1,26,A7*%
%TO.N,unconnected-(A1-A7-Pad26)*%
X171160000Y-106240000D03*
%TO.P,A1,27,+5V*%
%TO.N,5V*%
X173700000Y-106240000D03*
%TO.P,A1,28,~{RESET}*%
%TO.N,unconnected-(A1-~{RESET}-Pad28)*%
X176240000Y-106240000D03*
%TO.P,A1,29,GND*%
%TO.N,GND2*%
X178780000Y-106240000D03*
%TO.P,A1,30,VIN*%
%TO.N,unconnected-(A1-VIN-Pad30)*%
X181320000Y-106240000D03*
%TD*%
D11*
%TO.P,R6,1*%
%TO.N,GND2*%
X205580000Y-137500000D03*
%TO.P,R6,2*%
%TO.N,Net-(D2-K)*%
X195420000Y-137500000D03*
%TD*%
D18*
%TO.P,Q3,1,G*%
%TO.N,D9*%
X220230000Y-132540000D03*
D19*
%TO.P,Q3,2,D*%
%TO.N,Heater*%
X220230000Y-130000000D03*
%TO.P,Q3,3,S*%
%TO.N,GND2*%
X220230000Y-127460000D03*
%TD*%
D20*
%TO.P,DS1,1,VDD*%
%TO.N,5V*%
X200500000Y-91000000D03*
D21*
%TO.P,DS1,2,GND*%
%TO.N,GND2*%
X203040000Y-91000000D03*
%TO.P,DS1,3,SCK*%
%TO.N,SCK*%
X205580000Y-91000000D03*
%TO.P,DS1,4,SDA*%
%TO.N,SDA*%
X208120000Y-91000000D03*
%TD*%
D22*
%TO.P,D2,1,K*%
%TO.N,Net-(D2-K)*%
X203000000Y-153275000D03*
D23*
%TO.P,D2,2,A*%
%TO.N,D10*%
X203000000Y-150735000D03*
%TD*%
D24*
%TO.P,C1,1*%
%TO.N,5V*%
X172200000Y-137000000D03*
D11*
%TO.P,C1,2*%
%TO.N,GND2*%
X174700000Y-137000000D03*
%TD*%
%TO.P,R4,1*%
%TO.N,Net-(U2A--)*%
X180840000Y-137500000D03*
%TO.P,R4,2*%
%TO.N,A0*%
X191000000Y-137500000D03*
%TD*%
%TO.P,R5,1*%
%TO.N,GND2*%
X210920000Y-138000000D03*
%TO.P,R5,2*%
%TO.N,Net-(U2A--)*%
X221080000Y-138000000D03*
%TD*%
D24*
%TO.P,C3,1*%
%TO.N,VCC*%
X161047349Y-137000000D03*
D11*
%TO.P,C3,2*%
%TO.N,GND2*%
X164547349Y-137000000D03*
%TD*%
D25*
%TO.P,D3,1,K*%
%TO.N,Net-(D3-K)*%
X181950000Y-123700000D03*
D26*
%TO.P,D3,2,A*%
%TO.N,GND2*%
X181950000Y-111000000D03*
%TD*%
D27*
%TO.P,J3,GND,GND*%
%TO.N,GND2*%
X139000000Y-115301000D03*
D28*
%TO.P,J3,GNDBREAK,GNDBREAK*%
X142048000Y-120000000D03*
D29*
%TO.P,J3,PWR,PWR*%
%TO.N,VIN*%
X144969000Y-115301000D03*
%TD*%
D16*
%TO.P,U2,1*%
%TO.N,A0*%
X189700000Y-133810000D03*
D17*
%TO.P,U2,2,-*%
%TO.N,Net-(U2A--)*%
X192240000Y-133810000D03*
%TO.P,U2,3,+*%
%TO.N,TS1*%
X194780000Y-133810000D03*
%TO.P,U2,4,V-*%
%TO.N,GND2*%
X197320000Y-133810000D03*
%TO.P,U2,5*%
%TO.N,N/C*%
X197320000Y-126190000D03*
%TO.P,U2,6*%
X194780000Y-126190000D03*
%TO.P,U2,7*%
X192240000Y-126190000D03*
%TO.P,U2,8,V+*%
%TO.N,5V*%
X189700000Y-126190000D03*
%TD*%
D14*
%TO.P,L1,1,+*%
%TO.N,Net-(D3-K)*%
X182000000Y-133700000D03*
%TO.P,L1,2,-*%
%TO.N,5V*%
X182000000Y-127300000D03*
%TD*%
D18*
%TO.P,Q2,1,G*%
%TO.N,Net-(DZ1-A)*%
X140470000Y-124960000D03*
D19*
%TO.P,Q2,2,D*%
%TO.N,VCC*%
X140470000Y-127500000D03*
%TO.P,Q2,3,S*%
%TO.N,ptc*%
X140470000Y-130040000D03*
%TD*%
D11*
%TO.P,R2,1*%
%TO.N,D9*%
X180920000Y-141500000D03*
%TO.P,R2,2*%
%TO.N,GND2*%
X191080000Y-141500000D03*
%TD*%
%TO.P,R7,1*%
%TO.N,GND2*%
X205580000Y-141500000D03*
%TO.P,R7,2*%
%TO.N,Net-(D1-K)*%
X195420000Y-141500000D03*
%TD*%
D30*
%TO.P,U1,1,VIN*%
%TO.N,VCC*%
X169800000Y-128780000D03*
D31*
%TO.P,U1,2,OUT*%
%TO.N,Net-(D3-K)*%
X171500000Y-128780000D03*
%TO.P,U1,3,GND*%
%TO.N,GND2*%
X173200000Y-128780000D03*
%TO.P,U1,4,FB*%
%TO.N,5V*%
X174900000Y-128780000D03*
%TO.P,U1,5,~{ON}/OFF*%
%TO.N,GND2*%
X176600000Y-128780000D03*
%TD*%
D16*
%TO.P,DZ1,1,K*%
%TO.N,VCC*%
X164200000Y-131310000D03*
D17*
%TO.P,DZ1,2,A*%
%TO.N,Net-(DZ1-A)*%
X164200000Y-123690000D03*
%TD*%
D22*
%TO.P,D1,1,K*%
%TO.N,Net-(D1-K)*%
X196040000Y-152000000D03*
D23*
%TO.P,D1,2,A*%
%TO.N,D11*%
X193500000Y-152000000D03*
%TD*%
D11*
%TO.P,R3,1*%
%TO.N,5V*%
X210920000Y-142000000D03*
%TO.P,R3,2*%
%TO.N,TS1*%
X221080000Y-142000000D03*
%TD*%
D32*
%TO.N,5V*%
X173700000Y-109157709D02*
X189700000Y-125157709D01*
X176380000Y-127300000D02*
X174900000Y-128780000D01*
X173700000Y-106240000D02*
X173700000Y-109157709D01*
X189700000Y-125157709D02*
X189700000Y-126190000D01*
X182000000Y-127300000D02*
X176380000Y-127300000D01*
D33*
%TO.N,Net-(D3-K)*%
X171500000Y-127130000D02*
X171500000Y-128780000D01*
X181950000Y-123700000D02*
X174930000Y-123700000D01*
X174930000Y-123700000D02*
X171500000Y-127130000D01*
D34*
%TO.N,Net-(DZ1-A)*%
X164200000Y-123690000D02*
X164200000Y-124554288D01*
X140270544Y-124960000D02*
X138519000Y-126711544D01*
X164200000Y-124554288D02*
X155005288Y-133749000D01*
X143190544Y-135500000D02*
X144120000Y-135500000D01*
X140470000Y-124960000D02*
X140270544Y-124960000D01*
X145871000Y-133749000D02*
X144120000Y-135500000D01*
X138519000Y-126711544D02*
X138519000Y-130828456D01*
X155005288Y-133749000D02*
X145871000Y-133749000D01*
X138519000Y-130828456D02*
X143190544Y-135500000D01*
%TO.N,ptc*%
X163001975Y-117050000D02*
X150011975Y-130040000D01*
X150011975Y-130040000D02*
X140470000Y-130040000D01*
X163900000Y-117050000D02*
X163001975Y-117050000D01*
%TO.N,TS1*%
X192965288Y-135624712D02*
X194780000Y-133810000D01*
X187540000Y-153000000D02*
X192965288Y-147574712D01*
X192965288Y-147574712D02*
X192965288Y-135624712D01*
%TO.N,Heater*%
X220230000Y-130000000D02*
X221544500Y-130000000D01*
X212522000Y-155126000D02*
X185335873Y-155126000D01*
X221544500Y-130000000D02*
X222831000Y-131286500D01*
X222831000Y-144817000D02*
X212522000Y-155126000D01*
X222831000Y-131286500D02*
X222831000Y-144817000D01*
X185335873Y-155126000D02*
X183209874Y-153000001D01*
%TO.N,VCC*%
X169800000Y-120544423D02*
X169800000Y-128780000D01*
X162255577Y-113000000D02*
X169800000Y-120544423D01*
X145000000Y-110000000D02*
X153008078Y-110000000D01*
X164200000Y-131310000D02*
X167270000Y-131310000D01*
X140470000Y-127500000D02*
X141784500Y-127500000D01*
X164200000Y-131310000D02*
X164200000Y-133847349D01*
X183209874Y-150500001D02*
X174547350Y-150500001D01*
X142421000Y-112579000D02*
X145000000Y-110000000D01*
X142421000Y-126863500D02*
X142421000Y-112579000D01*
X167270000Y-131310000D02*
X169800000Y-128780000D01*
X156008078Y-113000000D02*
X162255577Y-113000000D01*
X164200000Y-133847349D02*
X161047349Y-137000000D01*
X141784500Y-127500000D02*
X142421000Y-126863500D01*
X174547350Y-150500001D02*
X161047349Y-137000000D01*
X153008078Y-110000000D02*
X156008078Y-113000000D01*
%TD*%
M02*
