M48
; DRILL file {KiCad 9.0.6} date 2026-03-12T20:15:03+0200
; FORMAT={-:-/ absolute / metric / decimal}
; #@! TF.CreationDate,2026-03-12T20:15:04+02:00
; #@! TF.GenerationSoftware,Kicad,Pcbnew,9.0.6
; #@! TF.FileFunction,Plated,1,4,PTH
FMAT,2
METRIC
; #@! TA.AperFunction,Plated,PTH,ComponentDrill
T1C0.710
; #@! TA.AperFunction,Plated,PTH,ComponentDrill
T2C0.800
; #@! TA.AperFunction,Plated,PTH,ComponentDrill
T3C0.900
; #@! TA.AperFunction,Plated,PTH,ComponentDrill
T4C1.000
; #@! TA.AperFunction,Plated,PTH,ComponentDrill
T5C1.100
; #@! TA.AperFunction,Plated,PTH,ComponentDrill
T6C1.600
; #@! TA.AperFunction,Plated,PTH,ComponentDrill
T7C2.000
%
G90
G05
T1
X163.9Y-117.05
X165.5Y-111.95
T2
X144.12Y-135.5
X154.28Y-135.5
X161.047Y-137.0
X164.2Y-123.69
X164.2Y-131.31
X164.547Y-137.0
X172.2Y-137.0
X174.7Y-137.0
X180.84Y-137.5
X180.92Y-141.5
X183.17Y-150.5
X183.17Y-153.0
X185.335Y-149.25
X187.5Y-150.5
X187.5Y-153.0
X189.7Y-126.19
X189.7Y-133.81
X191.0Y-137.5
X191.08Y-141.5
X192.24Y-126.19
X192.24Y-133.81
X194.78Y-126.19
X194.78Y-133.81
X195.42Y-137.5
X195.42Y-141.5
X197.32Y-126.19
X197.32Y-133.81
X205.58Y-137.5
X205.58Y-141.5
X210.92Y-138.0
X210.92Y-142.0
X221.08Y-138.0
X221.08Y-142.0
T3
X193.5Y-152.0
X196.04Y-152.0
X203.0Y-150.735
X203.0Y-153.275
T4
X145.76Y-91.0
X145.76Y-106.24
X148.3Y-91.0
X148.3Y-106.24
X150.84Y-91.0
X150.84Y-106.24
X153.38Y-91.0
X153.38Y-106.24
X155.92Y-91.0
X155.92Y-106.24
X158.46Y-91.0
X158.46Y-106.24
X161.0Y-91.0
X161.0Y-106.24
X163.54Y-91.0
X163.54Y-106.24
X166.08Y-91.0
X166.08Y-106.24
X168.62Y-91.0
X168.62Y-106.24
X171.16Y-91.0
X171.16Y-106.24
X173.7Y-91.0
X173.7Y-106.24
X176.24Y-91.0
X176.24Y-106.24
X178.78Y-91.0
X178.78Y-106.24
X181.32Y-91.0
X181.32Y-106.24
X182.0Y-127.3
X182.0Y-133.7
X200.5Y-91.0
X203.04Y-91.0
X205.58Y-91.0
X208.12Y-91.0
X212.5Y-159.05
X215.0Y-159.05
X217.5Y-159.05
T5
X140.47Y-124.96
X140.47Y-127.5
X140.47Y-130.04
X169.8Y-128.78
X171.5Y-128.78
X173.2Y-128.78
X174.9Y-128.78
X176.6Y-128.78
X220.23Y-127.46
X220.23Y-130.0
X220.23Y-132.54
T6
X181.95Y-111.0
X181.95Y-123.7
T4
G00X139.0Y-114.301
M15
G01X139.0Y-116.301
M16
G05
G00X143.048Y-120.0
M15
G01X141.048Y-120.0
M16
G05
G00X144.969Y-114.001
M15
G01X144.969Y-116.601
M16
G05
T7
G00X209.4Y-151.8
M15
G01X209.4Y-151.3
M16
G05
G00X220.6Y-151.8
M15
G01X220.6Y-151.3
M16
G05
M30
