ISO-10303-21;
HEADER;
FILE_DESCRIPTION (( 'STEP AP214' ),
    '1' );
FILE_NAME ('do-201ad.STEP',
    '2014-05-29T16:02:31',
    ( '' ),
    ( '' ),
    'SwSTEP 2.0',
    'SolidWorks 2013',
    '' );
FILE_SCHEMA (( 'AUTOMOTIVE_DESIGN' ));
ENDSEC;

DATA;
#1 = VECTOR ( 'NONE', #733, 1000.000000000000000 ) ;
#2 = CARTESIAN_POINT ( 'NONE',  ( -2.549999999999999800, 0.0000000000000000000, 1.500000000000000000 ) ) ;
#3 = CARTESIAN_POINT ( 'NONE',  ( 0.0000000000000000000, 5.000000000000000000, 0.0000000000000000000 ) ) ;
#4 = AXIS2_PLACEMENT_3D ( 'NONE', #711, #531, #511 ) ;
#5 = EDGE_LOOP ( 'NONE', ( #594, #364 ) ) ;
#6 = MECHANICAL_DESIGN_GEOMETRIC_PRESENTATION_REPRESENTATION (  '', ( #689 ), #45 ) ;
#7 = ORIENTED_EDGE ( 'NONE', *, *, #175, .T. ) ;
#8 = DIRECTION ( 'NONE',  ( 0.0000000000000000000, 0.0000000000000000000, 1.000000000000000000 ) ) ;
#9 = UNCERTAINTY_MEASURE_WITH_UNIT (LENGTH_MEASURE( 1.000000000000000100E-005 ), #390, 'distance_accuracy_value', 'NONE');
#10 = APPLICATION_PROTOCOL_DEFINITION ( 'draft international standard', 'automotive_design', 1998, #353 ) ;
#11 = SURFACE_SIDE_STYLE ('',( #103 ) ) ;
#12 =( NAMED_UNIT ( * ) PLANE_ANGLE_UNIT ( ) SI_UNIT ( $, .RADIAN. ) );
#13 = ORIENTED_EDGE ( 'NONE', *, *, #71, .F. ) ;
#14 = SURFACE_SIDE_STYLE ('',( #508 ) ) ;
#15 = CARTESIAN_POINT ( 'NONE',  ( 0.0000000000000000000, -2.000000000000000400, 3.750000000000000000 ) ) ;
#16 = CARTESIAN_POINT ( 'NONE',  ( 2.550500000000000400, 3.123461661225324900E-016, 1.500000000000000000 ) ) ;
#17 = MECHANICAL_DESIGN_GEOMETRIC_PRESENTATION_REPRESENTATION (  '', ( #698 ), #55 ) ;
#18 = DIRECTION ( 'NONE',  ( 1.000000000000000000, 0.0000000000000000000, 0.0000000000000000000 ) ) ;
#19 = DIRECTION ( 'NONE',  ( -1.000000000000000000, 0.0000000000000000000, 0.0000000000000000000 ) ) ;
#20 = ORIENTED_EDGE ( 'NONE', *, *, #32, .F. ) ;
#21 = DIRECTION ( 'NONE',  ( 0.0000000000000000000, 0.0000000000000000000, 1.000000000000000000 ) ) ;
#22 = FILL_AREA_STYLE_COLOUR ( '', #110 ) ;
#23 = ORIENTED_EDGE ( 'NONE', *, *, #150, .F. ) ;
#24 = EDGE_LOOP ( 'NONE', ( #321, #178, #691, #201 ) ) ;
#25 = FILL_AREA_STYLE ('',( #22 ) ) ;
#26 = ORIENTED_EDGE ( 'NONE', *, *, #456, .T. ) ;
#27 = EDGE_LOOP ( 'NONE', ( #13, #623, #114, #63 ) ) ;
#28 = ADVANCED_FACE ( 'NONE', ( #204 ), #543, .T. ) ;
#29 = EDGE_CURVE ( 'NONE', #317, #295, #88, .T. ) ;
#30 = ORIENTED_EDGE ( 'NONE', *, *, #752, .T. ) ;
#31 = SURFACE_SIDE_STYLE ('',( #352 ) ) ;
#32 = EDGE_CURVE ( 'NONE', #437, #186, #344, .T. ) ;
#33 = AXIS2_PLACEMENT_3D ( 'NONE', #625, #273, #690 ) ;
#34 = CYLINDRICAL_SURFACE ( 'NONE', #481, 2.550500000000000400 ) ;
#35 = ADVANCED_FACE ( 'NONE', ( #466 ), #34, .T. ) ;
#36 = CARTESIAN_POINT ( 'NONE',  ( 6.735557395310442500E-017, -1.999999999999999600, 6.299999999999999800 ) ) ;
#37 = ORIENTED_EDGE ( 'NONE', *, *, #255, .F. ) ;
#38 = DIRECTION ( 'NONE',  ( -0.0000000000000000000, -0.0000000000000000000, -1.000000000000000000 ) ) ;
#39 =( LENGTH_UNIT ( ) NAMED_UNIT ( * ) SI_UNIT ( .MILLI., .METRE. ) );
#40 = PRESENTATION_LAYER_ASSIGNMENT (  '', '', ( #762 ) ) ;
#41 = ORIENTED_EDGE ( 'NONE', *, *, #715, .T. ) ;
#42 = ORIENTED_EDGE ( 'NONE', *, *, #175, .F. ) ;
#43 = DIRECTION ( 'NONE',  ( 1.000000000000000000, 0.0000000000000000000, 0.0000000000000000000 ) ) ;
#44 = AXIS2_PLACEMENT_3D ( 'NONE', #583, #121, #622 ) ;
#45 =( GEOMETRIC_REPRESENTATION_CONTEXT ( 3 ) GLOBAL_UNCERTAINTY_ASSIGNED_CONTEXT ( ( #599 ) ) GLOBAL_UNIT_ASSIGNED_CONTEXT ( ( #584, #235, #642 ) ) REPRESENTATION_CONTEXT ( 'NONE', 'WORKASPACE' ) );
#46 =( LENGTH_UNIT ( ) NAMED_UNIT ( * ) SI_UNIT ( .MILLI., .METRE. ) );
#47 = COLOUR_RGB ( '',0.2509803921568627400, 0.2509803921568627400, 0.2509803921568627400 ) ;
#48 =( NAMED_UNIT ( * ) PLANE_ANGLE_UNIT ( ) SI_UNIT ( $, .RADIAN. ) );
#49 = VERTEX_POINT ( 'NONE', #16 ) ;
#50 = DIRECTION ( 'NONE',  ( 1.000000000000000000, 0.0000000000000000000, 0.0000000000000000000 ) ) ;
#51 = FACE_OUTER_BOUND ( 'NONE', #474, .T. ) ;
#52 = ORIENTED_EDGE ( 'NONE', *, *, #672, .T. ) ;
#53 = FILL_AREA_STYLE ('',( #167 ) ) ;
#54 = DIRECTION ( 'NONE',  ( 1.000000000000000000, 0.0000000000000000000, 0.0000000000000000000 ) ) ;
#55 =( GEOMETRIC_REPRESENTATION_CONTEXT ( 3 ) GLOBAL_UNCERTAINTY_ASSIGNED_CONTEXT ( ( #373 ) ) GLOBAL_UNIT_ASSIGNED_CONTEXT ( ( #512, #170, #574 ) ) REPRESENTATION_CONTEXT ( 'NONE', 'WORKASPACE' ) );
#56 = PRESENTATION_STYLE_ASSIGNMENT (( #386 ) ) ;
#57 = PRODUCT_DEFINITION_SHAPE ( 'NONE', 'NONE',  #388 ) ;
#58 = SURFACE_SIDE_STYLE ('',( #138 ) ) ;
#59 = DIRECTION ( 'NONE',  ( 0.0000000000000000000, 0.0000000000000000000, 1.000000000000000000 ) ) ;
#60 = DIRECTION ( 'NONE',  ( 0.0000000000000000000, 0.0000000000000000000, 1.000000000000000000 ) ) ;
#61 = VERTEX_POINT ( 'NONE', #536 ) ;
#62 = DIRECTION ( 'NONE',  ( 1.000000000000000000, 0.0000000000000000000, 0.0000000000000000000 ) ) ;
#63 = ORIENTED_EDGE ( 'NONE', *, *, #454, .T. ) ;
#64 = SURFACE_STYLE_FILL_AREA ( #25 ) ;
#65 = APPLICATION_CONTEXT ( 'automotive_design' ) ;
#66 = ORIENTED_EDGE ( 'NONE', *, *, #661, .F. ) ;
#67 = PRODUCT_CONTEXT ( 'NONE', #470, 'mechanical' ) ;
#68 = FILL_AREA_STYLE ('',( #354 ) ) ;
#69 = AXIS2_PLACEMENT_3D ( 'NONE', #194, #605, #254 ) ;
#70 = EDGE_CURVE ( 'NONE', #141, #234, #760, .T. ) ;
#71 = EDGE_CURVE ( 'NONE', #567, #49, #656, .T. ) ;
#72 = DIRECTION ( 'NONE',  ( 0.0000000000000000000, -1.000000000000000000, 2.832769448823989800E-016 ) ) ;
#73 = STYLED_ITEM ( 'NONE', ( #56 ), #674 ) ;
#74 = DIRECTION ( 'NONE',  ( 1.000000000000000000, 0.0000000000000000000, 0.0000000000000000000 ) ) ;
#75 = DIRECTION ( 'NONE',  ( -0.0000000000000000000, -0.0000000000000000000, -1.000000000000000000 ) ) ;
#76 = SURFACE_STYLE_FILL_AREA ( #520 ) ;
#77 = CIRCLE ( 'NONE', #717, 0.5500000000000000400 ) ;
#78 = PLANE ( 'NONE',  #104 ) ;
#79 = COLOUR_RGB ( '',0.7529411764705882200, 0.7529411764705882200, 0.7529411764705882200 ) ;
#80 = VERTEX_POINT ( 'NONE', #297 ) ;
#81 = MECHANICAL_DESIGN_GEOMETRIC_PRESENTATION_REPRESENTATION (  '', ( #762 ), #119 ) ;
#82 = MANIFOLD_SOLID_BREP ( 'Ressalto-extrusão2', #341 ) ;
#83 = STYLED_ITEM ( 'NONE', ( #242 ), #147 ) ;
#84 = SURFACE_STYLE_USAGE ( .BOTH. , #425 ) ;
#85 = ORIENTED_EDGE ( 'NONE', *, *, #575, .T. ) ;
#86 = CARTESIAN_POINT ( 'NONE',  ( -2.549999999999999800, 0.0000000000000000000, 3.500000000000000000 ) ) ;
#87 = UNCERTAINTY_MEASURE_WITH_UNIT (LENGTH_MEASURE( 1.000000000000000100E-005 ), #193, 'distance_accuracy_value', 'NONE');
#88 = CIRCLE ( 'NONE', #365, 0.5500000000000000400 ) ;
#89 =( LENGTH_UNIT ( ) NAMED_UNIT ( * ) SI_UNIT ( .MILLI., .METRE. ) );
#90 = ADVANCED_FACE ( 'NONE', ( #152 ), #654, .T. ) ;
#91 = FACE_OUTER_BOUND ( 'NONE', #253, .T. ) ;
#92 = SURFACE_SIDE_STYLE ('',( #619 ) ) ;
#93 = AXIS2_PLACEMENT_3D ( 'NONE', #232, #635, #287 ) ;
#94 = DIRECTION ( 'NONE',  ( 1.000000000000000000, 0.0000000000000000000, -0.0000000000000000000 ) ) ;
#95 = VERTEX_POINT ( 'NONE', #393 ) ;
#96 = CIRCLE ( 'NONE', #551, 2.549999999999999800 ) ;
#97 =( NAMED_UNIT ( * ) SI_UNIT ( $, .STERADIAN. ) SOLID_ANGLE_UNIT ( ) );
#98 = EDGE_CURVE ( 'NONE', #295, #317, #633, .T. ) ;
#99 = DIRECTION ( 'NONE',  ( -0.0000000000000000000, -0.0000000000000000000, -1.000000000000000000 ) ) ;
#100 = CIRCLE ( 'NONE', #414, 1.450000000000000400 ) ;
#101 =( NAMED_UNIT ( * ) SI_UNIT ( $, .STERADIAN. ) SOLID_ANGLE_UNIT ( ) );
#102 = AXIS2_PLACEMENT_3D ( 'NONE', #268, #680, #322 ) ;
#103 = SURFACE_STYLE_FILL_AREA ( #68 ) ;
#104 = AXIS2_PLACEMENT_3D ( 'NONE', #307, #724, #363 ) ;
#105 = EDGE_CURVE ( 'NONE', #317, #141, #493, .T. ) ;
#106 = SURFACE_SIDE_STYLE ('',( #705 ) ) ;
#107 = EDGE_CURVE ( 'NONE', #325, #483, #370, .T. ) ;
#108 = UNCERTAINTY_MEASURE_WITH_UNIT (LENGTH_MEASURE( 1.000000000000000100E-005 ), #343, 'distance_accuracy_value', 'NONE');
#109 = PRESENTATION_LAYER_ASSIGNMENT (  '', '', ( #73 ) ) ;
#110 = COLOUR_RGB ( '',0.2509803921568627400, 0.2509803921568627400, 0.2509803921568627400 ) ;
#111 = SURFACE_STYLE_USAGE ( .BOTH. , #453 ) ;
#112 = ORIENTED_EDGE ( 'NONE', *, *, #135, .F. ) ;
#113 = DIRECTION ( 'NONE',  ( 0.0000000000000000000, 0.0000000000000000000, 1.000000000000000000 ) ) ;
#114 = ORIENTED_EDGE ( 'NONE', *, *, #264, .T. ) ;
#115 = CIRCLE ( 'NONE', #427, 0.5500000000000000400 ) ;
#116 = FILL_AREA_STYLE_COLOUR ( '', #227 ) ;
#117 = CARTESIAN_POINT ( 'NONE',  ( 0.0000000000000000000, 0.5500000000000001600, 3.750000000000000000 ) ) ;
#118 = FILL_AREA_STYLE ('',( #465 ) ) ;
#119 =( GEOMETRIC_REPRESENTATION_CONTEXT ( 3 ) GLOBAL_UNCERTAINTY_ASSIGNED_CONTEXT ( ( #488 ) ) GLOBAL_UNIT_ASSIGNED_CONTEXT ( ( #486, #139, #550 ) ) REPRESENTATION_CONTEXT ( 'NONE', 'WORKASPACE' ) );
#120 = SHAPE_REPRESENTATION ( 'do-201ad', ( #350, #164, #200, #239 ), #277 ) ;
#121 = DIRECTION ( 'NONE',  ( 0.0000000000000000000, 0.0000000000000000000, 1.000000000000000000 ) ) ;
#122 = DIRECTION ( 'NONE',  ( 0.0000000000000000000, 0.0000000000000000000, 1.000000000000000000 ) ) ;
#123 = PRESENTATION_LAYER_ASSIGNMENT (  '', '', ( #83 ) ) ;
#124 = AXIS2_PLACEMENT_3D ( 'NONE', #578, #703, #347 ) ;
#125 = APPLICATION_PROTOCOL_DEFINITION ( 'draft international standard', 'automotive_design', 1998, #473 ) ;
#126 = CIRCLE ( 'NONE', #132, 2.549999999999999800 ) ;
#127 = FACE_OUTER_BOUND ( 'NONE', #579, .T. ) ;
#128 = VERTEX_POINT ( 'NONE', #226 ) ;
#129 = CARTESIAN_POINT ( 'NONE',  ( 0.0000000000000000000, 0.0000000000000000000, 0.0000000000000000000 ) ) ;
#130 = CARTESIAN_POINT ( 'NONE',  ( 0.5500000000000000400, 6.735557395310442500E-017, 3.750000000000000000 ) ) ;
#131 = LINE ( 'NONE', #245, #356 ) ;
#132 = AXIS2_PLACEMENT_3D ( 'NONE', #460, #113, #517 ) ;
#133 = SURFACE_SIDE_STYLE ('',( #617 ) ) ;
#134 = CARTESIAN_POINT ( 'NONE',  ( 2.549999999999999800, 3.122849337825750400E-016, 3.500000000000000000 ) ) ;
#135 = EDGE_CURVE ( 'NONE', #234, #141, #293, .T. ) ;
#136 = PRODUCT ( 'corpo', 'corpo', '', ( #67 ) ) ;
#137 = DIRECTION ( 'NONE',  ( 0.0000000000000000000, 0.0000000000000000000, 1.000000000000000000 ) ) ;
#138 = SURFACE_STYLE_FILL_AREA ( #166 ) ;
#139 =( NAMED_UNIT ( * ) PLANE_ANGLE_UNIT ( ) SI_UNIT ( $, .RADIAN. ) );
#140 = UNCERTAINTY_MEASURE_WITH_UNIT (LENGTH_MEASURE( 1.000000000000000100E-005 ), #46, 'distance_accuracy_value', 'NONE');
#141 = VERTEX_POINT ( 'NONE', #507 ) ;
#142 = STYLED_ITEM ( 'NONE', ( #758 ), #613 ) ;
#143 = DIRECTION ( 'NONE',  ( 0.0000000000000000000, 0.0000000000000000000, 1.000000000000000000 ) ) ;
#144 = COLOUR_RGB ( '',0.2509803921568627400, 0.2509803921568627400, 0.2509803921568627400 ) ;
#145 = CARTESIAN_POINT ( 'NONE',  ( -0.5500000000000000400, 0.0000000000000000000, 0.0000000000000000000 ) ) ;
#146 = EDGE_CURVE ( 'NONE', #196, #95, #274, .T. ) ;
#147 = ADVANCED_FACE ( 'NONE', ( #51 ), #438, .T. ) ;
#148 =( NAMED_UNIT ( * ) SI_UNIT ( $, .STERADIAN. ) SOLID_ANGLE_UNIT ( ) );
#149 = COLOUR_RGB ( '',0.7529411764705882200, 0.7529411764705882200, 0.7529411764705882200 ) ;
#150 = EDGE_CURVE ( 'NONE', #49, #381, #458, .T. ) ;
#151 = MECHANICAL_DESIGN_GEOMETRIC_PRESENTATION_REPRESENTATION (  '', ( #73 ), #189 ) ;
#152 = FACE_OUTER_BOUND ( 'NONE', #739, .T. ) ;
#153 =( LENGTH_UNIT ( ) NAMED_UNIT ( * ) SI_UNIT ( .MILLI., .METRE. ) );
#154 = FACE_OUTER_BOUND ( 'NONE', #652, .T. ) ;
#155 = CARTESIAN_POINT ( 'NONE',  ( 2.549999999999999800, 3.122849337825750400E-016, 4.250000000000000000 ) ) ;
#156 = PRODUCT_DEFINITION_SHAPE ( 'NONE', 'NONE',  #505 ) ;
#157 = DIRECTION ( 'NONE',  ( 1.000000000000000000, 0.0000000000000000000, 0.0000000000000000000 ) ) ;
#158 = PRESENTATION_STYLE_ASSIGNMENT (( #749 ) ) ;
#159 = DIRECTION ( 'NONE',  ( -1.000000000000000000, 0.0000000000000000000, 0.0000000000000000000 ) ) ;
#160 = PRESENTATION_STYLE_ASSIGNMENT (( #500 ) ) ;
#161 = FILL_AREA_STYLE ('',( #218 ) ) ;
#162 = MECHANICAL_DESIGN_GEOMETRIC_PRESENTATION_REPRESENTATION (  '', ( #83 ), #199 ) ;
#163 = ORIENTED_EDGE ( 'NONE', *, *, #135, .T. ) ;
#164 = AXIS2_PLACEMENT_3D ( 'NONE', #3, #405, #62 ) ;
#165 = DIRECTION ( 'NONE',  ( -1.000000000000000000, 0.0000000000000000000, 0.0000000000000000000 ) ) ;
#166 = FILL_AREA_STYLE ('',( #577 ) ) ;
#167 = FILL_AREA_STYLE_COLOUR ( '', #47 ) ;
#168 = ORIENTED_EDGE ( 'NONE', *, *, #752, .F. ) ;
#169 =( LENGTH_UNIT ( ) NAMED_UNIT ( * ) SI_UNIT ( .MILLI., .METRE. ) );
#170 =( NAMED_UNIT ( * ) PLANE_ANGLE_UNIT ( ) SI_UNIT ( $, .RADIAN. ) );
#171 =( LENGTH_UNIT ( ) NAMED_UNIT ( * ) SI_UNIT ( .MILLI., .METRE. ) );
#172 = AXIS2_PLACEMENT_3D ( 'NONE', #696, #759, #634 ) ;
#173 =( NAMED_UNIT ( * ) PLANE_ANGLE_UNIT ( ) SI_UNIT ( $, .RADIAN. ) );
#174 = SURFACE_SIDE_STYLE ('',( #76 ) ) ;
#175 = EDGE_CURVE ( 'NONE', #95, #128, #286, .T. ) ;
#176 = SURFACE_STYLE_USAGE ( .BOTH. , #524 ) ;
#177 = EDGE_LOOP ( 'NONE', ( #37, #20 ) ) ;
#178 = ORIENTED_EDGE ( 'NONE', *, *, #187, .F. ) ;
#179 = DIRECTION ( 'NONE',  ( 1.000000000000000000, 0.0000000000000000000, 0.0000000000000000000 ) ) ;
#180 = CARTESIAN_POINT ( 'NONE',  ( 0.0000000000000000000, 5.000000000000000000, -4.250000000000000000 ) ) ;
#181 = APPLICATION_PROTOCOL_DEFINITION ( 'draft international standard', 'automotive_design', 1998, #530 ) ;
#182 = CARTESIAN_POINT ( 'NONE',  ( 2.550500000000000400, 3.123461661225324900E-016, 3.500000000000000000 ) ) ;
#183 = AXIS2_PLACEMENT_3D ( 'NONE', #433, #439, #94 ) ;
#184 = ITEM_DEFINED_TRANSFORMATION ( 'NONE', 'NONE', #164,  #248 ) ;
#185 = CYLINDRICAL_SURFACE ( 'NONE', #738, 2.549999999999999800 ) ;
#186 = VERTEX_POINT ( 'NONE', #145 ) ;
#187 = EDGE_CURVE ( 'NONE', #325, #262, #304, .T. ) ;
#188 = VECTOR ( 'NONE', #475, 1000.000000000000000 ) ;
#189 =( GEOMETRIC_REPRESENTATION_CONTEXT ( 3 ) GLOBAL_UNCERTAINTY_ASSIGNED_CONTEXT ( ( #140 ) ) GLOBAL_UNIT_ASSIGNED_CONTEXT ( ( #46, #446, #101 ) ) REPRESENTATION_CONTEXT ( 'NONE', 'WORKASPACE' ) );
#190 = ORIENTED_EDGE ( 'NONE', *, *, #146, .T. ) ;
#191 = PRESENTATION_STYLE_ASSIGNMENT (( #544 ) ) ;
#192 = CARTESIAN_POINT ( 'NONE',  ( 0.0000000000000000000, 0.0000000000000000000, 3.500000000000000000 ) ) ;
#193 =( LENGTH_UNIT ( ) NAMED_UNIT ( * ) SI_UNIT ( .MILLI., .METRE. ) );
#194 = CARTESIAN_POINT ( 'NONE',  ( 0.0000000000000000000, -2.000000000000000400, 3.750000000000000000 ) ) ;
#195 = AXIS2_PLACEMENT_3D ( 'NONE', #490, #143, #554 ) ;
#196 = VERTEX_POINT ( 'NONE', #117 ) ;
#197 = PRODUCT ( 'do-201ad', 'do-201ad', '', ( #589 ) ) ;
#198 = CARTESIAN_POINT ( 'NONE',  ( 0.5500000000000000400, 6.735557395310442500E-017, 0.0000000000000000000 ) ) ;
#199 =( GEOMETRIC_REPRESENTATION_CONTEXT ( 3 ) GLOBAL_UNCERTAINTY_ASSIGNED_CONTEXT ( ( #406 ) ) GLOBAL_UNIT_ASSIGNED_CONTEXT ( ( #461, #173, #519 ) ) REPRESENTATION_CONTEXT ( 'NONE', 'WORKASPACE' ) );
#200 = AXIS2_PLACEMENT_3D ( 'NONE', #468, #122, #528 ) ;
#201 = ORIENTED_EDGE ( 'NONE', *, *, #300, .T. ) ;
#202 = DIRECTION ( 'NONE',  ( 1.000000000000000000, 0.0000000000000000000, 0.0000000000000000000 ) ) ;
#203 = ADVANCED_FACE ( 'NONE', ( #702 ), #561, .T. ) ;
#204 = FACE_OUTER_BOUND ( 'NONE', #477, .T. ) ;
#205 = CARTESIAN_POINT ( 'NONE',  ( 0.0000000000000000000, 0.0000000000000000000, 1.500000000000000000 ) ) ;
#206 = TOROIDAL_SURFACE ( 'NONE', #588, 2.000000000000000400, 0.5500000000000000400 ) ;
#207 = EDGE_LOOP ( 'NONE', ( #426, #257, #665, #747 ) ) ;
#208 = DIRECTION ( 'NONE',  ( -0.0000000000000000000, -0.0000000000000000000, -1.000000000000000000 ) ) ;
#209 = DIRECTION ( 'NONE',  ( -1.000000000000000000, 0.0000000000000000000, 0.0000000000000000000 ) ) ;
#210 =( NAMED_UNIT ( * ) SI_UNIT ( $, .STERADIAN. ) SOLID_ANGLE_UNIT ( ) );
#211 = FACE_OUTER_BOUND ( 'NONE', #24, .T. ) ;
#212 =( GEOMETRIC_REPRESENTATION_CONTEXT ( 3 ) GLOBAL_UNCERTAINTY_ASSIGNED_CONTEXT ( ( #655 ) ) GLOBAL_UNIT_ASSIGNED_CONTEXT ( ( #171, #700, #340 ) ) REPRESENTATION_CONTEXT ( 'NONE', 'WORKASPACE' ) );
#213 = VERTEX_POINT ( 'NONE', #2 ) ;
#214 = CARTESIAN_POINT ( 'NONE',  ( 2.549999999999999800, 3.122849337825750400E-016, -4.250000000000000000 ) ) ;
#215 = EDGE_CURVE ( 'NONE', #95, #186, #723, .T. ) ;
#216 = CARTESIAN_POINT ( 'NONE',  ( 0.0000000000000000000, 0.0000000000000000000, 4.250000000000000000 ) ) ;
#217 = CIRCLE ( 'NONE', #69, 2.550000000000000700 ) ;
#218 = FILL_AREA_STYLE_COLOUR ( '', #463 ) ;
#219 = PRESENTATION_LAYER_ASSIGNMENT (  '', '', ( #142 ) ) ;
#220 = SURFACE_STYLE_USAGE ( .BOTH. , #11 ) ;
#221 = CARTESIAN_POINT ( 'NONE',  ( -6.735557395310442500E-017, -2.000000000000000400, 3.750000000000000000 ) ) ;
#222 = FACE_BOUND ( 'NONE', #5, .T. ) ;
#223 =( NAMED_UNIT ( * ) SI_UNIT ( $, .STERADIAN. ) SOLID_ANGLE_UNIT ( ) );
#224 = EDGE_CURVE ( 'NONE', #128, #305, #115, .T. ) ;
#225 = PRESENTATION_LAYER_ASSIGNMENT (  '', '', ( #266 ) ) ;
#226 = CARTESIAN_POINT ( 'NONE',  ( -6.735557395310441300E-017, -0.5500000000000000400, 3.750000000000000000 ) ) ;
#227 = COLOUR_RGB ( '',0.7921568627450980000, 0.8196078431372548800, 0.9333333333333333500 ) ;
#228 = CIRCLE ( 'NONE', #638, 2.549999999999999800 ) ;
#229 = COLOUR_RGB ( '',0.2509803921568627400, 0.2509803921568627400, 0.2509803921568627400 ) ;
#230 = CIRCLE ( 'NONE', #195, 2.550500000000000400 ) ;
#231 = CARTESIAN_POINT ( 'NONE',  ( -2.549999999999999800, 0.0000000000000000000, 4.250000000000000000 ) ) ;
#232 = CARTESIAN_POINT ( 'NONE',  ( 0.0000000000000000000, 0.0000000000000000000, 3.500000000000000000 ) ) ;
#233 =( LENGTH_UNIT ( ) NAMED_UNIT ( * ) SI_UNIT ( .MILLI., .METRE. ) );
#234 = VERTEX_POINT ( 'NONE', #333 ) ;
#235 =( NAMED_UNIT ( * ) PLANE_ANGLE_UNIT ( ) SI_UNIT ( $, .RADIAN. ) );
#236 = AXIS2_PLACEMENT_3D ( 'NONE', #610, #258, #668 ) ;
#237 = DIRECTION ( 'NONE',  ( -1.000000000000000000, 0.0000000000000000000, 6.982962677686266700E-015 ) ) ;
#238 = AXIS2_PLACEMENT_3D ( 'NONE', #516, #632, #573 ) ;
#239 = AXIS2_PLACEMENT_3D ( 'NONE', #180, #587, #237 ) ;
#240 = APPLICATION_CONTEXT ( 'automotive_design' ) ;
#241 = DIRECTION ( 'NONE',  ( 0.0000000000000000000, -1.000000000000000000, 2.832769448823989800E-016 ) ) ;
#242 = PRESENTATION_STYLE_ASSIGNMENT (( #395 ) ) ;
#243 = ORIENTED_EDGE ( 'NONE', *, *, #224, .T. ) ;
#244 = UNCERTAINTY_MEASURE_WITH_UNIT (LENGTH_MEASURE( 1.000000000000000100E-005 ), #233, 'distance_accuracy_value', 'NONE');
#245 = CARTESIAN_POINT ( 'NONE',  ( 2.549999999999999800, 3.122849337825750400E-016, 4.250000000000000000 ) ) ;
#246 = DIRECTION ( 'NONE',  ( 0.0000000000000000000, -1.000000000000000000, 2.832769448823989800E-016 ) ) ;
#247 = CARTESIAN_POINT ( 'NONE',  ( -2.549999999999999800, 0.0000000000000000000, 4.250000000000000000 ) ) ;
#248 = AXIS2_PLACEMENT_3D ( 'NONE', #396, #59, #462 ) ;
#249 =( NAMED_UNIT ( * ) SI_UNIT ( $, .STERADIAN. ) SOLID_ANGLE_UNIT ( ) );
#250 = ORIENTED_EDGE ( 'NONE', *, *, #756, .T. ) ;
#251 = CIRCLE ( 'NONE', #387, 0.5500000000000000400 ) ;
#252 = PRODUCT_DEFINITION_SHAPE ( 'NONE', 'NONE',  #763 ) ;
#253 = EDGE_LOOP ( 'NONE', ( #66, #521, #42, #663, #496 ) ) ;
#254 = DIRECTION ( 'NONE',  ( 0.0000000000000000000, 0.0000000000000000000, -1.000000000000000000 ) ) ;
#255 = EDGE_CURVE ( 'NONE', #186, #437, #251, .T. ) ;
#256 = CIRCLE ( 'NONE', #457, 2.550500000000000400 ) ;
#257 = ORIENTED_EDGE ( 'NONE', *, *, #291, .T. ) ;
#258 = DIRECTION ( 'NONE',  ( 0.0000000000000000000, 0.0000000000000000000, 1.000000000000000000 ) ) ;
#259 = MECHANICAL_DESIGN_GEOMETRIC_PRESENTATION_REPRESENTATION (  '', ( #142 ), #298 ) ;
#260 = ADVANCED_FACE ( 'NONE', ( #154 ), #420, .T. ) ;
#261 = CARTESIAN_POINT ( 'NONE',  ( 0.0000000000000000000, 0.0000000000000000000, 1.500000000000000000 ) ) ;
#262 = VERTEX_POINT ( 'NONE', #290 ) ;
#263 = DIRECTION ( 'NONE',  ( 1.000000000000000000, 0.0000000000000000000, -0.0000000000000000000 ) ) ;
#264 = EDGE_CURVE ( 'NONE', #397, #381, #580, .T. ) ;
#265 = ADVANCED_FACE ( 'NONE', ( #741 ), #337, .T. ) ;
#266 = STYLED_ITEM ( 'NONE', ( #158 ), #704 ) ;
#267 = CARTESIAN_POINT ( 'NONE',  ( 0.0000000000000000000, 0.0000000000000000000, -4.250000000000000000 ) ) ;
#268 = CARTESIAN_POINT ( 'NONE',  ( 0.0000000000000000000, 0.0000000000000000000, 4.250000000000000000 ) ) ;
#269 = ORIENTED_EDGE ( 'NONE', *, *, #98, .T. ) ;
#270 = VECTOR ( 'NONE', #719, 1000.000000000000000 ) ;
#271 = CARTESIAN_POINT ( 'NONE',  ( 0.0000000000000000000, 0.0000000000000000000, 3.500000000000000000 ) ) ;
#272 = AXIS2_PLACEMENT_3D ( 'NONE', #261, #673, #316 ) ;
#273 = DIRECTION ( 'NONE',  ( 0.0000000000000000000, 0.0000000000000000000, 1.000000000000000000 ) ) ;
#274 = CIRCLE ( 'NONE', #44, 0.5500000000000000400 ) ;
#275 = UNCERTAINTY_MEASURE_WITH_UNIT (LENGTH_MEASURE( 1.000000000000000100E-005 ), #449, 'distance_accuracy_value', 'NONE');
#276 = AXIS2_PLACEMENT_3D ( 'NONE', #399, #60, #464 ) ;
#277 =( GEOMETRIC_REPRESENTATION_CONTEXT ( 3 ) GLOBAL_UNCERTAINTY_ASSIGNED_CONTEXT ( ( #451 ) ) GLOBAL_UNIT_ASSIGNED_CONTEXT ( ( #647, #294, #706 ) ) REPRESENTATION_CONTEXT ( 'NONE', 'WORKASPACE' ) );
#278 = DIRECTION ( 'NONE',  ( 0.0000000000000000000, 0.0000000000000000000, -1.000000000000000000 ) ) ;
#279 = SHAPE_REPRESENTATION_RELATIONSHIP ( 'NONE' , 'NONE' ,  #422, #509 ) ;
#280 = VECTOR ( 'NONE', #620, 1000.000000000000000 ) ;
#281 =( NAMED_UNIT ( * ) SI_UNIT ( $, .STERADIAN. ) SOLID_ANGLE_UNIT ( ) );
#282 = DIRECTION ( 'NONE',  ( -1.000000000000000000, 0.0000000000000000000, 0.0000000000000000000 ) ) ;
#283 = FACE_OUTER_BOUND ( 'NONE', #659, .T. ) ;
#284 = CARTESIAN_POINT ( 'NONE',  ( 0.0000000000000000000, -1.999999999999999600, 5.750000000000000000 ) ) ;
#285 = ORIENTED_EDGE ( 'NONE', *, *, #616, .F. ) ;
#286 = CIRCLE ( 'NONE', #238, 0.5500000000000000400 ) ;
#287 = DIRECTION ( 'NONE',  ( 1.000000000000000000, 0.0000000000000000000, 0.0000000000000000000 ) ) ;
#288 = STYLED_ITEM ( 'NONE', ( #677 ), #509 ) ;
#289 =( NAMED_UNIT ( * ) SI_UNIT ( $, .STERADIAN. ) SOLID_ANGLE_UNIT ( ) );
#290 = CARTESIAN_POINT ( 'NONE',  ( 2.549999999999999800, 3.122849337825750400E-016, 4.250000000000000000 ) ) ;
#291 = EDGE_CURVE ( 'NONE', #80, #658, #131, .T. ) ;
#292 = ORIENTED_EDGE ( 'NONE', *, *, #497, .F. ) ;
#293 = CIRCLE ( 'NONE', #688, 0.5500000000000000400 ) ;
#294 =( NAMED_UNIT ( * ) PLANE_ANGLE_UNIT ( ) SI_UNIT ( $, .RADIAN. ) );
#295 = VERTEX_POINT ( 'NONE', #601 ) ;
#296 = APPLICATION_PROTOCOL_DEFINITION ( 'draft international standard', 'automotive_design', 1998, #65 ) ;
#297 = CARTESIAN_POINT ( 'NONE',  ( 2.549999999999999800, 3.122849337825750400E-016, 1.500000000000000000 ) ) ;
#298 =( GEOMETRIC_REPRESENTATION_CONTEXT ( 3 ) GLOBAL_UNCERTAINTY_ASSIGNED_CONTEXT ( ( #569 ) ) GLOBAL_UNIT_ASSIGNED_CONTEXT ( ( #39, #441, #97 ) ) REPRESENTATION_CONTEXT ( 'NONE', 'WORKASPACE' ) );
#299 = FACE_OUTER_BOUND ( 'NONE', #177, .T. ) ;
#300 = EDGE_CURVE ( 'NONE', #483, #336, #96, .T. ) ;
#301 =( NAMED_UNIT ( * ) PLANE_ANGLE_UNIT ( ) SI_UNIT ( $, .RADIAN. ) );
#302 = AXIS2_PLACEMENT_3D ( 'NONE', #216, #443, #165 ) ;
#303 = ORIENTED_EDGE ( 'NONE', *, *, #291, .F. ) ;
#304 = CIRCLE ( 'NONE', #349, 2.549999999999999800 ) ;
#305 = VERTEX_POINT ( 'NONE', #130 ) ;
#306 = CARTESIAN_POINT ( 'NONE',  ( 0.0000000000000000000, -1.999999999999999600, 5.200000000000000200 ) ) ;
#307 = CARTESIAN_POINT ( 'NONE',  ( 0.0000000000000000000, 0.0000000000000000000, 3.500000000000000000 ) ) ;
#308 = ORIENTED_EDGE ( 'NONE', *, *, #454, .F. ) ;
#309 = CARTESIAN_POINT ( 'NONE',  ( -2.550500000000000400, 0.0000000000000000000, 3.500000000000000000 ) ) ;
#310 = PRODUCT_DEFINITION_SHAPE ( 'NONE', 'NONE',  #765 ) ;
#311 = STYLED_ITEM ( 'NONE', ( #518 ), #491 ) ;
#312 = CARTESIAN_POINT ( 'NONE',  ( 0.0000000000000000000, 0.0000000000000000000, 3.500000000000000000 ) ) ;
#313 = ORIENTED_EDGE ( 'NONE', *, *, #672, .F. ) ;
#314 = AXIS2_PLACEMENT_3D ( 'NONE', #761, #459, #636 ) ;
#315 = ITEM_DEFINED_TRANSFORMATION ( 'NONE', 'NONE', #200,  #248 ) ;
#316 = DIRECTION ( 'NONE',  ( 1.000000000000000000, 0.0000000000000000000, 0.0000000000000000000 ) ) ;
#317 = VERTEX_POINT ( 'NONE', #306 ) ;
#318 = ADVANCED_FACE ( 'NONE', ( #694, #222 ), #78, .T. ) ;
#319 = DIRECTION ( 'NONE',  ( 1.000000000000000000, 0.0000000000000000000, 0.0000000000000000000 ) ) ;
#320 = COLOUR_RGB ( '',0.7529411764705882200, 0.7529411764705882200, 0.7529411764705882200 ) ;
#321 = ORIENTED_EDGE ( 'NONE', *, *, #575, .F. ) ;
#322 = DIRECTION ( 'NONE',  ( 1.000000000000000000, 0.0000000000000000000, -0.0000000000000000000 ) ) ;
#323 = PRESENTATION_LAYER_ASSIGNMENT (  '', '', ( #288 ) ) ;
#324 = FILL_AREA_STYLE ('',( #740 ) ) ;
#325 = VERTEX_POINT ( 'NONE', #247 ) ;
#326 = ORIENTED_EDGE ( 'NONE', *, *, #70, .T. ) ;
#327 = FILL_AREA_STYLE ('',( #563 ) ) ;
#328 = SHAPE_DEFINITION_REPRESENTATION ( #640, #422 ) ;
#329 = SURFACE_SIDE_STYLE ('',( #628 ) ) ;
#330 = SURFACE_STYLE_FILL_AREA ( #53 ) ;
#331 = ORIENTED_EDGE ( 'NONE', *, *, #497, .T. ) ;
#332 = FILL_AREA_STYLE_COLOUR ( '', #548 ) ;
#333 = CARTESIAN_POINT ( 'NONE',  ( 6.735557395310441300E-017, -6.499999999999999100, 6.299999999999999800 ) ) ;
#334 = EDGE_CURVE ( 'NONE', #196, #295, #217, .T. ) ;
#335 = FACE_OUTER_BOUND ( 'NONE', #368, .T. ) ;
#336 = VERTEX_POINT ( 'NONE', #134 ) ;
#337 = TOROIDAL_SURFACE ( 'NONE', #504, 2.000000000000000400, 0.5500000000000000400 ) ;
#338 = MECHANICAL_DESIGN_GEOMETRIC_PRESENTATION_REPRESENTATION (  '', ( #266 ), #376 ) ;
#339 = DIRECTION ( 'NONE',  ( 1.000000000000000000, 0.0000000000000000000, 0.0000000000000000000 ) ) ;
#340 =( NAMED_UNIT ( * ) SI_UNIT ( $, .STERADIAN. ) SOLID_ANGLE_UNIT ( ) );
#341 = CLOSED_SHELL ( 'NONE', ( #730, #613, #147, #674, #553, #318, #491, #35, #429, #735 ) ) ;
#342 = CARTESIAN_POINT ( 'NONE',  ( -0.5500000000000000400, 0.0000000000000000000, 3.750000000000000000 ) ) ;
#343 =( LENGTH_UNIT ( ) NAMED_UNIT ( * ) SI_UNIT ( .MILLI., .METRE. ) );
#344 = CIRCLE ( 'NONE', #444, 0.5500000000000000400 ) ;
#345 = ORIENTED_EDGE ( 'NONE', *, *, #146, .F. ) ;
#346 = DIRECTION ( 'NONE',  ( 0.0000000000000000000, -1.000000000000000000, 2.832769448823989800E-016 ) ) ;
#347 = DIRECTION ( 'NONE',  ( 1.000000000000000000, 0.0000000000000000000, 0.0000000000000000000 ) ) ;
#348 = PRESENTATION_LAYER_ASSIGNMENT (  '', '', ( #311 ) ) ;
#349 = AXIS2_PLACEMENT_3D ( 'NONE', #404, #467, #179 ) ;
#350 = AXIS2_PLACEMENT_3D ( 'NONE', #697, #8, #407 ) ;
#351 = UNCERTAINTY_MEASURE_WITH_UNIT (LENGTH_MEASURE( 1.000000000000000100E-005 ), #89, 'distance_accuracy_value', 'NONE');
#352 = SURFACE_STYLE_FILL_AREA ( #371 ) ;
#353 = APPLICATION_CONTEXT ( 'automotive_design' ) ;
#354 = FILL_AREA_STYLE_COLOUR ( '', #455 ) ;
#355 = EDGE_LOOP ( 'NONE', ( #686, #707 ) ) ;
#356 = VECTOR ( 'NONE', #75, 1000.000000000000000 ) ;
#357 = SURFACE_STYLE_USAGE ( .BOTH. , #14 ) ;
#358 = DIRECTION ( 'NONE',  ( 1.000000000000000000, 0.0000000000000000000, 0.0000000000000000000 ) ) ;
#359 = VECTOR ( 'NONE', #99, 1000.000000000000000 ) ;
#360 = DIRECTION ( 'NONE',  ( 0.0000000000000000000, 0.0000000000000000000, 1.000000000000000000 ) ) ;
#361 = CLOSED_SHELL ( 'NONE', ( #495, #260, #90, #203, #265, #372, #28, #555 ) ) ;
#362 = MECHANICAL_DESIGN_GEOMETRIC_PRESENTATION_REPRESENTATION (  '', ( #288 ), #646 ) ;
#363 = DIRECTION ( 'NONE',  ( 1.000000000000000000, 0.0000000000000000000, -0.0000000000000000000 ) ) ;
#364 = ORIENTED_EDGE ( 'NONE', *, *, #756, .F. ) ;
#365 = AXIS2_PLACEMENT_3D ( 'NONE', #660, #246, #600 ) ;
#366 = DIRECTION ( 'NONE',  ( 1.000000000000000000, 0.0000000000000000000, 0.0000000000000000000 ) ) ;
#367 = CIRCLE ( 'NONE', #725, 2.550500000000000400 ) ;
#368 = EDGE_LOOP ( 'NONE', ( #480, #411, #419, #445, #243 ) ) ;
#369 = FILL_AREA_STYLE_COLOUR ( '', #736 ) ;
#370 = LINE ( 'NONE', #231, #389 ) ;
#371 = FILL_AREA_STYLE ('',( #369 ) ) ;
#372 = ADVANCED_FACE ( 'NONE', ( #91 ), #678, .T. ) ;
#373 = UNCERTAINTY_MEASURE_WITH_UNIT (LENGTH_MEASURE( 1.000000000000000100E-005 ), #512, 'distance_accuracy_value', 'NONE');
#374 = DIRECTION ( 'NONE',  ( 0.0000000000000000000, 0.0000000000000000000, -1.000000000000000000 ) ) ;
#375 = EDGE_CURVE ( 'NONE', #262, #325, #228, .T. ) ;
#376 =( GEOMETRIC_REPRESENTATION_CONTEXT ( 3 ) GLOBAL_UNCERTAINTY_ASSIGNED_CONTEXT ( ( #9 ) ) GLOBAL_UNIT_ASSIGNED_CONTEXT ( ( #390, #48, #447 ) ) REPRESENTATION_CONTEXT ( 'NONE', 'WORKASPACE' ) );
#377 = PLANE ( 'NONE',  #102 ) ;
#378 = SURFACE_STYLE_FILL_AREA ( #327 ) ;
#379 = FACE_BOUND ( 'NONE', #485, .T. ) ;
#380 = CARTESIAN_POINT ( 'NONE',  ( 0.0000000000000000000, 0.0000000000000000000, 3.750000000000000000 ) ) ;
#381 = VERTEX_POINT ( 'NONE', #423 ) ;
#382 = SURFACE_STYLE_USAGE ( .BOTH. , #742 ) ;
#383 = DIRECTION ( 'NONE',  ( 0.0000000000000000000, 0.0000000000000000000, 1.000000000000000000 ) ) ;
#384 = MECHANICAL_DESIGN_GEOMETRIC_PRESENTATION_REPRESENTATION (  '', ( #311 ), #424 ) ;
#385 = PRESENTATION_STYLE_ASSIGNMENT (( #510 ) ) ;
#386 = SURFACE_STYLE_USAGE ( .BOTH. , #746 ) ;
#387 = AXIS2_PLACEMENT_3D ( 'NONE', #720, #621, #157 ) ;
#388 = PRODUCT_DEFINITION ( 'UNKNOWN', '', #630, #416 ) ;
#389 = VECTOR ( 'NONE', #452, 1000.000000000000000 ) ;
#390 =( LENGTH_UNIT ( ) NAMED_UNIT ( * ) SI_UNIT ( .MILLI., .METRE. ) );
#391 = ORIENTED_EDGE ( 'NONE', *, *, #29, .T. ) ;
#392 = DIRECTION ( 'NONE',  ( 0.0000000000000000000, 0.0000000000000000000, 1.000000000000000000 ) ) ;
#393 = CARTESIAN_POINT ( 'NONE',  ( -0.5500000000000000400, 0.0000000000000000000, 3.750000000000000000 ) ) ;
#394 = CARTESIAN_POINT ( 'NONE',  ( 0.0000000000000000000, -6.499999999999999100, 5.750000000000000000 ) ) ;
#395 = SURFACE_STYLE_USAGE ( .BOTH. , #58 ) ;
#396 = CARTESIAN_POINT ( 'NONE',  ( 0.0000000000000000000, 0.0000000000000000000, 0.0000000000000000000 ) ) ;
#397 = VERTEX_POINT ( 'NONE', #309 ) ;
#398 = VECTOR ( 'NONE', #692, 1000.000000000000000 ) ;
#399 = CARTESIAN_POINT ( 'NONE',  ( 0.0000000000000000000, 0.0000000000000000000, 1.500000000000000000 ) ) ;
#400 =( NAMED_UNIT ( * ) SI_UNIT ( $, .STERADIAN. ) SOLID_ANGLE_UNIT ( ) );
#401 = AXIS2_PLACEMENT_3D ( 'NONE', #417, #72, #478 ) ;
#402 = FACE_OUTER_BOUND ( 'NONE', #207, .T. ) ;
#403 = PRODUCT_DEFINITION_CONTEXT ( 'detailed design', #240, 'design' ) ;
#404 = CARTESIAN_POINT ( 'NONE',  ( 0.0000000000000000000, 0.0000000000000000000, 4.250000000000000000 ) ) ;
#405 = DIRECTION ( 'NONE',  ( 0.0000000000000000000, 0.0000000000000000000, 1.000000000000000000 ) ) ;
#406 = UNCERTAINTY_MEASURE_WITH_UNIT (LENGTH_MEASURE( 1.000000000000000100E-005 ), #461, 'distance_accuracy_value', 'NONE');
#407 = DIRECTION ( 'NONE',  ( 1.000000000000000000, 0.0000000000000000000, 0.0000000000000000000 ) ) ;
#408 = LINE ( 'NONE', #36, #1 ) ;
#409 = APPLICATION_PROTOCOL_DEFINITION ( 'draft international standard', 'automotive_design', 1998, #470 ) ;
#410 = DIRECTION ( 'NONE',  ( -0.0000000000000000000, -0.0000000000000000000, -1.000000000000000000 ) ) ;
#411 = ORIENTED_EDGE ( 'NONE', *, *, #334, .T. ) ;
#412 = EDGE_CURVE ( 'NONE', #397, #567, #367, .T. ) ;
#413 = FILL_AREA_STYLE ('',( #538 ) ) ;
#414 = AXIS2_PLACEMENT_3D ( 'NONE', #221, #631, #278 ) ;
#415 = DIRECTION ( 'NONE',  ( 0.0000000000000000000, 0.0000000000000000000, -1.000000000000000000 ) ) ;
#416 = PRODUCT_DEFINITION_CONTEXT ( 'detailed design', #353, 'design' ) ;
#417 = CARTESIAN_POINT ( 'NONE',  ( 0.0000000000000000000, -6.499999999999999100, 5.750000000000000000 ) ) ;
#418 = DIRECTION ( 'NONE',  ( -0.0000000000000000000, -0.0000000000000000000, -1.000000000000000000 ) ) ;
#419 = ORIENTED_EDGE ( 'NONE', *, *, #29, .F. ) ;
#420 = CYLINDRICAL_SURFACE ( 'NONE', #591, 0.5500000000000000400 ) ;
#421 = PRESENTATION_STYLE_ASSIGNMENT (( #176 ) ) ;
#422 = SHAPE_REPRESENTATION ( 'corpo', ( #248 ), #212 ) ;
#423 = CARTESIAN_POINT ( 'NONE',  ( -2.550500000000000400, 0.0000000000000000000, 1.500000000000000000 ) ) ;
#424 =( GEOMETRIC_REPRESENTATION_CONTEXT ( 3 ) GLOBAL_UNCERTAINTY_ASSIGNED_CONTEXT ( ( #351 ) ) GLOBAL_UNIT_ASSIGNED_CONTEXT ( ( #89, #494, #148 ) ) REPRESENTATION_CONTEXT ( 'NONE', 'WORKASPACE' ) );
#425 = SURFACE_SIDE_STYLE ('',( #64 ) ) ;
#426 = ORIENTED_EDGE ( 'NONE', *, *, #456, .F. ) ;
#427 = AXIS2_PLACEMENT_3D ( 'NONE', #558, #21, #682 ) ;
#428 = PRODUCT_DEFINITION ( 'UNKNOWN', '', #714, #515 ) ;
#429 = ADVANCED_FACE ( 'NONE', ( #537 ), #666, .F. ) ;
#430 = SURFACE_STYLE_USAGE ( .BOTH. , #31 ) ;
#431 = SHAPE_REPRESENTATION_RELATIONSHIP ( 'NONE' , 'NONE' ,  #565, #734 ) ;
#432 = SURFACE_STYLE_FILL_AREA ( #324 ) ;
#433 = CARTESIAN_POINT ( 'NONE',  ( 0.0000000000000000000, 0.0000000000000000000, 0.0000000000000000000 ) ) ;
#434 = PRESENTATION_STYLE_ASSIGNMENT (( #220 ) ) ;
#435 = FILL_AREA_STYLE ('',( #615 ) ) ;
#436 = LINE ( 'NONE', #675, #532 ) ;
#437 = VERTEX_POINT ( 'NONE', #198 ) ;
#438 = CYLINDRICAL_SURFACE ( 'NONE', #314, 2.549999999999999800 ) ;
#439 = DIRECTION ( 'NONE',  ( 0.0000000000000000000, 0.0000000000000000000, 1.000000000000000000 ) ) ;
#440 = ORIENTED_EDGE ( 'NONE', *, *, #105, .F. ) ;
#441 =( NAMED_UNIT ( * ) PLANE_ANGLE_UNIT ( ) SI_UNIT ( $, .RADIAN. ) );
#442 = AXIS2_PLACEMENT_3D ( 'NONE', #590, #241, #651 ) ;
#443 = DIRECTION ( 'NONE',  ( -0.0000000000000000000, -0.0000000000000000000, -1.000000000000000000 ) ) ;
#444 = AXIS2_PLACEMENT_3D ( 'NONE', #129, #476, #74 ) ;
#445 = ORIENTED_EDGE ( 'NONE', *, *, #715, .F. ) ;
#446 =( NAMED_UNIT ( * ) PLANE_ANGLE_UNIT ( ) SI_UNIT ( $, .RADIAN. ) );
#447 =( NAMED_UNIT ( * ) SI_UNIT ( $, .STERADIAN. ) SOLID_ANGLE_UNIT ( ) );
#448 = ITEM_DEFINED_TRANSFORMATION ( 'NONE', 'NONE', #239,  #248 ) ;
#449 =( LENGTH_UNIT ( ) NAMED_UNIT ( * ) SI_UNIT ( .MILLI., .METRE. ) );
#450 = FILL_AREA_STYLE ('',( #332 ) ) ;
#451 = UNCERTAINTY_MEASURE_WITH_UNIT (LENGTH_MEASURE( 1.000000000000000100E-005 ), #647, 'distance_accuracy_value', 'NONE');
#452 = DIRECTION ( 'NONE',  ( -0.0000000000000000000, -0.0000000000000000000, -1.000000000000000000 ) ) ;
#453 = SURFACE_SIDE_STYLE ('',( #330 ) ) ;
#454 = EDGE_CURVE ( 'NONE', #381, #49, #230, .T. ) ;
#455 = COLOUR_RGB ( '',0.7921568627450980000, 0.8196078431372548800, 0.9333333333333333500 ) ;
#456 = EDGE_CURVE ( 'NONE', #80, #213, #604, .T. ) ;
#457 = AXIS2_PLACEMENT_3D ( 'NONE', #755, #392, #50 ) ;
#458 = CIRCLE ( 'NONE', #276, 2.550500000000000400 ) ;
#459 = DIRECTION ( 'NONE',  ( -0.0000000000000000000, -0.0000000000000000000, -1.000000000000000000 ) ) ;
#460 = CARTESIAN_POINT ( 'NONE',  ( 0.0000000000000000000, 0.0000000000000000000, -4.250000000000000000 ) ) ;
#461 =( LENGTH_UNIT ( ) NAMED_UNIT ( * ) SI_UNIT ( .MILLI., .METRE. ) );
#462 = DIRECTION ( 'NONE',  ( 1.000000000000000000, 0.0000000000000000000, 0.0000000000000000000 ) ) ;
#463 = COLOUR_RGB ( '',0.7921568627450980000, 0.8196078431372548800, 0.9333333333333333500 ) ;
#464 = DIRECTION ( 'NONE',  ( 1.000000000000000000, 0.0000000000000000000, 0.0000000000000000000 ) ) ;
#465 = FILL_AREA_STYLE_COLOUR ( '', #743 ) ;
#466 = FACE_OUTER_BOUND ( 'NONE', #27, .T. ) ;
#467 = DIRECTION ( 'NONE',  ( 0.0000000000000000000, 0.0000000000000000000, 1.000000000000000000 ) ) ;
#468 = CARTESIAN_POINT ( 'NONE',  ( 0.0000000000000000000, 5.000000000000000000, 4.250000000000000000 ) ) ;
#469 = EDGE_LOOP ( 'NONE', ( #303, #313, #562, #30 ) ) ;
#470 = APPLICATION_CONTEXT ( 'automotive_design' ) ;
#471 = AXIS2_PLACEMENT_3D ( 'NONE', #586, #527, #523 ) ;
#472 = CONTEXT_DEPENDENT_SHAPE_REPRESENTATION ( #534, #252 ) ;
#473 = APPLICATION_CONTEXT ( 'automotive_design' ) ;
#474 = EDGE_LOOP ( 'NONE', ( #545, #85, #250, #722 ) ) ;
#475 = DIRECTION ( 'NONE',  ( -0.0000000000000000000, -0.0000000000000000000, -1.000000000000000000 ) ) ;
#476 = DIRECTION ( 'NONE',  ( 0.0000000000000000000, 0.0000000000000000000, 1.000000000000000000 ) ) ;
#477 = EDGE_LOOP ( 'NONE', ( #326, #163 ) ) ;
#478 = DIRECTION ( 'NONE',  ( 1.000000000000000000, 0.0000000000000000000, 0.0000000000000000000 ) ) ;
#479 = FILL_AREA_STYLE ('',( #542 ) ) ;
#480 = ORIENTED_EDGE ( 'NONE', *, *, #616, .T. ) ;
#481 = AXIS2_PLACEMENT_3D ( 'NONE', #192, #410, #598 ) ;
#482 = CARTESIAN_POINT ( 'NONE',  ( 0.0000000000000000000, 0.0000000000000000000, 4.250000000000000000 ) ) ;
#483 = VERTEX_POINT ( 'NONE', #86 ) ;
#484 = STYLED_ITEM ( 'NONE', ( #533 ), #35 ) ;
#485 = EDGE_LOOP ( 'NONE', ( #52, #26 ) ) ;
#486 =( LENGTH_UNIT ( ) NAMED_UNIT ( * ) SI_UNIT ( .MILLI., .METRE. ) );
#487 = SHAPE_DEFINITION_REPRESENTATION ( #57, #565 ) ;
#488 = UNCERTAINTY_MEASURE_WITH_UNIT (LENGTH_MEASURE( 1.000000000000000100E-005 ), #486, 'distance_accuracy_value', 'NONE');
#489 = PRESENTATION_STYLE_ASSIGNMENT (( #111 ) ) ;
#490 = CARTESIAN_POINT ( 'NONE',  ( 0.0000000000000000000, 0.0000000000000000000, 1.500000000000000000 ) ) ;
#491 = ADVANCED_FACE ( 'NONE', ( #283, #379 ), #611, .F. ) ;
#492 = EDGE_LOOP ( 'NONE', ( #168, #592 ) ) ;
#493 = LINE ( 'NONE', #699, #729 ) ;
#494 =( NAMED_UNIT ( * ) PLANE_ANGLE_UNIT ( ) SI_UNIT ( $, .RADIAN. ) );
#495 = ADVANCED_FACE ( 'NONE', ( #335 ), #206, .T. ) ;
#496 = ORIENTED_EDGE ( 'NONE', *, *, #255, .T. ) ;
#497 = EDGE_CURVE ( 'NONE', #295, #234, #408, .T. ) ;
#498 = EDGE_CURVE ( 'NONE', #658, #61, #513, .T. ) ;
#499 = STYLED_ITEM ( 'NONE', ( #385 ), #730 ) ;
#500 = SURFACE_STYLE_USAGE ( .BOTH. , #92 ) ;
#501 = ORIENTED_EDGE ( 'NONE', *, *, #71, .T. ) ;
#502 = AXIS2_PLACEMENT_3D ( 'NONE', #267, #676, #319 ) ;
#503 = UNCERTAINTY_MEASURE_WITH_UNIT (LENGTH_MEASURE( 1.000000000000000100E-005 ), #718, 'distance_accuracy_value', 'NONE');
#504 = AXIS2_PLACEMENT_3D ( 'NONE', #15, #358, #415 ) ;
#505 = PRODUCT_DEFINITION ( 'UNKNOWN', '', #552, #403 ) ;
#506 = ORIENTED_EDGE ( 'NONE', *, *, #264, .F. ) ;
#507 = CARTESIAN_POINT ( 'NONE',  ( 0.0000000000000000000, -6.499999999999999100, 5.200000000000000200 ) ) ;
#508 = SURFACE_STYLE_FILL_AREA ( #413 ) ;
#509 = ADVANCED_BREP_SHAPE_REPRESENTATION ( '', ( #82, #248 ), #212 ) ;
#510 = SURFACE_STYLE_USAGE ( .BOTH. , #106 ) ;
#511 = DIRECTION ( 'NONE',  ( 0.0000000000000000000, 0.0000000000000000000, -1.000000000000000000 ) ) ;
#512 =( LENGTH_UNIT ( ) NAMED_UNIT ( * ) SI_UNIT ( .MILLI., .METRE. ) );
#513 = CIRCLE ( 'NONE', #502, 2.549999999999999800 ) ;
#514 = LINE ( 'NONE', #687, #359 ) ;
#515 = PRODUCT_DEFINITION_CONTEXT ( 'detailed design', #473, 'design' ) ;
#516 = CARTESIAN_POINT ( 'NONE',  ( 0.0000000000000000000, 0.0000000000000000000, 3.750000000000000000 ) ) ;
#517 = DIRECTION ( 'NONE',  ( 1.000000000000000000, 0.0000000000000000000, 0.0000000000000000000 ) ) ;
#518 = PRESENTATION_STYLE_ASSIGNMENT (( #430 ) ) ;
#519 =( NAMED_UNIT ( * ) SI_UNIT ( $, .STERADIAN. ) SOLID_ANGLE_UNIT ( ) );
#520 = FILL_AREA_STYLE ('',( #116 ) ) ;
#521 = ORIENTED_EDGE ( 'NONE', *, *, #224, .F. ) ;
#522 = EDGE_LOOP ( 'NONE', ( #684, #190, #7, #41, #681 ) ) ;
#523 = DIRECTION ( 'NONE',  ( 0.0000000000000000000, 0.0000000000000000000, -1.000000000000000000 ) ) ;
#524 = SURFACE_SIDE_STYLE ('',( #582 ) ) ;
#525 = STYLED_ITEM ( 'NONE', ( #434 ), #82 ) ;
#526 = PRESENTATION_LAYER_ASSIGNMENT (  '', '', ( #484 ) ) ;
#527 = DIRECTION ( 'NONE',  ( 0.0000000000000000000, -1.000000000000000000, 0.0000000000000000000 ) ) ;
#528 = DIRECTION ( 'NONE',  ( 1.000000000000000000, 0.0000000000000000000, 0.0000000000000000000 ) ) ;
#529 = PRESENTATION_STYLE_ASSIGNMENT (( #84 ) ) ;
#530 = APPLICATION_CONTEXT ( 'automotive_design' ) ;
#531 = DIRECTION ( 'NONE',  ( 0.0000000000000000000, -1.000000000000000000, 0.0000000000000000000 ) ) ;
#532 = VECTOR ( 'NONE', #208, 1000.000000000000000 ) ;
#533 = PRESENTATION_STYLE_ASSIGNMENT (( #357 ) ) ;
#534 =( REPRESENTATION_RELATIONSHIP ('NONE','NONE', #120, #422 ) REPRESENTATION_RELATIONSHIP_WITH_TRANSFORMATION ( #184 )SHAPE_REPRESENTATION_RELATIONSHIP( ) );
#535 = ORIENTED_EDGE ( 'NONE', *, *, #412, .T. ) ;
#536 = CARTESIAN_POINT ( 'NONE',  ( -2.549999999999999800, 0.0000000000000000000, -4.250000000000000000 ) ) ;
#537 = FACE_OUTER_BOUND ( 'NONE', #492, .T. ) ;
#538 = FILL_AREA_STYLE_COLOUR ( '', #79 ) ;
#539 = EDGE_CURVE ( 'NONE', #213, #61, #436, .T. ) ;
#540 = PRESENTATION_LAYER_ASSIGNMENT (  '', '', ( #499 ) ) ;
#541 = CIRCLE ( 'NONE', #33, 2.549999999999999800 ) ;
#542 = FILL_AREA_STYLE_COLOUR ( '', #320 ) ;
#543 = PLANE ( 'NONE',  #401 ) ;
#544 = SURFACE_STYLE_USAGE ( .BOTH. , #133 ) ;
#545 = ORIENTED_EDGE ( 'NONE', *, *, #375, .F. ) ;
#546 = PRODUCT_DEFINITION_SHAPE ( 'NONE', 'NONE',  #764 ) ;
#547 = DIRECTION ( 'NONE',  ( 1.000000000000000000, 0.0000000000000000000, 0.0000000000000000000 ) ) ;
#548 = COLOUR_RGB ( '',0.2509803921568627400, 0.2509803921568627400, 0.2509803921568627400 ) ;
#549 = AXIS2_PLACEMENT_3D ( 'NONE', #205, #614, #263 ) ;
#550 =( NAMED_UNIT ( * ) SI_UNIT ( $, .STERADIAN. ) SOLID_ANGLE_UNIT ( ) );
#551 = AXIS2_PLACEMENT_3D ( 'NONE', #721, #360, #18 ) ;
#552 = PRODUCT_DEFINITION_FORMATION_WITH_SPECIFIED_SOURCE ( 'ANY', '', #197, .NOT_KNOWN. ) ;
#553 = ADVANCED_FACE ( 'NONE', ( #568 ), #377, .T. ) ;
#554 = DIRECTION ( 'NONE',  ( 1.000000000000000000, 0.0000000000000000000, 0.0000000000000000000 ) ) ;
#555 = ADVANCED_FACE ( 'NONE', ( #299 ), #737, .F. ) ;
#556 = PRODUCT ( 'terminal', 'terminal', '', ( #710 ) ) ;
#557 =( NAMED_UNIT ( * ) PLANE_ANGLE_UNIT ( ) SI_UNIT ( $, .RADIAN. ) );
#558 = CARTESIAN_POINT ( 'NONE',  ( 0.0000000000000000000, 0.0000000000000000000, 3.750000000000000000 ) ) ;
#559 = ORIENTED_EDGE ( 'NONE', *, *, #716, .T. ) ;
#560 = CARTESIAN_POINT ( 'NONE',  ( 2.550500000000000400, 3.123461661225324900E-016, 3.500000000000000000 ) ) ;
#561 = CYLINDRICAL_SURFACE ( 'NONE', #471, 0.5500000000000001600 ) ;
#562 = ORIENTED_EDGE ( 'NONE', *, *, #539, .T. ) ;
#563 = FILL_AREA_STYLE_COLOUR ( '', #229 ) ;
#564 = PRESENTATION_LAYER_ASSIGNMENT (  '', '', ( #525 ) ) ;
#565 = SHAPE_REPRESENTATION ( 'terminal', ( #248 ), #645 ) ;
#566 = MECHANICAL_DESIGN_GEOMETRIC_PRESENTATION_REPRESENTATION (  '', ( #484 ), #608 ) ;
#567 = VERTEX_POINT ( 'NONE', #560 ) ;
#568 = FACE_OUTER_BOUND ( 'NONE', #355, .T. ) ;
#569 = UNCERTAINTY_MEASURE_WITH_UNIT (LENGTH_MEASURE( 1.000000000000000100E-005 ), #39, 'distance_accuracy_value', 'NONE');
#570 = DIRECTION ( 'NONE',  ( -0.0000000000000000000, -0.0000000000000000000, -1.000000000000000000 ) ) ;
#571 = DIRECTION ( 'NONE',  ( 0.0000000000000000000, -1.000000000000000000, 0.0000000000000000000 ) ) ;
#572 =( NAMED_UNIT ( * ) PLANE_ANGLE_UNIT ( ) SI_UNIT ( $, .RADIAN. ) );
#573 = DIRECTION ( 'NONE',  ( 1.000000000000000000, 0.0000000000000000000, 0.0000000000000000000 ) ) ;
#574 =( NAMED_UNIT ( * ) SI_UNIT ( $, .STERADIAN. ) SOLID_ANGLE_UNIT ( ) );
#575 = EDGE_CURVE ( 'NONE', #262, #336, #597, .T. ) ;
#576 = MECHANICAL_DESIGN_GEOMETRIC_PRESENTATION_REPRESENTATION (  '', ( #499 ), #618 ) ;
#577 = FILL_AREA_STYLE_COLOUR ( '', #745 ) ;
#578 = CARTESIAN_POINT ( 'NONE',  ( 0.0000000000000000000, 0.0000000000000000000, 0.0000000000000000000 ) ) ;
#579 = EDGE_LOOP ( 'NONE', ( #669, #501, #709, #506 ) ) ;
#580 = LINE ( 'NONE', #641, #270 ) ;
#581 = SURFACE_STYLE_USAGE ( .BOTH. , #174 ) ;
#582 = SURFACE_STYLE_FILL_AREA ( #118 ) ;
#583 = CARTESIAN_POINT ( 'NONE',  ( 0.0000000000000000000, 0.0000000000000000000, 3.750000000000000000 ) ) ;
#584 =( LENGTH_UNIT ( ) NAMED_UNIT ( * ) SI_UNIT ( .MILLI., .METRE. ) );
#585 = ORIENTED_EDGE ( 'NONE', *, *, #215, .F. ) ;
#586 = CARTESIAN_POINT ( 'NONE',  ( 0.0000000000000000000, -1.999999999999999600, 5.750000000000000000 ) ) ;
#587 = DIRECTION ( 'NONE',  ( -6.982962677686266700E-015, 0.0000000000000000000, -1.000000000000000000 ) ) ;
#588 = AXIS2_PLACEMENT_3D ( 'NONE', #731, #202, #374 ) ;
#589 = PRODUCT_CONTEXT ( 'NONE', #530, 'mechanical' ) ;
#590 = CARTESIAN_POINT ( 'NONE',  ( 0.0000000000000000000, -6.499999999999999100, 5.750000000000000000 ) ) ;
#591 = AXIS2_PLACEMENT_3D ( 'NONE', #380, #683, #209 ) ;
#592 = ORIENTED_EDGE ( 'NONE', *, *, #498, .F. ) ;
#593 = PRODUCT_RELATED_PRODUCT_CATEGORY ( 'part', '', ( #197 ) ) ;
#594 = ORIENTED_EDGE ( 'NONE', *, *, #300, .F. ) ;
#595 =( REPRESENTATION_RELATIONSHIP ('NONE','NONE', #120, #565 ) REPRESENTATION_RELATIONSHIP_WITH_TRANSFORMATION ( #315 )SHAPE_REPRESENTATION_RELATIONSHIP( ) );
#596 = CIRCLE ( 'NONE', #93, 2.549999999999999800 ) ;
#597 = LINE ( 'NONE', #155, #280 ) ;
#598 = DIRECTION ( 'NONE',  ( -1.000000000000000000, 0.0000000000000000000, 0.0000000000000000000 ) ) ;
#599 = UNCERTAINTY_MEASURE_WITH_UNIT (LENGTH_MEASURE( 1.000000000000000100E-005 ), #584, 'distance_accuracy_value', 'NONE');
#600 = DIRECTION ( 'NONE',  ( 1.000000000000000000, 0.0000000000000000000, 0.0000000000000000000 ) ) ;
#601 = CARTESIAN_POINT ( 'NONE',  ( 6.735557395310441300E-017, -1.999999999999999600, 6.299999999999999800 ) ) ;
#602 =( NAMED_UNIT ( * ) PLANE_ANGLE_UNIT ( ) SI_UNIT ( $, .RADIAN. ) );
#603 = CYLINDRICAL_SURFACE ( 'NONE', #302, 2.549999999999999800 ) ;
#604 = CIRCLE ( 'NONE', #272, 2.549999999999999800 ) ;
#605 = DIRECTION ( 'NONE',  ( 1.000000000000000000, 0.0000000000000000000, 0.0000000000000000000 ) ) ;
#606 = MECHANICAL_DESIGN_GEOMETRIC_PRESENTATION_REPRESENTATION (  '', ( #525 ), #643 ) ;
#607 = EDGE_LOOP ( 'NONE', ( #535, #559 ) ) ;
#608 =( GEOMETRIC_REPRESENTATION_CONTEXT ( 3 ) GLOBAL_UNCERTAINTY_ASSIGNED_CONTEXT ( ( #503 ) ) GLOBAL_UNIT_ASSIGNED_CONTEXT ( ( #718, #301, #657 ) ) REPRESENTATION_CONTEXT ( 'NONE', 'WORKASPACE' ) );
#609 = ORIENTED_EDGE ( 'NONE', *, *, #105, .T. ) ;
#610 = CARTESIAN_POINT ( 'NONE',  ( 0.0000000000000000000, 0.0000000000000000000, -4.250000000000000000 ) ) ;
#611 = PLANE ( 'NONE',  #549 ) ;
#612 = CONTEXT_DEPENDENT_SHAPE_REPRESENTATION ( #595, #546 ) ;
#613 = ADVANCED_FACE ( 'NONE', ( #127 ), #679, .T. ) ;
#614 = DIRECTION ( 'NONE',  ( 0.0000000000000000000, 0.0000000000000000000, 1.000000000000000000 ) ) ;
#615 = FILL_AREA_STYLE_COLOUR ( '', #144 ) ;
#616 = EDGE_CURVE ( 'NONE', #305, #196, #77, .T. ) ;
#617 = SURFACE_STYLE_FILL_AREA ( #479 ) ;
#618 =( GEOMETRIC_REPRESENTATION_CONTEXT ( 3 ) GLOBAL_UNCERTAINTY_ASSIGNED_CONTEXT ( ( #627 ) ) GLOBAL_UNIT_ASSIGNED_CONTEXT ( ( #169, #572, #223 ) ) REPRESENTATION_CONTEXT ( 'NONE', 'WORKASPACE' ) );
#619 = SURFACE_STYLE_FILL_AREA ( #435 ) ;
#620 = DIRECTION ( 'NONE',  ( -0.0000000000000000000, -0.0000000000000000000, -1.000000000000000000 ) ) ;
#621 = DIRECTION ( 'NONE',  ( 0.0000000000000000000, 0.0000000000000000000, 1.000000000000000000 ) ) ;
#622 = DIRECTION ( 'NONE',  ( 1.000000000000000000, 0.0000000000000000000, 0.0000000000000000000 ) ) ;
#623 = ORIENTED_EDGE ( 'NONE', *, *, #412, .F. ) ;
#624 = EDGE_LOOP ( 'NONE', ( #292, #269, #609, #112 ) ) ;
#625 = CARTESIAN_POINT ( 'NONE',  ( 0.0000000000000000000, 0.0000000000000000000, 1.500000000000000000 ) ) ;
#626 = STYLED_ITEM ( 'NONE', ( #160 ), #553 ) ;
#627 = UNCERTAINTY_MEASURE_WITH_UNIT (LENGTH_MEASURE( 1.000000000000000100E-005 ), #169, 'distance_accuracy_value', 'NONE');
#628 = SURFACE_STYLE_FILL_AREA ( #161 ) ;
#629 = STYLED_ITEM ( 'NONE', ( #191 ), #318 ) ;
#630 = PRODUCT_DEFINITION_FORMATION_WITH_SPECIFIED_SOURCE ( 'ANY', '', #556, .NOT_KNOWN. ) ;
#631 = DIRECTION ( 'NONE',  ( 1.000000000000000000, 0.0000000000000000000, 0.0000000000000000000 ) ) ;
#632 = DIRECTION ( 'NONE',  ( 0.0000000000000000000, 0.0000000000000000000, 1.000000000000000000 ) ) ;
#633 = CIRCLE ( 'NONE', #726, 0.5500000000000000400 ) ;
#634 = DIRECTION ( 'NONE',  ( -1.000000000000000000, 0.0000000000000000000, 0.0000000000000000000 ) ) ;
#635 = DIRECTION ( 'NONE',  ( 0.0000000000000000000, 0.0000000000000000000, 1.000000000000000000 ) ) ;
#636 = DIRECTION ( 'NONE',  ( -1.000000000000000000, 0.0000000000000000000, 0.0000000000000000000 ) ) ;
#637 =( NAMED_UNIT ( * ) PLANE_ANGLE_UNIT ( ) SI_UNIT ( $, .RADIAN. ) );
#638 = AXIS2_PLACEMENT_3D ( 'NONE', #482, #137, #547 ) ;
#639 = ORIENTED_EDGE ( 'NONE', *, *, #32, .T. ) ;
#640 = PRODUCT_DEFINITION_SHAPE ( 'NONE', 'NONE',  #428 ) ;
#641 = CARTESIAN_POINT ( 'NONE',  ( -2.550500000000000400, 0.0000000000000000000, 3.500000000000000000 ) ) ;
#642 =( NAMED_UNIT ( * ) SI_UNIT ( $, .STERADIAN. ) SOLID_ANGLE_UNIT ( ) );
#643 =( GEOMETRIC_REPRESENTATION_CONTEXT ( 3 ) GLOBAL_UNCERTAINTY_ASSIGNED_CONTEXT ( ( #275 ) ) GLOBAL_UNIT_ASSIGNED_CONTEXT ( ( #449, #695, #281 ) ) REPRESENTATION_CONTEXT ( 'NONE', 'WORKASPACE' ) );
#644 = ORIENTED_EDGE ( 'NONE', *, *, #661, .T. ) ;
#645 =( GEOMETRIC_REPRESENTATION_CONTEXT ( 3 ) GLOBAL_UNCERTAINTY_ASSIGNED_CONTEXT ( ( #108 ) ) GLOBAL_UNIT_ASSIGNED_CONTEXT ( ( #343, #12, #400 ) ) REPRESENTATION_CONTEXT ( 'NONE', 'WORKASPACE' ) );
#646 =( GEOMETRIC_REPRESENTATION_CONTEXT ( 3 ) GLOBAL_UNCERTAINTY_ASSIGNED_CONTEXT ( ( #244 ) ) GLOBAL_UNIT_ASSIGNED_CONTEXT ( ( #233, #637, #289 ) ) REPRESENTATION_CONTEXT ( 'NONE', 'WORKASPACE' ) );
#647 =( LENGTH_UNIT ( ) NAMED_UNIT ( * ) SI_UNIT ( .MILLI., .METRE. ) );
#648 = SHAPE_DEFINITION_REPRESENTATION ( #156, #120 ) ;
#649 = FACE_OUTER_BOUND ( 'NONE', #469, .T. ) ;
#650 = APPLICATION_PROTOCOL_DEFINITION ( 'draft international standard', 'automotive_design', 1998, #240 ) ;
#651 = DIRECTION ( 'NONE',  ( 1.000000000000000000, 0.0000000000000000000, 0.0000000000000000000 ) ) ;
#652 = EDGE_LOOP ( 'NONE', ( #285, #644, #639, #585, #345 ) ) ;
#653 =( REPRESENTATION_RELATIONSHIP ('NONE','NONE', #120, #565 ) REPRESENTATION_RELATIONSHIP_WITH_TRANSFORMATION ( #448 )SHAPE_REPRESENTATION_RELATIONSHIP( ) );
#654 = CYLINDRICAL_SURFACE ( 'NONE', #4, 0.5500000000000001600 ) ;
#655 = UNCERTAINTY_MEASURE_WITH_UNIT (LENGTH_MEASURE( 1.000000000000000100E-005 ), #171, 'distance_accuracy_value', 'NONE');
#656 = LINE ( 'NONE', #182, #188 ) ;
#657 =( NAMED_UNIT ( * ) SI_UNIT ( $, .STERADIAN. ) SOLID_ANGLE_UNIT ( ) );
#658 = VERTEX_POINT ( 'NONE', #214 ) ;
#659 = EDGE_LOOP ( 'NONE', ( #308, #23 ) ) ;
#660 = CARTESIAN_POINT ( 'NONE',  ( 0.0000000000000000000, -1.999999999999999600, 5.750000000000000000 ) ) ;
#661 = EDGE_CURVE ( 'NONE', #305, #437, #514, .T. ) ;
#662 = PRESENTATION_LAYER_ASSIGNMENT (  '', '', ( #698 ) ) ;
#663 = ORIENTED_EDGE ( 'NONE', *, *, #215, .T. ) ;
#664 = CARTESIAN_POINT ( 'NONE',  ( 0.0000000000000000000, 0.0000000000000000000, 3.750000000000000000 ) ) ;
#665 = ORIENTED_EDGE ( 'NONE', *, *, #498, .T. ) ;
#666 = PLANE ( 'NONE',  #236 ) ;
#667 = PRESENTATION_LAYER_ASSIGNMENT (  '', '', ( #626 ) ) ;
#668 = DIRECTION ( 'NONE',  ( 1.000000000000000000, 0.0000000000000000000, -0.0000000000000000000 ) ) ;
#669 = ORIENTED_EDGE ( 'NONE', *, *, #716, .F. ) ;
#670 = PRESENTATION_LAYER_ASSIGNMENT (  '', '', ( #629 ) ) ;
#671 = PRODUCT_RELATED_PRODUCT_CATEGORY ( 'part', '', ( #556 ) ) ;
#672 = EDGE_CURVE ( 'NONE', #213, #80, #541, .T. ) ;
#673 = DIRECTION ( 'NONE',  ( 0.0000000000000000000, 0.0000000000000000000, 1.000000000000000000 ) ) ;
#674 = ADVANCED_FACE ( 'NONE', ( #211 ), #603, .T. ) ;
#675 = CARTESIAN_POINT ( 'NONE',  ( -2.549999999999999800, 0.0000000000000000000, 4.250000000000000000 ) ) ;
#676 = DIRECTION ( 'NONE',  ( 0.0000000000000000000, 0.0000000000000000000, 1.000000000000000000 ) ) ;
#677 = PRESENTATION_STYLE_ASSIGNMENT (( #581 ) ) ;
#678 = CYLINDRICAL_SURFACE ( 'NONE', #685, 0.5500000000000000400 ) ;
#679 = CYLINDRICAL_SURFACE ( 'NONE', #757, 2.550500000000000400 ) ;
#680 = DIRECTION ( 'NONE',  ( 0.0000000000000000000, 0.0000000000000000000, 1.000000000000000000 ) ) ;
#681 = ORIENTED_EDGE ( 'NONE', *, *, #98, .F. ) ;
#682 = DIRECTION ( 'NONE',  ( 1.000000000000000000, 0.0000000000000000000, 0.0000000000000000000 ) ) ;
#683 = DIRECTION ( 'NONE',  ( -0.0000000000000000000, -0.0000000000000000000, -1.000000000000000000 ) ) ;
#684 = ORIENTED_EDGE ( 'NONE', *, *, #334, .F. ) ;
#685 = AXIS2_PLACEMENT_3D ( 'NONE', #664, #418, #19 ) ;
#686 = ORIENTED_EDGE ( 'NONE', *, *, #187, .T. ) ;
#687 = CARTESIAN_POINT ( 'NONE',  ( 0.5500000000000000400, 6.735557395310442500E-017, 3.750000000000000000 ) ) ;
#688 = AXIS2_PLACEMENT_3D ( 'NONE', #394, #754, #54 ) ;
#689 = STYLED_ITEM ( 'NONE', ( #421 ), #734 ) ;
#690 = DIRECTION ( 'NONE',  ( 1.000000000000000000, 0.0000000000000000000, 0.0000000000000000000 ) ) ;
#691 = ORIENTED_EDGE ( 'NONE', *, *, #107, .T. ) ;
#692 = DIRECTION ( 'NONE',  ( -0.0000000000000000000, -0.0000000000000000000, -1.000000000000000000 ) ) ;
#693 = CARTESIAN_POINT ( 'NONE',  ( 0.0000000000000000000, 0.0000000000000000000, 4.250000000000000000 ) ) ;
#694 = FACE_OUTER_BOUND ( 'NONE', #607, .T. ) ;
#695 =( NAMED_UNIT ( * ) PLANE_ANGLE_UNIT ( ) SI_UNIT ( $, .RADIAN. ) );
#696 = CARTESIAN_POINT ( 'NONE',  ( 0.0000000000000000000, 0.0000000000000000000, 4.250000000000000000 ) ) ;
#697 = CARTESIAN_POINT ( 'NONE',  ( 0.0000000000000000000, 0.0000000000000000000, 0.0000000000000000000 ) ) ;
#698 = STYLED_ITEM ( 'NONE', ( #489 ), #735 ) ;
#699 = CARTESIAN_POINT ( 'NONE',  ( 0.0000000000000000000, -1.999999999999999600, 5.200000000000000200 ) ) ;
#700 =( NAMED_UNIT ( * ) PLANE_ANGLE_UNIT ( ) SI_UNIT ( $, .RADIAN. ) );
#701 = ORIENTED_EDGE ( 'NONE', *, *, #70, .F. ) ;
#702 = FACE_OUTER_BOUND ( 'NONE', #624, .T. ) ;
#703 = DIRECTION ( 'NONE',  ( 0.0000000000000000000, 0.0000000000000000000, 1.000000000000000000 ) ) ;
#704 = MANIFOLD_SOLID_BREP ( 'Varredura1', #361 ) ;
#705 = SURFACE_STYLE_FILL_AREA ( #450 ) ;
#706 =( NAMED_UNIT ( * ) SI_UNIT ( $, .STERADIAN. ) SOLID_ANGLE_UNIT ( ) );
#707 = ORIENTED_EDGE ( 'NONE', *, *, #375, .T. ) ;
#708 = MECHANICAL_DESIGN_GEOMETRIC_PRESENTATION_REPRESENTATION (  '', ( #626 ), #748 ) ;
#709 = ORIENTED_EDGE ( 'NONE', *, *, #150, .T. ) ;
#710 = PRODUCT_CONTEXT ( 'NONE', #65, 'mechanical' ) ;
#711 = CARTESIAN_POINT ( 'NONE',  ( 0.0000000000000000000, -1.999999999999999600, 5.750000000000000000 ) ) ;
#712 = UNCERTAINTY_MEASURE_WITH_UNIT (LENGTH_MEASURE( 1.000000000000000100E-005 ), #153, 'distance_accuracy_value', 'NONE');
#713 = MECHANICAL_DESIGN_GEOMETRIC_PRESENTATION_REPRESENTATION (  '', ( #629 ), #750 ) ;
#714 = PRODUCT_DEFINITION_FORMATION_WITH_SPECIFIED_SOURCE ( 'ANY', '', #136, .NOT_KNOWN. ) ;
#715 = EDGE_CURVE ( 'NONE', #128, #317, #100, .T. ) ;
#716 = EDGE_CURVE ( 'NONE', #567, #397, #256, .T. ) ;
#717 = AXIS2_PLACEMENT_3D ( 'NONE', #744, #383, #43 ) ;
#718 =( LENGTH_UNIT ( ) NAMED_UNIT ( * ) SI_UNIT ( .MILLI., .METRE. ) );
#719 = DIRECTION ( 'NONE',  ( -0.0000000000000000000, -0.0000000000000000000, -1.000000000000000000 ) ) ;
#720 = CARTESIAN_POINT ( 'NONE',  ( 0.0000000000000000000, 0.0000000000000000000, 0.0000000000000000000 ) ) ;
#721 = CARTESIAN_POINT ( 'NONE',  ( 0.0000000000000000000, 0.0000000000000000000, 3.500000000000000000 ) ) ;
#722 = ORIENTED_EDGE ( 'NONE', *, *, #107, .F. ) ;
#723 = LINE ( 'NONE', #342, #398 ) ;
#724 = DIRECTION ( 'NONE',  ( 0.0000000000000000000, 0.0000000000000000000, 1.000000000000000000 ) ) ;
#725 = AXIS2_PLACEMENT_3D ( 'NONE', #312, #728, #366 ) ;
#726 = AXIS2_PLACEMENT_3D ( 'NONE', #284, #346, #339 ) ;
#727 = PRESENTATION_LAYER_ASSIGNMENT (  '', '', ( #689 ) ) ;
#728 = DIRECTION ( 'NONE',  ( 0.0000000000000000000, 0.0000000000000000000, 1.000000000000000000 ) ) ;
#729 = VECTOR ( 'NONE', #571, 1000.000000000000000 ) ;
#730 = ADVANCED_FACE ( 'NONE', ( #402 ), #185, .T. ) ;
#731 = CARTESIAN_POINT ( 'NONE',  ( 0.0000000000000000000, -2.000000000000000400, 3.750000000000000000 ) ) ;
#732 = CYLINDRICAL_SURFACE ( 'NONE', #172, 2.549999999999999800 ) ;
#733 = DIRECTION ( 'NONE',  ( 0.0000000000000000000, -1.000000000000000000, 0.0000000000000000000 ) ) ;
#734 = ADVANCED_BREP_SHAPE_REPRESENTATION ( '', ( #704, #248 ), #645 ) ;
#735 = ADVANCED_FACE ( 'NONE', ( #649 ), #732, .T. ) ;
#736 = COLOUR_RGB ( '',0.7529411764705882200, 0.7529411764705882200, 0.7529411764705882200 ) ;
#737 = PLANE ( 'NONE',  #183 ) ;
#738 = AXIS2_PLACEMENT_3D ( 'NONE', #693, #570, #282 ) ;
#739 = EDGE_LOOP ( 'NONE', ( #391, #331, #701, #440 ) ) ;
#740 = FILL_AREA_STYLE_COLOUR ( '', #149 ) ;
#741 = FACE_OUTER_BOUND ( 'NONE', #522, .T. ) ;
#742 = SURFACE_SIDE_STYLE ('',( #432 ) ) ;
#743 = COLOUR_RGB ( '',0.7921568627450980000, 0.8196078431372548800, 0.9333333333333333500 ) ;
#744 = CARTESIAN_POINT ( 'NONE',  ( 0.0000000000000000000, 0.0000000000000000000, 3.750000000000000000 ) ) ;
#745 = COLOUR_RGB ( '',0.2509803921568627400, 0.2509803921568627400, 0.2509803921568627400 ) ;
#746 = SURFACE_SIDE_STYLE ('',( #378 ) ) ;
#747 = ORIENTED_EDGE ( 'NONE', *, *, #539, .F. ) ;
#748 =( GEOMETRIC_REPRESENTATION_CONTEXT ( 3 ) GLOBAL_UNCERTAINTY_ASSIGNED_CONTEXT ( ( #712 ) ) GLOBAL_UNIT_ASSIGNED_CONTEXT ( ( #153, #557, #210 ) ) REPRESENTATION_CONTEXT ( 'NONE', 'WORKASPACE' ) );
#749 = SURFACE_STYLE_USAGE ( .BOTH. , #329 ) ;
#750 =( GEOMETRIC_REPRESENTATION_CONTEXT ( 3 ) GLOBAL_UNCERTAINTY_ASSIGNED_CONTEXT ( ( #87 ) ) GLOBAL_UNIT_ASSIGNED_CONTEXT ( ( #193, #602, #249 ) ) REPRESENTATION_CONTEXT ( 'NONE', 'WORKASPACE' ) );
#751 = PRODUCT_RELATED_PRODUCT_CATEGORY ( 'part', '', ( #136 ) ) ;
#752 = EDGE_CURVE ( 'NONE', #61, #658, #126, .T. ) ;
#753 = CONTEXT_DEPENDENT_SHAPE_REPRESENTATION ( #653, #310 ) ;
#754 = DIRECTION ( 'NONE',  ( 0.0000000000000000000, -1.000000000000000000, 2.832769448823989800E-016 ) ) ;
#755 = CARTESIAN_POINT ( 'NONE',  ( 0.0000000000000000000, 0.0000000000000000000, 3.500000000000000000 ) ) ;
#756 = EDGE_CURVE ( 'NONE', #336, #483, #596, .T. ) ;
#757 = AXIS2_PLACEMENT_3D ( 'NONE', #271, #38, #159 ) ;
#758 = PRESENTATION_STYLE_ASSIGNMENT (( #382 ) ) ;
#759 = DIRECTION ( 'NONE',  ( -0.0000000000000000000, -0.0000000000000000000, -1.000000000000000000 ) ) ;
#760 = CIRCLE ( 'NONE', #442, 0.5500000000000000400 ) ;
#761 = CARTESIAN_POINT ( 'NONE',  ( 0.0000000000000000000, 0.0000000000000000000, 4.250000000000000000 ) ) ;
#762 = STYLED_ITEM ( 'NONE', ( #529 ), #429 ) ;
#763 = NEXT_ASSEMBLY_USAGE_OCCURRENCE ( 'NAUO1', ' ', ' ', #505, #428, $ ) ;
#764 = NEXT_ASSEMBLY_USAGE_OCCURRENCE ( 'NAUO2', ' ', ' ', #505, #388, $ ) ;
#765 = NEXT_ASSEMBLY_USAGE_OCCURRENCE ( 'NAUO3', ' ', ' ', #505, #388, $ ) ;
ENDSEC;
END-ISO-10303-21;
